<?xml version="1.0" encoding="UTF-8"?>
<svg width="500px" height="50px" viewBox="0 0 500 50" version="1.1" xmlns="http://www.w3.org/2000/svg" xmlns:xlink="http://www.w3.org/1999/xlink">
    <!-- Generator: Sketch 41.2 (35397) - http://www.bohemiancoding.com/sketch -->
    <title>150-mobile</title>
    <desc>Created with Sketch.</desc>
    <defs>
        <polygon id="path-1" points="0 0.339386255 0 12.1061145 10.3550404 12.1061145 10.3550404 0.339386255 2.5329525e-20 0.339386255"></polygon>
        <polygon id="path-3" points="0.376134048 10.2688731 18.1390061 10.2688731 18.1390061 0.287668476 0.376134048 0.287668476"></polygon>
    </defs>
    <g id="Page-1" stroke="none" stroke-width="1" fill="none" fill-rule="evenodd">
        <g id="150-mobile">
            <rect id="Rectangle-Copy-4" fill="#00693E" transform="translate(250.000000, 26.000000) scale(1, -1) translate(-250.000000, -26.000000) " x="0" y="0" width="500" height="52"></rect>
            <g id="Group" transform="translate(17.000000, 0.000000)">
                <polygon id="Rectangle" fill="#FFFFFF" points="0 0 65 0 64.9756372 53 0.0437195786 53"></polygon>
                <rect id="Rectangle-Copy" fill="#80B63A" x="3.046875" y="0" width="59.1093758" height="34.5519246"></rect>
                <g id="Page-1-Copy" transform="translate(2.843750, 5.096154)">
                    <path d="M59.2828378,29.4543954 L0.31436396,29.4543954 C0.31436396,13.1871001 13.5140992,0 29.7981336,0 C46.082168,0 59.2828378,13.1871001 59.2828378,29.4543954" id="Fill-1" fill="#FEFEFE"></path>
                    <path d="M59.2828378,29.4534618 C59.2828378,24.6121549 58.1133179,20.0429732 56.0410762,16.0138408 C56.3592716,17.3711991 56.5218737,18.8228443 56.5218737,20.3220998 C56.5218737,23.8265861 55.6373746,27.0757509 53.9384635,29.4534618 L59.2828378,29.4534618 Z" id="Fill-3" fill="#00693E"></path>
                    <path d="M46.4211092,7.88322715 C44.2512129,7.88322715 42.4929614,10.6301507 42.4929614,20.3220998 C42.4929614,24.5986187 42.8354537,27.5201131 43.4045609,29.4534618 L49.4381248,29.4534618 C50.0062975,27.5201131 50.349257,24.5986187 50.349257,20.3220998 C50.349257,10.6301507 48.5914727,7.88322715 46.4211092,7.88322715" id="Fill-5" fill="#00693E"></path>
                    <path d="M9.42213454,10.676314 L6.27195348,11.6985336 C2.53304087,16.6359945 0.314083611,22.7856491 0.314083611,29.4534151 L9.42213454,29.4534151 L9.42213454,10.676314 Z" id="Fill-7" fill="#00693E"></path>
                    <path d="M14.7728166,8.36114984 L15.0340078,8.36114984 L15.0340078,29.4534151 L17.4693006,29.4534151 C17.436126,29.2363685 17.4174361,29.015121 17.4174361,28.7896725 C17.4174361,27.2591437 18.4271575,25.9246569 20.1106493,25.9246569 C21.7946085,25.9246569 22.8043298,27.4164441 22.8043298,28.7896725 C22.8043298,29.0109201 22.7753605,29.2340347 22.7244305,29.4534151 L28.158049,29.4534151 C28.4388646,28.526416 28.6033356,27.3917055 28.6033356,26.0035406 C28.6033356,20.0391924 25.6858437,18.5086635 23.1416824,18.5086635 C20.5227614,18.5086635 18.8392695,19.5290161 18.8392695,19.5290161 L18.8392695,8.11049599 L32.3072047,8.11049599 L32.8683687,5.08911347 L33.2052539,5.08911347 L32.7183823,12.6624074 L19.4751931,12.7016158 L19.4751931,18.6262888 C20.2980155,18.3126214 21.8693681,17.880862 24.263543,17.880862 C30.586333,17.880862 34.7761392,20.4709518 34.7761392,26.0035406 C34.7761392,27.3408279 34.5355069,28.4839402 34.0874168,29.4534151 L38.9042688,29.4534151 C37.2044233,27.0757043 36.3199242,23.8265395 36.3199242,20.3220531 C36.3199242,13.298144 39.8742742,7.29505411 46.4213428,7.29505411 C47.7244954,7.29505411 48.9070983,7.53590586 49.9677496,7.9718662 C44.6934624,3.02880411 37.600649,-4.66766958e-05 29.7980869,-4.66766958e-05 C20.5293029,-4.66766958e-05 12.2618298,4.27320482 6.85624619,10.9535735 L14.7728166,8.36114984 Z" id="Fill-9" fill="#00693E"></path>
                    <g id="Group-13" transform="translate(0.000000, 32.205879)">
                        <mask id="mask-2" fill="white">
                            <use xlink:href="#path-1"></use>
                        </mask>
                        <g id="Clip-12"></g>
                        <path d="M10.1756175,0.444875588 C10.1260893,0.444875588 10.0550677,0.45981213 9.92517295,0.486884614 C9.87657923,0.49668672 9.82004231,0.508822661 9.74621725,0.52282567 C9.52567654,0.552231988 9.19299648,0.596574849 8.72154399,0.596574849 L2.72349086,0.596574849 C2.24830039,0.596574849 1.67031552,0.567635298 1.21381494,0.520958602 C0.990470752,0.503221457 0.848894831,0.441141452 0.745633185,0.395865057 C0.673677106,0.364591671 0.61667294,0.339386255 0.557799785,0.339386255 C0.409682402,0.339386255 0.35875245,0.503221457 0.319036432,0.670790795 C0.295206822,0.76974539 -9.34494532e-05,2.1709798 -9.34494532e-05,2.42490102 C-9.34494532e-05,2.52245532 -9.34494532e-05,2.72456541 0.19474866,2.72456541 C0.341464301,2.72456541 0.390992511,2.6046063 0.418092852,2.49958374 C0.437717238,2.41836629 0.49705764,2.24379544 0.667135645,1.98847392 C0.867117474,1.69534427 1.17269719,1.60665855 2.08943632,1.57538516 L4.28549846,1.51610576 L4.28549846,7.66015922 C4.28549846,9.04645709 4.28549846,10.2441811 4.21027165,10.8766503 C4.16635041,11.3070095 4.0822459,11.6048068 3.81684946,11.6580182 C3.69910315,11.6836904 3.51594222,11.7172976 3.28372033,11.7172976 C3.20942801,11.7172976 2.98328034,11.7172976 2.98328034,11.8960694 C2.98328034,12.0356327 3.10523187,12.1061145 3.34446247,12.1061145 C3.6897582,12.1061145 4.1425208,12.0916447 4.54201721,12.0785752 C4.8433917,12.0692399 5.10411567,12.0608381 5.25316755,12.0608381 C5.41950757,12.0608381 5.67509183,12.0678396 5.9703921,12.0762414 C6.4399756,12.0897777 7.02403468,12.1061145 7.63052163,12.1061145 C7.9435773,12.1061145 7.9772191,11.9590829 7.9772191,11.8960694 C7.9772191,11.8293217 7.93843758,11.7172976 7.67631186,11.7172976 C7.44969694,11.7172976 7.12075487,11.6860242 6.91142809,11.6570847 C6.51987488,11.6048068 6.41941672,11.3476182 6.37082301,10.8906533 C6.2955962,10.2441811 6.2955962,9.04645709 6.2955962,7.66015922 L6.2955962,1.51610576 L8.14449362,1.55998185 C9.5995016,1.5931223 9.85321687,2.07155844 9.87471024,2.35441921 L9.88966216,2.51918795 C9.90321233,2.72176481 9.92844368,2.87673144 10.1148753,2.87673144 C10.2802809,2.87673144 10.2999053,2.67788871 10.3097174,2.57660028 C10.3097174,2.37028929 10.3218659,1.98707362 10.3340143,1.61599389 C10.344761,1.28505611 10.3550404,0.97232225 10.3550404,0.821089756 C10.3550404,0.63625004 10.3550404,0.444875588 10.1756175,0.444875588" id="Fill-11" fill="#0F223D" mask="url(#mask-2)"></path>
                    </g>
                    <path d="M25.5505289,40.2425794 C25.5505289,40.2425794 25.5505289,40.2369782 25.5589394,40.2206414 L26.8466728,37.0097515 L26.854616,36.9854796 C26.8560178,36.9808119 26.858354,36.974744 26.860223,36.9677425 C26.8616247,36.9714766 26.8625592,36.974744 26.8634937,36.9775446 L28.1283321,40.2318438 L28.1245941,40.2318438 L25.5505289,40.2425794 Z M32.6382027,43.9235037 C32.4984957,43.9235037 32.3564526,43.9104342 32.1499293,43.8786941 C31.8957468,43.8306171 31.5420406,43.6345749 31.0551689,42.5358055 C30.6626812,41.6326114 29.9753605,40.0325343 29.3179436,38.5038725 C28.5549288,36.7278243 27.8339663,35.0502638 27.6624865,34.6665814 C27.5269848,34.3813868 27.4526925,34.2240863 27.2162654,34.2240863 C27.034039,34.2240863 26.9139564,34.4261964 26.7686425,34.7739378 L23.2848469,42.8088642 C22.9942191,43.5029466 22.7718094,43.8264162 22.2330733,43.9076336 C22.1713967,43.9076336 22.1017768,43.9113677 22.0326242,43.9155686 C22.0167378,43.9165022 22.0027204,43.9165022 21.9873013,43.9174357 C21.8321752,43.910901 21.6663024,43.8982983 21.5438836,43.8782273 C21.1915792,43.8259494 21.1107454,43.6462441 21.0635534,43.263962 C21.0028113,42.7066422 21.0028113,41.6918909 21.0028113,40.5165717 L21.0028113,38.2476175 C21.0028113,36.2871962 21.0028113,35.9343204 21.0336496,35.5272996 C21.0630862,35.082004 21.1607409,34.9382397 21.4705258,34.8850283 C21.639202,34.8542217 21.7536776,34.8406854 21.8532013,34.8406854 C22.124672,34.8406854 22.1541085,34.7043895 22.1541085,34.6460436 C22.1541085,34.4663383 21.9200177,34.4663383 21.8078783,34.4663383 C21.5191195,34.4663383 21.1168196,34.4756737 20.7621789,34.4845423 C20.4846341,34.491077 20.2360585,34.4966782 20.0963516,34.4966782 C19.9533739,34.4966782 19.7099381,34.4915438 19.4239828,34.4854758 C19.0198139,34.4766072 18.5165886,34.4663383 18.0970005,34.4663383 C17.9848612,34.4663383 17.7512376,34.4663383 17.7512376,34.6460436 C17.7512376,34.7188593 17.7886173,34.8406854 18.0367256,34.8406854 C18.2054019,34.8406854 18.4334186,34.8542217 18.536213,34.883628 C18.9408491,34.9989194 19.0403728,35.1193453 19.0688748,35.5258993 C19.086163,35.9842645 19.0987787,36.4837051 19.0987787,38.35264 L19.0987787,38.6247652 C19.0987787,38.6574389 19.089901,38.6574389 19.0819578,38.6574389 L14.0529755,38.6574389 C14.0254079,38.6574389 14.0212026,38.655105 14.0212026,38.6247652 L14.0212026,38.35264 C14.0212026,36.3987535 14.0212026,35.9343204 14.0506392,35.5272996 C14.080543,35.082004 14.1814685,34.9382397 14.5038691,34.8845615 C14.6529209,34.8546885 14.7697328,34.8406854 14.8715927,34.8406854 C15.119701,34.8406854 15.1720327,34.7347293 15.1720327,34.6460436 C15.1720327,34.4663383 14.940278,34.4663383 14.8416888,34.4663383 C14.5417161,34.4663383 14.1197918,34.4761404 13.7473957,34.4845423 C13.4614404,34.491077 13.2072579,34.4966782 13.0684855,34.4966782 C12.9175646,34.4966782 12.6778668,34.4915438 12.3975184,34.4854758 C12.0111049,34.4766072 11.531242,34.4663383 11.1149247,34.4663383 C11.0200735,34.4663383 10.7682272,34.4663383 10.7682272,34.6460436 C10.7682272,34.7678698 10.8752268,34.8406854 11.055117,34.8406854 C11.2733215,34.8406854 11.4798448,34.8579558 11.5695562,34.883628 C11.9741924,34.9993862 12.073716,35.1193453 12.1017509,35.5258993 C12.11717,35.9333869 12.11717,36.2862627 12.11717,38.2476175 L12.11717,40.5165717 C12.11717,41.6918909 12.11717,42.7066422 12.0568951,43.2485587 C12.0129739,43.6168378 11.9442886,43.8268829 11.7064597,43.8796276 C11.5873116,43.9090339 11.4382598,43.9235037 11.2518281,43.9235037 C10.9939076,43.9235037 10.9808247,44.0845383 10.9808247,44.1167452 C10.9808247,44.1900276 11.0219425,44.3118538 11.2971511,44.3118538 C11.5999273,44.3118538 12.0111049,44.297384 12.3736888,44.2847813 C12.6446922,44.2749792 12.8787831,44.2665774 13.0077433,44.2665774 C13.1581969,44.2665774 13.4006983,44.2740457 13.6810466,44.2824475 C14.1146521,44.2955169 14.6538554,44.3118538 15.1743689,44.3118538 C15.4734071,44.3118538 15.50518,44.1755578 15.50518,44.1167452 C15.50518,44.0238586 15.4206082,43.9235037 15.2341765,43.9235037 C15.0402689,43.9235037 14.7388944,43.9076336 14.5618077,43.8782273 C14.2225862,43.8264162 14.1440887,43.6462441 14.0968967,43.263962 C14.0296131,42.645029 14.0212026,41.4869802 14.0212026,40.5464447 L14.0226044,39.5522311 C14.0240061,39.5508308 14.0319493,39.5461631 14.0529755,39.5461631 L19.080556,39.5461631 C19.0866302,39.5470967 19.0987787,39.5554985 19.0987787,39.5629668 L19.0987787,40.5464447 C19.0987787,41.7058939 19.0987787,42.7066422 19.0385038,43.2485587 C18.9945825,43.6168378 18.9263644,43.8268829 18.6890028,43.8796276 C18.5679858,43.9095007 18.4184667,43.9235037 18.2184848,43.9235037 C18.0325204,43.9235037 17.9474814,44.0238586 17.9474814,44.1167452 C17.9474814,44.1900276 17.9923371,44.3118538 18.2941789,44.3118538 C18.5862084,44.3118538 19.0104689,44.2978508 19.3852012,44.2847813 C19.6720911,44.2749792 19.9206666,44.2665774 20.0514958,44.2665774 C20.193539,44.2665774 20.4215557,44.2740457 20.6855504,44.2819807 C21.0303789,44.2927163 21.4448272,44.3053191 21.8709567,44.3099867 C21.8919828,44.3109203 21.9139434,44.3118538 21.9302971,44.3118538 C21.9620699,44.3118538 21.9929082,44.311387 22.0242138,44.3109203 C22.0686023,44.311387 22.1125235,44.3118538 22.156912,44.3118538 C22.1653225,44.3118538 22.1685932,44.30952 22.1765364,44.30952 C22.5769673,44.3039187 22.9610446,44.2875819 23.2072839,44.2768463 C23.3385804,44.2707783 23.4334315,44.2665774 23.4750166,44.2665774 C23.6838761,44.2665774 23.9474035,44.2782466 24.2020533,44.2889822 C24.4646463,44.3001846 24.7361169,44.3118538 24.9589939,44.3118538 C25.0332862,44.3118538 25.22953,44.3118538 25.22953,44.1167452 C25.22953,43.9865172 25.1458928,43.9235037 24.974413,43.9235037 L24.7777019,43.9235037 C24.3422275,43.9235037 24.3053149,43.7657364 24.3053149,43.6182381 C24.3053149,43.4917442 24.3567121,43.1836781 24.4978208,42.8536738 L25.2099056,41.1130998 C25.2318663,41.0594216 25.2318663,41.0594216 25.2771893,41.0594216 L28.4119512,41.0594216 C28.4586759,41.0594216 28.4764313,41.0668899 28.4946539,41.1126331 L29.5244669,43.7153256 C29.5464275,43.7694706 29.5450258,43.8231488 29.5211962,43.8660913 C29.5034408,43.8973647 29.4754059,43.9193028 29.4515763,43.9235037 C29.3497164,43.9347061 29.2329046,43.9664462 29.2329046,44.1167452 C29.2329046,44.2549082 29.3945721,44.2647103 29.6183836,44.2782466 L29.683331,44.2819807 C30.8042571,44.3118538 31.7765987,44.3118538 32.243846,44.3118538 C32.7045518,44.3118538 32.8783678,44.2950502 32.8783678,44.1167452 C32.8783678,44.0588661 32.8550054,43.9235037 32.6382027,43.9235037 L32.6382027,43.9235037 Z" id="Fill-14" fill="#0F223D"></path>
                    <g id="Group-18" transform="translate(30.371072, 34.072947)">
                        <mask id="mask-4" fill="white">
                            <use xlink:href="#path-3"></use>
                        </mask>
                        <g id="Clip-17"></g>
                        <path d="M17.9600504,8.09481262 C17.8161382,8.09481262 17.7787584,8.20963729 17.7502563,8.33986527 C17.6600776,8.86451133 17.513362,9.11143105 17.209184,9.24959407 C16.8363207,9.4115622 16.1882487,9.4115622 15.975184,9.4115622 C14.6019443,9.4115622 14.2599193,9.21178595 14.2318844,8.3930767 C14.2211377,8.1274863 14.2258102,7.50902008 14.2295482,7.01191327 C14.2309499,6.80466874 14.2318844,6.61889549 14.2318844,6.48960105 L14.2318844,5.45991314 C14.2318844,5.394099 14.2449674,5.38196306 14.2491726,5.38196306 C14.5860579,5.38196306 16.0919958,5.41230291 16.3330954,5.44217599 C16.8363207,5.48838592 16.9629447,5.68956248 17.0232196,5.89447318 C17.0419095,5.99669514 17.0489182,6.09845034 17.0554597,6.19693816 C17.0591976,6.2543505 17.0629356,6.30896223 17.0685426,6.35283833 C17.0685426,6.45552706 17.1353589,6.5171403 17.2474983,6.5171403 C17.3362753,6.5171403 17.4428076,6.45739413 17.4428076,6.17126598 C17.4428076,6.07837936 17.4722442,5.56913661 17.5026153,5.31474861 C17.5297156,5.08089837 17.5507418,4.90399369 17.5670954,4.76909804 C17.596532,4.52404539 17.6086804,4.42229019 17.6086804,4.37047906 C17.6086804,4.26172236 17.5367243,4.176304 17.4442094,4.176304 C17.3801965,4.176304 17.3353408,4.22064686 17.2792711,4.27712567 C17.2554415,4.30046401 17.2283411,4.32800326 17.1932976,4.35787635 C17.0774203,4.46009831 16.9194907,4.50770854 16.5900814,4.5394487 C16.3999117,4.55858614 15.551858,4.56932178 14.2636573,4.56932178 C14.2477708,4.56932178 14.2318844,4.56932178 14.2318844,4.49230523 L14.2318844,1.31408902 C14.2318844,1.25154224 14.2524433,1.25154224 14.2636573,1.25154224 C14.5383986,1.25154224 16.1223669,1.28234886 16.3485145,1.31222195 C17.0040625,1.37150135 17.0853635,1.54560543 17.1802147,1.74958259 C17.2474983,1.88261117 17.2652537,2.09032247 17.2652537,2.19207766 C17.2652537,2.26489331 17.2652537,2.41659257 17.4292575,2.41659257 C17.5750386,2.41659257 17.6166236,2.2452891 17.6376497,2.15847044 C17.6582086,2.05624848 17.677833,1.78459011 17.6937194,1.56660994 C17.7016626,1.45225204 17.7086713,1.35329744 17.7147455,1.30241984 C17.7357717,0.900066725 17.7768894,0.707758738 17.8016535,0.5924673 C17.813802,0.537855566 17.8212779,0.501447743 17.8212779,0.467373755 C17.8212779,0.305405621 17.7166145,0.287668476 17.6717588,0.287668476 C17.6269031,0.287668476 17.5811128,0.304938854 17.5371916,0.321275697 C17.507755,0.332011337 17.4783184,0.343680511 17.4507508,0.348814948 C17.424585,0.35301585 17.3909432,0.358617054 17.3521617,0.365151791 C17.2353499,0.38522277 17.0746168,0.412762021 16.8956611,0.423964428 C16.6994172,0.435633602 14.8827599,0.429098865 13.9052786,0.425831496 C13.5987644,0.424897962 13.3628045,0.423964428 13.2642154,0.423964428 C13.1034823,0.423964428 12.7203395,0.418363224 12.2797254,0.412295254 C11.6676314,0.402959915 10.9747038,0.393157809 10.5728711,0.393157809 L10.5686659,0.393157809 L10.5672641,0.393157809 C10.4415746,0.393157809 10.1691695,0.40062608 9.88928836,0.408094351 C9.59492258,0.415562623 9.29027736,0.423964428 9.14356172,0.423964428 C8.95339209,0.423964428 8.74733604,0.416962924 8.52959882,0.409027885 C8.30251665,0.401559614 8.06795852,0.393157809 7.84087635,0.393157809 C7.76284606,0.393157809 7.55492102,0.393157809 7.55492102,0.572863088 C7.55492102,0.713826709 7.69229172,0.745566862 7.80256207,0.771239045 L7.84508158,0.781507918 C8.06048256,0.824450478 8.08571392,0.933673946 8.08571392,1.01162403 C8.08571392,1.17825983 8.02123379,1.39857384 7.89460979,1.66649807 C7.76938752,1.91715193 7.04795774,3.15595143 6.52183732,4.06101256 C6.2695238,4.49370553 6.06113152,4.85171579 5.9611406,5.0267534 C5.78265215,4.73082315 5.31727387,3.93218488 4.86544577,3.15688497 C4.37904137,2.32323918 3.91927006,1.53533656 3.80245824,1.3453624 C3.67069451,1.12038073 3.64312692,0.998554553 3.64312692,0.936007781 C3.64312692,0.911269132 3.64312692,0.835186118 3.78283386,0.795510927 C3.82068088,0.784775287 3.85478993,0.775906714 3.88469376,0.767971676 C4.02626968,0.731563853 4.12766234,0.704958137 4.12766234,0.572863088 C4.12766234,0.490712103 4.08374109,0.393157809 3.87301258,0.393157809 C3.51369943,0.393157809 3.14691033,0.403893449 2.85161006,0.412762021 C2.64789025,0.418829991 2.47500876,0.423964428 2.35819695,0.423964428 C2.10307994,0.423964428 1.65078459,0.413228788 1.28633172,0.404826983 C1.01813179,0.398759012 0.787778888,0.393157809 0.692460446,0.393157809 C0.605552455,0.393157809 0.376134048,0.393157809 0.376134048,0.572863088 C0.376134048,0.689554827 0.478928446,0.767971676 0.631718302,0.767971676 C0.775630459,0.767971676 0.989629707,0.831451982 1.16484743,0.927139209 C1.39940556,1.05083245 1.65919504,1.32575819 2.0077615,1.81679703 C2.4764105,2.49687649 4.29493686,5.33061869 4.38091035,5.51545841 C4.57061274,5.91034325 4.67807961,6.16659831 4.67807961,6.83687566 L4.67807961,7.89643666 C4.67807961,8.09807998 4.67807961,8.63439522 4.63228938,9.17771196 C4.60098382,9.5683959 4.49258245,9.75650299 4.26783652,9.80644705 C4.15336094,9.83491984 3.99122614,9.85032315 3.81227043,9.85032315 C3.62630602,9.85032315 3.54220151,9.95067804 3.54220151,10.0440314 C3.54220151,10.23914 3.78470284,10.23914 3.88843174,10.23914 C4.16410762,10.23914 4.56220229,10.225137 4.91403948,10.2130011 C5.19812582,10.203199 5.4658585,10.1938636 5.61444313,10.1938636 C5.75835529,10.1938636 5.99151168,10.2008651 6.26111335,10.2092669 C6.68023414,10.2228032 7.20214934,10.23914 7.70444015,10.23914 C8.00581463,10.23914 8.05113762,10.1168471 8.05113762,10.0440314 C8.05113762,9.95021127 7.9511467,9.85032315 7.76564954,9.85032315 C7.58575934,9.85032315 7.30167301,9.83491984 7.1068309,9.80551352 C6.78349579,9.75556945 6.64472335,9.57959831 6.61248329,9.17911226 C6.58164497,8.63532875 6.58164497,8.09854675 6.58164497,7.89643666 L6.58071048,6.71691656 C6.57790699,6.35143803 6.57510351,6.00556371 6.74377977,5.6046109 C6.97973964,5.0734301 8.87209106,2.03291013 9.32438642,1.5021961 C9.61875219,1.14838675 9.72948979,1.04196388 10.0009605,0.9131362 C10.1803834,0.830985215 10.4144743,0.76890521 10.5485742,0.767971676 C10.8709749,0.769838744 11.6942645,0.786175587 11.7788363,0.810914236 C12.1839397,0.925738908 12.2834633,1.04616478 12.3124327,1.4527188 C12.3273846,1.86020636 12.3273846,2.21354895 12.3273846,4.17443694 L12.3273846,6.44385789 C12.3273846,7.61871032 12.3273846,8.63392845 12.2671097,9.17537812 C12.2236557,9.54412402 12.1549703,9.75370238 11.9171415,9.80644705 C11.7979934,9.83585337 11.6484743,9.85032315 11.4615754,9.85032315 C11.2045894,9.85032315 11.1915065,10.0113577 11.1915065,10.0440314 C11.1915065,10.1168471 11.2326242,10.23914 11.5068984,10.23914 C11.7732293,10.23914 12.084416,10.225137 12.432048,10.2088002 C12.6208159,10.2088002 12.7988371,10.2036657 12.9446182,10.1989981 C13.0436746,10.1961975 13.1268447,10.1938636 13.188054,10.1938636 C13.4880268,10.1938636 13.8426675,10.2022654 14.2921593,10.2134678 L14.72997,10.2242035 C15.3855179,10.2540766 16.1896505,10.2690131 17.1872234,10.2690131 C17.6843745,10.2690131 17.8525835,10.2690131 17.9544434,9.89419924 C18.0320064,9.63187621 18.1390061,8.75155373 18.1390061,8.45609024 C18.1390061,8.35713565 18.1390061,8.09481262 17.9600504,8.09481262" id="Fill-16" fill="#0F223D" mask="url(#mask-4)"></path>
                    </g>
                    <path d="M53.08527,35.4180762 C53.08527,35.3312575 53.1034927,35.3121201 53.1604968,35.2929826 C53.2805794,35.2663769 53.5777487,35.2495733 53.9347256,35.2495733 C54.844456,35.2495733 55.9060418,35.8325652 55.9060418,37.4751182 C55.9060418,38.5234767 55.4504757,39.0644596 55.0673329,39.3342509 C54.848194,39.4952855 54.6711073,39.534494 54.162275,39.534494 C53.9295858,39.534494 53.4908407,39.5190907 53.1735798,39.4206028 C53.1081652,39.3874624 53.08527,39.3655243 53.08527,39.2455652 L53.08527,35.4180762 Z M60.4631043,43.9235037 C60.3575065,43.9235037 60.2878866,43.9235037 60.1579919,43.8936306 L60.1192104,43.8856956 C59.9019404,43.8413527 59.4501123,43.7503331 58.7623243,43.0618519 C58.0025803,42.3033556 57.1283606,41.2279245 56.0214519,39.8663653 L55.8803432,39.6931947 C57.1582644,38.6593059 57.7040093,37.8037221 57.7040093,36.8393816 C57.7040093,35.9217177 57.0975223,35.2645098 56.7386764,35.0208575 C55.9929498,34.5293519 54.9780887,34.4658716 54.1772269,34.4658716 C53.9777123,34.4658716 53.5875608,34.4733398 53.1875972,34.4808081 C52.7684764,34.4887432 52.3353382,34.4966782 52.102649,34.4966782 C51.9984529,34.4966782 51.8087505,34.4924773 51.5755941,34.4868761 C51.1915169,34.4775407 50.7144574,34.4658716 50.2850572,34.4658716 C50.1766558,34.4658716 49.923875,34.4658716 49.923875,34.6460436 C49.923875,34.6917868 49.9444339,34.8406854 50.2093631,34.8406854 C50.4275676,34.8406854 50.6340909,34.8579558 50.7233351,34.883628 C51.1289057,34.9993862 51.2284294,35.1198121 51.2569315,35.5254326 C51.2714162,35.9333869 51.2714162,36.2862627 51.2714162,38.2476175 L51.2714162,40.5165717 C51.2714162,41.6918909 51.2714162,42.7066422 51.2111413,43.2485587 C51.16722,43.6168378 51.0985347,43.8268829 50.8611731,43.8791608 C50.7415578,43.9090339 50.5925059,43.9235037 50.4060742,43.9235037 C50.148621,43.9235037 50.1355381,44.0845383 50.1355381,44.1167452 C50.1355381,44.1895608 50.1761886,44.3118538 50.4513972,44.3118538 C50.7653874,44.3118538 51.1933859,44.2959837 51.5372799,44.283381 C51.7765105,44.2745124 51.9830337,44.2665774 52.0867626,44.2665774 C52.1531117,44.2665774 52.3208535,44.2717118 52.5441977,44.2782466 C52.9834101,44.2917828 53.6478357,44.3118538 54.162275,44.3118538 C54.460846,44.3118538 54.4935533,44.1755578 54.4935533,44.1167452 C54.4935533,44.0238586 54.4075798,43.9235037 54.2683401,43.9235037 C54.1001311,43.9235037 53.8174465,43.9076336 53.6254079,43.8782273 C53.268431,43.8254826 53.2072216,43.636442 53.1595624,43.2490254 C53.1076979,42.7761905 53.08527,41.9593483 53.08527,40.5165717 L53.08527,40.3349993 C53.08527,40.2990582 53.096484,40.2873891 53.1310603,40.2873891 L54.3290823,40.3177289 C54.409916,40.3177289 54.4683219,40.3293981 54.5267279,40.3886775 C54.5996184,40.4745626 54.7533428,40.6958102 54.9481849,40.9763371 C55.1892845,41.3236117 55.4892572,41.7563047 55.781754,42.1399871 C56.5751399,43.2074832 57.0526666,43.7652697 57.618503,44.0481305 C57.9927681,44.2427723 58.3805833,44.3118538 59.0996768,44.3118538 L60.3724584,44.3118538 C60.4668423,44.3118538 60.6878503,44.3118538 60.6878503,44.1167452 C60.6878503,44.0238586 60.602344,43.9235037 60.4631043,43.9235037 L60.4631043,43.9235037 Z" id="Fill-19" fill="#0F223D"></path>
                </g>
            </g>
            <path d="M104.02,11.148769 C102.274,11.148769 100.798,11.742769 99.592,12.930769 C98.386,14.118769 97.774,15.576769 97.774,17.304769 C97.774,19.050769 98.368,20.508769 99.574,21.678769 C100.78,22.848769 102.256,23.442769 104.002,23.442769 C105.1,23.442769 106.09,23.190769 106.99,22.704769 C107.89,22.218769 108.592,21.552769 109.096,20.706769 L107.656,19.644769 C106.774,21.012769 105.568,21.696769 104.038,21.696769 C102.814,21.696769 101.788,21.282769 100.978,20.454769 C100.168,19.626769 99.754,18.582769 99.754,17.322769 C99.754,16.062769 100.168,15.018769 100.978,14.190769 C101.788,13.362769 102.814,12.948769 104.038,12.948769 C105.568,12.948769 106.774,13.632769 107.656,15.000769 L109.096,13.938769 C108.574,13.092769 107.872,12.426769 106.972,11.940769 C106.072,11.454769 105.082,11.202769 103.984,11.202769 L104.02,11.148769 Z M119.294,18.240769 C119.294,17.070769 118.898,16.098769 118.124,15.324769 C117.35,14.550769 116.378,14.172769 115.208,14.172769 C113.93,14.172769 112.85,14.622769 111.968,15.522769 C111.086,16.422769 110.636,17.520769 110.636,18.816769 C110.636,20.130769 111.086,21.228769 111.986,22.110769 C112.886,22.992769 114.02,23.442769 115.388,23.442769 C116.738,23.442769 117.908,22.974769 118.916,22.020769 L118.016,20.724769 C117.224,21.426769 116.36,21.768769 115.442,21.768769 C114.668,21.768769 114.02,21.570769 113.498,21.156769 C112.976,20.742769 112.652,20.166769 112.526,19.428769 L119.114,19.428769 C119.204,19.014769 119.258,18.618769 119.258,18.240769 L119.294,18.240769 Z M115.1,15.792769 C115.73,15.792769 116.27,15.990769 116.702,16.386769 C117.134,16.782769 117.35,17.304769 117.368,17.970769 L112.562,17.970769 C112.706,17.304769 113.012,16.782769 113.48,16.386769 C113.948,15.990769 114.488,15.792769 115.118,15.792769 L115.1,15.792769 Z M123.444,9.72676904 L121.554,9.72676904 L121.554,23.226769 L123.444,23.226769 L123.444,9.72676904 Z M134.38,18.240769 C134.38,17.070769 133.984,16.098769 133.21,15.324769 C132.436,14.550769 131.464,14.172769 130.294,14.172769 C129.016,14.172769 127.936,14.622769 127.054,15.522769 C126.172,16.422769 125.722,17.520769 125.722,18.816769 C125.722,20.130769 126.172,21.228769 127.072,22.110769 C127.972,22.992769 129.106,23.442769 130.474,23.442769 C131.824,23.442769 132.994,22.974769 134.002,22.020769 L133.102,20.724769 C132.31,21.426769 131.446,21.768769 130.528,21.768769 C129.754,21.768769 129.106,21.570769 128.584,21.156769 C128.062,20.742769 127.738,20.166769 127.612,19.428769 L134.2,19.428769 C134.29,19.014769 134.344,18.618769 134.344,18.240769 L134.38,18.240769 Z M130.186,15.792769 C130.816,15.792769 131.356,15.990769 131.788,16.386769 C132.22,16.782769 132.436,17.304769 132.454,17.970769 L127.648,17.970769 C127.792,17.304769 128.098,16.782769 128.566,16.386769 C129.034,15.990769 129.574,15.792769 130.204,15.792769 L130.186,15.792769 Z M141.482,14.190769 C140.204,14.190769 139.214,14.622769 138.512,15.468769 L138.512,9.72676904 L136.622,9.72676904 L136.622,23.226769 L138.386,23.226769 L138.386,21.984769 C138.71,22.434769 139.142,22.794769 139.682,23.046769 C140.222,23.298769 140.816,23.424769 141.464,23.424769 C142.706,23.424769 143.732,22.992769 144.542,22.110769 C145.352,21.228769 145.766,20.130769 145.766,18.816769 C145.766,17.502769 145.352,16.404769 144.524,15.522769 C143.696,14.640769 142.652,14.208769 141.41,14.208769 L141.482,14.190769 Z M141.104,21.714769 C140.366,21.714769 139.736,21.480769 139.214,20.994769 C138.692,20.508769 138.422,19.788769 138.422,18.834769 C138.422,17.898769 138.674,17.178769 139.196,16.674769 C139.718,16.170769 140.348,15.918769 141.086,15.918769 C141.86,15.918769 142.508,16.188769 143.03,16.728769 C143.552,17.268769 143.804,17.952769 143.804,18.798769 C143.804,19.644769 143.552,20.346769 143.03,20.886769 C142.508,21.426769 141.86,21.696769 141.086,21.696769 L141.104,21.714769 Z M152.416372,14.2988132 C151.327699,14.3037239 150.470241,14.7177091 149.844,15.540769 L149.844,14.388769 L148.08,14.388769 L148.08,23.226769 L149.97,23.226769 L149.97,18.510769 C149.97,17.736769 150.222,17.142769 150.708,16.710769 C151.194,16.278769 151.806,16.062769 152.544,16.062769 L153.12,16.062769 L153.12,14.388769 C152.908378,14.3358635 152.679478,14.3002357 152.416372,14.2988132 L152.416372,14.2988132 Z M152.416372,14.2988132 C152.410929,14.2987838 152.405472,14.298769 152.4,14.298769 L152.436,14.298769 C152.429449,14.298769 152.422906,14.2987838 152.416372,14.2988132 L152.416372,14.2988132 Z M158.13318,14.1908804 C156.548958,14.200476 155.319231,14.8304389 154.444,16.080769 L155.542,17.196769 C156.28,16.314769 157.09,15.882769 157.972,15.882769 C158.566,15.882769 159.034,16.044769 159.358,16.368769 C159.682,16.692769 159.844,17.160769 159.844,17.772769 L159.844,18.348769 L157.342,18.348769 C156.352,18.348769 155.56,18.582769 154.966,19.032769 C154.372,19.482769 154.084,20.094769 154.084,20.868769 C154.084,21.642769 154.372,22.254769 154.93,22.722769 C155.488,23.190769 156.226,23.424769 157.144,23.424769 C158.368,23.424769 159.304,23.028769 159.97,22.236769 L159.97,23.226769 L161.734,23.226769 L161.734,17.880769 C161.734,16.692769 161.41,15.774769 160.744,15.144769 C160.085128,14.5215117 159.214855,14.1977394 158.13318,14.1908804 L158.13318,14.1908804 Z M158.13318,14.1908804 C158.121478,14.1908062 158.109751,14.190769 158.098,14.190769 L158.17,14.190769 C158.157706,14.190769 158.145432,14.1908061 158.13318,14.1908804 L158.13318,14.1908804 Z M157.522,21.966769 C157.072,21.966769 156.694,21.858769 156.406,21.660769 C156.118,21.462769 155.974,21.174769 155.974,20.796769 C155.974,20.076769 156.496,19.716769 157.54,19.716769 L159.808,19.716769 L159.808,19.878769 C159.808,20.472769 159.592,20.976769 159.142,21.372769 C158.692,21.768769 158.152,21.966769 157.522,21.966769 Z M168.602,21.714769 C168.026,21.714769 167.594,21.606769 167.306,21.372769 C167.018,21.138769 166.874,20.742769 166.874,20.184769 L166.874,16.026769 L169.502,16.026769 L169.502,14.388769 L166.874,14.388769 L166.874,12.066769 L164.966,12.066769 L164.966,14.388769 L163.526,14.388769 L163.526,16.026769 L164.966,16.026769 L164.966,20.346769 C164.966,21.372769 165.254,22.146769 165.83,22.650769 C166.406,23.154769 167.198,23.406769 168.224,23.406769 C168.674,23.406769 169.196,23.334769 169.79,23.208769 L169.79,21.606769 C169.268,21.660769 168.872,21.696769 168.602,21.696769 L168.602,21.714769 Z M172.734,9.83476904 C172.374,9.83476904 172.068,9.96076904 171.816,10.212769 C171.564,10.464769 171.438,10.770769 171.438,11.112769 C171.438,11.454769 171.564,11.742769 171.816,11.976769 C172.068,12.210769 172.374,12.336769 172.734,12.336769 C173.094,12.336769 173.4,12.210769 173.652,11.976769 C173.904,11.742769 174.03,11.454769 174.03,11.112769 C174.03,10.770769 173.904,10.482769 173.652,10.230769 C173.4,9.97876904 173.094,9.85276904 172.752,9.85276904 L172.734,9.83476904 Z M173.688,14.406769 L171.798,14.406769 L171.798,23.244769 L173.688,23.244769 L173.688,14.406769 Z M180.916,14.190769 C179.818,14.190769 178.936,14.550769 178.27,15.270769 L178.27,14.388769 L176.506,14.388769 L176.506,23.226769 L178.396,23.226769 L178.396,17.952769 C178.396,17.358769 178.576,16.872769 178.954,16.494769 C179.332,16.116769 179.818,15.918769 180.412,15.918769 C180.988,15.918769 181.456,16.116769 181.816,16.494769 C182.176,16.872769 182.356,17.376769 182.356,17.988769 L182.356,23.262769 L184.246,23.262769 L184.246,17.736769 C184.246,16.674769 183.958,15.828769 183.364,15.180769 C182.77,14.532769 181.96,14.208769 180.934,14.208769 L180.916,14.190769 Z M193.886,14.388769 L193.886,15.648769 C193.184,14.676769 192.14,14.190769 190.754,14.190769 C189.512,14.190769 188.486,14.604769 187.676,15.432769 C186.866,16.260769 186.452,17.322769 186.452,18.618769 C186.452,19.914769 186.866,20.976769 187.676,21.804769 C188.486,22.632769 189.512,23.046769 190.754,23.046769 C192.032,23.046769 193.022,22.632769 193.742,21.804769 L193.742,22.416769 C193.742,23.244769 193.508,23.874769 193.022,24.306769 C192.536,24.738769 191.888,24.954769 191.078,24.954769 C190.052,24.954769 189.026,24.540769 188,23.694769 L186.956,25.008769 C188.144,26.124769 189.566,26.682769 191.204,26.682769 C192.554,26.682769 193.634,26.304769 194.444,25.548769 C195.254,24.792769 195.65,23.712769 195.65,22.326769 L195.65,14.406769 L193.886,14.388769 Z M191.114,21.408769 C190.34,21.408769 189.692,21.156769 189.17,20.652769 C188.648,20.148769 188.396,19.482769 188.396,18.654769 C188.396,17.844769 188.648,17.178769 189.17,16.674769 C189.692,16.170769 190.34,15.918769 191.114,15.918769 C191.852,15.918769 192.482,16.152769 193.004,16.602769 C193.526,17.052769 193.778,17.736769 193.778,18.636769 C193.778,19.536769 193.508,20.220769 192.986,20.706769 C192.464,21.192769 191.834,21.426769 191.096,21.426769 L191.114,21.408769 Z M207.478,11.346769 L203.734,11.346769 L203.734,23.226769 L207.46,23.226769 C209.404,23.226769 210.97,22.668769 212.158,21.552769 C213.346,20.436769 213.94,19.014769 213.94,17.268769 C213.94,15.504769 213.346,14.082769 212.176,12.984769 C211.006,11.886769 209.44,11.346769 207.478,11.346769 Z M207.46,13.074769 C208.846,13.074769 209.944,13.452769 210.754,14.208769 C211.564,14.964769 211.96,15.990769 211.96,17.268769 C211.96,18.510769 211.546,19.536769 210.736,20.328769 C209.926,21.120769 208.828,21.516769 207.442,21.516769 L205.642,21.516769 L205.642,13.074769 L207.46,13.074769 Z M219.52918,14.1908804 C217.944958,14.200476 216.715231,14.8304389 215.84,16.080769 L216.938,17.196769 C217.676,16.314769 218.486,15.882769 219.368,15.882769 C219.962,15.882769 220.43,16.044769 220.754,16.368769 C221.078,16.692769 221.24,17.160769 221.24,17.772769 L221.24,18.348769 L218.738,18.348769 C217.748,18.348769 216.956,18.582769 216.362,19.032769 C215.768,19.482769 215.48,20.094769 215.48,20.868769 C215.48,21.642769 215.768,22.254769 216.326,22.722769 C216.884,23.190769 217.622,23.424769 218.54,23.424769 C219.764,23.424769 220.7,23.028769 221.366,22.236769 L221.366,23.226769 L223.13,23.226769 L223.13,17.880769 C223.13,16.692769 222.806,15.774769 222.14,15.144769 C221.481128,14.5215117 220.610855,14.1977394 219.52918,14.1908804 L219.52918,14.1908804 Z M219.52918,14.1908804 C219.517478,14.1908062 219.505751,14.190769 219.494,14.190769 L219.566,14.190769 C219.553706,14.190769 219.541432,14.1908061 219.52918,14.1908804 L219.52918,14.1908804 Z M218.918,21.966769 C218.468,21.966769 218.09,21.858769 217.802,21.660769 C217.514,21.462769 217.37,21.174769 217.37,20.796769 C217.37,20.076769 217.892,19.716769 218.936,19.716769 L221.204,19.716769 L221.204,19.878769 C221.204,20.472769 220.988,20.976769 220.538,21.372769 C220.088,21.768769 219.548,21.966769 218.918,21.966769 Z M230.230372,14.2988132 C229.141699,14.3037239 228.284241,14.7177091 227.658,15.540769 L227.658,14.388769 L225.894,14.388769 L225.894,23.226769 L227.784,23.226769 L227.784,18.510769 C227.784,17.736769 228.036,17.142769 228.522,16.710769 C229.008,16.278769 229.62,16.062769 230.358,16.062769 L230.934,16.062769 L230.934,14.388769 C230.722378,14.3358635 230.493478,14.3002357 230.230372,14.2988132 L230.230372,14.2988132 Z M230.230372,14.2988132 C230.224929,14.2987838 230.219472,14.298769 230.214,14.298769 L230.25,14.298769 C230.243449,14.298769 230.236906,14.2987838 230.230372,14.2988132 L230.230372,14.2988132 Z M236.848,21.714769 C236.272,21.714769 235.84,21.606769 235.552,21.372769 C235.264,21.138769 235.12,20.742769 235.12,20.184769 L235.12,16.026769 L237.748,16.026769 L237.748,14.388769 L235.12,14.388769 L235.12,12.066769 L233.212,12.066769 L233.212,14.388769 L231.772,14.388769 L231.772,16.026769 L233.212,16.026769 L233.212,20.346769 C233.212,21.372769 233.5,22.146769 234.076,22.650769 C234.652,23.154769 235.444,23.406769 236.47,23.406769 C236.92,23.406769 237.442,23.334769 238.036,23.208769 L238.036,21.606769 C237.514,21.660769 237.118,21.696769 236.848,21.696769 L236.848,21.714769 Z M250.016,14.190769 C248.738,14.190769 247.748,14.658769 247.028,15.576769 C246.47,14.658769 245.57,14.190769 244.346,14.190769 C243.284,14.190769 242.438,14.532769 241.808,15.234769 L241.808,14.388769 L240.044,14.388769 L240.044,23.226769 L241.934,23.226769 L241.934,17.970769 C241.934,17.358769 242.114,16.872769 242.474,16.494769 C242.834,16.116769 243.302,15.936769 243.878,15.936769 C244.436,15.936769 244.886,16.134769 245.228,16.512769 C245.57,16.890769 245.732,17.394769 245.732,18.006769 L245.732,23.262769 L247.622,23.262769 L247.622,17.916769 C247.622,17.358769 247.802,16.890769 248.162,16.512769 C248.522,16.134769 248.99,15.954769 249.566,15.954769 C250.124,15.954769 250.574,16.134769 250.898,16.512769 C251.222,16.890769 251.384,17.394769 251.384,18.024769 L251.384,23.280769 L253.292,23.280769 L253.292,17.754769 C253.292,16.692769 253.004,15.846769 252.428,15.198769 C251.852,14.550769 251.042,14.226769 250.016,14.226769 L250.016,14.190769 Z M260.124,14.190769 C258.81,14.190769 257.712,14.640769 256.812,15.522769 C255.912,16.404769 255.462,17.502769 255.462,18.798769 C255.462,20.094769 255.912,21.192769 256.812,22.074769 C257.712,22.956769 258.81,23.406769 260.124,23.424769 C261.42,23.424769 262.518,22.974769 263.436,22.074769 C264.354,21.174769 264.804,20.076769 264.804,18.780769 C264.804,17.484769 264.336,16.386769 263.418,15.504769 C262.5,14.622769 261.384,14.172769 260.088,14.172769 L260.124,14.190769 Z M260.106,15.900769 C260.88,15.918769 261.528,16.206769 262.05,16.746769 C262.572,17.286769 262.824,17.970769 262.824,18.798769 C262.824,19.608769 262.554,20.292769 262.032,20.832769 C261.51,21.372769 260.862,21.642769 260.088,21.642769 C259.296,21.642769 258.648,21.372769 258.126,20.832769 C257.604,20.292769 257.352,19.608769 257.352,18.798769 C257.352,17.970769 257.604,17.286769 258.126,16.746769 C258.648,16.206769 259.296,15.936769 260.088,15.918769 L260.106,15.900769 Z M274.696,14.388769 L272.806,14.388769 L272.806,19.662769 C272.806,20.274769 272.626,20.760769 272.248,21.120769 C271.87,21.480769 271.402,21.660769 270.844,21.660769 C270.268,21.660769 269.782,21.480769 269.404,21.120769 C269.026,20.760769 268.828,20.274769 268.828,19.662769 L268.828,14.388769 L266.956,14.388769 L266.956,19.518769 C266.956,20.688769 267.316,21.642769 268.054,22.362769 C268.792,23.082769 269.71,23.442769 270.826,23.442769 C271.924,23.442769 272.842,23.082769 273.562,22.362769 C274.282,21.642769 274.624,20.706769 274.642,19.536769 L274.696,14.388769 Z M281.528,21.714769 C280.952,21.714769 280.52,21.606769 280.232,21.372769 C279.944,21.138769 279.8,20.742769 279.8,20.184769 L279.8,16.026769 L282.428,16.026769 L282.428,14.388769 L279.8,14.388769 L279.8,12.066769 L277.892,12.066769 L277.892,14.388769 L276.452,14.388769 L276.452,16.026769 L277.892,16.026769 L277.892,20.346769 C277.892,21.372769 278.18,22.146769 278.756,22.650769 C279.332,23.154769 280.124,23.406769 281.15,23.406769 C281.6,23.406769 282.122,23.334769 282.716,23.208769 L282.716,21.606769 C282.194,21.660769 281.798,21.696769 281.528,21.696769 L281.528,21.714769 Z M289.152,14.190769 C288.09,14.190769 287.244,14.550769 286.614,15.252769 L286.614,9.72676904 L284.724,9.72676904 L284.724,23.226769 L286.614,23.226769 L286.614,17.970769 C286.614,17.376769 286.794,16.890769 287.172,16.512769 C287.55,16.134769 288.036,15.936769 288.63,15.936769 C289.224,15.936769 289.692,16.134769 290.034,16.512769 C290.376,16.890769 290.556,17.394769 290.556,18.006769 L290.556,23.262769 L292.446,23.262769 L292.446,17.736769 C292.446,16.692769 292.158,15.846769 291.564,15.198769 C290.97,14.550769 290.178,14.226769 289.17,14.226769 L289.152,14.190769 Z M308.234,11.346769 L300.422,11.346769 L300.422,23.226769 L308.45,23.226769 L308.45,21.516769 L302.33,21.516769 L302.33,17.754769 L306.776,17.754769 L306.776,16.098769 L302.33,16.098769 L302.33,13.056769 L308.234,13.056769 L308.234,11.346769 Z M315.048,14.190769 C313.95,14.190769 313.068,14.550769 312.402,15.270769 L312.402,14.388769 L310.638,14.388769 L310.638,23.226769 L312.528,23.226769 L312.528,17.952769 C312.528,17.358769 312.708,16.872769 313.086,16.494769 C313.464,16.116769 313.95,15.918769 314.544,15.918769 C315.12,15.918769 315.588,16.116769 315.948,16.494769 C316.308,16.872769 316.488,17.376769 316.488,17.988769 L316.488,23.262769 L318.378,23.262769 L318.378,17.736769 C318.378,16.674769 318.09,15.828769 317.496,15.180769 C316.902,14.532769 316.092,14.208769 315.066,14.208769 L315.048,14.190769 Z M328.018,14.388769 L328.018,15.648769 C327.316,14.676769 326.272,14.190769 324.886,14.190769 C323.644,14.190769 322.618,14.604769 321.808,15.432769 C320.998,16.260769 320.584,17.322769 320.584,18.618769 C320.584,19.914769 320.998,20.976769 321.808,21.804769 C322.618,22.632769 323.644,23.046769 324.886,23.046769 C326.164,23.046769 327.154,22.632769 327.874,21.804769 L327.874,22.416769 C327.874,23.244769 327.64,23.874769 327.154,24.306769 C326.668,24.738769 326.02,24.954769 325.21,24.954769 C324.184,24.954769 323.158,24.540769 322.132,23.694769 L321.088,25.008769 C322.276,26.124769 323.698,26.682769 325.336,26.682769 C326.686,26.682769 327.766,26.304769 328.576,25.548769 C329.386,24.792769 329.782,23.712769 329.782,22.326769 L329.782,14.406769 L328.018,14.388769 Z M325.246,21.408769 C324.472,21.408769 323.824,21.156769 323.302,20.652769 C322.78,20.148769 322.528,19.482769 322.528,18.654769 C322.528,17.844769 322.78,17.178769 323.302,16.674769 C323.824,16.170769 324.472,15.918769 325.246,15.918769 C325.984,15.918769 326.614,16.152769 327.136,16.602769 C327.658,17.052769 327.91,17.736769 327.91,18.636769 C327.91,19.536769 327.64,20.220769 327.118,20.706769 C326.596,21.192769 325.966,21.426769 325.228,21.426769 L325.246,21.408769 Z M333.554,9.83476904 C333.194,9.83476904 332.888,9.96076904 332.636,10.212769 C332.384,10.464769 332.258,10.770769 332.258,11.112769 C332.258,11.454769 332.384,11.742769 332.636,11.976769 C332.888,12.210769 333.194,12.336769 333.554,12.336769 C333.914,12.336769 334.22,12.210769 334.472,11.976769 C334.724,11.742769 334.85,11.454769 334.85,11.112769 C334.85,10.770769 334.724,10.482769 334.472,10.230769 C334.22,9.97876904 333.914,9.85276904 333.572,9.85276904 L333.554,9.83476904 Z M334.508,14.406769 L332.618,14.406769 L332.618,23.244769 L334.508,23.244769 L334.508,14.406769 Z M341.736,14.190769 C340.638,14.190769 339.756,14.550769 339.09,15.270769 L339.09,14.388769 L337.326,14.388769 L337.326,23.226769 L339.216,23.226769 L339.216,17.952769 C339.216,17.358769 339.396,16.872769 339.774,16.494769 C340.152,16.116769 340.638,15.918769 341.232,15.918769 C341.808,15.918769 342.276,16.116769 342.636,16.494769 C342.996,16.872769 343.176,17.376769 343.176,17.988769 L343.176,23.262769 L345.066,23.262769 L345.066,17.736769 C345.066,16.674769 344.778,15.828769 344.184,15.180769 C343.59,14.532769 342.78,14.208769 341.754,14.208769 L341.736,14.190769 Z M355.876,18.240769 C355.876,17.070769 355.48,16.098769 354.706,15.324769 C353.932,14.550769 352.96,14.172769 351.79,14.172769 C350.512,14.172769 349.432,14.622769 348.55,15.522769 C347.668,16.422769 347.218,17.520769 347.218,18.816769 C347.218,20.130769 347.668,21.228769 348.568,22.110769 C349.468,22.992769 350.602,23.442769 351.97,23.442769 C353.32,23.442769 354.49,22.974769 355.498,22.020769 L354.598,20.724769 C353.806,21.426769 352.942,21.768769 352.024,21.768769 C351.25,21.768769 350.602,21.570769 350.08,21.156769 C349.558,20.742769 349.234,20.166769 349.108,19.428769 L355.696,19.428769 C355.786,19.014769 355.84,18.618769 355.84,18.240769 L355.876,18.240769 Z M351.682,15.792769 C352.312,15.792769 352.852,15.990769 353.284,16.386769 C353.716,16.782769 353.932,17.304769 353.95,17.970769 L349.144,17.970769 C349.288,17.304769 349.594,16.782769 350.062,16.386769 C350.53,15.990769 351.07,15.792769 351.7,15.792769 L351.682,15.792769 Z M366.236,18.240769 C366.236,17.070769 365.84,16.098769 365.066,15.324769 C364.292,14.550769 363.32,14.172769 362.15,14.172769 C360.872,14.172769 359.792,14.622769 358.91,15.522769 C358.028,16.422769 357.578,17.520769 357.578,18.816769 C357.578,20.130769 358.028,21.228769 358.928,22.110769 C359.828,22.992769 360.962,23.442769 362.33,23.442769 C363.68,23.442769 364.85,22.974769 365.858,22.020769 L364.958,20.724769 C364.166,21.426769 363.302,21.768769 362.384,21.768769 C361.61,21.768769 360.962,21.570769 360.44,21.156769 C359.918,20.742769 359.594,20.166769 359.468,19.428769 L366.056,19.428769 C366.146,19.014769 366.2,18.618769 366.2,18.240769 L366.236,18.240769 Z M362.042,15.792769 C362.672,15.792769 363.212,15.990769 363.644,16.386769 C364.076,16.782769 364.292,17.304769 364.31,17.970769 L359.504,17.970769 C359.648,17.304769 359.954,16.782769 360.422,16.386769 C360.89,15.990769 361.43,15.792769 362.06,15.792769 L362.042,15.792769 Z M372.814372,14.2988132 C371.725699,14.3037239 370.868241,14.7177091 370.242,15.540769 L370.242,14.388769 L368.478,14.388769 L368.478,23.226769 L370.368,23.226769 L370.368,18.510769 C370.368,17.736769 370.62,17.142769 371.106,16.710769 C371.592,16.278769 372.204,16.062769 372.942,16.062769 L373.518,16.062769 L373.518,14.388769 C373.306378,14.3358635 373.077478,14.3002357 372.814372,14.2988132 L372.814372,14.2988132 Z M372.814372,14.2988132 C372.808929,14.2987838 372.803472,14.298769 372.798,14.298769 L372.834,14.298769 C372.827449,14.298769 372.820906,14.2987838 372.814372,14.2988132 L372.814372,14.2988132 Z M376.3,9.83476904 C375.94,9.83476904 375.634,9.96076904 375.382,10.212769 C375.13,10.464769 375.004,10.770769 375.004,11.112769 C375.004,11.454769 375.13,11.742769 375.382,11.976769 C375.634,12.210769 375.94,12.336769 376.3,12.336769 C376.66,12.336769 376.966,12.210769 377.218,11.976769 C377.47,11.742769 377.596,11.454769 377.596,11.112769 C377.596,10.770769 377.47,10.482769 377.218,10.230769 C376.966,9.97876904 376.66,9.85276904 376.318,9.85276904 L376.3,9.83476904 Z M377.254,14.406769 L375.364,14.406769 L375.364,23.244769 L377.254,23.244769 L377.254,14.406769 Z M384.482,14.190769 C383.384,14.190769 382.502,14.550769 381.836,15.270769 L381.836,14.388769 L380.072,14.388769 L380.072,23.226769 L381.962,23.226769 L381.962,17.952769 C381.962,17.358769 382.142,16.872769 382.52,16.494769 C382.898,16.116769 383.384,15.918769 383.978,15.918769 C384.554,15.918769 385.022,16.116769 385.382,16.494769 C385.742,16.872769 385.922,17.376769 385.922,17.988769 L385.922,23.262769 L387.812,23.262769 L387.812,17.736769 C387.812,16.674769 387.524,15.828769 386.93,15.180769 C386.336,14.532769 385.526,14.208769 384.5,14.208769 L384.482,14.190769 Z M397.452,14.388769 L397.452,15.648769 C396.75,14.676769 395.706,14.190769 394.32,14.190769 C393.078,14.190769 392.052,14.604769 391.242,15.432769 C390.432,16.260769 390.018,17.322769 390.018,18.618769 C390.018,19.914769 390.432,20.976769 391.242,21.804769 C392.052,22.632769 393.078,23.046769 394.32,23.046769 C395.598,23.046769 396.588,22.632769 397.308,21.804769 L397.308,22.416769 C397.308,23.244769 397.074,23.874769 396.588,24.306769 C396.102,24.738769 395.454,24.954769 394.644,24.954769 C393.618,24.954769 392.592,24.540769 391.566,23.694769 L390.522,25.008769 C391.71,26.124769 393.132,26.682769 394.77,26.682769 C396.12,26.682769 397.2,26.304769 398.01,25.548769 C398.82,24.792769 399.216,23.712769 399.216,22.326769 L399.216,14.406769 L397.452,14.388769 Z M394.68,21.408769 C393.906,21.408769 393.258,21.156769 392.736,20.652769 C392.214,20.148769 391.962,19.482769 391.962,18.654769 C391.962,17.844769 392.214,17.178769 392.736,16.674769 C393.258,16.170769 393.906,15.918769 394.68,15.918769 C395.418,15.918769 396.048,16.152769 396.57,16.602769 C397.092,17.052769 397.344,17.736769 397.344,18.636769 C397.344,19.536769 397.074,20.220769 396.552,20.706769 C396.03,21.192769 395.4,21.426769 394.662,21.426769 L394.68,21.408769 Z" id="Celebrating-Dartmout" fill="#FFFFFF"></path>
            <path d="M101.905,32.0743782 L98.26,32.0743782 L98.26,33.5143782 L100.315,33.5143782 L100.315,38.7343782 L98.11,38.7343782 L98.11,40.0993782 L103.945,40.0993782 L103.945,38.7343782 L101.905,38.7343782 L101.905,32.0743782 Z M110.38,34.9543782 C111.505,34.3843782 112.06,33.5893782 112.06,32.5693782 C112.06,31.7743782 111.76,31.1593782 111.175,30.7093782 C110.59,30.2593782 109.84,30.0343782 108.94,30.0343782 C108.025,30.0343782 107.275,30.2593782 106.675,30.7093782 C106.075,31.1593782 105.775,31.7893782 105.775,32.5843782 C105.775,33.5893782 106.33,34.3843782 107.455,34.9693782 C106.03,35.5243782 105.31,36.3793782 105.31,37.5343782 C105.31,38.3593782 105.64,39.0193782 106.315,39.5143782 C106.99,40.0093782 107.86,40.2643782 108.925,40.2643782 C109.99,40.2643782 110.845,40.0093782 111.505,39.5143782 C112.165,39.0193782 112.495,38.3593782 112.495,37.5343782 C112.495,36.3793782 111.775,35.5243782 110.35,34.9693782 L110.38,34.9543782 Z M108.91,31.3543782 C109.375,31.3543782 109.765,31.4743782 110.065,31.6993782 C110.365,31.9243782 110.515,32.2393782 110.515,32.6443782 C110.515,33.0043782 110.38,33.3043782 110.11,33.5443782 C109.84,33.7843782 109.435,34.0243782 108.88,34.2643782 C108.325,34.0093782 107.92,33.7693782 107.665,33.5443782 C107.41,33.3193782 107.275,33.0193782 107.275,32.6593782 C107.275,32.2543782 107.425,31.9393782 107.725,31.7143782 C108.025,31.4893782 108.415,31.3693782 108.895,31.3693782 L108.91,31.3543782 Z M108.8725,38.9743232 C108.238477,38.9712118 107.750977,38.8362302 107.41,38.5693782 C107.065,38.2993782 106.885,37.9393782 106.885,37.4893782 C106.885,37.0543782 107.05,36.6943782 107.38,36.4243782 C107.71,36.1543782 108.205,35.8993782 108.865,35.6743782 C109.525,35.9143782 110.02,36.1693782 110.35,36.4243782 C110.68,36.6793782 110.845,37.0393782 110.845,37.4893782 C110.845,37.9393782 110.68,38.2993782 110.335,38.5693782 C109.994023,38.8362302 109.506523,38.9712118 108.8725,38.9743232 L108.8725,38.9743232 Z M117.716191,33.5294135 C117.556621,33.530229 117.411224,33.5452173 117.28,33.5743782 L119.665,30.1993782 L117.79,30.1993782 L115.315,33.6943782 C114.985,34.1593782 114.745,34.5193782 114.595,34.7593782 C114.445,34.9993782 114.295,35.3143782 114.16,35.6893782 C114.025,36.0643782 113.95,36.4393782 113.95,36.8143782 C113.95,37.7893782 114.295,38.6143782 114.97,39.2743782 C115.645,39.9343782 116.47,40.2643782 117.445,40.2643782 C118.42,40.2643782 119.245,39.9343782 119.935,39.2743782 C120.625,38.6143782 120.97,37.8043782 120.97,36.8293782 C120.97,35.8843782 120.64,35.1043782 119.995,34.4743782 C119.353937,33.8482233 118.594334,33.533235 117.716191,33.5294135 L117.716191,33.5294135 Z M117.716191,33.5294135 C117.710798,33.52939 117.705401,33.5293782 117.7,33.5293782 L117.73,33.5293782 C117.725385,33.5293782 117.720782,33.52939 117.716191,33.5294135 L117.716191,33.5294135 Z M117.445,38.8093782 C116.89,38.8093782 116.425,38.6293782 116.05,38.2543782 C115.675,37.8793782 115.495,37.4143782 115.495,36.8593782 C115.495,36.3043782 115.675,35.8393782 116.05,35.4643782 C116.425,35.0893782 116.89,34.9093782 117.445,34.9093782 C117.985,34.9093782 118.435,35.1043782 118.81,35.4793782 C119.185,35.8543782 119.365,36.3193782 119.365,36.8743782 C119.365,37.4293782 119.17,37.8943782 118.795,38.2693782 C118.42,38.6443782 117.955,38.8393782 117.415,38.8393782 L117.445,38.8093782 Z M122.185,32.0743782 L122.185,33.5143782 L126.82,33.5143782 L122.5,41.9143782 L124.21,41.9143782 L128.98,32.5093782 L128.98,32.0743782 L122.185,32.0743782 Z M140.515,34.6693782 L134.125,34.6693782 L134.125,36.0043782 L140.515,36.0043782 L140.515,34.6693782 Z M149.56,38.7343782 L150.325,38.1793782 C151.09,37.6243782 151.675,37.0693782 152.065,36.5443782 C152.455,36.0193782 152.65,35.4193782 152.65,34.7443782 C152.65,33.9193782 152.35,33.2443782 151.765,32.7043782 C151.18,32.1643782 150.43,31.8943782 149.515,31.8943782 C148.555,31.8943782 147.775,32.1793782 147.175,32.7493782 C146.575,33.3193782 146.275,33.9943782 146.275,34.7593782 C146.275,35.0443782 146.305,35.3293782 146.38,35.5993782 L147.94,35.5993782 C147.895,35.3143782 147.865,35.0743782 147.865,34.8793782 C147.865,34.4443782 148.015,34.0843782 148.3,33.7843782 C148.585,33.4843782 148.975,33.3343782 149.47,33.3343782 C149.95,33.3343782 150.325,33.4843782 150.61,33.7843782 C150.895,34.0843782 151.03,34.4593782 151.03,34.8943782 C151.03,35.1493782 150.985,35.3893782 150.895,35.5993782 C150.805,35.8093782 150.64,36.0343782 150.4,36.2743782 C150.16,36.5143782 149.965,36.6943782 149.8,36.8293782 C149.635,36.9643782 149.335,37.1593782 148.945,37.4593782 L145.93,39.7093782 L145.93,40.0693782 L152.995,40.0693782 L152.995,38.7043782 L149.56,38.7343782 Z M158.755,31.9093782 C157.57,31.9093782 156.565,32.3143782 155.74,33.1243782 C154.915,33.9343782 154.495,34.9243782 154.495,36.0943782 C154.495,37.2643782 154.9,38.2543782 155.725,39.0643782 C156.55,39.8743782 157.555,40.2793782 158.74,40.2793782 C159.925,40.2793782 160.93,39.8743782 161.77,39.0643782 C162.61,38.2543782 163.03,37.2643782 163.03,36.0943782 C163.03,34.9243782 162.61,33.9343782 161.77,33.1243782 C160.93,32.3143782 159.925,31.9093782 158.74,31.9093782 L158.755,31.9093782 Z M158.74,33.3643782 C159.505,33.3643782 160.135,33.6193782 160.63,34.1443782 C161.125,34.6693782 161.38,35.3143782 161.38,36.0943782 C161.38,36.8743782 161.125,37.5193782 160.63,38.0443782 C160.135,38.5693782 159.505,38.8243782 158.74,38.8243782 C157.975,38.8243782 157.345,38.5693782 156.85,38.0443782 C156.355,37.5193782 156.115,36.8743782 156.115,36.0943782 C156.115,35.2993782 156.355,34.6543782 156.85,34.1443782 C157.345,33.6343782 157.975,33.3793782 158.74,33.3793782 L158.74,33.3643782 Z M168.625,32.0743782 L164.98,32.0743782 L164.98,33.5143782 L167.035,33.5143782 L167.035,38.7343782 L164.83,38.7343782 L164.83,40.0993782 L170.665,40.0993782 L170.665,38.7343782 L168.625,38.7343782 L168.625,32.0743782 Z M171.82,32.0743782 L171.82,33.5143782 L176.455,33.5143782 L172.135,41.9143782 L173.845,41.9143782 L178.615,32.5093782 L178.615,32.0743782 L171.82,32.0743782 Z" id="1867--2017" fill="#FFFFFF"></path>
        </g>
    </g>
</svg>