<svg xmlns="http://www.w3.org/2000/svg" viewBox="0 0 233.27 58.42"><path d="M10.15.54H0V1c.9.54,1.31,1.17,1.31,3.72V19.83C1.31,22.37.9,23,0,23.54V24H9.51c8.84,0,13.4-5.22,13.4-12.36C22.91,5.19,18.49.54,10.15.54M9.24,21.43H5V3.08H9.54c6.1,0,9.45,3.08,9.45,9.44,0,5.53-3,8.91-9.75,8.91m92.33,2.11c-1-.43-1.48-1.24-1.14-3.81L102,8.07l7.64,15.61H111L118.75,8l1.44,11.82c.3,2.51,0,3.25-1,3.68V24h6.37v-.44c-.87-.46-1.24-1.17-1.58-3.55L121.29.27h-1.7l-8.75,18.05L102.1.27h-1.7L97.62,19.86c-.34,2.44-.84,3.18-1.81,3.68V24h5.76Zm-14.44,0c-1-.57-1.47-1.24-1.47-3.88V3.08h2.85c3.65,0,4.35.54,5.32,1.74l.44-.13L93.56.23A44.4,44.4,0,0,1,88.1.54H79.5A44.4,44.4,0,0,1,74,.23l-.71,4.46.44.13c1-1.2,1.67-1.74,5.33-1.74h2.84V19.66c0,2.64-.47,3.31-1.47,3.88V24h6.66ZM57.63,24H51.3v-.44c.73-.36,1.3-1.17,1.3-3.71V4.69C52.6,2.14,52,1.34,51.3,1V.54h8.44C66,.54,68.85,3,68.85,7.33c0,2.95-1.78,5.4-5.23,6.3C64.63,14,65.46,15,67,17l2.88,3.68c1.61,2.08,2.28,2.58,3.15,2.91V24H68.91a2.2,2.2,0,0,1-2-1.17l-4.18-5.63c-1.64-2.21-2-2.58-3.08-2.58h-1l-1-2.11v-.33H59.8c3.39,0,5.16-1.78,5.16-4.63C65,4.42,63.09,3,59.37,3h-3V19.83c0,2.54.57,3.35,1.31,3.71ZM45.87,20.36,36.8.27H35.42L26.35,20.36c-.91,2-1.38,2.72-2.38,3.18V24h6v-.44c-1.21-.46-1.61-1.2-.54-3.65l1.24-2.84h9.65l1.24,2.84c1.07,2.45.7,3.19-.37,3.65V24h6.86v-.44c-.87-.46-1.3-1.2-2.21-3.18m-14.1-5.72,3.75-8.58,3.75,8.58ZM216.12,1c-.9.54-1.31,1.17-1.31,3.72v6h13.44v-6c0-2.55-.41-3.18-1.31-3.72V.54h6.33V1c-.91.54-1.31,1.17-1.31,3.72V19.83c0,2.54.4,3.18,1.31,3.71V24h-6.33v-.44c.9-.53,1.31-1.17,1.31-3.71V13.3H214.81v6.53c0,2.54.41,3.18,1.31,3.71V24h-6.33v-.44c.91-.53,1.31-1.17,1.31-3.71V4.69c0-2.55-.4-3.18-1.31-3.72V.54h6.33ZM198.71,24H192v-.44c1-.57,1.48-1.24,1.48-3.88V3.08h-2.85c-3.65,0-4.36.54-5.33,1.74l-.43-.13.7-4.46a44.4,44.4,0,0,0,5.46.31h8.61a44.66,44.66,0,0,0,5.46-.31l.7,4.46-.44.13c-1-1.2-1.67-1.74-5.32-1.74h-2.85V19.66c0,2.64.47,3.31,1.48,3.88ZM175.46.54h5.8V1c-1,.57-1.48,1.24-1.48,3.89v10c0,6.2-3.61,9.61-9.71,9.61s-9.71-3.38-9.71-9.14V4.69c0-2.55-.4-3.18-1.3-3.72V.54h6.32V1c-.9.54-1.3,1.17-1.3,3.72V15.1c0,4.12,2.27,6.43,6.49,6.43,4.06,0,6.37-2.37,6.37-6.66v-10c0-2.65-.5-3.32-1.48-3.89ZM141.67,0a12.14,12.14,0,0,0-12.39,12.42c0,6.3,4.49,12.06,12.43,12.06A12.14,12.14,0,0,0,154.1,12.06C154.1,5.76,149.61,0,141.67,0M142,21.9c-5,0-8.78-4.32-8.78-10.21,0-5.63,3.25-9.11,8.14-9.11s8.78,4.32,8.78,10.21c0,5.63-3.25,9.11-8.14,9.11"/><path d="M10.33,38.09c3.36,0,4.42.22,5.45,1l.36-.22L14.85,35.5c-1.2.13-2.81.16-4.78.16H0v.42c.87.52,1.26,1.13,1.26,3.59V54.26c0,2.45-.39,3.06-1.26,3.58v.42H10.91a46,46,0,0,1,4.78.16l1.87-3.87-.36-.26c-1.39.94-2.61,1.55-6.65,1.55H4.84V47.93H9.68a27.33,27.33,0,0,1,3.52.23l1.58-3-.29-.29a11.77,11.77,0,0,1-4.65.65h-5V38.09Z"/><path d="M139.47,38.09c3.35,0,4.42.22,5.45,1l.36-.22L144,35.5c-1.19.13-2.8.16-4.77.16H129.14v.42c.87.52,1.26,1.13,1.26,3.59V54.26c0,2.45-.39,3.06-1.26,3.58v.42h10.91a45.7,45.7,0,0,1,4.77.16l1.88-3.87-.36-.26c-1.39.94-2.61,1.55-6.65,1.55H134V47.93h4.84a27.45,27.45,0,0,1,3.52.23l1.58-3-.29-.29a11.77,11.77,0,0,1-4.65.65h-5V38.09Z"/><path d="M119.17,38.09c3.36,0,4.42.22,5.45,1l.36-.22-1.29-3.33c-1.2.13-2.81.16-4.78.16H108.84v.42c.87.52,1.26,1.13,1.26,3.59V54.26c0,2.45-.39,3.06-1.26,3.58v.42h10.91a46,46,0,0,1,4.78.16l1.87-3.87-.36-.26c-1.38.94-2.61,1.55-6.64,1.55h-5.72V47.93h4.84a27.33,27.33,0,0,1,3.52.23l1.58-3-.29-.29a11.75,11.75,0,0,1-4.64.65h-5V38.09Z"/><path d="M41.36,39.86c0-2.55.48-3.19,1.42-3.74V35.7H37.2v.42c.93.55,1.42,1.19,1.42,3.74V52L22.48,35.57H21.15V54.13c0,2.55-.48,3.19-1.42,3.74v.42h5.59v-.42c-.94-.55-1.42-1.19-1.42-3.74V42l16.2,16.4h1.26Z"/><path d="M104.55,39.86c0-2.55.49-3.19,1.42-3.74V35.7h-5.58v.42c.94.55,1.42,1.19,1.42,3.74V52L85.67,35.57H84.35V54.13c0,2.55-.48,3.19-1.42,3.74v.42h5.58v-.42c-.93-.55-1.42-1.19-1.42-3.74V42l16.2,16.4h1.26Z"/><path d="M205.2,39.86c0-2.55.48-3.19,1.42-3.74V35.7H201v.42c.93.55,1.42,1.19,1.42,3.74V52l-16.14-16.4H185V54.13c0,2.55-.48,3.19-1.42,3.74v.42h5.59v-.42c-.94-.55-1.42-1.19-1.42-3.74V42l16.2,16.4h1.26Z"/><path d="M67.2,55.32l.06-.16V50l2.1-1.87V47.9H60.58l-1.74,2v.19h4.93v4.75A8.76,8.76,0,0,1,59.13,56c-5.88,0-9.56-3.87-9.56-9.88,0-5.61,3.1-8.81,8.3-8.81,3.26,0,6,1.23,7.16,2.74l.39-.06V36.47c-1.26-.9-3.87-1.64-7.16-1.64-7.91,0-12.5,5.45-12.5,12.13,0,6,4,11.46,12.17,11.46a14,14,0,0,0,9.27-3.1"/><path d="M231.11,55.32l.06-.16V50l2.1-1.87V47.9h-8.78l-1.74,2v.19h4.93v4.75A8.76,8.76,0,0,1,223,56c-5.88,0-9.56-3.87-9.56-9.88,0-5.61,3.1-8.81,8.3-8.81,3.26,0,6,1.23,7.16,2.74l.39-.06V36.47c-1.26-.9-3.87-1.64-7.17-1.64-7.9,0-12.49,5.45-12.49,12.13,0,6,4,11.46,12.17,11.46a14,14,0,0,0,9.27-3.1"/><path d="M78.66,58c-.87-.51-1.26-1.13-1.26-3.58V39.83c0-2.45.39-3.07,1.26-3.58v-.42h-6.1v.42c.87.51,1.26,1.13,1.26,3.58V54.42c0,2.45-.39,3.07-1.26,3.58v.42h6.1Z"/><path d="M179.09,58c-.87-.51-1.26-1.13-1.26-3.58V39.83c0-2.45.39-3.07,1.26-3.58v-.42H173v.42c.87.51,1.26,1.13,1.26,3.58V54.42c0,2.45-.39,3.07-1.26,3.58v.42h6.1Z"/><path d="M155.4,58.42h-6.09V58c.7-.35,1.25-1.13,1.25-3.58V39.83c0-2.45-.55-3.23-1.25-3.58v-.42h8.13c6,0,8.78,2.39,8.78,6.55,0,2.84-1.71,5.19-5,6.07,1,.38,1.78,1.32,3.26,3.19l2.78,3.55c1.55,2,2.19,2.49,3,2.81v.42h-4a2.1,2.1,0,0,1-1.93-1.13l-4-5.42c-1.58-2.13-1.9-2.49-3-2.49h-1l-1-2V47h2.13c3.26,0,5-1.72,5-4.46,0-3-1.8-4.39-5.39-4.39h-2.93V54.42c0,2.45.54,3.23,1.25,3.58Z"/></svg>