<?xml version="1.0" encoding="utf-8"?>
<!-- Generator: Adobe Illustrator 24.1.0, SVG Export Plug-In . SVG Version: 6.00 Build 0)  -->
<svg version="1.1" id="Layer_1" xmlns="http://www.w3.org/2000/svg" xmlns:xlink="http://www.w3.org/1999/xlink" x="0px" y="0px"
	 viewBox="0 0 612.42 58.74" style="enable-background:new 0 0 612.42 58.74;" xml:space="preserve">
<style type="text/css">
	.st0{fill:#FFFFFF;}
</style>
<g>
	<path class="st0" d="M74.65,14.77h-11.3v0.47c0.99,0.58,1.46,1.28,1.46,4.14v16.9c0,2.86-0.47,3.55-1.46,4.14v0.47h10.61
		c9.85,0,14.98-5.83,14.98-13.81C88.92,19.96,83.97,14.77,74.65,14.77 M73.66,38.14h-4.72V17.62h5.07c6.82,0,10.55,3.44,10.55,10.55
		C84.55,34.35,81.12,38.14,73.66,38.14 M175.75,40.47c-1.17-0.47-1.63-1.4-1.28-4.25l1.69-12.99l8.51,17.42h1.57l8.62-17.48
		l1.63,13.17c0.35,2.8-0.06,3.61-1.11,4.14v0.47h7.11v-0.47c-0.99-0.52-1.4-1.28-1.75-3.96l-2.97-22.03h-1.92l-9.73,20.16
		l-9.73-20.16h-1.92l-3.09,21.85c-0.35,2.74-0.93,3.55-2.04,4.14v0.47h6.41V40.47z M160.6,40.47c-1.11-0.64-1.63-1.4-1.63-4.31
		V17.62h3.2c4.08,0,4.84,0.58,5.94,1.92l0.47-0.17l-0.76-4.95c-1.52,0.17-3.55,0.35-6.12,0.35h-9.61c-2.56,0-4.54-0.17-6.12-0.35
		l-0.76,4.95l0.47,0.17c1.11-1.34,1.86-1.92,5.94-1.92h3.2v18.53c0,2.97-0.52,3.73-1.63,4.31v0.47h7.46v-0.47H160.6z M127.67,40.93
		h-7.05v-0.47c0.82-0.41,1.46-1.28,1.46-4.14v-16.9c0-2.86-0.64-3.73-1.46-4.14v-0.47h9.44c6.93,0,10.2,2.74,10.2,7.58
		c0,3.26-1.98,6-5.83,7.05c1.11,0.47,2.04,1.52,3.79,3.73l3.2,4.14c1.81,2.33,2.56,2.86,3.5,3.26v0.47h-4.6
		c-0.99,0-1.52-0.29-2.27-1.28l-4.66-6.29c-1.81-2.45-2.21-2.86-3.44-2.86h-1.11l-1.17-2.33v-0.35h2.45c3.79,0,5.77-1.98,5.77-5.19
		c0-3.5-2.1-5.07-6.23-5.07h-3.38V36.5c0,2.86,0.64,3.73,1.46,4.14v0.29H127.67z M114.56,36.91l-10.14-22.43h-1.52L92.77,36.91
		c-0.99,2.21-1.51,3.03-2.68,3.55v0.47h6.76v-0.47c-1.34-0.52-1.81-1.34-0.58-4.08l1.4-3.2h10.78l1.4,3.2
		c1.22,2.74,0.76,3.55-0.41,4.08v0.47h7.69v-0.47C116.08,39.94,115.55,39.13,114.56,36.91 M98.83,30.5l4.2-9.56l4.2,9.56L98.83,30.5
		z M300.27,15.29c-0.99,0.58-1.46,1.28-1.46,4.14v6.7h14.98v-6.7c0-2.86-0.47-3.55-1.46-4.14v-0.47h7.05v0.47
		c-0.99,0.58-1.46,1.28-1.46,4.14v16.9c0,2.86,0.47,3.55,1.46,4.14v0.47h-7.05v-0.47c0.99-0.58,1.46-1.28,1.46-4.14v-7.28h-14.98
		v7.28c0,2.86,0.47,3.55,1.46,4.14v0.47h-7.05v-0.47c0.99-0.58,1.46-1.28,1.46-4.14v-16.9c0-2.86-0.47-3.55-1.46-4.14v-0.47h7.05
		V15.29z M281.5,40.93h-7.46v-0.47c1.11-0.64,1.63-1.4,1.63-4.31V17.62h-3.2c-4.08,0-4.84,0.58-5.94,1.92l-0.47-0.17l0.76-4.95
		c1.52,0.17,3.55,0.35,6.12,0.35h9.61c2.56,0,4.55-0.17,6.12-0.35l0.76,4.95l-0.47,0.17c-1.11-1.34-1.86-1.92-5.94-1.92h-3.2v18.53
		c0,2.97,0.52,3.73,1.63,4.31v0.47H281.5z M255.52,14.77h6.47v0.47c-1.11,0.64-1.63,1.4-1.63,4.31v11.19
		c0,6.93-4.02,10.72-10.84,10.72c-6.82,0-10.84-3.79-10.84-10.2V19.43c0-2.86-0.47-3.55-1.46-4.14v-0.47h7.05v0.47
		c-0.99,0.58-1.46,1.28-1.46,4.14v11.65c0,4.6,2.56,7.17,7.23,7.17c4.54,0,7.11-2.68,7.11-7.46V19.61c0-2.97-0.58-3.73-1.63-4.31
		L255.52,14.77L255.52,14.77z M218.11,14.19c-8.39,0-13.81,6.47-13.81,13.87c0,7.05,5.01,13.46,13.87,13.46
		c8.39,0,13.81-6.47,13.81-13.87C231.98,20.6,227.02,14.19,218.11,14.19 M218.52,38.66c-5.54,0-9.79-4.84-9.79-11.42
		c0-6.29,3.61-10.14,9.09-10.14c5.54,0,9.79,4.84,9.79,11.42C227.61,34.76,223.99,38.66,218.52,38.66"/>
	<g>
		<path class="st0" d="M350.38,17.62c3.9,0,5.13,0.23,6.29,1.11l0.41-0.23l-1.51-3.85c-1.4,0.17-3.26,0.17-5.54,0.17h-11.65v0.47
			c0.99,0.58,1.46,1.28,1.46,4.14v16.9c0,2.86-0.47,3.55-1.46,4.14v0.47h12.64c2.56,0,4.14,0.06,5.54,0.17l2.16-4.49l-0.41-0.29
			c-1.63,1.11-3.03,1.81-7.69,1.81h-6.64v-9.15h5.59c1.4,0,3.03,0.12,4.08,0.23l1.81-3.5l-0.35-0.35c-1.17,0.47-2.68,0.76-5.36,0.76
			h-5.77v-8.51H350.38z"/>
		<path class="st0" d="M502.87,17.62c3.9,0,5.13,0.23,6.29,1.11l0.41-0.23l-1.51-3.85c-1.4,0.17-3.26,0.17-5.54,0.17h-11.65v0.47
			c0.99,0.58,1.46,1.28,1.46,4.14v16.9c0,2.86-0.47,3.55-1.46,4.14v0.47h12.64c2.56,0,4.14,0.06,5.54,0.17l2.16-4.49l-0.41-0.29
			c-1.63,1.11-3.03,1.81-7.69,1.81h-6.64v-9.15h5.59c1.4,0,3.03,0.12,4.08,0.23l1.81-3.5l-0.35-0.35c-1.17,0.47-2.68,0.76-5.36,0.76
			h-5.77v-8.51H502.87z"/>
		<path class="st0" d="M479.5,17.62c3.9,0,5.13,0.23,6.29,1.11l0.41-0.23l-1.51-3.85c-1.4,0.17-3.26,0.17-5.54,0.17H467.5v0.47
			c0.99,0.58,1.46,1.28,1.46,4.14v16.9c0,2.86-0.47,3.55-1.46,4.14v0.47h12.64c2.56,0,4.14,0.06,5.54,0.17l2.16-4.49l-0.41-0.29
			c-1.63,1.11-3.03,1.81-7.69,1.81h-6.64v-9.15h5.59c1.4,0,3.03,0.12,4.08,0.23l1.81-3.5l-0.35-0.35c-1.17,0.47-2.68,0.76-5.36,0.76
			h-5.77v-8.51H479.5z"/>
		<path class="st0" d="M386.45,19.66c0-2.97,0.58-3.67,1.63-4.31v-0.47h-6.47v0.47c1.11,0.64,1.63,1.4,1.63,4.31v13.98l-18.7-19
			h-1.52v21.5c0,2.97-0.58,3.67-1.63,4.31v0.47h6.47v-0.47c-1.11-0.64-1.63-1.4-1.63-4.31V22.17l18.76,19h1.46L386.45,19.66
			L386.45,19.66z"/>
		<path class="st0" d="M460.62,19.66c0-2.97,0.58-3.67,1.63-4.31v-0.47h-6.47v0.47c1.11,0.64,1.63,1.4,1.63,4.31v13.98l-18.7-19
			h-1.51v21.5c0,2.97-0.58,3.67-1.63,4.31v0.47h6.47v-0.47c-1.11-0.64-1.63-1.4-1.63-4.31V22.17l18.76,19h1.46L460.62,19.66
			L460.62,19.66z"/>
		<path class="st0" d="M579.79,19.66c0-2.97,0.58-3.67,1.63-4.31v-0.47h-6.47v0.47c1.11,0.64,1.63,1.4,1.63,4.31v13.98l-18.7-19
			h-1.52v21.5c0,2.97-0.58,3.67-1.63,4.31v0.47h6.47v-0.47c-1.11-0.64-1.63-1.4-1.63-4.31V22.17l18.76,19h1.46L579.79,19.66
			L579.79,19.66z"/>
		<path class="st0" d="M416.22,37.55l0.06-0.17v-6l2.45-2.16v-0.23h-10.14l-2.04,2.33v0.17h5.71v5.48c-1.4,0.87-3.2,1.34-5.36,1.34
			c-6.82,0-11.07-4.49-11.07-11.42c0-6.53,3.61-10.2,9.61-10.2c3.79,0,6.93,1.4,8.27,3.2l0.47-0.06v-4.08
			c-1.46-1.05-4.49-1.92-8.27-1.92c-9.15,0-14.45,6.29-14.45,14.04c0,6.99,4.66,13.29,14.1,13.29
			C409.76,41.17,413.72,39.82,416.22,37.55"/>
		<path class="st0" d="M609.91,37.55l0.06-0.17v-6l2.45-2.16v-0.23h-10.14l-2.04,2.33v0.17h5.71v5.48c-1.4,0.87-3.2,1.34-5.36,1.34
			c-6.82,0-11.07-4.49-11.07-11.42c0-6.53,3.61-10.2,9.61-10.2c3.79,0,6.93,1.4,8.27,3.2l0.47-0.06v-4.08
			c-1.46-1.05-4.49-1.92-8.27-1.92c-9.15,0-14.45,6.29-14.45,14.04c0,6.99,4.66,13.29,14.1,13.29
			C603.44,41.17,607.4,39.82,609.91,37.55"/>
		<path class="st0" d="M429.97,40.64c-0.99-0.58-1.46-1.28-1.46-4.14v-16.9c0-2.86,0.47-3.55,1.46-4.14V15h-7.05v0.47
			c0.99,0.58,1.46,1.28,1.46,4.14v16.9c0,2.86-0.47,3.55-1.46,4.14v0.47h7.05V40.64z"/>
		<path class="st0" d="M548.9,40.64c-0.99-0.58-1.46-1.28-1.46-4.14v-16.9c0-2.86,0.47-3.55,1.46-4.14V15h-7.05v0.47
			c0.99,0.58,1.46,1.28,1.46,4.14v16.9c0,2.86-0.47,3.55-1.46,4.14v0.47h7.05V40.64z"/>
		<path class="st0" d="M520.82,41.17h-7.05V40.7c0.82-0.41,1.46-1.28,1.46-4.14v-16.9c0-2.86-0.64-3.73-1.46-4.14v-0.47h9.44
			c6.93,0,10.14,2.74,10.14,7.58c0,3.26-1.98,6-5.83,7.05c1.11,0.47,2.04,1.52,3.79,3.67l3.2,4.14c1.81,2.33,2.56,2.86,3.5,3.26
			v0.47h-4.6c-0.99,0-1.51-0.29-2.21-1.28l-4.66-6.29c-1.81-2.45-2.21-2.86-3.44-2.86h-1.11l-1.17-2.33v-0.35h2.45
			c3.79,0,5.77-1.98,5.77-5.19c0-3.5-2.1-5.07-6.23-5.07h-3.38v18.82c0,2.86,0.64,3.73,1.46,4.14v0.35H520.82z"/>
	</g>
</g>
<g>
	<g>
		<path class="st0" d="M45.33,37.18V0H0v37.18c0,0.52,0,1.05,0.06,1.52l0,0l0,0c0,0.12,0,0.17,0,0.29v0.06v0.06
			c0,0.06,0,0.17,0.06,0.23c0,0.06,0,0.12,0.06,0.23c0,0.06,0,0.12,0,0.12c0,0.06,0.06,0.17,0.06,0.23c0,0.17,0.06,0.29,0.06,0.47
			l0,0v0.06l0,0c2.8,13.64,22.32,18.3,22.32,18.3s19.52-4.66,22.32-18.24l0,0l0,0l0,0c0-0.12,0.06-0.17,0.06-0.29
			c0.06-0.23,0.06-0.47,0.12-0.7c0-0.06,0-0.17,0.06-0.23c0-0.06,0-0.12,0-0.17c0-0.12,0-0.17,0-0.29l0,0c0-0.06,0-0.06,0-0.12l0,0
			l0,0l0,0C45.28,38.22,45.33,37.7,45.33,37.18z M41.14,37.23L41.14,37.23L41.14,37.23c-1.05,0-2.1,0.29-3.09,0.87
			c-0.93,0.58-2.04,0.87-3.09,0.87s-2.16-0.29-3.09-0.87c-0.93-0.58-2.04-0.87-3.09-0.87s-2.16,0.29-3.09,0.87l0,0
			c-0.64,0.41-1.34,0.64-2.04,0.76c-0.17,0.06-0.35,0.06-0.52,0.06c-0.35,0.06-0.7,0.06-1.05,0c-0.17,0-0.35-0.06-0.52-0.06
			c-0.7-0.12-1.4-0.41-2.04-0.76c-0.93-0.58-2.04-0.87-3.09-0.87s-2.16,0.29-3.09,0.87c-0.93,0.58-2.04,0.87-3.09,0.87
			s-2.16-0.29-3.09-0.87l0,0c-0.93-0.58-1.98-0.87-3.03-0.87l0,0c0,0,0-0.06,0-0.12v-1.86c0.06,0,0.12,0,0.17,0
			c0.99,0.06,1.98,0.35,2.86,0.87l0,0C8.1,36.71,9.21,37,10.26,37s2.16-0.29,3.09-0.87c1.86-1.17,4.25-1.17,6.18,0l0,0
			c1.86,1.17,4.25,1.17,6.18,0l0,0c0.93-0.58,2.04-0.87,3.09-0.87s2.16,0.29,3.09,0.87c1.86,1.17,4.31,1.17,6.18,0l0,0
			c0.87-0.52,1.86-0.82,2.91-0.87c0.06,0,0.12,0,0.17,0v1.86C41.14,37.18,41.14,37.23,41.14,37.23z M32.51,34.5
			c-0.23-0.12-0.41-0.23-0.64-0.35c-0.93-0.58-2.04-0.87-3.09-0.87s-2.16,0.29-3.09,0.87l0,0c-0.64,0.41-1.34,0.64-2.04,0.76
			c-0.17,0.06-0.35,0.06-0.52,0.06c-0.35,0.06-0.7,0.06-1.05,0c-0.17,0-0.35-0.06-0.52-0.06c-0.06,0-0.12-0.06-0.23-0.06l19.75-19.7
			v4.6L32.51,34.5z M41.14,23.02v10.31l0,0c-1.05,0-2.1,0.29-3.09,0.87c-0.47,0.29-0.99,0.52-1.51,0.64L41.14,23.02z M41.14,14.33
			L20.51,30.77c-1.05-2.1-2.16-5.01-3.2-8.16L41.2,11.65v2.68H41.14z M13.64,30.82h6.82l-3.2,2.56c-0.23-0.06-0.52-0.06-0.76-0.06
			c-0.99,0-1.98,0.23-2.86,0.76V30.82z M41.14,11.01l-24.88,8.51c-0.76-2.51-1.52-5.01-2.1-7.34L41.2,9.15v1.86H41.14z M4.14,29.83
			V13.29l5.77-0.64C8.33,18.47,6.18,25.35,4.14,29.83z M4.14,30.82h6.47v4.25c-0.12,0-0.23,0-0.29,0c-1.05,0-2.16-0.29-3.09-0.87
			l0,0c-0.93-0.58-1.98-0.87-3.03-0.87l0,0v-2.51H4.14z M41.14,8.51l-27.79,0.7c-0.52-2.04-0.87-3.79-1.17-5.07h28.9v4.37H41.14z
			 M11.95,4.14c-0.29,1.28-0.7,3.09-1.17,5.13L4.14,9.44v-5.3H11.95z M22.67,54.54C19,53.43,6,48.89,4.31,39.27l0,0l0,0
			c0.99,0.06,1.98,0.35,2.86,0.87l0,0c0.93,0.58,2.04,0.87,3.09,0.87s2.16-0.29,3.09-0.87c1.86-1.17,4.25-1.17,6.18,0l0,0
			c1.86,1.17,4.25,1.17,6.18,0l0,0c0.93-0.58,2.04-0.87,3.09-0.87s2.16,0.29,3.09,0.87c1.86,1.17,4.31,1.17,6.18,0l0,0
			c0.87-0.52,1.86-0.82,2.91-0.87l0,0C39.33,48.89,26.34,53.43,22.67,54.54z"/>
		<polygon class="st0" points="13.81,44.75 15.09,44.46 15.09,48.25 16.2,48.25 16.2,43.35 13.81,43.82 		"/>
		<polygon class="st0" points="27.21,45.28 28.14,45.28 28.14,44.28 30.13,44.28 28.14,49.18 29.25,49.18 31.17,44.34 31.17,43.47 
			27.21,43.47 		"/>
		<path class="st0" d="M20.39,45.33L20.39,45.33c0.58-0.23,0.93-0.7,0.93-1.34c0-0.93-0.76-1.57-1.92-1.57s-1.92,0.64-1.92,1.57
			c0,0.64,0.35,1.17,0.93,1.34l0,0c-0.64,0.17-1.17,0.7-1.17,1.4c0,0.99,0.82,1.63,2.1,1.63c1.28,0,2.1-0.64,2.1-1.63
			C21.56,46.03,21.09,45.51,20.39,45.33z M19.46,43.18c0.52,0,0.93,0.29,0.93,0.87s-0.41,0.87-0.93,0.87
			c-0.52,0-0.93-0.29-0.93-0.87S18.94,43.18,19.46,43.18z M19.46,47.55c-0.64,0-1.05-0.35-1.05-0.93c0-0.58,0.41-0.93,1.05-0.93
			c0.64,0,1.05,0.35,1.05,0.93C20.51,47.2,20.1,47.55,19.46,47.55z"/>
		<path class="st0" d="M24.76,43.29c0.47,0,0.82,0.29,0.99,0.7l0.76-0.52c-0.29-0.7-0.93-1.05-1.75-1.05
			c-1.52,0-2.45,1.28-2.45,3.09c0,0.76,0.17,1.4,0.47,1.92c0.35,0.58,0.93,0.93,1.75,0.93c1.22,0,1.98-0.82,1.98-1.92
			c0-1.05-0.64-1.81-1.75-1.81c-0.7,0-1.22,0.41-1.4,0.93l0,0v-0.12C23.31,44.23,23.83,43.29,24.76,43.29z M24.53,45.39
			c0.58,0,1.05,0.41,1.05,1.05c0,0.64-0.41,1.05-1.05,1.05c-0.58,0-0.99-0.41-0.99-1.05C23.48,45.8,23.95,45.39,24.53,45.39z"/>
	</g>
</g>
</svg>
