<?xml version="1.0" encoding="utf-8"?>
<!-- Generator: Adobe Illustrator 24.1.0, SVG Export Plug-In . SVG Version: 6.00 Build 0)  -->
<svg version="1.1" id="Layer_1" xmlns="http://www.w3.org/2000/svg" xmlns:xlink="http://www.w3.org/1999/xlink" x="0px" y="0px"
	 viewBox="0 0 253.53 74.01" style="enable-background:new 0 0 253.53 74.01;" xml:space="preserve">
<style type="text/css">
	.st0{fill:#00693E;}
</style>
<path class="st0" d="M74.25,5.29H66.1v0.35c0.73,0.43,1.05,0.94,1.05,2.99v12.16c0,2.04-0.32,2.56-1.05,2.99v0.35h7.64
	c7.1,0,10.76-4.2,10.76-9.93C84.51,9.03,80.96,5.29,74.25,5.29 M73.53,22.08h-3.42V7.33h3.66c4.9,0,7.59,2.48,7.59,7.59
	C81.36,19.36,78.91,22.08,73.53,22.08 M147.71,23.77c-0.83-0.35-1.18-1-0.91-3.07l1.24-9.36l6.14,12.54h1.13l6.22-12.57l1.16,9.5
	c0.24,2.02-0.03,2.61-0.81,2.96v0.35h5.11v-0.35c-0.7-0.38-1-0.94-1.26-2.85l-2.15-15.85h-1.37l-7.02,14.5l-7.02-14.5h-1.37
	l-2.23,15.74c-0.27,1.96-0.67,2.56-1.45,2.96v0.35h4.63V23.77z M136.11,23.77c-0.81-0.46-1.18-1-1.18-3.12V7.33h2.29
	c2.93,0,3.5,0.43,4.28,1.4l0.35-0.11l-0.56-3.58c-1.1,0.13-2.56,0.24-4.39,0.24h-6.92c-1.83,0-3.28-0.11-4.39-0.24l-0.57,3.58
	l0.35,0.11c0.78-0.97,1.35-1.4,4.28-1.4h2.29v13.32c0,2.13-0.38,2.66-1.18,3.12v0.35h5.36V23.77z M112.4,24.12h-5.09v-0.35
	c0.59-0.3,1.05-0.94,1.05-2.99V8.62c0-2.04-0.46-2.69-1.05-2.99V5.29h6.78c5.01,0,7.32,1.99,7.32,5.46c0,2.37-1.43,4.33-4.2,5.06
	c0.81,0.32,1.48,1.1,2.72,2.66l2.31,2.96c1.29,1.67,1.83,2.07,2.53,2.34v0.35h-3.31c-0.7,0-1.08-0.22-1.61-0.94l-3.36-4.52
	c-1.32-1.78-1.59-2.07-2.48-2.07h-0.81l-0.83-1.7v-0.27h1.78c2.72,0,4.14-1.43,4.14-3.71c0-2.5-1.51-3.66-4.49-3.66h-2.45v13.54
	c0,2.04,0.46,2.69,1.05,2.99V24.12z M102.96,21.22L95.67,5.07h-1.1l-7.29,16.15c-0.73,1.59-1.1,2.18-1.91,2.56v0.35h4.84v-0.35
	c-0.97-0.38-1.29-0.97-0.43-2.93l0.99-2.29h7.75l1,2.29c0.86,1.96,0.57,2.56-0.3,2.93v0.35h5.52v-0.35
	C104.04,23.4,103.69,22.8,102.96,21.22 M91.63,16.62l3.01-6.89l3.01,6.89H91.63z M239.75,5.64c-0.73,0.43-1.05,0.94-1.05,2.99v4.84
	h10.79V8.62c0-2.04-0.32-2.56-1.05-2.99V5.29h5.09v0.35c-0.73,0.43-1.05,0.94-1.05,2.99v12.16c0,2.04,0.32,2.56,1.05,2.99v0.35
	h-5.09v-0.35c0.73-0.43,1.05-0.94,1.05-2.99v-5.25H238.7v5.25c0,2.04,0.32,2.56,1.05,2.99v0.35h-5.09v-0.35
	c0.73-0.43,1.05-0.94,1.05-2.99V8.62c0-2.04-0.32-2.56-1.05-2.99V5.29h5.09V5.64z M225.76,24.12h-5.36v-0.35
	c0.81-0.46,1.18-1,1.18-3.12V7.33h-2.29c-2.93,0-3.5,0.43-4.28,1.4l-0.35-0.11l0.57-3.58c1.1,0.13,2.56,0.24,4.39,0.24h6.92
	c1.83,0,3.28-0.11,4.39-0.24l0.56,3.58l-0.35,0.11c-0.78-0.97-1.35-1.4-4.28-1.4h-2.29v13.32c0,2.13,0.38,2.66,1.18,3.12V24.12z
	 M207.09,5.29h4.66v0.35c-0.78,0.46-1.18,1-1.18,3.12v8.05c0,4.98-2.91,7.72-7.8,7.72c-4.92,0-7.8-2.72-7.8-7.35V8.62
	c0-2.04-0.32-2.56-1.05-2.99V5.29h5.09v0.35c-0.73,0.43-1.05,0.94-1.05,2.99v8.37c0,3.31,1.83,5.17,5.22,5.17
	c3.26,0,5.11-1.91,5.11-5.36V8.76c0-2.13-0.4-2.66-1.18-3.12V5.29z M179.94,4.86c-6.03,0-9.96,4.66-9.96,9.98
	c0,5.06,3.61,9.69,9.98,9.69c6.03,0,9.96-4.66,9.96-9.98C189.92,9.48,186.31,4.86,179.94,4.86 M180.2,22.45
	c-3.98,0-7.05-3.47-7.05-8.21c0-4.52,2.61-7.32,6.54-7.32c3.98,0,7.05,3.47,7.05,8.21C186.74,19.66,184.13,22.45,180.2,22.45"/>
<g>
	<path class="st0" d="M74.35,35.39c2.68,0,3.53,0.18,4.36,0.77l0.28-0.18l-1.03-2.65c-0.95,0.1-2.24,0.13-3.82,0.13H66.1v0.34
		c0.7,0.41,1,0.9,1,2.86v11.65c0,1.96-0.31,2.45-1,2.86v0.33h8.71c1.75,0,2.84,0.03,3.82,0.13l1.5-3.09l-0.28-0.21
		c-1.11,0.75-2.09,1.24-5.31,1.24h-4.56v-6.32h3.87c0.98,0,2.09,0.08,2.81,0.18l1.26-2.42l-0.23-0.23c-0.8,0.34-1.83,0.52-3.71,0.52
		h-4v-5.9H74.35z"/>
	<path class="st0" d="M177.5,35.39c2.68,0,3.53,0.18,4.36,0.77l0.28-0.18l-1.03-2.65c-0.95,0.1-2.24,0.13-3.82,0.13h-8.04v0.34
		c0.7,0.41,1,0.9,1,2.86v11.65c0,1.96-0.31,2.45-1,2.86v0.33h8.71c1.75,0,2.84,0.03,3.82,0.13l1.5-3.09l-0.28-0.21
		c-1.11,0.75-2.09,1.24-5.31,1.24h-4.56v-6.32h3.87c0.98,0,2.09,0.08,2.81,0.18l1.26-2.42l-0.23-0.23c-0.8,0.34-1.83,0.52-3.71,0.52
		h-4v-5.9H177.5z"/>
	<path class="st0" d="M161.29,35.39c2.68,0,3.53,0.18,4.36,0.77l0.28-0.18l-1.03-2.65c-0.95,0.1-2.24,0.13-3.82,0.13h-8.04v0.34
		c0.7,0.41,1,0.9,1,2.86v11.65c0,1.96-0.31,2.45-1,2.86v0.33h8.71c1.75,0,2.84,0.03,3.82,0.13l1.5-3.09l-0.28-0.21
		c-1.11,0.75-2.09,1.24-5.31,1.24h-4.56v-6.32h3.87c0.98,0,2.09,0.08,2.81,0.18l1.26-2.42l-0.23-0.23c-0.8,0.34-1.83,0.52-3.71,0.52
		h-4v-5.9H161.29z"/>
	<path class="st0" d="M99.14,36.81c0-2.04,0.39-2.55,1.13-2.99v-0.34h-4.46v0.34c0.75,0.44,1.13,0.95,1.13,2.99v9.67l-12.89-13.1H83
		v14.83c0,2.04-0.39,2.55-1.13,2.99v0.33h4.46V51.2c-0.75-0.44-1.13-0.95-1.13-2.99v-9.67l12.94,13.1h1.01V36.81z"/>
	<path class="st0" d="M149.61,36.81c0-2.04,0.39-2.55,1.13-2.99v-0.34h-4.46v0.34c0.75,0.44,1.13,0.95,1.13,2.99v9.67l-12.89-13.1
		h-1.06v14.83c0,2.04-0.39,2.55-1.13,2.99v0.33h4.46V51.2c-0.75-0.44-1.13-0.95-1.13-2.99v-9.67l12.94,13.1h1.01V36.81z"/>
	<path class="st0" d="M230,36.81c0-2.04,0.39-2.55,1.13-2.99v-0.34h-4.46v0.34c0.75,0.44,1.13,0.95,1.13,2.99v9.67l-12.89-13.1
		h-1.06v14.83c0,2.04-0.39,2.55-1.13,2.99v0.33h4.46V51.2c-0.75-0.44-1.13-0.95-1.13-2.99v-9.67L229,51.64H230V36.81z"/>
	<path class="st0" d="M119.77,49.16l0.05-0.13v-4.15l1.68-1.5v-0.15h-7.01l-1.39,1.6v0.15h3.94v3.79c-0.98,0.59-2.19,0.93-3.71,0.93
		c-4.69,0-7.63-3.09-7.63-7.89c0-4.49,2.48-7.04,6.63-7.04c2.6,0,4.79,0.98,5.72,2.19l0.31-0.05V34.1
		c-1.01-0.72-3.09-1.31-5.72-1.31c-6.32,0-9.98,4.36-9.98,9.69c0,4.82,3.22,9.15,9.72,9.15C115.31,51.64,118.05,50.73,119.77,49.16"
		/>
	<path class="st0" d="M250.7,49.16l0.05-0.13v-4.15l1.68-1.5v-0.15h-7.01l-1.39,1.6v0.15h3.94v3.79c-0.98,0.59-2.19,0.93-3.71,0.93
		c-4.69,0-7.63-3.09-7.63-7.89c0-4.49,2.48-7.04,6.63-7.04c2.6,0,4.79,0.98,5.72,2.19l0.31-0.05V34.1
		c-1.01-0.72-3.09-1.31-5.72-1.31c-6.32,0-9.98,4.36-9.98,9.69c0,4.82,3.22,9.15,9.72,9.15C246.24,51.64,248.97,50.73,250.7,49.16"
		/>
	<path class="st0" d="M128.93,51.3c-0.7-0.41-1.01-0.9-1.01-2.86V36.79c0-1.96,0.31-2.45,1.01-2.86v-0.33h-4.87v0.33
		c0.7,0.41,1.01,0.9,1.01,2.86v11.65c0,1.96-0.31,2.45-1.01,2.86v0.34h4.87V51.3z"/>
	<path class="st0" d="M209.15,51.3c-0.7-0.41-1.01-0.9-1.01-2.86V36.79c0-1.96,0.31-2.45,1.01-2.86v-0.33h-4.87v0.33
		c0.7,0.41,1.01,0.9,1.01,2.86v11.65c0,1.96-0.31,2.45-1.01,2.86v0.34h4.87V51.3z"/>
	<path class="st0" d="M190.23,51.64h-4.87V51.3c0.57-0.28,1-0.9,1-2.86V36.78c0-1.96-0.44-2.58-1-2.86v-0.34h6.5
		c4.8,0,7.01,1.91,7.01,5.23c0,2.27-1.37,4.15-4.02,4.85c0.77,0.31,1.42,1.06,2.6,2.55l2.22,2.84c1.24,1.6,1.75,1.99,2.42,2.24v0.33
		h-3.17c-0.67,0-1.03-0.21-1.55-0.9l-3.22-4.33c-1.26-1.7-1.52-1.99-2.37-1.99H191l-0.8-1.62v-0.26h1.7c2.6,0,3.97-1.37,3.97-3.56
		c0-2.4-1.44-3.51-4.31-3.51h-2.34v12.97c0,1.96,0.44,2.58,1,2.86V51.64z"/>
</g>
<g>
	<path class="st0" d="M57.05,46.81V0H0v46.81c0,0.66,0.03,1.3,0.09,1.93h0h0c0.01,0.12,0.02,0.23,0.04,0.35c0,0.02,0,0.04,0.01,0.06
		c0,0.01,0,0.01,0,0.02c0.02,0.14,0.03,0.28,0.05,0.42c0.01,0.09,0.02,0.17,0.04,0.26c0.01,0.06,0.02,0.13,0.03,0.19
		c0.01,0.1,0.03,0.19,0.05,0.29c0.03,0.2,0.07,0.4,0.11,0.59c0,0,0,0.01,0,0.01c0.01,0.03,0.01,0.06,0.02,0.09l0,0
		c3.54,17.15,28.1,23,28.1,23s24.55-5.85,28.1-22.99l0,0c0-0.01,0-0.02,0.01-0.03c0,0,0-0.01,0-0.01c0.02-0.11,0.04-0.23,0.07-0.34
		c0.05-0.29,0.1-0.57,0.14-0.87c0.02-0.11,0.03-0.22,0.05-0.33c0.01-0.06,0.02-0.13,0.02-0.19c0.01-0.11,0.03-0.23,0.04-0.35
		c0,0,0,0,0,0c0.01-0.05,0.01-0.1,0.02-0.15h0l0,0v0C57.02,48.12,57.05,47.47,57.05,46.81z M51.83,46.92
		C51.83,46.92,51.83,46.92,51.83,46.92C51.83,46.92,51.83,46.92,51.83,46.92c-1.34,0-2.68,0.37-3.86,1.09
		c-1.19,0.73-2.55,1.09-3.89,1.09c-1.35,0-2.7-0.36-3.89-1.09c-1.19-0.73-2.54-1.1-3.89-1.1c-1.35,0-2.7,0.37-3.89,1.1h0
		c-0.8,0.49-1.68,0.81-2.57,0.97c-0.22,0.04-0.44,0.07-0.66,0.09c-0.43,0.04-0.87,0.04-1.31,0c-0.22-0.02-0.43-0.04-0.65-0.08
		c-0.9-0.16-1.78-0.48-2.59-0.98c-1.19-0.73-2.55-1.1-3.89-1.1c-1.35,0-2.7,0.37-3.89,1.1c-1.19,0.73-2.54,1.09-3.89,1.09
		c-1.35,0-2.7-0.36-3.89-1.09h0c-1.18-0.72-2.51-1.08-3.84-1.09c0,0,0,0,0,0c0-0.04,0-0.07,0-0.11v-2.36c0.07,0,0.15-0.01,0.22-0.01
		c1.26,0.04,2.51,0.4,3.62,1.09l0,0c1.19,0.72,2.54,1.09,3.89,1.09c1.35,0,2.7-0.37,3.89-1.09c2.38-1.46,5.39-1.46,7.78,0v0
		c2.38,1.45,5.39,1.45,7.78,0l0,0c1.19-0.72,2.54-1.09,3.88-1.09c1.35,0,2.7,0.37,3.89,1.1c2.38,1.45,5.39,1.45,7.78,0v0
		c1.12-0.68,2.38-1.04,3.64-1.09c0.07,0,0.15,0.01,0.22,0.01v2.36C51.83,46.84,51.83,46.88,51.83,46.92z M40.98,43.47
		c-0.27-0.12-0.54-0.25-0.79-0.41c-1.19-0.73-2.54-1.1-3.89-1.1c-1.35,0-2.7,0.37-3.89,1.1h0c-0.8,0.49-1.68,0.81-2.57,0.97
		c-0.22,0.04-0.44,0.07-0.66,0.09c-0.43,0.04-0.87,0.04-1.31,0c-0.22-0.02-0.43-0.04-0.65-0.08c-0.09-0.02-0.17-0.04-0.26-0.06
		l24.87-24.8V25L40.98,43.47z M51.83,28.95v13.01c0,0,0,0,0,0c-1.34,0-2.68,0.37-3.86,1.09c-0.6,0.37-1.24,0.64-1.91,0.82
		L51.83,28.95z M51.83,18.08L25.81,38.75c-1.34-2.66-2.74-6.29-4.07-10.24l30.09-13.78V18.08z M17.13,38.8h8.61l-4.06,3.23
		c-0.32-0.04-0.64-0.06-0.95-0.06c-1.24,0-2.48,0.33-3.6,0.95V38.8z M51.83,13.87L20.47,24.57c-0.97-3.12-1.88-6.3-2.66-9.24
		l34.03-3.85V13.87z M5.22,37.58V16.76l7.23-0.82C10.47,23.27,7.79,31.93,5.22,37.58z M5.22,38.8h8.12v5.32
		c-0.13,0.01-0.26,0.03-0.39,0.03c-1.35,0-2.7-0.36-3.89-1.09h0c-1.18-0.72-2.51-1.08-3.84-1.09c0,0,0,0,0,0V38.8z M51.83,10.69
		l-34.99,0.89c-0.64-2.57-1.13-4.79-1.44-6.41h36.43V10.69z M15.07,5.17c-0.33,1.64-0.85,3.89-1.5,6.49l-8.35,0.21v-6.7H15.07z
		 M28.53,68.64C23.87,67.26,7.52,61.56,5.44,49.4c0,0,0,0,0,0c0,0,0,0,0,0c1.26,0.04,2.51,0.4,3.62,1.09l0,0
		c1.19,0.72,2.54,1.09,3.89,1.09c1.35,0,2.7-0.37,3.89-1.09c2.38-1.46,5.39-1.46,7.78,0v0c2.38,1.45,5.39,1.45,7.78,0l0,0
		c1.19-0.72,2.54-1.09,3.88-1.09c1.35,0,2.7,0.37,3.89,1.1c2.38,1.45,5.39,1.45,7.78,0v0c1.12-0.68,2.38-1.04,3.64-1.09l0,0
		C49.53,61.56,33.17,67.26,28.53,68.64z"/>
	<polygon class="st0" points="17.4,56.39 19.03,56 19.03,60.75 20.38,60.75 20.38,54.57 17.4,55.2 	"/>
	<polygon class="st0" points="34.24,57 35.41,57 35.41,55.77 37.92,55.77 35.41,61.9 36.8,61.9 39.26,55.82 39.26,54.71 
		34.24,54.71 	"/>
	<path class="st0" d="M25.71,57.07v-0.02c0.75-0.24,1.2-0.84,1.2-1.67c0-1.14-0.94-1.95-2.41-1.95c-1.48,0-2.41,0.81-2.41,1.95
		c0,0.83,0.46,1.43,1.2,1.67v0.02c-0.84,0.23-1.44,0.9-1.44,1.76c0,1.26,1.04,2.06,2.65,2.06c1.61,0,2.66-0.8,2.66-2.06
		C27.16,57.97,26.56,57.29,25.71,57.07z M24.49,54.38c0.67,0,1.16,0.36,1.16,1.09c0,0.72-0.49,1.1-1.16,1.1
		c-0.67,0-1.16-0.38-1.16-1.1C23.33,54.74,23.82,54.38,24.49,54.38z M24.49,59.9c-0.79,0-1.33-0.43-1.33-1.17
		c0-0.74,0.53-1.17,1.33-1.17c0.79,0,1.34,0.43,1.34,1.17C25.83,59.47,25.29,59.9,24.49,59.9z"/>
	<path class="st0" d="M31.19,54.49c0.58,0,1.05,0.33,1.27,0.92l0.95-0.62c-0.37-0.86-1.14-1.36-2.22-1.36
		c-1.88,0-3.07,1.63-3.07,3.91c0,0.93,0.2,1.77,0.62,2.4c0.47,0.7,1.19,1.14,2.17,1.14c1.51,0,2.48-1.03,2.48-2.43
		c0-1.29-0.84-2.29-2.23-2.29c-0.85,0-1.53,0.48-1.78,1.19h-0.03v-0.18C29.35,55.66,30.03,54.49,31.19,54.49z M30.87,57.17
		c0.76,0,1.3,0.52,1.3,1.33c0,0.81-0.54,1.33-1.3,1.33c-0.73,0-1.26-0.52-1.26-1.33C29.6,57.69,30.14,57.17,30.87,57.17z"/>
</g>
</svg>
