<?xml version="1.0" encoding="utf-8"?>
<!-- Generator: Adobe Illustrator 25.0.1, SVG Export Plug-In . SVG Version: 6.00 Build 0)  -->
<svg version="1.1" id="Layer_1" xmlns="http://www.w3.org/2000/svg" xmlns:xlink="http://www.w3.org/1999/xlink" x="0px" y="0px"
	 viewBox="0 0 233.3 244.5" style="enable-background:new 0 0 233.3 244.5;" xml:space="preserve">
<style type="text/css">
	.st0{fill:#00693E;}
</style>
<g>
	<path class="st0" d="M10.2,160.1H0v0.4c0.9,0.5,1.3,1.2,1.3,3.7v15.1c0,2.6-0.4,3.2-1.3,3.7v0.4h9.5c8.8,0,13.4-5.2,13.4-12.4
		C22.9,164.7,18.5,160.1,10.2,160.1 M9.2,181H5v-18.4h4.5c6.1,0,9.5,3.1,9.5,9.4C19,177.6,15.9,181,9.2,181 M101.6,183.1
		c-1-0.4-1.5-1.2-1.1-3.8l1.5-11.7l7.6,15.6h1.4l7.7-15.6l1.4,11.8c0.3,2.5,0,3.2-1,3.7v0.4h6.4v-0.4c-0.9-0.5-1.2-1.2-1.6-3.6
		l-2.7-19.7h-1.7l-8.7,18.1l-8.7-18.1h-1.7l-2.8,19.6c-0.3,2.4-0.8,3.2-1.8,3.7v0.4h5.8L101.6,183.1L101.6,183.1z M87.1,183.1
		c-1-0.6-1.5-1.2-1.5-3.9v-16.6h2.8c3.7,0,4.3,0.5,5.3,1.7l0.4-0.1l-0.7-4.4c-1.4,0.2-3.2,0.3-5.5,0.3h-8.6c-2.3,0-4.1-0.1-5.5-0.3
		l-0.7,4.4l0.4,0.1c1-1.2,1.7-1.7,5.3-1.7H82v16.6c0,2.6-0.5,3.3-1.5,3.9v0.4h6.7L87.1,183.1L87.1,183.1z M57.6,183.5h-6.3v-0.4
		c0.7-0.4,1.3-1.2,1.3-3.7v-15.1c0-2.5-0.6-3.4-1.3-3.7v-0.4h8.4c6.2,0,9.1,2.5,9.1,6.8c0,2.9-1.8,5.4-5.2,6.3
		c1,0.4,1.8,1.4,3.4,3.3l2.9,3.7c1.6,2.1,2.3,2.6,3.2,2.9v0.4h-4.1c-0.9,0-1.3-0.3-2-1.2l-4.2-5.6c-1.6-2.2-2-2.6-3.1-2.6h-1l-1-2.1
		v-0.3h2.2c3.4,0,5.2-1.8,5.2-4.6c0-3.1-1.9-4.6-5.6-4.6h-3.1v16.9c0,2.6,0.6,3.4,1.3,3.7L57.6,183.5L57.6,183.5z M45.9,179.9
		l-9.1-20.1h-1.4l-9.1,20.1c-0.9,2-1.4,2.7-2.4,3.2v0.4h6v-0.4c-1.2-0.5-1.6-1.2-0.5-3.6l1.2-2.9h9.6l1.2,2.9
		c1.1,2.4,0.7,3.2-0.4,3.6v0.4h6.9v-0.4C47.2,182.6,46.8,181.9,45.9,179.9 M31.8,174.2l3.8-8.6l3.8,8.6H31.8z M216.1,160.5
		c-0.9,0.5-1.3,1.2-1.3,3.7v6h13.4v-6c0-2.5-0.4-3.2-1.3-3.7v-0.4h6.3v0.4c-0.9,0.5-1.3,1.2-1.3,3.7v15.1c0,2.6,0.4,3.2,1.3,3.7v0.4
		h-6.3v-0.4c0.9-0.5,1.3-1.2,1.3-3.7v-6.5h-13.4v6.5c0,2.6,0.4,3.2,1.3,3.7v0.4h-6.3v-0.4c0.9-0.5,1.3-1.2,1.3-3.7v-15.1
		c0-2.5-0.4-3.2-1.3-3.7v-0.4h6.3V160.5z M198.7,183.5h-6.7v-0.4c1-0.6,1.5-1.2,1.5-3.9v-16.6h-2.9c-3.6,0-4.4,0.5-5.3,1.7l-0.4-0.1
		l0.7-4.4c1.4,0.2,3.2,0.3,5.5,0.3h8.6c2.3,0,4.1-0.1,5.5-0.3l0.7,4.4l-0.4,0.1c-1-1.2-1.7-1.7-5.3-1.7h-2.9v16.6
		c0,2.6,0.5,3.3,1.5,3.9L198.7,183.5L198.7,183.5z M175.5,160.1h5.8v0.4c-1,0.6-1.5,1.2-1.5,3.9v10c0,6.2-3.6,9.6-9.7,9.6
		c-6.1,0-9.7-3.4-9.7-9.1v-10.6c0-2.5-0.4-3.2-1.3-3.7v-0.4h6.3v0.4c-0.9,0.5-1.3,1.2-1.3,3.7v10.4c0,4.1,2.3,6.4,6.5,6.4
		c4.1,0,6.4-2.4,6.4-6.7v-10c0-2.6-0.5-3.3-1.5-3.9L175.5,160.1L175.5,160.1z M141.7,159.6c-7.5,0-12.4,5.8-12.4,12.4
		c0,6.3,4.5,12.1,12.4,12.1c7.5,0,12.4-5.8,12.4-12.4C154.1,165.3,149.6,159.6,141.7,159.6 M142,181.4c-5,0-8.8-4.3-8.8-10.2
		c0-5.6,3.2-9.1,8.1-9.1c5,0,8.8,4.3,8.8,10.2C150.1,178,146.9,181.4,142,181.4"/>
	<g>
		<path class="st0" d="M119.4,233c0,2.7,2.2,3.6,4.2,4.3c1.6,0.6,3.3,1.1,3.3,3c0,1.6-1.1,2.4-2.8,2.4c-1.8,0-3.5-0.8-4.5-2
			l-0.3,0.1l0.6,2.7c0.8,0.5,2.3,0.8,3.7,0.8c3.2,0,5.5-1.9,5.5-4.8c0-2.7-2.2-3.6-4.2-4.3c-1.6-0.6-3.3-1.1-3.3-3
			c0-1.5,1-2.3,2.7-2.3c1.4,0,2.8,0.6,3.4,1.5l0.3,0v-2.3c-0.8-0.5-2-0.8-3.4-0.8C121.6,228.3,119.4,230.3,119.4,233"/>
		<path class="st0" d="M140,244.5c2.3,0,4.1-0.5,4.9-1.1v-2.4l-0.3,0c-0.8,1-2.7,1.9-4.9,1.9c-0.4,0-0.8,0-1.2-0.1
			c-3-0.7-4.5-3.1-4.5-6.5c0,0,0-0.1,0-0.1c0-3.8,2.1-6,5.7-6c2.2,0,4.1,0.8,4.9,1.9l0.3,0v-2.4c-0.9-0.6-2.7-1.1-4.9-1.1
			c-4.7,0-7.7,2.8-8.4,6.5c-0.1,0.4-0.2,0.8-0.2,1.2c0,0.1,0,0.2,0,0.3c0,0.1,0,0.2,0,0.3c0,4.1,2.8,7.8,8.4,7.8v0
			C139.9,244.5,139.9,244.5,140,244.5"/>
		<path class="st0" d="M151.3,229.3c-0.6,0.4-0.9,0.8-0.9,2.5v4h8.9v-4c0-1.7-0.3-2.1-0.9-2.5V229h4.2v0.3c-0.6,0.4-0.9,0.8-0.9,2.5
			v10c0,1.7,0.3,2.1,0.9,2.5v0.3h-4.2v-0.3c0.6-0.4,0.9-0.8,0.9-2.5v-4.3h-8.9v4.3c0,1.7,0.3,2.1,0.9,2.5v0.3h-4.2v-0.3
			c0.6-0.4,0.9-0.8,0.9-2.5v-10c0-1.7-0.3-2.1-0.9-2.5V229h4.2V229.3z"/>
		<path class="st0" d="M173.1,228.3c-4.9,0-8.2,3.8-8.2,8.2c0,4.1,3,8,8.2,8c4.9,0,8.2-3.8,8.2-8.2
			C181.3,232.1,178.3,228.3,173.1,228.3 M173.3,242.8c-3.3,0-5.8-2.9-5.8-6.7c0-3.7,2.1-6,5.4-6c3.3,0,5.8,2.9,5.8,6.7
			C178.7,240.5,176.5,242.8,173.3,242.8"/>
		<path class="st0" d="M191.7,228.3c-4.9,0-8.2,3.8-8.2,8.2c0,4.1,3,8,8.2,8c4.9,0,8.2-3.8,8.2-8.2
			C199.9,232.1,196.9,228.3,191.7,228.3 M191.9,242.8c-3.3,0-5.8-2.9-5.8-6.7c0-3.7,2.1-6,5.4-6c3.3,0,5.8,2.9,5.8,6.7
			C197.3,240.5,195.2,242.8,191.9,242.8"/>
		<path class="st0" d="M213.2,244.5l1.5-2.8l-0.2-0.2c-1.1,0.8-1.8,1.2-4.2,1.2h-4.2v-11c0-1.7,0.3-2.1,0.9-2.5v-0.3h-4.2v0.3
			c0.6,0.4,0.9,0.8,0.9,2.5v10c0,1.7-0.3,2.1-0.9,2.5v0.3h7.2C211.5,244.4,212.4,244.4,213.2,244.5"/>
		<path class="st0" d="M27.6,244.3h-4.4V244c0.7-0.4,1-0.8,1-2.6v-10.9h-1.9c-2.4,0-2.9,0.4-3.5,1.1l-0.3-0.1l0.5-2.9
			c0.9,0.1,2.1,0.2,3.6,0.2h5.7c1.5,0,2.7-0.1,3.6-0.2l0.5,2.9l-0.3,0.1c-0.6-0.8-1.1-1.1-3.5-1.1h-1.9v10.9c0,1.8,0.3,2.2,1,2.6
			L27.6,244.3L27.6,244.3z M39.1,229.1c-0.6,0.4-0.9,0.8-0.9,2.5v4h8.9v-4c0-1.7-0.3-2.1-0.9-2.5v-0.3h4.2v0.3
			c-0.6,0.4-0.9,0.8-0.9,2.5v10c0,1.7,0.3,2.1,0.9,2.5v0.3h-4.2V244c0.6-0.4,0.9-0.8,0.9-2.5v-4.3h-8.9v4.3c0,1.7,0.3,2.1,0.9,2.5
			v0.3H35V244c0.6-0.4,0.9-0.8,0.9-2.5v-10c0-1.7-0.3-2.1-0.9-2.5v-0.3h4.2V229.1z"/>
		<path class="st0" d="M57.7,238.1l2.5-5.7l2.5,5.7H57.7z M67,241.9l-6-13.2h-0.9l-6,13.2c-0.6,1.3-0.9,1.8-1.6,2.1v0.3h4V244
			c-0.8-0.3-1.1-0.8-0.3-2.4l0.8-1.9h6.4l0.8,1.9c0.7,1.6,0.5,2.1-0.2,2.4v0.3h4.5V244C67.9,243.7,67.6,243.2,67,241.9"/>
		<path class="st0" d="M89.9,230.4c2.3,0,3,0.1,3.7,0.7l0.2-0.1l-0.9-2.3c-0.8,0.1-1.9,0.1-3.3,0.1h-6.9v0.3
			c0.6,0.4,0.9,0.8,0.9,2.5v10c0,1.7-0.3,2.1-0.9,2.5v0.3h7.5c1.5,0,2.4,0,3.3,0.1l1.3-2.6l-0.2-0.2c-0.9,0.6-1.8,1.1-4.6,1.1h-3.9
			v-5.4h3.3c0.8,0,1.8,0.1,2.4,0.1l1.1-2.1l-0.2-0.2c-0.7,0.3-1.6,0.4-3.2,0.4h-3.4v-5.1L89.9,230.4L89.9,230.4z"/>
		<path class="st0" d="M100.8,244.3h-4.2V244c0.5-0.2,0.9-0.8,0.9-2.5v-10c0-1.7-0.4-2.2-0.9-2.5v-0.3h5.6c4.1,0,6,1.6,6,4.5
			c0,2-1.2,3.6-3.4,4.1c0.7,0.3,1.2,0.9,2.2,2.2l1.9,2.4c1.1,1.4,1.5,1.7,2.1,1.9v0.3h-2.7c-0.6,0-0.9-0.2-1.3-0.8l-2.8-3.7
			c-1.1-1.5-1.3-1.7-2-1.7h-0.7l-0.7-1.4v-0.2h1.5c2.2,0,3.4-1.2,3.4-3c0-2-1.2-3-3.7-3h-2v11.1c0,1.7,0.4,2.2,0.9,2.5L100.8,244.3
			L100.8,244.3z"/>
		<path class="st0" d="M75.1,235v6.5c0,1.7,0.3,2.2,1,2.6v0.3h-4.4V244c0.7-0.4,1-0.8,1-2.6V235"/>
		<path class="st0" d="M75,236.1c0,0-2.7-4.4-3.2-5.1c-0.5-0.8-1.1-1.6-0.3-1.9v-0.3H67v0.3c0.8,0.1,1.2,0.7,2.1,1.9l4.6,6.9"/>
		<path class="st0" d="M73.4,238.5c0,0,5-7.1,5.3-7.6c1.1-1.6,1.8-1.7,2.4-1.9v-0.3h-4v0.3c0.8,0.1,0.4,0.5-0.4,1.6l-3.7,5.5"/>
	</g>
	<g>
		<path class="st0" d="M168.7,85.4V0H64.6v85.4c0,1.2,0.1,2.4,0.2,3.5l0,0l0,0c0,0.2,0,0.4,0.1,0.6c0,0,0,0.1,0,0.1
			c0,0.1,0,0.1,0,0.2c0,0.2,0.1,0.4,0.1,0.6c0,0.2,0.1,0.3,0.1,0.5c0,0.1,0,0.2,0.1,0.3c0,0.2,0.1,0.4,0.1,0.6
			c0.1,0.3,0.1,0.7,0.2,1c0,0,0,0,0,0c0,0.1,0,0.1,0,0.2l0,0c6.5,31.3,51.3,42,51.3,42s44.8-10.7,51.3-41.9l0,0c0,0,0,0,0-0.1v0
			c0-0.2,0.1-0.4,0.1-0.6c0.1-0.5,0.2-1.1,0.3-1.6c0-0.2,0.1-0.4,0.1-0.6c0-0.1,0-0.2,0-0.3c0-0.2,0.1-0.4,0.1-0.6v0
			c0-0.1,0-0.2,0-0.3l0,0l0,0l0,0C168.6,87.8,168.7,86.6,168.7,85.4z M159.2,85.6L159.2,85.6L159.2,85.6c-2.4,0-4.9,0.7-7,2
			c-2.2,1.3-4.6,2-7.1,2s-4.9-0.7-7.1-2c-2.2-1.3-4.6-2-7.1-2c-2.5,0-4.9,0.7-7.1,2h0c-1.5,0.9-3.1,1.5-4.7,1.8
			c-0.4,0.1-0.8,0.1-1.2,0.2c-0.8,0.1-1.6,0.1-2.4,0c-0.4,0-0.8-0.1-1.2-0.2c-1.6-0.3-3.3-0.9-4.7-1.8c-2.2-1.3-4.6-2-7.1-2
			s-4.9,0.7-7.1,2s-4.6,2-7.1,2s-4.9-0.7-7.1-2h0c-2.2-1.3-4.6-2-7-2l0,0c0-0.1,0-0.1,0-0.2v-4.3c0.1,0,0.3,0,0.4,0
			c2.3,0.1,4.6,0.7,6.6,2l0,0c2.2,1.3,4.6,2,7.1,2s4.9-0.7,7.1-2c4.3-2.7,9.8-2.7,14.2,0v0c4.4,2.7,9.8,2.7,14.2,0l0,0
			c2.2-1.3,4.6-2,7.1-2c2.5,0,4.9,0.7,7.1,2c4.4,2.7,9.8,2.7,14.2,0v0c2-1.2,4.3-1.9,6.6-2c0.1,0,0.3,0,0.4,0v4.3
			C159.2,85.5,159.2,85.6,159.2,85.6z M139.4,79.3c-0.5-0.2-1-0.5-1.4-0.8c-2.2-1.3-4.6-2-7.1-2c-2.5,0-4.9,0.7-7.1,2h0
			c-1.5,0.9-3.1,1.5-4.7,1.8c-0.4,0.1-0.8,0.1-1.2,0.2c-0.8,0.1-1.6,0.1-2.4,0c-0.4,0-0.8-0.1-1.2-0.2c-0.2,0-0.3-0.1-0.5-0.1
			L159.2,35v10.6L139.4,79.3z M159.2,52.8v23.8l0,0c-2.4,0-4.9,0.7-7,2c-1.1,0.7-2.3,1.2-3.5,1.5L159.2,52.8z M159.2,33l-47.5,37.7
			c-2.4-4.8-5-11.5-7.4-18.7l54.9-25.2L159.2,33L159.2,33z M95.8,70.8h15.7l-7.4,5.9c-0.6-0.1-1.2-0.1-1.8-0.1
			c-2.3,0-4.5,0.6-6.6,1.7L95.8,70.8L95.8,70.8z M159.2,25.3l-57.2,19.5c-1.8-5.7-3.4-11.5-4.9-16.9l62.1-7V25.3z M74.1,68.6v-38
			l13.2-1.5C83.7,42.5,78.8,58.3,74.1,68.6z M74.1,70.8h14.8v9.7c-0.2,0-0.5,0-0.7,0c-2.5,0-4.9-0.7-7.1-2h0c-2.2-1.3-4.6-2-7-2l0,0
			V70.8z M159.2,19.5l-63.8,1.6c-1.2-4.7-2.1-8.7-2.6-11.7h66.5L159.2,19.5L159.2,19.5z M92.1,9.4c-0.6,3-1.6,7.1-2.7,11.9
			l-15.2,0.4V9.4H92.1z M116.6,125.3c-8.5-2.5-38.3-12.9-42.1-35.1l0,0l0,0c2.3,0.1,4.6,0.7,6.6,2l0,0c2.2,1.3,4.6,2,7.1,2
			c2.5,0,4.9-0.7,7.1-2c4.3-2.7,9.8-2.7,14.2,0v0c4.4,2.7,9.8,2.7,14.2,0l0,0c2.2-1.3,4.6-2,7.1-2c2.5,0,4.9,0.7,7.1,2
			c4.4,2.7,9.8,2.7,14.2,0v0c2-1.2,4.3-1.9,6.6-2l0,0C155,112.3,125.1,122.7,116.6,125.3z"/>
		<polygon class="st0" points="96.3,102.9 99.3,102.2 99.3,110.9 101.8,110.9 101.8,99.6 96.3,100.7 		"/>
		<polygon class="st0" points="127.1,104 129.2,104 129.2,101.8 133.8,101.8 129.2,113 131.7,113 136.2,101.9 136.2,99.8 
			127.1,99.8 		"/>
		<path class="st0" d="M111.5,104.1L111.5,104.1c1.4-0.5,2.2-1.6,2.2-3.1c0-2.1-1.7-3.6-4.4-3.6s-4.4,1.5-4.4,3.6
			c0,1.5,0.8,2.6,2.2,3.1v0c-1.5,0.4-2.6,1.6-2.6,3.2c0,2.3,1.9,3.8,4.8,3.8c2.9,0,4.9-1.4,4.9-3.8
			C114.1,105.8,113.1,104.6,111.5,104.1z M109.3,99.2c1.2,0,2.1,0.6,2.1,2c0,1.3-0.9,2-2.1,2s-2.1-0.7-2.1-2
			C107.1,99.9,108.1,99.2,109.3,99.2z M109.3,109.3c-1.4,0-2.4-0.8-2.4-2.1c0-1.4,1-2.1,2.4-2.1s2.4,0.8,2.4,2.1
			S110.7,109.3,109.3,109.3z"/>
		<path class="st0" d="M121.5,99.4c1.1,0,1.9,0.6,2.3,1.7l1.7-1.1c-0.7-1.6-2.1-2.5-4.1-2.5c-3.4,0-5.6,3-5.6,7.1
			c0,1.7,0.4,3.2,1.1,4.4c0.9,1.3,2.2,2.1,4,2.1c2.8,0,4.5-1.9,4.5-4.4c0-2.4-1.5-4.2-4.1-4.2c-1.6,0-2.8,0.9-3.2,2.2h-0.1v-0.3
			C118.1,101.6,119.4,99.4,121.5,99.4z M120.9,104.3c1.4,0,2.4,0.9,2.4,2.4c0,1.5-1,2.4-2.4,2.4c-1.3,0-2.3-0.9-2.3-2.4
			C118.6,105.3,119.6,104.3,120.9,104.3z"/>
	</g>
	<g>
		<path class="st0" d="M10.3,197.6c3.4,0,4.4,0.2,5.5,1l0.4-0.2l-1.3-3.3c-1.2,0.1-2.8,0.2-4.8,0.2H0v0.4c0.9,0.5,1.3,1.1,1.3,3.6
			v14.6c0,2.4-0.4,3.1-1.3,3.6v0.4h10.9c2.2,0,3.5,0,4.8,0.2l1.9-3.9l-0.4-0.3c-1.4,0.9-2.6,1.6-6.7,1.6H4.8v-7.9h4.8
			c1.2,0,2.6,0.1,3.5,0.2l1.6-3l-0.3-0.3c-1,0.4-2.3,0.6-4.7,0.6h-5v-7.4L10.3,197.6L10.3,197.6z"/>
		<path class="st0" d="M139.5,197.6c3.4,0,4.4,0.2,5.4,1l0.4-0.2l-1.3-3.3c-1.2,0.1-2.8,0.2-4.8,0.2h-10.1v0.4
			c0.9,0.5,1.3,1.1,1.3,3.6v14.6c0,2.4-0.4,3.1-1.3,3.6v0.4h10.9c2.2,0,3.6,0,4.8,0.2l1.9-3.9l-0.4-0.3c-1.4,0.9-2.6,1.6-6.6,1.6
			H134v-7.9h4.8c1.2,0,2.6,0.1,3.5,0.2l1.6-3l-0.3-0.3c-1,0.4-2.3,0.6-4.6,0.6h-5v-7.4L139.5,197.6L139.5,197.6z"/>
		<path class="st0" d="M119.2,197.6c3.4,0,4.4,0.2,5.4,1l0.4-0.2l-1.3-3.3c-1.2,0.1-2.8,0.2-4.8,0.2h-10.1v0.4
			c0.9,0.5,1.3,1.1,1.3,3.6v14.6c0,2.4-0.4,3.1-1.3,3.6v0.4h10.9c2.2,0,3.6,0,4.8,0.2l1.9-3.9l-0.4-0.3c-1.4,0.9-2.6,1.6-6.6,1.6
			h-5.7v-7.9h4.8c1.2,0,2.6,0.1,3.5,0.2l1.6-3l-0.3-0.3c-1,0.4-2.3,0.6-4.6,0.6h-5v-7.4L119.2,197.6L119.2,197.6z"/>
		<path class="st0" d="M41.4,199.4c0-2.6,0.5-3.2,1.4-3.7v-0.4h-5.6v0.4c0.9,0.6,1.4,1.2,1.4,3.7v12.1l-16.1-16.4h-1.3v18.6
			c0,2.6-0.5,3.2-1.4,3.7v0.4h5.6v-0.4c-0.9-0.6-1.4-1.2-1.4-3.7v-12.1L40.1,218h1.3L41.4,199.4L41.4,199.4z"/>
		<path class="st0" d="M104.6,199.4c0-2.6,0.5-3.2,1.4-3.7v-0.4h-5.6v0.4c0.9,0.6,1.4,1.2,1.4,3.7v12.1l-16.1-16.4h-1.3v18.6
			c0,2.6-0.5,3.2-1.4,3.7v0.4h5.6v-0.4c-0.9-0.6-1.4-1.2-1.4-3.7v-12.1l16.2,16.4h1.3L104.6,199.4L104.6,199.4z"/>
		<path class="st0" d="M205.2,199.4c0-2.6,0.5-3.2,1.4-3.7v-0.4H201v0.4c0.9,0.6,1.4,1.2,1.4,3.7v12.1l-16.1-16.4H185v18.6
			c0,2.6-0.5,3.2-1.4,3.7v0.4h5.6v-0.4c-0.9-0.6-1.4-1.2-1.4-3.7v-12.1l16.2,16.4h1.3L205.2,199.4L205.2,199.4z"/>
		<path class="st0" d="M67.2,214.9l0.1-0.2v-5.2l2.1-1.9v-0.2h-8.8l-1.7,2v0.2h4.9v4.7c-1.2,0.7-2.7,1.2-4.7,1.2
			c-5.9,0-9.6-3.9-9.6-9.9c0-5.6,3.1-8.8,8.3-8.8c3.3,0,6,1.2,7.2,2.7l0.4-0.1V196c-1.3-0.9-3.9-1.6-7.2-1.6
			c-7.9,0-12.5,5.4-12.5,12.1c0,6,4,11.5,12.2,11.5C61.6,218,65,216.8,67.2,214.9"/>
		<path class="st0" d="M231.1,214.9l0.1-0.2v-5.2l2.1-1.9v-0.2h-8.8l-1.7,2v0.2h4.9v4.7c-1.2,0.7-2.7,1.2-4.6,1.2
			c-5.9,0-9.6-3.9-9.6-9.9c0-5.6,3.1-8.8,8.3-8.8c3.3,0,6,1.2,7.2,2.7l0.4-0.1V196c-1.3-0.9-3.9-1.6-7.2-1.6
			c-7.9,0-12.5,5.4-12.5,12.1c0,6,4,11.5,12.2,11.5C225.5,218,228.9,216.8,231.1,214.9"/>
		<path class="st0" d="M78.7,217.6c-0.9-0.5-1.3-1.1-1.3-3.6v-14.6c0-2.4,0.4-3.1,1.3-3.6v-0.4h-6.1v0.4c0.9,0.5,1.3,1.1,1.3,3.6
			V214c0,2.4-0.4,3.1-1.3,3.6v0.4h6.1V217.6z"/>
		<path class="st0" d="M179.1,217.6c-0.9-0.5-1.3-1.1-1.3-3.6v-14.6c0-2.4,0.4-3.1,1.3-3.6v-0.4H173v0.4c0.9,0.5,1.3,1.1,1.3,3.6
			V214c0,2.4-0.4,3.1-1.3,3.6v0.4h6.1V217.6z"/>
		<path class="st0" d="M155.4,218h-6.1v-0.4c0.7-0.4,1.3-1.1,1.3-3.6v-14.6c0-2.4-0.6-3.2-1.3-3.6v-0.4h8.1c6,0,8.8,2.4,8.8,6.6
			c0,2.8-1.7,5.2-5,6.1c1,0.4,1.8,1.3,3.3,3.2l2.8,3.6c1.6,2,2.2,2.5,3,2.8v0.4h-4c-0.8,0-1.3-0.3-1.9-1.1l-4-5.4
			c-1.6-2.1-1.9-2.5-3-2.5h-1l-1-2v-0.3h2.1c3.3,0,5-1.7,5-4.5c0-3-1.8-4.4-5.4-4.4h-2.9V214c0,2.4,0.6,3.2,1.3,3.6L155.4,218
			L155.4,218z"/>
	</g>
</g>
</svg>
