<svg xmlns="http://www.w3.org/2000/svg" viewBox="0 0 233.27 58.42"><defs><style>.a{fill:#00693e;}</style></defs><path class="a" d="M10.15.27H0V.7c.9.54,1.31,1.18,1.31,3.72V19.56C1.31,22.1.9,22.74,0,23.28v.43H9.51c8.84,0,13.4-5.22,13.4-12.36C22.91,4.92,18.49.27,10.15.27m-.91,20.9H5V2.81H9.54c6.1,0,9.45,3.08,9.45,9.45,0,5.52-3,8.91-9.75,8.91m92.33,2.11c-1-.44-1.48-1.24-1.14-3.82L102,7.8l7.64,15.61H111l7.74-15.64,1.44,11.82c.3,2.51,0,3.25-1,3.69v.43h6.37v-.43c-.87-.47-1.24-1.18-1.58-3.55L121.29,0h-1.7l-8.75,18.05L102.1,0h-1.7L97.62,19.59c-.34,2.45-.84,3.18-1.81,3.69v.43h5.76Zm-14.44,0c-1-.57-1.47-1.24-1.47-3.89V2.81h2.85c3.65,0,4.35.54,5.32,1.74l.44-.13L93.56,0a46.85,46.85,0,0,1-5.46.3H79.5A46.85,46.85,0,0,1,74,0l-.71,4.45.44.13c1-1.2,1.67-1.74,5.33-1.74h2.84V19.39c0,2.65-.47,3.32-1.47,3.89v.43h6.66Zm-29.5.43H51.3v-.43c.73-.37,1.3-1.18,1.3-3.72V4.42C52.6,1.88,52,1.07,51.3.7V.27h8.44c6.23,0,9.11,2.48,9.11,6.8,0,2.94-1.78,5.39-5.23,6.29,1,.4,1.84,1.38,3.38,3.32l2.88,3.68c1.61,2.08,2.28,2.58,3.15,2.92v.43H68.91a2.2,2.2,0,0,1-2-1.17l-4.18-5.63c-1.64-2.21-2-2.58-3.08-2.58h-1l-1-2.11v-.33H59.8c3.39,0,5.16-1.78,5.16-4.62,0-3.12-1.87-4.56-5.59-4.56h-3V19.56c0,2.54.57,3.35,1.31,3.72ZM45.87,20.09,36.8,0H35.42L26.35,20.09c-.91,2-1.38,2.72-2.38,3.19v.43h6v-.43c-1.21-.47-1.61-1.21-.54-3.66l1.24-2.84h9.65l1.24,2.84c1.07,2.45.7,3.19-.37,3.66v.43h6.86v-.43c-.87-.47-1.3-1.21-2.21-3.19m-14.1-5.72,3.75-8.58,3.75,8.58ZM216.12.7c-.9.54-1.31,1.18-1.31,3.72v6h13.44v-6c0-2.54-.41-3.18-1.31-3.72V.27h6.33V.7c-.91.54-1.31,1.18-1.31,3.72V19.56c0,2.54.4,3.18,1.31,3.72v.43h-6.33v-.43c.9-.54,1.31-1.18,1.31-3.72V13H214.81v6.53c0,2.54.41,3.18,1.31,3.72v.43h-6.33v-.43c.91-.54,1.31-1.18,1.31-3.72V4.42c0-2.54-.4-3.18-1.31-3.72V.27h6.33Zm-17.41,23H192v-.43c1-.57,1.48-1.24,1.48-3.89V2.81h-2.85c-3.65,0-4.36.54-5.33,1.74l-.43-.13.7-4.45a46.85,46.85,0,0,0,5.46.3h8.61a47.13,47.13,0,0,0,5.46-.3l.7,4.45-.44.13c-1-1.2-1.67-1.74-5.32-1.74h-2.85V19.39c0,2.65.47,3.32,1.48,3.89ZM175.46.27h5.8V.7c-1,.57-1.48,1.24-1.48,3.89v10c0,6.2-3.61,9.61-9.71,9.61s-9.71-3.38-9.71-9.14V4.42c0-2.54-.4-3.18-1.3-3.72V.27h6.32V.7c-.9.54-1.3,1.18-1.3,3.72V14.84c0,4.12,2.27,6.43,6.49,6.43,4.06,0,6.37-2.38,6.37-6.67v-10c0-2.65-.5-3.32-1.48-3.89ZM141.67-.27a12.14,12.14,0,0,0-12.39,12.43c0,6.29,4.49,12.05,12.43,12.05A12.14,12.14,0,0,0,154.1,11.79c0-6.3-4.49-12.06-12.43-12.06m.34,21.9c-5,0-8.78-4.31-8.78-10.21,0-5.63,3.25-9.11,8.14-9.11s8.78,4.32,8.78,10.21c0,5.63-3.25,9.11-8.14,9.11" transform="translate(0 0.27)"/><path class="a" d="M10.33,37.82c3.36,0,4.42.22,5.45,1l.36-.23-1.29-3.32c-1.2.12-2.81.16-4.78.16H0v.42c.87.51,1.26,1.13,1.26,3.58V54c0,2.45-.39,3.06-1.26,3.58V58H10.91a46,46,0,0,1,4.78.16l1.87-3.87L17.2,54c-1.39.94-2.61,1.55-6.65,1.55H4.84V47.66H9.68a27.33,27.33,0,0,1,3.52.23l1.58-3-.29-.29a11.77,11.77,0,0,1-4.65.65h-5V37.82Z" transform="translate(0 0.27)"/><path class="a" d="M139.47,37.82c3.35,0,4.42.22,5.45,1l.36-.23L144,35.24c-1.19.12-2.8.16-4.77.16H129.14v.42c.87.51,1.26,1.13,1.26,3.58V54c0,2.45-.39,3.06-1.26,3.58V58h10.91a45.7,45.7,0,0,1,4.77.16l1.88-3.87-.36-.26c-1.39.94-2.61,1.55-6.65,1.55H134V47.66h4.84a27.45,27.45,0,0,1,3.52.23l1.58-3-.29-.29a11.77,11.77,0,0,1-4.65.65h-5V37.82Z" transform="translate(0 0.27)"/><path class="a" d="M119.17,37.82c3.36,0,4.42.22,5.45,1l.36-.23-1.29-3.32c-1.2.12-2.81.16-4.78.16H108.84v.42c.87.51,1.26,1.13,1.26,3.58V54c0,2.45-.39,3.06-1.26,3.58V58h10.91a46,46,0,0,1,4.78.16l1.87-3.87L126,54c-1.38.94-2.61,1.55-6.64,1.55h-5.72V47.66h4.84a27.33,27.33,0,0,1,3.52.23l1.58-3-.29-.29a11.75,11.75,0,0,1-4.64.65h-5V37.82Z" transform="translate(0 0.27)"/><path class="a" d="M41.36,39.59c0-2.55.48-3.19,1.42-3.74v-.42H37.2v.42c.93.55,1.42,1.19,1.42,3.74V51.7L22.48,35.3H21.15V53.86c0,2.55-.48,3.19-1.42,3.74V58h5.59V57.6c-.94-.55-1.42-1.19-1.42-3.74V41.76L40.1,58.15h1.26Z" transform="translate(0 0.27)"/><path class="a" d="M104.55,39.59c0-2.55.49-3.19,1.42-3.74v-.42h-5.58v.42c.94.55,1.42,1.19,1.42,3.74V51.7L85.67,35.3H84.35V53.86c0,2.55-.48,3.19-1.42,3.74V58h5.58V57.6c-.93-.55-1.42-1.19-1.42-3.74V41.76l16.2,16.39h1.26Z" transform="translate(0 0.27)"/><path class="a" d="M205.2,39.59c0-2.55.48-3.19,1.42-3.74v-.42H201v.42c.93.55,1.42,1.19,1.42,3.74V51.7L186.32,35.3H185V53.86c0,2.55-.48,3.19-1.42,3.74V58h5.59V57.6c-.94-.55-1.42-1.19-1.42-3.74V41.76l16.2,16.39h1.26Z" transform="translate(0 0.27)"/><path class="a" d="M67.2,55.05l.06-.16v-5.2l2.1-1.87v-.19H60.58l-1.74,2v.19h4.93v4.75a8.76,8.76,0,0,1-4.64,1.16c-5.88,0-9.56-3.87-9.56-9.88,0-5.61,3.1-8.81,8.3-8.81,3.26,0,6,1.23,7.16,2.75l.39-.07V36.2c-1.26-.9-3.87-1.64-7.16-1.64-7.91,0-12.5,5.45-12.5,12.13,0,6,4,11.46,12.17,11.46a14,14,0,0,0,9.27-3.1" transform="translate(0 0.27)"/><path class="a" d="M231.11,55.05l.06-.16v-5.2l2.1-1.87v-.19h-8.78l-1.74,2v.19h4.93v4.75A8.76,8.76,0,0,1,223,55.73c-5.88,0-9.56-3.87-9.56-9.88,0-5.61,3.1-8.81,8.3-8.81,3.26,0,6,1.23,7.16,2.75l.39-.07V36.2c-1.26-.9-3.87-1.64-7.17-1.64-7.9,0-12.49,5.45-12.49,12.13,0,6,4,11.46,12.17,11.46a14,14,0,0,0,9.27-3.1" transform="translate(0 0.27)"/><path class="a" d="M78.66,57.73c-.87-.51-1.26-1.13-1.26-3.58V39.56c0-2.45.39-3.07,1.26-3.58v-.42h-6.1V36c.87.51,1.26,1.13,1.26,3.58V54.15c0,2.45-.39,3.07-1.26,3.58v.42h6.1Z" transform="translate(0 0.27)"/><path class="a" d="M179.09,57.73c-.87-.51-1.26-1.13-1.26-3.58V39.56c0-2.45.39-3.07,1.26-3.58v-.42H173V36c.87.51,1.26,1.13,1.26,3.58V54.15c0,2.45-.39,3.07-1.26,3.58v.42h6.1Z" transform="translate(0 0.27)"/><path class="a" d="M155.4,58.15h-6.09v-.42c.7-.35,1.25-1.13,1.25-3.58V39.56c0-2.45-.55-3.23-1.25-3.58v-.42h8.13c6,0,8.78,2.39,8.78,6.55,0,2.84-1.71,5.2-5,6.07,1,.39,1.78,1.32,3.26,3.19l2.78,3.55c1.55,2,2.19,2.49,3,2.81v.42h-4A2.1,2.1,0,0,1,164.35,57l-4-5.42c-1.58-2.13-1.9-2.49-3-2.49h-1l-1-2v-.32h2.13c3.26,0,5-1.71,5-4.46,0-3-1.8-4.39-5.39-4.39h-2.93V54.15c0,2.45.54,3.23,1.25,3.58Z" transform="translate(0 0.27)"/></svg>