<?xml version="1.0" encoding="utf-8"?>
<!-- Generator: Adobe Illustrator 24.1.2, SVG Export Plug-In . SVG Version: 6.00 Build 0)  -->
<svg version="1.1" id="Layer_1" xmlns="http://www.w3.org/2000/svg" xmlns:xlink="http://www.w3.org/1999/xlink" x="0px" y="0px"
	 viewBox="0 0 612.4 58.7" style="enable-background:new 0 0 612.4 58.7;" xml:space="preserve">
<style type="text/css">
	.st0{fill:#00693E;}
</style>
<g>
	<path class="st0" d="M74.7,14.8H63.4v0.5c1,0.6,1.5,1.3,1.5,4.1v16.9c0,2.9-0.5,3.5-1.5,4.1v0.5H74c9.8,0,15-5.8,15-13.8
		C88.9,20,84,14.8,74.7,14.8 M73.7,38.1h-4.7V17.6H74c6.8,0,10.6,3.4,10.6,10.6C84.6,34.3,81.1,38.1,73.7,38.1 M175.8,40.5
		c-1.2-0.5-1.6-1.4-1.3-4.2l1.7-13l8.5,17.4h1.6l8.6-17.5l1.6,13.2c0.4,2.8-0.1,3.6-1.1,4.1V41h7.1v-0.5c-1-0.5-1.4-1.3-1.8-4l-3-22
		h-1.9l-9.7,20.2l-9.7-20.2h-1.9l-3.1,21.9c-0.4,2.7-0.9,3.5-2,4.1V41h6.4L175.8,40.5L175.8,40.5z M160.6,40.5
		c-1.1-0.6-1.6-1.4-1.6-4.3V17.6h3.2c4.1,0,4.8,0.6,5.9,1.9l0.5-0.2l-0.8-4.9c-1.5,0.2-3.6,0.4-6.1,0.4h-9.6c-2.6,0-4.5-0.2-6.1-0.4
		l-0.8,4.9l0.5,0.2c1.1-1.3,1.9-1.9,5.9-1.9h3.2v18.5c0,3-0.5,3.7-1.6,4.3v0.5h7.5L160.6,40.5L160.6,40.5L160.6,40.5z M127.7,40.9
		h-7.1v-0.5c0.8-0.4,1.5-1.3,1.5-4.1V19.4c0-2.9-0.6-3.7-1.5-4.1v-0.5h9.4c6.9,0,10.2,2.7,10.2,7.6c0,3.3-2,6-5.8,7
		c1.1,0.5,2,1.5,3.8,3.7l3.2,4.1c1.8,2.3,2.6,2.9,3.5,3.3V41h-4.6c-1,0-1.5-0.3-2.3-1.3l-4.7-6.3c-1.8-2.5-2.2-2.9-3.4-2.9h-1.1
		l-1.2-2.3v-0.4h2.4c3.8,0,5.8-2,5.8-5.2c0-3.5-2.1-5.1-6.2-5.1h-3.4v18.8c0,2.9,0.6,3.7,1.5,4.1L127.7,40.9L127.7,40.9z
		 M114.6,36.9l-10.1-22.4h-1.5L92.8,36.9c-1,2.2-1.5,3-2.7,3.5v0.5h6.8v-0.5c-1.3-0.5-1.8-1.3-0.6-4.1l1.4-3.2h10.8l1.4,3.2
		c1.2,2.7,0.8,3.5-0.4,4.1v0.5h7.7v-0.5C116.1,39.9,115.6,39.1,114.6,36.9 M98.8,30.5l4.2-9.6l4.2,9.6H98.8z M300.3,15.3
		c-1,0.6-1.5,1.3-1.5,4.1v6.7h15v-6.7c0-2.9-0.5-3.6-1.5-4.1v-0.5h7v0.5c-1,0.6-1.5,1.3-1.5,4.1v16.9c0,2.9,0.5,3.5,1.5,4.1v0.5h-7
		v-0.5c1-0.6,1.5-1.3,1.5-4.1v-7.3h-15v7.3c0,2.9,0.5,3.5,1.5,4.1v0.5h-7v-0.5c1-0.6,1.5-1.3,1.5-4.1V19.4c0-2.9-0.5-3.6-1.5-4.1
		v-0.5h7V15.3z M281.5,40.9H274v-0.5c1.1-0.6,1.6-1.4,1.6-4.3V17.6h-3.2c-4.1,0-4.8,0.6-5.9,1.9l-0.5-0.2l0.8-4.9
		c1.5,0.2,3.5,0.4,6.1,0.4h9.6c2.6,0,4.5-0.2,6.1-0.4l0.8,4.9l-0.5,0.2c-1.1-1.3-1.9-1.9-5.9-1.9h-3.2v18.5c0,3,0.5,3.7,1.6,4.3
		L281.5,40.9C281.4,40.9,281.5,40.9,281.5,40.9z M255.5,14.8h6.5v0.5c-1.1,0.6-1.6,1.4-1.6,4.3v11.2c0,6.9-4,10.7-10.8,10.7
		s-10.8-3.8-10.8-10.2V19.4c0-2.9-0.5-3.6-1.5-4.1v-0.5h7.1v0.5c-1,0.6-1.5,1.3-1.5,4.1v11.6c0,4.6,2.6,7.2,7.2,7.2
		c4.5,0,7.1-2.7,7.1-7.5V19.6c0-3-0.6-3.7-1.6-4.3L255.5,14.8L255.5,14.8z M218.1,14.2c-8.4,0-13.8,6.5-13.8,13.9
		c0,7.1,5,13.5,13.9,13.5c8.4,0,13.8-6.5,13.8-13.9C232,20.6,227,14.2,218.1,14.2 M218.5,38.7c-5.5,0-9.8-4.8-9.8-11.4
		c0-6.3,3.6-10.1,9.1-10.1c5.5,0,9.8,4.8,9.8,11.4C227.6,34.8,224,38.7,218.5,38.7"/>
	<g>
		<path class="st0" d="M350.4,17.6c3.9,0,5.1,0.2,6.3,1.1l0.4-0.2l-1.5-3.9c-1.4,0.2-3.3,0.2-5.5,0.2h-11.6v0.5
			c1,0.6,1.5,1.3,1.5,4.1v16.9c0,2.9-0.5,3.5-1.5,4.1v0.5H351c2.6,0,4.1,0.1,5.5,0.2l2.2-4.5l-0.4-0.3c-1.6,1.1-3,1.8-7.7,1.8H344
			V29h5.6c1.4,0,3,0.1,4.1,0.2l1.8-3.5l-0.4-0.4c-1.2,0.5-2.7,0.8-5.4,0.8H344v-8.5C344,17.6,350.4,17.6,350.4,17.6z"/>
		<path class="st0" d="M502.9,17.6c3.9,0,5.1,0.2,6.3,1.1l0.4-0.2l-1.5-3.9c-1.4,0.2-3.3,0.2-5.5,0.2h-11.6v0.5
			c1,0.6,1.5,1.3,1.5,4.1v16.9c0,2.9-0.5,3.5-1.5,4.1v0.5h12.6c2.6,0,4.1,0.1,5.5,0.2l2.2-4.5l-0.4-0.3c-1.6,1.1-3,1.8-7.7,1.8h-6.6
			V29h5.6c1.4,0,3,0.1,4.1,0.2l1.8-3.5l-0.4-0.4c-1.2,0.5-2.7,0.8-5.4,0.8h-5.8v-8.5C496.5,17.6,502.9,17.6,502.9,17.6z"/>
		<path class="st0" d="M479.5,17.6c3.9,0,5.1,0.2,6.3,1.1l0.4-0.2l-1.5-3.9c-1.4,0.2-3.3,0.2-5.5,0.2h-11.6v0.5
			c1,0.6,1.5,1.3,1.5,4.1v16.9c0,2.9-0.5,3.5-1.5,4.1v0.5h12.6c2.6,0,4.1,0.1,5.5,0.2l2.2-4.5l-0.4-0.3c-1.6,1.1-3,1.8-7.7,1.8h-6.6
			V29h5.6c1.4,0,3,0.1,4.1,0.2l1.8-3.5l-0.4-0.4c-1.2,0.5-2.7,0.8-5.4,0.8h-5.8v-8.5C473.1,17.6,479.5,17.6,479.5,17.6z"/>
		<path class="st0" d="M386.5,19.7c0-3,0.6-3.7,1.6-4.3v-0.5h-6.5v0.5c1.1,0.6,1.6,1.4,1.6,4.3v14l-18.7-19H363v21.5
			c0,3-0.6,3.7-1.6,4.3v0.5h6.5v-0.5c-1.1-0.6-1.6-1.4-1.6-4.3v-14l18.8,19h1.5V19.7L386.5,19.7z"/>
		<path class="st0" d="M460.6,19.7c0-3,0.6-3.7,1.6-4.3v-0.5h-6.5v0.5c1.1,0.6,1.6,1.4,1.6,4.3v14l-18.7-19h-1.5v21.5
			c0,3-0.6,3.7-1.6,4.3v0.5h6.5v-0.5c-1.1-0.6-1.6-1.4-1.6-4.3v-14l18.8,19h1.5L460.6,19.7L460.6,19.7z"/>
		<path class="st0" d="M579.8,19.7c0-3,0.6-3.7,1.6-4.3v-0.5H575v0.5c1.1,0.6,1.6,1.4,1.6,4.3v14l-18.7-19h-1.5v21.5
			c0,3-0.6,3.7-1.6,4.3v0.5h6.5v-0.5c-1.1-0.6-1.6-1.4-1.6-4.3v-14l18.8,19h1.5V19.7L579.8,19.7z"/>
		<path class="st0" d="M416.2,37.5l0.1-0.2v-6l2.5-2.2V29h-10.1l-2,2.3v0.2h5.7V37c-1.4,0.9-3.2,1.3-5.4,1.3
			c-6.8,0-11.1-4.5-11.1-11.4c0-6.5,3.6-10.2,9.6-10.2c3.8,0,6.9,1.4,8.3,3.2l0.5-0.1v-4.1c-1.5-1.1-4.5-1.9-8.3-1.9
			c-9.1,0-14.5,6.3-14.5,14c0,7,4.7,13.3,14.1,13.3C409.8,41.2,413.7,39.8,416.2,37.5"/>
		<path class="st0" d="M609.9,37.5l0.1-0.2v-6l2.5-2.2V29h-10.1l-2,2.3v0.2h5.7V37c-1.4,0.9-3.2,1.3-5.4,1.3
			c-6.8,0-11.1-4.5-11.1-11.4c0-6.5,3.6-10.2,9.6-10.2c3.8,0,6.9,1.4,8.3,3.2l0.5-0.1v-4.1c-1.5-1.1-4.5-1.9-8.3-1.9
			c-9.2,0-14.5,6.3-14.5,14c0,7,4.7,13.3,14.1,13.3C603.4,41.2,607.4,39.8,609.9,37.5"/>
		<path class="st0" d="M430,40.6c-1-0.6-1.5-1.3-1.5-4.1V19.6c0-2.9,0.5-3.5,1.5-4.1V15h-7v0.5c1,0.6,1.5,1.3,1.5,4.1v16.9
			c0,2.9-0.5,3.5-1.5,4.1v0.5h7V40.6z"/>
		<path class="st0" d="M548.9,40.6c-1-0.6-1.5-1.3-1.5-4.1V19.6c0-2.9,0.5-3.5,1.5-4.1V15h-7v0.5c1,0.6,1.5,1.3,1.5,4.1v16.9
			c0,2.9-0.5,3.5-1.5,4.1v0.5h7V40.6z"/>
		<path class="st0" d="M520.8,41.2h-7v-0.5c0.8-0.4,1.5-1.3,1.5-4.1V19.7c0-2.9-0.6-3.7-1.5-4.1v-0.5h9.4c6.9,0,10.1,2.7,10.1,7.6
			c0,3.3-2,6-5.8,7c1.1,0.5,2,1.5,3.8,3.7l3.2,4.1c1.8,2.3,2.6,2.9,3.5,3.3v0.5h-4.6c-1,0-1.5-0.3-2.2-1.3l-4.7-6.3
			c-1.8-2.5-2.2-2.9-3.4-2.9H522l-1.2-2.3v-0.4h2.5c3.8,0,5.8-2,5.8-5.2c0-3.5-2.1-5.1-6.2-5.1h-3.4v18.8c0,2.9,0.6,3.7,1.5,4.1
			L520.8,41.2L520.8,41.2L520.8,41.2z"/>
	</g>
</g>
<g>
	<g>
		<path class="st0" d="M45.3,37.2V0H0v37.2c0,0.5,0,1,0.1,1.5l0,0l0,0c0,0.1,0,0.2,0,0.3v0.1v0.1c0,0.1,0,0.2,0.1,0.2
			c0,0.1,0,0.1,0.1,0.2c0,0.1,0,0.1,0,0.1c0,0.1,0.1,0.2,0.1,0.2c0,0.2,0.1,0.3,0.1,0.5l0,0v0.1l0,0c2.8,13.6,22.3,18.3,22.3,18.3
			s19.5-4.7,22.3-18.2l0,0l0,0l0,0c0-0.1,0.1-0.2,0.1-0.3c0.1-0.2,0.1-0.5,0.1-0.7c0-0.1,0-0.2,0.1-0.2c0-0.1,0-0.1,0-0.2
			c0-0.1,0-0.2,0-0.3l0,0c0-0.1,0-0.1,0-0.1l0,0l0,0l0,0C45.3,38.2,45.3,37.7,45.3,37.2z M41.1,37.2L41.1,37.2L41.1,37.2
			c-1,0-2.1,0.3-3.1,0.9C37.1,38.7,36,39,35,39s-2.2-0.3-3.1-0.9c-0.9-0.6-2-0.9-3.1-0.9s-2.2,0.3-3.1,0.9l0,0
			c-0.6,0.4-1.3,0.6-2,0.8c-0.2,0.1-0.4,0.1-0.5,0.1c-0.4,0.1-0.7,0.1-1,0c-0.2,0-0.4-0.1-0.5-0.1c-0.7-0.1-1.4-0.4-2-0.8
			c-0.9-0.6-2-0.9-3.1-0.9s-2.2,0.3-3.1,0.9c-0.9,0.6-2,0.9-3.1,0.9s-2.2-0.3-3.1-0.9l0,0c-0.9-0.6-2-0.9-3-0.9l0,0c0,0,0-0.1,0-0.1
			v-1.9c0.1,0,0.1,0,0.2,0c1,0.1,2,0.3,2.9,0.9l0,0c0.9,0.6,2.1,0.9,3.1,0.9s2.2-0.3,3.1-0.9c1.9-1.2,4.2-1.2,6.2,0l0,0
			c1.9,1.2,4.2,1.2,6.2,0l0,0c0.9-0.6,2-0.9,3.1-0.9s2.2,0.3,3.1,0.9c1.9,1.2,4.3,1.2,6.2,0l0,0c0.9-0.5,1.9-0.8,2.9-0.9
			c0.1,0,0.1,0,0.2,0v1.9C41.1,37.2,41.1,37.2,41.1,37.2z M32.5,34.5c-0.2-0.1-0.4-0.2-0.6-0.3c-0.9-0.6-2-0.9-3.1-0.9
			s-2.2,0.3-3.1,0.9l0,0c-0.6,0.4-1.3,0.6-2,0.8C23.5,35,23.3,35,23.1,35c-0.4,0.1-0.7,0.1-1,0c-0.2,0-0.4-0.1-0.5-0.1
			c-0.1,0-0.1-0.1-0.2-0.1l19.8-19.7v4.6L32.5,34.5z M41.1,23v10.3l0,0c-1,0-2.1,0.3-3.1,0.9c-0.5,0.3-1,0.5-1.5,0.6L41.1,23z
			 M41.1,14.3L20.5,30.8c-1-2.1-2.2-5-3.2-8.2l23.9-11L41.1,14.3L41.1,14.3z M13.6,30.8h6.8l-3.2,2.6c-0.2-0.1-0.5-0.1-0.8-0.1
			c-1,0-2,0.2-2.9,0.8V30.8z M41.1,11l-24.9,8.5c-0.8-2.5-1.5-5-2.1-7.3l27-3L41.1,11C41.2,11,41.1,11,41.1,11z M4.1,29.8V13.3
			l5.8-0.6C8.3,18.5,6.2,25.4,4.1,29.8z M4.1,30.8h6.5v4.2c-0.1,0-0.2,0-0.3,0c-1.1,0-2.2-0.3-3.1-0.9l0,0c-0.9-0.6-2-0.9-3-0.9l0,0
			L4.1,30.8C4.2,30.8,4.1,30.8,4.1,30.8z M41.1,8.5L13.3,9.2c-0.5-2-0.9-3.8-1.2-5.1h28.9L41.1,8.5L41.1,8.5z M11.9,4.1
			c-0.3,1.3-0.7,3.1-1.2,5.1L4.1,9.4V4.1C4.1,4.1,11.9,4.1,11.9,4.1z M22.7,54.5C19,53.4,6,48.9,4.3,39.3l0,0l0,0
			c1,0.1,2,0.3,2.9,0.9l0,0c0.9,0.6,2,0.9,3.1,0.9s2.2-0.3,3.1-0.9c1.9-1.2,4.2-1.2,6.2,0l0,0c1.9,1.2,4.2,1.2,6.2,0l0,0
			c0.9-0.6,2-0.9,3.1-0.9s2.2,0.3,3.1,0.9c1.9,1.2,4.3,1.2,6.2,0l0,0c0.9-0.5,1.9-0.8,2.9-0.9l0,0C39.3,48.9,26.3,53.4,22.7,54.5z"
			/>
		<polygon class="st0" points="13.8,44.8 15.1,44.5 15.1,48.2 16.2,48.2 16.2,43.3 13.8,43.8 		"/>
		<polygon class="st0" points="27.2,45.3 28.1,45.3 28.1,44.3 30.1,44.3 28.1,49.2 29.2,49.2 31.2,44.3 31.2,43.5 27.2,43.5 		"/>
		<path class="st0" d="M20.4,45.3L20.4,45.3c0.6-0.2,0.9-0.7,0.9-1.3c0-0.9-0.8-1.6-1.9-1.6s-1.9,0.6-1.9,1.6c0,0.6,0.4,1.2,0.9,1.3
			l0,0c-0.6,0.2-1.2,0.7-1.2,1.4c0,1,0.8,1.6,2.1,1.6s2.1-0.6,2.1-1.6C21.6,46,21.1,45.5,20.4,45.3z M19.5,43.2
			c0.5,0,0.9,0.3,0.9,0.9s-0.4,0.9-0.9,0.9s-0.9-0.3-0.9-0.9S18.9,43.2,19.5,43.2z M19.5,47.5c-0.6,0-1-0.3-1-0.9s0.4-0.9,1-0.9
			s1,0.3,1,0.9C20.5,47.2,20.1,47.5,19.5,47.5z"/>
		<path class="st0" d="M24.8,43.3c0.5,0,0.8,0.3,1,0.7l0.8-0.5c-0.3-0.7-0.9-1-1.8-1c-1.5,0-2.5,1.3-2.5,3.1c0,0.8,0.2,1.4,0.5,1.9
			c0.4,0.6,0.9,0.9,1.8,0.9c1.2,0,2-0.8,2-1.9c0-1-0.6-1.8-1.8-1.8c-0.7,0-1.2,0.4-1.4,0.9l0,0v-0.1C23.3,44.2,23.8,43.3,24.8,43.3z
			 M24.5,45.4c0.6,0,1,0.4,1,1s-0.4,1-1,1c-0.6,0-1-0.4-1-1C23.5,45.8,24,45.4,24.5,45.4z"/>
	</g>
</g>
</svg>
