<svg xmlns="http://www.w3.org/2000/svg" viewBox="0 0 233.27 217.97"><defs><style>.a{fill:#00693e;}</style></defs><path class="a" d="M10.15,160.08H0v.44c.9.54,1.31,1.17,1.31,3.72v15.14c0,2.54-.41,3.18-1.31,3.71v.44H9.51c8.84,0,13.4-5.23,13.4-12.36,0-6.43-4.42-11.09-12.76-11.09M9.24,181H5V162.63H9.54c6.1,0,9.45,3.08,9.45,9.44,0,5.53-3,8.91-9.75,8.91m92.33,2.11c-1-.43-1.48-1.24-1.14-3.82L102,167.62l7.64,15.61H111l7.74-15.64,1.44,11.82c.3,2.51,0,3.25-1,3.68v.44h6.37v-.44c-.87-.47-1.24-1.17-1.58-3.55l-2.68-19.72h-1.7l-8.75,18.05-8.74-18.05h-1.7l-2.78,19.59c-.34,2.44-.84,3.18-1.81,3.68v.44h5.76Zm-14.44,0c-1-.57-1.47-1.24-1.47-3.88V162.63h2.85c3.65,0,4.35.54,5.32,1.74l.44-.13-.71-4.46a44.73,44.73,0,0,1-5.46.3H79.5a44.73,44.73,0,0,1-5.46-.3l-.71,4.46.44.13c1-1.2,1.67-1.74,5.33-1.74h2.84v16.58c0,2.64-.47,3.31-1.47,3.88v.44h6.66Zm-29.5.44H51.3v-.44c.73-.37,1.3-1.17,1.3-3.71V164.24c0-2.55-.57-3.35-1.3-3.72v-.44h8.44c6.23,0,9.11,2.48,9.11,6.8,0,3-1.78,5.39-5.23,6.3,1,.4,1.84,1.37,3.38,3.31l2.88,3.69c1.61,2.08,2.28,2.58,3.15,2.91v.44H68.91a2.2,2.2,0,0,1-2-1.17l-4.18-5.63c-1.64-2.21-2-2.58-3.08-2.58h-1l-1-2.11v-.33H59.8c3.39,0,5.16-1.78,5.16-4.63,0-3.11-1.87-4.55-5.59-4.55h-3v16.85c0,2.54.57,3.34,1.31,3.71Zm-11.76-3.62L36.8,159.82H35.42l-9.07,20.09c-.91,2-1.38,2.71-2.38,3.18v.44h6v-.44c-1.21-.47-1.61-1.2-.54-3.65l1.24-2.84h9.65l1.24,2.84c1.07,2.45.7,3.18-.37,3.65v.44h6.86v-.44c-.87-.47-1.3-1.2-2.21-3.18m-14.1-5.73,3.75-8.57,3.75,8.57Zm184.35-13.66c-.9.54-1.31,1.17-1.31,3.72v6h13.44v-6c0-2.55-.41-3.18-1.31-3.72v-.44h6.33v.44c-.91.54-1.31,1.17-1.31,3.72v15.14c0,2.54.4,3.18,1.31,3.71v.44h-6.33v-.44c.9-.53,1.31-1.17,1.31-3.71v-6.54H214.81v6.54c0,2.54.41,3.18,1.31,3.71v.44h-6.33v-.44c.91-.53,1.31-1.17,1.31-3.71V164.24c0-2.55-.4-3.18-1.31-3.72v-.44h6.33Zm-17.41,23H192v-.44c1-.57,1.48-1.24,1.48-3.88V162.63h-2.85c-3.65,0-4.36.54-5.33,1.74l-.43-.13.7-4.46a44.73,44.73,0,0,0,5.46.3h8.61a45,45,0,0,0,5.46-.3l.7,4.46-.44.13c-1-1.2-1.67-1.74-5.32-1.74h-2.85v16.58c0,2.64.47,3.31,1.48,3.88Zm-23.25-23.45h5.8v.44c-1,.57-1.48,1.24-1.48,3.88v10c0,6.19-3.61,9.61-9.71,9.61s-9.71-3.38-9.71-9.14V164.24c0-2.55-.4-3.18-1.3-3.72v-.44h6.32v.44c-.9.54-1.3,1.17-1.3,3.72v10.41c0,4.12,2.27,6.43,6.49,6.43,4.06,0,6.37-2.37,6.37-6.66v-10c0-2.64-.5-3.31-1.48-3.88Zm-33.79-.53A12.14,12.14,0,0,0,129.28,172c0,6.3,4.49,12.06,12.43,12.06a12.14,12.14,0,0,0,12.39-12.42c0-6.3-4.49-12.06-12.43-12.06m.34,21.9c-5,0-8.78-4.32-8.78-10.21,0-5.63,3.25-9.11,8.14-9.11s8.78,4.32,8.78,10.21c0,5.63-3.25,9.11-8.14,9.11"/><path class="a" d="M168.69,85.42V0H64.58V85.42c0,1.2,0,2.38.16,3.53h0q0,.31.06.63s0,.07,0,.11l0,.2c0,.2,0,.4.07.6s0,.32.07.48,0,.22,0,.33.07.4.1.6l.18,1h0l0,.17h0c6.46,31.29,51.28,42,51.28,42s44.8-10.68,51.28-42h0s0,0,0-.06h0l.12-.63c.1-.52.19-1,.26-1.58,0-.19.06-.4.08-.6s0-.23,0-.34,0-.42.07-.63h0l0-.27h0C168.64,87.82,168.69,86.63,168.69,85.42Zm-9.53.2h0a13.6,13.6,0,0,0-7,2,13.6,13.6,0,0,1-14.2,0,13.58,13.58,0,0,0-14.19,0h0A13.42,13.42,0,0,1,119,89.39c-.4.07-.8.12-1.2.16a13.51,13.51,0,0,1-2.38,0,11.72,11.72,0,0,1-1.19-.15,13.44,13.44,0,0,1-4.73-1.79,13.6,13.6,0,0,0-14.2,0,13.58,13.58,0,0,1-14.19,0h0a13.59,13.59,0,0,0-7-2h0V81.1h.39a13.75,13.75,0,0,1,6.62,2h0a13.64,13.64,0,0,0,14.19,0,13.65,13.65,0,0,1,14.2,0h0a13.61,13.61,0,0,0,14.19,0h0a13.61,13.61,0,0,1,14.19,0,13.63,13.63,0,0,0,14.2,0h0a13.72,13.72,0,0,1,6.65-2h.4v4.52Zm-19.81-6.29a14.17,14.17,0,0,1-1.44-.76,13.58,13.58,0,0,0-14.19,0h0A13.62,13.62,0,0,1,119,80.35q-.6.11-1.2.15a13.51,13.51,0,0,1-2.38,0,11.72,11.72,0,0,1-1.19-.15c-.16,0-.31-.07-.47-.1L159.16,35V45.63Zm19.81-26.5V76.57h0a13.61,13.61,0,0,0-7,2,13.52,13.52,0,0,1-3.48,1.5Zm0-19.84L111.67,70.72A154.13,154.13,0,0,1,104.25,52l54.91-25.15ZM95.85,70.8h15.72l-7.41,5.89a12.76,12.76,0,0,0-1.75-.12,13.54,13.54,0,0,0-6.56,1.7Zm63.31-45.49L101.93,44.84C100.15,39.15,98.5,33.35,97.07,28l62.09-7Zm-85,43.27v-38L87.3,29.09C83.69,42.46,78.8,58.27,74.11,68.58Zm0,2.22H88.93v9.74l-.71,0a13.56,13.56,0,0,1-7.09-2h0a13.6,13.6,0,0,0-7-2h0Zm85.05-51.28L95.31,21.14c-1.16-4.69-2.07-8.74-2.63-11.7h66.48ZM92.07,9.44c-.6,3-1.54,7.09-2.73,11.85l-15.23.38V9.44Zm24.56,115.83c-8.49-2.53-38.33-12.94-42.13-35.12h0a13.64,13.64,0,0,1,6.62,2h0a13.64,13.64,0,0,0,14.19,0,13.61,13.61,0,0,1,14.2,0h0a13.66,13.66,0,0,0,14.19,0h0a13.61,13.61,0,0,1,14.19,0,13.68,13.68,0,0,0,14.2,0h0a13.51,13.51,0,0,1,6.65-2h0C155,112.33,125.11,122.74,116.63,125.27Z"/><polygon class="a" points="96.34 102.9 99.31 102.19 99.31 110.86 101.77 110.86 101.77 99.58 96.34 100.74 96.34 102.9"/><polygon class="a" points="127.06 104.02 129.2 104.02 129.2 101.78 133.79 101.78 129.2 112.97 131.74 112.97 136.23 101.86 136.23 99.83 127.06 99.83 127.06 104.02"/><path class="a" d="M111.5,104.14v0a3,3,0,0,0,2.18-3c0-2.08-1.71-3.55-4.4-3.55s-4.41,1.47-4.41,3.55a3,3,0,0,0,2.18,3v0a3.36,3.36,0,0,0-2.62,3.21c0,2.3,1.91,3.75,4.85,3.75s4.86-1.45,4.86-3.75A3.35,3.35,0,0,0,111.5,104.14Zm-2.22-4.89a1.88,1.88,0,0,1,2.12,2,2.13,2.13,0,0,1-4.25,0A1.89,1.89,0,0,1,109.28,99.25Zm0,10.06a2.16,2.16,0,1,1,2.44-2.14A2.14,2.14,0,0,1,109.28,109.31Z"/><path class="a" d="M121.5,99.44a2.42,2.42,0,0,1,2.32,1.67l1.73-1.14a4.1,4.1,0,0,0-4-2.47c-3.43,0-5.6,3-5.6,7.13A7.87,7.87,0,0,0,117,109a4.55,4.55,0,0,0,4,2.08,4.28,4.28,0,0,0,4.53-4.44,3.93,3.93,0,0,0-4.07-4.19,3.34,3.34,0,0,0-3.25,2.16h-.06v-.33C118.15,101.57,119.38,99.44,121.5,99.44Zm-.59,4.9a2.42,2.42,0,0,1,0,4.83,2.42,2.42,0,0,1,0-4.83Z"/><path class="a" d="M10.33,197.63c3.36,0,4.42.23,5.45,1l.36-.22-1.29-3.33c-1.2.13-2.81.16-4.78.16H0v.42c.87.52,1.26,1.13,1.26,3.58v14.6c0,2.45-.39,3.06-1.26,3.58v.42H10.91a46,46,0,0,1,4.78.16l1.87-3.87-.36-.26c-1.39.93-2.61,1.55-6.65,1.55H4.84v-7.91H9.68a27.33,27.33,0,0,1,3.52.23l1.58-3-.29-.29a11.81,11.81,0,0,1-4.65.64h-5v-7.39Z"/><path class="a" d="M139.47,197.63c3.35,0,4.42.23,5.45,1l.36-.22-1.3-3.33c-1.19.13-2.8.16-4.77.16H129.14v.42c.87.52,1.26,1.13,1.26,3.58v14.6c0,2.45-.39,3.06-1.26,3.58v.42h10.91a45.7,45.7,0,0,1,4.77.16l1.88-3.87-.36-.26c-1.39.93-2.61,1.55-6.65,1.55H134v-7.91h4.84a27.45,27.45,0,0,1,3.52.23l1.58-3-.29-.29A11.81,11.81,0,0,1,139,205h-5v-7.39Z"/><path class="a" d="M119.17,197.63c3.36,0,4.42.23,5.45,1l.36-.22-1.29-3.33c-1.2.13-2.81.16-4.78.16H108.84v.42c.87.52,1.26,1.13,1.26,3.58v14.6c0,2.45-.39,3.06-1.26,3.58v.42h10.91a46,46,0,0,1,4.78.16l1.87-3.87-.36-.26c-1.38.93-2.61,1.55-6.64,1.55h-5.72v-7.91h4.84a27.33,27.33,0,0,1,3.52.23l1.58-3-.29-.29a11.79,11.79,0,0,1-4.64.64h-5v-7.39Z"/><path class="a" d="M41.36,199.41c0-2.55.48-3.2,1.42-3.75v-.42H37.2v.42c.93.55,1.42,1.2,1.42,3.75v12.1L22.48,195.12H21.15v18.56c0,2.55-.48,3.19-1.42,3.74v.42h5.59v-.42c-.94-.55-1.42-1.19-1.42-3.74V201.57L40.1,218h1.26Z"/><path class="a" d="M104.55,199.41c0-2.55.49-3.2,1.42-3.75v-.42h-5.58v.42c.94.55,1.42,1.2,1.42,3.75v12.1L85.67,195.12H84.35v18.56c0,2.55-.48,3.19-1.42,3.74v.42h5.58v-.42c-.93-.55-1.42-1.19-1.42-3.74V201.57l16.2,16.4h1.26Z"/><path class="a" d="M205.2,199.41c0-2.55.48-3.2,1.42-3.75v-.42H201v.42c.93.55,1.42,1.2,1.42,3.75v12.1l-16.14-16.39H185v18.56c0,2.55-.48,3.19-1.42,3.74v.42h5.59v-.42c-.94-.55-1.42-1.19-1.42-3.74V201.57l16.2,16.4h1.26Z"/><path class="a" d="M67.2,214.87l.06-.16v-5.2l2.1-1.87v-.19H60.58l-1.74,2v.19h4.93v4.75a8.76,8.76,0,0,1-4.64,1.16c-5.88,0-9.56-3.88-9.56-9.88,0-5.62,3.1-8.81,8.3-8.81,3.26,0,6,1.23,7.16,2.74l.39-.06V196c-1.26-.9-3.87-1.65-7.16-1.65-7.91,0-12.5,5.46-12.5,12.14,0,6,4,11.46,12.17,11.46a14,14,0,0,0,9.27-3.1"/><path class="a" d="M231.11,214.87l.06-.16v-5.2l2.1-1.87v-.19h-8.78l-1.74,2v.19h4.93v4.75a8.76,8.76,0,0,1-4.64,1.16c-5.88,0-9.56-3.88-9.56-9.88,0-5.62,3.1-8.81,8.3-8.81,3.26,0,6,1.23,7.16,2.74l.39-.06V196c-1.26-.9-3.87-1.65-7.17-1.65-7.9,0-12.49,5.46-12.49,12.14,0,6,4,11.46,12.17,11.46a14,14,0,0,0,9.27-3.1"/><path class="a" d="M78.66,217.55c-.87-.52-1.26-1.13-1.26-3.58V199.38c0-2.46.39-3.07,1.26-3.59v-.41h-6.1v.41c.87.52,1.26,1.13,1.26,3.59V214c0,2.45-.39,3.06-1.26,3.58V218h6.1Z"/><path class="a" d="M179.09,217.55c-.87-.52-1.26-1.13-1.26-3.58V199.38c0-2.46.39-3.07,1.26-3.59v-.41H173v.41c.87.52,1.26,1.13,1.26,3.59V214c0,2.45-.39,3.06-1.26,3.58V218h6.1Z"/><path class="a" d="M155.4,218h-6.09v-.42c.7-.36,1.25-1.13,1.25-3.58V199.38c0-2.46-.55-3.23-1.25-3.59v-.42h8.13c6,0,8.78,2.39,8.78,6.56,0,2.84-1.71,5.19-5,6.06,1,.39,1.78,1.33,3.26,3.2l2.78,3.55c1.55,2,2.19,2.49,3,2.81V218h-4a2.1,2.1,0,0,1-1.93-1.13l-4-5.42c-1.58-2.13-1.9-2.49-3-2.49h-1l-1-2v-.32h2.13c3.26,0,5-1.72,5-4.46,0-3-1.8-4.39-5.39-4.39h-2.93V214c0,2.45.54,3.22,1.25,3.58Z"/></svg>