<svg xmlns="http://www.w3.org/2000/svg" id="Layer_1" x="0" y="0" version="1.1" viewBox="0 0 300 66.9" xml:space="preserve"><style>.st0{fill:#fff}</style><path d="M80.9 10.9c0 .7.2 1 1.1 1h.5v.3h-4.3v-.3h.5c.8 0 1.1-.3 1.1-1V4.1h-2.4c-.6 0-.8.3-1 1.5h-.2l.2-2.2h.3c0 .1.1.1.2.2H83.8c.2 0 .4 0 .4-.2h.3l.2 2.2h-.2c-.2-1.2-.5-1.5-1-1.5h-2.4v6.8zM93.1 8.1v2.6c0 .9.2 1.2 1.1 1.2v.3h-3.5v-.3h.1c.8 0 1.1-.2 1.1-1v-6c0-.7-.2-.9-1-1v-.3h3.3v.3c-1 0-1.1.3-1.1 1.3v2.4h5.4V4.9c0-.7-.2-1-1.1-1h-.3v-.3h3.5v.3c-.8 0-1 .3-1 1.1v5.7c0 1 .3 1.2 1.1 1.2h.1v.3H97v-.3h.4c.9 0 1.1-.3 1.1-1V8.1h-5.4zM109.5 8.4l-.8 2.2c-.1.3-.3.7-.3.9 0 .4.4.5 1.1.5h.2v.3h-3.2V12c.9 0 1-.2 1.5-1.4l2.5-6.8-.1-.3h1.2l2.9 7.6c.3.7.6.9 1.3.9v.3H112V12h.4c.8 0 1.1-.1 1.1-.5 0-.2-.1-.4-.2-.6l-.9-2.5h-2.9zm1.4-3.8l-1.2 3.2h2.4l-1.2-3.2zM126.9 4.9c.4-.8.2-1-.7-1v-.3h3.1v.3c-.9.1-1.3.4-1.7 1.1l-2.3 3.9V11c0 .7.3 1 1.1 1h.2v.3h-3.8V12h.3c.9 0 1.1-.3 1.1-1V9l-2.4-3.8c-.7-1.1-1-1.3-1.9-1.3v-.3h3.7v.3c-1.1 0-1.1.3-.7.9l2.2 3.4 1.8-3.3zM141.3 9.1h-.3c-.1-1-.4-1.1-.9-1.1h-2.3v2.9c0 .6.2.8.7.8h2.1c1 0 1.3-.4 1.6-1.6h.3l-.2 2.1H135v-.3h.4c1.1 0 1.3-.3 1.3-1.1V5c0-.8-.2-1.1-1.1-1.1h-.3v-.3h6.6l.1 1.9h-.2c-.2-1.2-.5-1.4-1-1.4h-2.9v3.4h2.5c.5 0 .7-.2.8-1h.3v2.6zM151.6 10.9c0 .8.3 1 1.1 1h.3v.3h-3.9v-.3h.2c.8 0 1.1-.2 1.1-1.1V5c0-.9-.2-1.1-1-1.1h-.3v-.3c.3 0 1.2-.1 1.7-.1h1.8c2.6 0 3.7 1 3.7 2.5 0 1-.7 1.9-1.8 2.2.5.4.9.8 1.6 1.4l1.1 1.1c.8.8 1.7 1.3 2.7 1.4v.2c-2.4.1-3-.4-4.3-1.6l-.9-.9c-.6-.6-1.1-1-1.4-1.2h-1.6v2.3zm0-2.6h.9c1.6 0 2.6-.6 2.6-2.3 0-1.3-.6-2.3-2.7-2.3h-.7v4.6zM175.8 10.1c.3 1.2 1.3 1.9 2.3 1.9.9 0 1.9-.5 1.9-1.6 0-2-4.4-2.6-4.4-5 0-1.1 1-2 2.5-2 1.2 0 1.4.3 1.9.3.1 0 .2 0 .2-.1h.2l.2 1.7h-.2c-.4-1-1.3-1.6-2.2-1.6-.9 0-1.5.5-1.5 1.3 0 2 4.4 2.5 4.4 5 0 1.3-1.2 2.4-2.8 2.4-.8 0-1.7-.4-1.9-.4-.1 0-.2.1-.3.2h-.2l-.3-2.1h.2zM195.9 5.9c-.5-1.3-1.6-2.1-3.1-2.1-2.3 0-3.7 1.7-3.7 4 0 2.5 1.8 4.3 3.9 4.3 1.1 0 2.4-.4 3.4-2h.3c-.2.6-.6 1.5-.9 2-.9-.1-1.5.4-3.1.4-2.8 0-4.8-1.8-4.8-4.4 0-2.7 2.1-4.6 4.9-4.6 1.7 0 2.5.6 2.9.6.2 0 .2 0 .2-.1h.2l.1 2h-.3zM205.2 8.1v2.6c0 .9.2 1.2 1.1 1.2v.3h-3.5v-.3h.1c.8 0 1.1-.2 1.1-1v-6c0-.7-.2-.9-1-1v-.3h3.3v.3c-1 0-1.1.3-1.1 1.3v2.4h5.4V4.9c0-.7-.2-1-1.1-1h-.3v-.3h3.5v.3c-.8 0-1 .3-1 1.1v5.7c0 1 .3 1.2 1.1 1.2h.1v.3H209v-.3h.4c.9 0 1.1-.3 1.1-1V8.1h-5.3zM224.4 12.4c-2.7 0-5-1.7-5-4.3 0-2.7 2.1-4.7 5-4.7 2.6 0 4.8 1.8 4.8 4.3.1 2.8-2.1 4.7-4.8 4.7zm-.3-8.6c-2.4 0-3.4 2.3-3.4 3.9 0 2.6 1.7 4.4 4 4.4 2.2 0 3.3-2 3.3-3.9 0-2.6-1.6-4.4-3.9-4.4zM241.1 12.4c-2.7 0-5-1.7-5-4.3 0-2.7 2.1-4.7 5-4.7 2.6 0 4.8 1.8 4.8 4.3.1 2.8-2.1 4.7-4.8 4.7zm-.3-8.6c-2.4 0-3.4 2.3-3.4 3.9 0 2.6 1.7 4.4 4 4.4 2.2 0 3.3-2 3.3-3.9 0-2.6-1.6-4.4-3.9-4.4zM258.5 12.2h-6.2v-.3h.5c.6 0 .9-.2.9-.9V4.9c0-.7-.2-1-1.1-1h-.2v-.3h4.1v.3h-.5c-.9 0-1.1.1-1.1 1v6.3c0 .4.2.5.6.5h2c.8 0 1.1-.3 1.9-1.5h.2l-1.1 2zM280.8 12.4c-2.7 0-5-1.7-5-4.3 0-2.7 2.1-4.7 5-4.7 2.6 0 4.8 1.8 4.8 4.3.1 2.8-2.1 4.7-4.8 4.7zm-.3-8.6c-2.4 0-3.4 2.3-3.4 3.9 0 2.6 1.7 4.4 4 4.4 2.2 0 3.3-2 3.3-3.9 0-2.6-1.6-4.4-3.9-4.4zM298 8.9h-.2c0-.8-.3-1-1-1h-2.5v3c0 .8.2 1.1 1.2 1.1v.3h-3.3V12c.9-.1 1-.2 1-1.3V5.2c0-.9-.1-1.3-1-1.3v-.3h6.2v1.6h-.4c0-.8-.3-1.1-1.1-1.1h-2.6v3.2h2.7c.5 0 .8-.3.8-.9h.2v2.5zM88.7 30h-.6c-.2-2.2-.8-2.4-2.1-2.4h-5.2v6.5c0 1.4.5 1.7 1.6 1.7h4.7c2.1 0 2.8-.8 3.5-3.4h.6l-.5 4.5h-16v-.6h.9c2.4 0 2.9-.7 2.9-2.5V20.9c0-1.7-.4-2.4-2.4-2.4h-.7v-.6H90l.2 4.2h-.6c-.4-2.6-1.2-3.1-2.3-3.1h-6.4v7.5h5.5c1.1 0 1.6-.5 1.8-2.3h.6V30zM114.2 37L98.4 20.5v13.1c0 2.2.5 2.7 3.1 2.7v.6h-7.1v-.6h.1c1.9 0 2.5-.6 2.5-2v-15c-.7-.5-1.5-.7-2.6-.8v-.6h4.8l14.4 15V20.7c0-1.9-.5-2.2-3-2.3v-.6h7.1v.6c-2.3 0-2.8.4-2.8 1.6v17h-.7zM137.1 35.4c-3 1.6-6.9 1.9-8.2 1.9-6.7 0-9.8-5.2-9.8-9.6 0-4.6 3.2-10.3 10.7-10.3 3.3 0 5.4 1 6.1 1 .3 0 .5-.1.7-.2h.4v4.9h-.6c-.8-3.8-3.4-5-6.3-5-5.4 0-8.1 4.5-8.1 9.4 0 6.3 4.4 9 7.9 9 1.4 0 3-.3 4.7-1.2v-3.8c0-1.7-.6-2.3-2.4-2.3H131v-.5h8.2v.5c-1.5.1-2.1.6-2.1 1.9v4.3zM149.7 36.8h-7.4v-.6c1.9-.1 2.3-.6 2.3-2.6v-13c0-1.6-.6-2.1-2.3-2.2v-.6h7.4v.6c-1.9 0-2.6.4-2.6 2.5v12.9c0 1.8.5 2.4 2.6 2.4v.6zM173.4 37l-15.8-16.5v13.1c0 2.2.5 2.7 3.1 2.7v.6h-7.1v-.6h.1c1.9 0 2.5-.6 2.5-2v-15c-.7-.5-1.5-.7-2.6-.8v-.6h4.8l14.4 15V20.7c0-1.9-.5-2.2-3-2.3v-.6h7.1v.6c-2.3 0-2.8.4-2.8 1.6v17h-.7zM194.2 30h-.6c-.2-2.2-.8-2.4-2.1-2.4h-5.2v6.5c0 1.4.5 1.7 1.6 1.7h4.7c2.1 0 2.8-.8 3.5-3.4h.6l-.5 4.5H180v-.6h.9c2.4 0 2.9-.7 2.9-2.5V20.9c0-1.7-.4-2.4-2.4-2.4h-.7v-.6h14.6l.2 4.2h-.5c-.4-2.6-1.2-3.1-2.3-3.1h-6.4v7.5h5.5c1.1 0 1.6-.5 1.8-2.3h.6V30zM213.6 30h-.6c-.2-2.2-.8-2.4-2.1-2.4h-5.2v6.5c0 1.4.5 1.7 1.6 1.7h4.7c2.1 0 2.8-.8 3.5-3.4h.5l-.5 4.5h-16.2v-.6h.9c2.4 0 2.9-.7 2.9-2.5V20.9c0-1.7-.4-2.4-2.4-2.4h-.7v-.6h14.6l.2 4.2h-.6c-.4-2.6-1.2-3.1-2.3-3.1h-6.4v7.5h5.5c1.1 0 1.6-.5 1.8-2.3h.6V30zM225.4 34c0 1.8.7 2.3 2.4 2.3h.7v.6h-8.6v-.6h.5c1.8 0 2.4-.5 2.4-2.5V20.9c0-1.9-.5-2.4-2.3-2.4h-.7v-.6c.7 0 2.6-.1 3.8-.2 1.2-.1 1.9-.1 3.8-.1 5.6 0 8.2 2.3 8.2 5.4 0 2.3-1.6 4.2-4.1 4.9 1.1.9 2 1.7 3.5 3.2l2.4 2.4c1.8 1.8 4 2.6 5.6 2.7v.6c-4.5.2-6.3-.6-9-3.3l-2-2c-1.3-1.3-2.4-2.2-3.1-2.7-.8 0-1.3.1-2.1.1-.7 0-1.1 0-1.6-.1V34zm0-5.8c.7.1 1.2.1 1.9.1 3.4 0 5.6-1.4 5.6-5.1 0-2.8-1.3-5-6-5-.6 0-1 0-1.5.1v9.9zM250.6 36.8h-7.4v-.6c1.9-.1 2.3-.6 2.3-2.6v-13c0-1.6-.6-2.1-2.3-2.2v-.6h7.4v.6c-1.9 0-2.6.4-2.6 2.5v12.9c0 1.8.5 2.4 2.6 2.4v.6zM274.7 37l-15.8-16.5v13.1c0 2.2.5 2.7 3.1 2.7v.6h-7.1v-.6h.1c1.9 0 2.5-.6 2.5-2v-15c-.7-.5-1.5-.7-2.6-.8v-.6h4.8l14.4 15V20.7c0-1.9-.5-2.2-3-2.3v-.6h7.1v.6c-2.3 0-2.8.4-2.8 1.6v17h-.7zM297.9 35.4c-3 1.6-6.9 1.9-8.2 1.9-6.7 0-9.8-5.2-9.8-9.6 0-4.6 3.2-10.3 10.7-10.3 3.3 0 5.4 1 6.1 1 .3 0 .5-.1.7-.2h.4v4.9h-.6c-.8-3.8-3.4-5-6.3-5-5.4 0-8.1 4.5-8.1 9.4 0 6.3 4.4 9 7.9 9 1.4 0 3-.3 4.7-1.2v-3.8c0-1.7-.6-2.3-2.4-2.3h-1.1v-.5h8.2v.5c-1.5.1-2.1.6-2.1 1.9v4.3zM78.5 51l-1.4 3.7c-.2.5-.5 1.2-.5 1.5 0 .6.6.9 1.9.9h.4v.5h-5.5v-.5c1.5 0 1.8-.3 2.6-2.4l4.3-11.8-.2-.5h2.1l5 13.2c.5 1.3 1 1.5 2.2 1.5v.5h-6.6v-.5h.6c1.4 0 1.9-.1 1.9-.8 0-.4-.2-.7-.3-1L83.4 51h-4.9zm2.4-6.6l-2 5.6H83l-2.1-5.6zM98.5 55.4c0 1.3.4 1.7 1.9 1.7h.9v.5h-7.5v-.5h.9c1.5 0 1.9-.5 1.9-1.7V43.6h-4.1c-1 0-1.4.5-1.7 2.6h-.4l.4-3.9h.5c0 .1.1.2.3.3.1 0 .3.1.5.1h11.5c.3 0 .7-.1.7-.4h.5l.4 3.9h-.4c-.4-2.1-.8-2.6-1.7-2.6H99v11.8zM120.6 45.2c0-1.5-.4-1.9-1.8-1.9h-.5v-.5c.9 0 2-.1 3.4-.1 1.3 0 2.8-.1 4-.1 6.3 0 9.1 3.2 9.1 7.1 0 3.6-2.8 7.9-8.8 7.9h-7.6v-.5h.4c1.3 0 1.9-.4 1.9-1.7V45.2zm2 10.6c0 1 .1 1.3 2 1.3 3.2 0 4.5-.5 6-1.9.9-.9 2-2.7 2-5.1 0-1.8-.5-3.7-1.9-5.1-1.1-1.1-2.8-1.9-6.1-1.9-1 0-1.6.1-1.9.1v12.6zM142.9 51l-1.4 3.7c-.2.5-.5 1.2-.5 1.5 0 .6.6.9 1.9.9h.4v.5h-5.5v-.5c1.5 0 1.8-.3 2.6-2.4l4.3-11.8-.2-.5h2.1l5 13.2c.5 1.3 1 1.5 2.2 1.5v.5h-6.5v-.5h.6c1.4 0 1.9-.1 1.9-.8 0-.4-.2-.7-.3-1l-1.6-4.3h-5zm2.4-6.6l-2 5.6h4.1l-2.1-5.6zM161.7 55.4c0 1.4.6 1.8 1.9 1.8h.5v.5h-6.7v-.5h.4c1.4 0 1.9-.4 1.9-2v-10c0-1.5-.4-1.9-1.8-1.9h-.5v-.5c.6 0 2-.1 3-.1s1.5-.1 3-.1c4.4 0 6.4 1.8 6.4 4.2 0 1.8-1.2 3.3-3.2 3.9.9.7 1.6 1.4 2.7 2.5l1.9 1.9c1.4 1.4 2.9 2.3 4.7 2.4v.4c-4.2.2-5.2-.7-7.4-2.8l-1.6-1.6c-1-1-1.9-1.7-2.5-2.1h-2.8v4zm0-4.5c.6.1.9 0 1.5 0 2.6 0 4.4-1.1 4.4-4 0-2.2-1-3.9-4.7-3.9h-1.2v7.9zM184.8 55.4c0 1.3.4 1.7 1.9 1.7h.9v.5H180v-.5h.9c1.5 0 1.9-.5 1.9-1.7V43.6h-4.1c-1 0-1.4.5-1.7 2.6h-.4l.4-3.9h.5c0 .1.1.2.3.3.1 0 .3.1.5.1h11.5c.3 0 .7-.1.7-.4h.5l.4 3.9h-.4c-.4-2.1-.8-2.6-1.7-2.6h-4.1v11.8zM204.9 57.6l-6.1-12.7-.6 10.7c-.1 1.2.8 1.5 1.9 1.5v.5h-5v-.5c1.7 0 2-.4 2.1-2.5l.6-9.3c.1-1.6 0-2-1.4-2.1v-.4h3.6l5.7 12 5.7-12h3.5v.4c-1.2.1-1.6.1-1.6.9l.8 10.8c.1 2.2.3 2.2 2.1 2.2v.5H210v-.5c1.1 0 2.2-.3 2.1-1.6l-.7-10.7-5.9 12.7h-.6zM228.2 58c-4.7 0-8.6-3-8.6-7.5 0-4.7 3.6-8.1 8.7-8.1 4.5 0 8.4 3.1 8.4 7.4-.1 4.8-3.9 8.2-8.5 8.2zm-.5-15c-4.2 0-5.9 3.9-5.9 6.8 0 4.5 3 7.6 6.9 7.6 3.9 0 5.7-3.4 5.7-6.8 0-4.5-2.8-7.6-6.7-7.6zM258.9 42.8v.5c-1.6 0-2.2.7-2.2 2.2v6.4c0 3-1.9 6.1-7.1 6.1-4.5 0-6.9-2.6-6.9-6v-7c0-1.5-.4-1.8-2-1.8v-.5h6.1v.5h-.2c-1.3 0-1.9.4-1.9 1.7v6.6c0 3.2 1.9 5.1 5.4 5.1 2.7 0 5.4-1.1 5.4-5.2V46c0-2.3-.4-2.7-2.3-2.8v-.5h5.7zM271.5 55.4c0 1.3.4 1.7 1.9 1.7h.9v.5h-7.5v-.5h.9c1.5 0 1.9-.5 1.9-1.7V43.6h-4.1c-1 0-1.4.5-1.7 2.6h-.4l.4-3.9h.5c0 .1.1.2.3.3.1 0 .3.1.5.1h11.5c.3 0 .7-.1.7-.4h.5l.4 3.9h-.4c-.4-2.1-.8-2.6-1.7-2.6H272v11.8zM286.1 50.5V55c0 1.5.3 2.1 1.9 2.1h.1v.5h-6v-.5h.1c1.4 0 1.9-.4 1.9-1.7V44.9c0-1.2-.4-1.6-1.7-1.7v-.5h5.7v.5c-1.7 0-2 .5-2 2.3v4.1h9.3V45c0-1.3-.4-1.7-1.9-1.7h-.5v-.5h6.1v.5c-1.4 0-1.8.5-1.8 2v9.9c0 1.7.5 2.1 1.9 2.1h.2v.5h-6.7v-.5h.7c1.5 0 1.9-.5 1.9-1.8v-4.8h-9.2zM56.7 19.6L7.3 37l-2.7 6.8 52.1-23.6zM56.7 22.6L19.5 51.1l6 1.6 31.2-28.9zM56.7 25.9L42.2 50.7l5.2.7 9.3-24.9zM56.7 17.3H1.4l.1 4.6L56.7 18z" class="st0"/><path d="M51 50.5c-7.5-1.9-12.2-.6-16.3.4-2.1.6-4 1-6 1s-3.8-.5-6-1c-4.1-1.1-8.8-2.3-16.2-.5l.5 2.2c6.8-1.7 11.2-.5 15.1.5 2.2.6 4.3 1.1 6.5 1.1 2.3 0 4.3-.5 6.5-1.1 3.9-1 8.3-2.2 15.2-.4l.7-2.2zM45.9 54.7c-5-.7-8.6.2-11.7 1.1-2 .5-3.7 1-5.5 1-1.8 0-3.5-.4-5.5-1-3.2-.8-6.9-1.8-12.2-1l.3 2.1c4.9-.7 8.2.1 11.4.9 2 .5 3.9 1 6 1s4-.5 6-1c3.1-.8 6.3-1.6 10.9-1l.3-2.1z" class="st0"/><path d="M13.6 50.9v-6.7H3.3C8.6 33.3 14.6 10 15.9 2.6c1.2 7.5 7.4 31 12.6 41.6H18.2v6.7h-4.6zM23.9 8.5h-1.2v-.8l2.4-.4v5.8h-1.2V8.5zM34.2 7.6c.2.2.3.5.3.9V9c0 .3-.1.6-.2.7-.2.2-.4.3-.9.4.4 0 .7.2.9.3.2.2.3.5.3.8v.6c0 .5-.1.8-.3 1-.2.2-.6.3-1.1.3h-3.7c-.5 0-.9-.1-1.1-.3-.2-.2-.3-.5-.3-1v-.6c0-.3.1-.6.3-.8.2-.2.5-.3.9-.3-.4-.1-.7-.2-.9-.4-.2-.2-.2-.4-.2-.7v-.5c0-.4.1-.7.3-.9.2-.2.5-.2 1-.2h3.6c.5 0 .9.1 1.1.2zm-4.3 3c-.2 0-.4 0-.4.1-.1.1-.1.2-.1.4v.4c0 .2 0 .3.1.4.1.1.2.1.4.1h2.9c.2 0 .4 0 .4-.1.1-.1.1-.2.1-.4v-.4c0-.2 0-.4-.1-.4-.1-.1-.2-.1-.4-.1h-2.9zm.1-2.2c-.2 0-.4 0-.4.1-.1.1-.1.2-.1.4v.3c0 .2 0 .3.1.4.1.1.2.1.4.1h2.7c.2 0 .4 0 .4-.1.1-.1.1-.2.1-.4v-.3c0-.2 0-.4-.1-.4-.1-.1-.2-.1-.4-.1H30zM39.3 9.5c.4 0 .8-.1 1.2-.1.9 0 1.6.1 1.9.3.3.2.5.6.5 1.2v.8c0 .5-.2.8-.5 1.1-.3.2-.8.3-1.5.3h-2.4c-.7 0-1.2-.1-1.5-.4-.3-.3-.4-.7-.4-1.4v-.8c0-1.1.4-1.9 1.1-2.5.7-.6 1.8-.9 3.1-.9h.4l.8.9h-.4c-1.2 0-2.1.1-2.6.3-.5.2-.9.6-1.1 1.1.5.2 1 .2 1.4.1zm-1.4 1.2v.2c0 .6.1.9.2 1 .1.1.5.2 1 .2h1.6c.4 0 .7 0 .8-.1.1-.1.2-.3.2-.5v-.3c0-.3-.1-.5-.3-.5-.2-.1-.5-.1-1-.1h-1.2c-.4 0-.9.1-1.3.1 0-.1 0-.1 0 0zM49.1 8.4h-3.8v1.2l-1.2-.2v-2h6.4v.9l-3 4.9H46l3.1-4.8z" class="st0"/><path d="M0 0v39.3c0 13 17 23.9 28.8 27.6 11.8-3.6 28.8-14.6 28.8-27.6V0H0zm55.2 39.3c0 9.6-10.8 16.8-20.6 21-1.3.5-4.1 1-5.8 1-1.8 0-4.8-.7-5.9-1.1-9.8-4.1-20.5-11.4-20.5-20.9V4.7c3.5-.6 15.4-2.9 26.3-2.9s23.1 2.1 26.6 2.9c-.1 2-.1 34.6-.1 34.6z" class="st0"/></svg>