<?xml version="1.0" encoding="utf-8"?>
<!-- Generator: Adobe Illustrator 23.1.1, SVG Export Plug-In . SVG Version: 6.00 Build 0)  -->
<svg version="1.1" id="Layer_1" xmlns="http://www.w3.org/2000/svg" xmlns:xlink="http://www.w3.org/1999/xlink" x="0px" y="0px"
	 viewBox="0 0 1159.5 101.2" style="enable-background:new 0 0 1159.5 101.2;" xml:space="preserve">
<style type="text/css">
	.st0{enable-background:new    ;}
	.st1{fill:#003349;}
	.st2{fill:#036A37;}
</style>
<g class="st0">
	<path class="st1" d="M130.3,37.6c0-5.3-1.4-6.4-6.8-6.3v-1.9c2.1,0,8.3-0.3,11.3-0.4c3.9-0.1,7.6-0.1,10.3-0.1
		c10.9,0,18.7,1.9,23.1,6.3c4.5,4.5,6.2,9.9,6.2,15.3c0,10.6-7.4,23.7-28.5,23.7h-22.4v-1.9c6.1,0,6.8-1,6.8-5.8V37.6z M138.3,67
		c0,4.5,0.6,5.2,5.3,5.2c8.6,0,13.1-1.9,16.4-5.2c4.4-4.4,5.6-10.4,5.6-15.5c0-5.2-1.2-11-5.5-15.4c-3.6-3.6-8.1-5.3-16.6-5.3
		c-1.2,0-3.5,0-5.3,0.1V67z"/>
	<path class="st1" d="M174.3,72.2c4.8-0.1,5.8-0.9,7.8-6.5l13-35.7l-0.6-1.8h8.1l14,37.5c2.1,5.6,2.8,6.5,7.3,6.5v1.9h-21.4v-1.9
		c5.7,0,7.3-0.6,7.3-2.7c0-0.7-0.3-1.9-1-3.8l-3.5-8.9h-16.5l-3.5,9.6c-0.5,1.4-0.7,2.3-0.7,3c0,2.1,1.4,3,7.2,2.8v1.9h-17.6V72.2z
		 M204.1,53.2L197.1,35l-6.8,18.2H204.1z"/>
	<path class="st1" d="M240.9,65.1c0,6.2,0.8,7.3,7.3,7.1v1.9h-22v-1.9c6,0.2,6.7-1.4,6.7-6.2V37.1c0-4.7-0.8-5.8-6.7-5.8v-1.9
		c1.7,0,5.3-0.3,10.3-0.5c3.8-0.1,7.3-0.1,8.8-0.1c14.5,0,19.5,6.3,19.5,12.9c0,5.3-3,9.2-9.1,11.7c1.2,0.8,4.2,3.8,5.4,5l4.7,4.7
		c6.4,6.4,11.3,9.3,17.3,9.9v2c-14.2,0.4-17.7-2.2-24.2-8.6l-3.8-3.8c-3.7-3.7-4.8-4.7-7.8-6.9c-2.1,0.1-4.5,0.2-6.4,0V65.1z
		 M240.9,53.6c0.5,0.1,1.9,0.2,2.3,0.2c9.6-0.4,12.9-4.1,12.9-11.4c0-7.3-3.9-11.6-11.7-11.6c-1.1,0-2.8,0.1-3.5,0.3V53.6z"/>
	<path class="st1" d="M279.2,28.1h1.9c0.3,0.5,0.5,0.9,1.2,1s1.7,0.2,3.5,0.2h30.5c3.7,0,4.2-0.1,4.7-1.2h1.9l1.3,12.4h-2.1
		c-1-7.5-2.4-7.9-6.8-7.9h-10.3v33.9c0,4.9,0.8,5.7,8.4,5.7v1.9h-24.7v-1.9c7.2,0,8.4-0.9,8.4-5.7V32.6h-10.3
		c-4.2,0-5.7,0.4-6.8,7.9h-2.1L279.2,28.1z"/>
	<path class="st1" d="M327,72.2c4.5,0,5.8-0.8,6.2-7.1l1.7-26.5c0.4-6.4-0.4-7.3-4.5-7.3v-1.9h13.3l15.6,33.3L374,29.4h13.3v1.9
		c-4,0-4.9,0.9-4.6,4.2l2.6,32.8c0.3,3.7,1.7,4,5.9,4v1.9h-20.4v-1.9c5.9,0,6.9-1.4,6.3-9.1l-1.9-26.6H375l-16.6,37.6h-2.4L339,37.5
		h-0.1l-1.7,26.6c-0.5,7.7,1.2,7.7,5.9,8.1v1.9h-16V72.2z"/>
	<path class="st1" d="M422.7,28.2c15.6,0,26.3,9.3,26.3,22.8c0,13-10.4,24.3-26.6,24.3c-15,0-26-9.4-26-22.3
		C396.4,38.6,407.4,28.2,422.7,28.2z M423.6,73c10,0,16.7-8.1,16.7-20.2c0-13-7.6-22.2-18.1-22.2c-10.4,0-17,7.9-17,20.5
		C405.1,65.5,414.4,73,423.6,73z"/>
	<path class="st1" d="M454.2,29.4h20.5v1.9c-5.3,0-6.3,1.2-6.3,6.2v19.4c0,9.6,6.4,14,15.4,14c8,0,15.5-3.5,15.5-14.1V37.5
		c0-5.6-1.1-6.2-6.9-6.2v-1.9h17.4v1.9c-5.5,0-6.6,1.2-6.6,6.2v20c0,11.3-8.7,17.8-21.8,17.8c-13.7,0-21-6.6-21-18.3V36.8
		c0-4.4-1.2-5.5-6.1-5.5V29.4z"/>
	<path class="st1" d="M513.4,28.1h1.9c0.3,0.5,0.5,0.9,1.2,1c0.6,0.1,1.7,0.2,3.5,0.2h30.5c3.7,0,4.2-0.1,4.7-1.2h1.9l1.3,12.4h-2.1
		c-1-7.5-2.4-7.9-6.8-7.9h-10.3v33.9c0,4.9,0.8,5.7,8.4,5.7v1.9h-24.7v-1.9c7.2,0,8.4-0.9,8.4-5.7V32.6h-10.3
		c-4.2,0-5.7,0.4-6.8,7.9h-2.1L513.4,28.1z"/>
	<path class="st1" d="M576,65.9c0,4.2,0.6,6.1,6.4,6.3v1.9h-20.8v-1.9c5.8-0.4,6.4-1.9,6.4-6.8V38.6c0-5.4-0.8-7.2-6.4-7.3v-1.9
		h20.8v1.9c-5.4,0.2-6.4,1.4-6.4,7.6v10.7h26V38.9c0-5.8-0.7-7.3-6.6-7.6v-1.9h21.2v1.9c-5.7,0.3-6.6,1.5-6.6,7.1v27.1
		c0,5.1,0.8,6.3,6.6,6.7v1.9h-21.2v-1.9c5.6-0.2,6.6-1.7,6.6-6.8V52.9h-26V65.9z"/>
	<path class="st1" d="M642.9,74.2v-1.9c5.8,0,7.3-0.9,7.3-5v-31c0-4.8-2.4-4.9-7.3-4.9v-1.9h36.8l0.6,10.8h-1.9l-0.4-1.5
		c-1.4-5.9-2.6-6-7.2-6h-12.7v16.8h11.2c4.2,0,5-0.5,5.4-5.5h1.9v14.5h-1.9c-0.5-5.1-1.4-5.8-5.4-5.8h-11.2v13.1
		c0,4.5,0.6,5.2,4.2,5.2h8c7.3,0,8.7-1,10.7-8.1h1.9l-1.1,11.3H642.9z"/>
	<path class="st1" d="M695.4,37.5v27.7c0,5.6,0.7,7.4,7.2,7.1v1.9h-17.2v-1.9c5.2,0.1,6-1.5,6-6.2V33.6c-1.7-1.5-3.3-2.1-6-2.3v-1.9
		h13l32.1,33.9V37.5c0-5.4-0.9-6.3-7.1-6.2v-1.9h17.4v1.9c-4.8,0-6.3,0.9-6.3,6.3v36.9h-3.9L695.4,37.5z"/>
	<path class="st1" d="M789.9,70.9c-8.1,3.2-13.3,4.4-19.3,4.4c-14.6,0-24.3-9-24.3-22.5c0-9.6,5.5-24.6,25.3-24.6
		c7.1,0,11.4,1.9,13.8,1.9c0.9,0,1.4-0.2,1.9-0.8h2.1v13.2h-2.2c-1.7-7.8-6.8-12.1-14.3-12.1C762.1,30.5,755,39,755,52
		c0,14.4,9,20.7,17.7,20.7c3.2,0,6.2-0.8,9.2-2.4v-8.6c0-5-1.4-5.6-8.6-5.6v-1.9h21.5v1.9c-4.9,0-5,3-5,5.7V70.9z"/>
	<path class="st1" d="M798.2,29.4h20.1v1.9c-4.8,0-6.2,1.1-6.2,6.2v28c0,5.4,1,6.8,6.2,6.7v1.9h-20.1v-1.9c5.7,0.1,5.9-2.1,5.9-6.2
		V36.7c0-3.9-0.9-5.5-5.9-5.4V29.4z"/>
	<path class="st1" d="M832.4,37.5v27.7c0,5.6,0.7,7.4,7.2,7.1v1.9h-17.2v-1.9c5.2,0.1,6-1.5,6-6.2V33.6c-1.7-1.5-3.3-2.1-6-2.3v-1.9
		h13l32.1,33.9V37.5c0-5.4-0.9-6.3-7.1-6.2v-1.9h17.4v1.9c-4.8,0-6.3,0.9-6.3,6.3v36.9h-3.9L832.4,37.5z"/>
	<path class="st1" d="M880.3,74.2v-1.9c5.8,0,7.3-0.9,7.3-5v-31c0-4.8-2.4-4.9-7.3-4.9v-1.9h36.8l0.6,10.8h-1.9l-0.4-1.5
		c-1.4-5.9-2.6-6-7.2-6h-12.7v16.8h11.2c4.2,0,5-0.5,5.4-5.5h1.9v14.5h-1.9c-0.5-5.1-1.4-5.8-5.4-5.8h-11.2v13.1
		c0,4.5,0.6,5.2,4.2,5.2h8c7.3,0,8.7-1,10.7-8.1h1.9l-1.1,11.3H880.3z"/>
	<path class="st1" d="M921.8,74.2v-1.9c5.8,0,7.3-0.9,7.3-5v-31c0-4.8-2.4-4.9-7.3-4.9v-1.9h36.8l0.6,10.8h-1.9l-0.4-1.5
		c-1.4-5.9-2.6-6-7.2-6h-12.7v16.8h11.2c4.2,0,5-0.5,5.4-5.5h1.9v14.5h-1.9c-0.5-5.1-1.4-5.8-5.4-5.8h-11.2v13.1
		c0,4.5,0.6,5.2,4.2,5.2h8c7.3,0,8.7-1,10.7-8.1h1.9l-1.1,11.3H921.8z"/>
	<path class="st1" d="M978.7,65.1c0,6.2,0.8,7.3,7.3,7.1v1.9h-22v-1.9c6,0.2,6.7-1.4,6.7-6.2V37.1c0-4.7-0.8-5.8-6.7-5.8v-1.9
		c1.7,0,5.3-0.3,10.3-0.5c3.8-0.1,7.3-0.1,8.8-0.1c14.5,0,19.5,6.3,19.5,12.9c0,5.3-3,9.2-9.1,11.7c1.2,0.8,4.2,3.8,5.4,5l4.7,4.7
		c6.4,6.4,11.3,9.3,17.3,9.9v2c-14.2,0.4-17.7-2.2-24.2-8.6l-3.8-3.8c-3.7-3.7-4.8-4.7-7.8-6.9c-2.1,0.1-4.5,0.2-6.4,0V65.1z
		 M978.7,53.6c0.5,0.1,1.9,0.2,2.3,0.2c9.6-0.4,12.9-4.1,12.9-11.4c0-7.3-3.9-11.6-11.7-11.6c-1.1,0-2.8,0.1-3.5,0.3V53.6z"/>
	<path class="st1" d="M1022,29.4h20.1v1.9c-4.8,0-6.2,1.1-6.2,6.2v28c0,5.4,1,6.8,6.2,6.7v1.9H1022v-1.9c5.7,0.1,5.9-2.1,5.9-6.2
		V36.7c0-3.9-0.9-5.5-5.9-5.4V29.4z"/>
	<path class="st1" d="M1056.2,37.5v27.7c0,5.6,0.7,7.4,7.2,7.1v1.9h-17.2v-1.9c5.2,0.1,6-1.5,6-6.2V33.6c-1.7-1.5-3.3-2.1-6-2.3
		v-1.9h13l32.1,33.9V37.5c0-5.4-0.9-6.3-7.1-6.2v-1.9h17.4v1.9c-4.8,0-6.3,0.9-6.3,6.3v36.9h-3.9L1056.2,37.5z"/>
	<path class="st1" d="M1150.6,70.9c-8.1,3.2-13.3,4.4-19.3,4.4c-14.6,0-24.3-9-24.3-22.5c0-9.6,5.5-24.6,25.3-24.6
		c7.1,0,11.4,1.9,13.8,1.9c0.9,0,1.4-0.2,1.9-0.8h2.1v13.2h-2.2c-1.7-7.8-6.8-12.1-14.3-12.1c-10.8,0-17.9,8.5-17.9,21.5
		c0,14.4,9,20.7,17.7,20.7c3.2,0,6.2-0.8,9.2-2.4v-8.6c0-5-1.4-5.6-8.6-5.6v-1.9h21.5v1.9c-4.9,0-5,3-5,5.7V70.9z"/>
</g>
<g>
	<polygon class="st2" points="85.7,29.6 11,56 7,66.2 85.7,30.6 	"/>
	<polygon class="st2" points="85.7,34.1 29.5,77.3 38.6,79.8 85.7,35.9 	"/>
	<polygon class="st2" points="85.7,39.2 63.8,76.7 71.8,77.8 85.7,40 	"/>
	<polygon class="st2" points="85.7,26.2 2.2,26.1 2.2,33.1 85.7,27.2 	"/>
	<g>
		<path class="st2" d="M77.2,76.4c-11.3-2.8-18.4-1-24.7,0.7c-3.2,0.8-6,1.6-9,1.6s-5.8-0.7-9-1.6c-6.2-1.6-13.3-3.5-24.5-0.7
			l0.8,3.3c10.3-2.5,17-0.8,22.8,0.7c3.3,0.9,6.4,1.7,9.9,1.7c3.4,0,6.6-0.8,9.9-1.7c5.9-1.5,12.5-3.3,23-0.7L77.2,76.4z"/>
	</g>
	<g>
		<path class="st2" d="M69.5,82.8c-7.6-1-13,0.4-17.7,1.6c-3,0.8-5.6,1.4-8.3,1.4s-5.4-0.7-8.3-1.4c-4.9-1.3-10.4-2.7-18.5-1.5
			l0.5,3.1c7.4-1.1,12.4,0.2,17.2,1.4c3.1,0.8,5.9,1.5,9.1,1.5c3.2,0,6.1-0.8,9.1-1.5c4.7-1.2,9.5-2.5,16.5-1.5L69.5,82.8z"/>
	</g>
	<path class="st2" d="M20.6,77V66.8H4.9C13,50.3,22,15.1,24.1,3.9C26,15.2,35.2,50.8,43.2,66.8H27.5V77H20.6z"/>
	<g>
		<path class="st2" d="M36.2,12.8h-1.9v-1.2L38,11v8.8h-1.8V12.8z"/>
		<path class="st2" d="M51.7,11.5c0.3,0.3,0.4,0.7,0.4,1.3v0.8c0,0.5-0.1,0.9-0.4,1.1c-0.3,0.3-0.7,0.4-1.3,0.6
			c0.6,0.1,1.1,0.3,1.4,0.5c0.3,0.3,0.5,0.7,0.5,1.2v1c0,0.7-0.2,1.2-0.5,1.5s-0.9,0.4-1.6,0.4h-5.6c-0.8,0-1.3-0.1-1.6-0.4
			s-0.5-0.8-0.5-1.5v-0.9c0-0.5,0.2-0.9,0.5-1.2s0.8-0.5,1.4-0.5c-0.6-0.1-1-0.3-1.3-0.6s-0.4-0.6-0.4-1.1v-0.8
			c0-0.7,0.1-1.1,0.4-1.3c0.3-0.2,0.8-0.4,1.6-0.4h5.4C50.9,11.2,51.4,11.3,51.7,11.5z M45.2,16.1c-0.3,0-0.6,0.1-0.7,0.2
			c-0.1,0.1-0.2,0.3-0.2,0.6v0.6c0,0.3,0,0.5,0.2,0.6c0.1,0.1,0.3,0.2,0.7,0.2h4.4c0.3,0,0.6-0.1,0.7-0.2c0.1-0.1,0.2-0.3,0.2-0.6
			v-0.6c0-0.3,0-0.5-0.2-0.6c-0.1-0.1-0.3-0.2-0.7-0.2H45.2z M45.4,12.7c-0.3,0-0.6,0.1-0.7,0.2c-0.1,0.1-0.2,0.3-0.2,0.6v0.4
			c0,0.3,0.1,0.5,0.2,0.6c0.1,0.1,0.3,0.2,0.7,0.2h4.1c0.3,0,0.5-0.1,0.7-0.2c0.1-0.1,0.2-0.3,0.2-0.6v-0.4c0-0.3-0.1-0.5-0.2-0.6
			c-0.1-0.1-0.3-0.2-0.7-0.2H45.4z"/>
		<path class="st2" d="M59.4,14.4c0.6-0.1,1.3-0.1,1.9-0.1c1.4,0,2.4,0.2,2.9,0.5s0.8,0.9,0.8,1.8v1.2c0,0.7-0.3,1.3-0.7,1.6
			c-0.5,0.4-1.2,0.5-2.3,0.5h-3.7c-1.1,0-1.9-0.2-2.3-0.6c-0.4-0.4-0.6-1.1-0.6-2.1V16c0-1.6,0.6-2.9,1.7-3.8
			c1.1-0.9,2.7-1.3,4.7-1.3c0.1,0,0.2,0,0.3,0s0.2,0,0.4,0l1.2,1.4h-0.6c-1.9,0-3.2,0.2-4,0.5s-1.4,0.9-1.7,1.7
			C58.1,14.5,58.8,14.5,59.4,14.4z M57.3,16.2c0,0.1,0,0.2,0,0.3c0,0.8,0.1,1.4,0.3,1.5c0.2,0.2,0.7,0.3,1.5,0.3h2.4
			c0.6,0,1-0.1,1.2-0.2c0.2-0.2,0.3-0.4,0.3-0.8v-0.5c0-0.4-0.1-0.7-0.4-0.8c-0.3-0.2-0.8-0.2-1.5-0.2c-0.6,0-1.2,0-1.9,0.1
			c-0.7,0-1.3,0.1-2,0.2C57.3,16,57.3,16.1,57.3,16.2z"/>
		<path class="st2" d="M74.3,12.7h-5.7v1.9l-1.8-0.3v-3h9.6v1.4L71.8,20h-2.2L74.3,12.7z"/>
	</g>
	<path class="st2" d="M0,0v59.5c0,19.6,25.7,36.2,43.6,41.7c17.9-5.5,43.6-22.1,43.6-41.7V0H0z M83.6,59.5
		C83.6,74,67.3,85,52.4,91.2c-1.9,0.7-6.1,1.6-8.8,1.6c-2.8,0-7.3-1-8.9-1.7l0,0c-14.8-6.3-31-17.2-31-31.7c0,0,0-49.3,0-52.3
		C9,6.1,27,2.8,43.5,2.8S78.4,6,83.7,7.2C83.6,10.2,83.6,59.5,83.6,59.5z"/>
</g>
</svg>
