<?xml version="1.0" encoding="utf-8"?>
<!-- Generator: Adobe Illustrator 24.0.1, SVG Export Plug-In . SVG Version: 6.00 Build 0)  -->
<svg version="1.1" id="Layer_1" xmlns="http://www.w3.org/2000/svg" xmlns:xlink="http://www.w3.org/1999/xlink" x="0px" y="0px"
	 viewBox="0 0 293.27 304.46" style="enable-background:new 0 0 293.27 304.46;" xml:space="preserve">
<g>
	<path d="M40.15,190.08H30v0.43c0.9,0.54,1.31,1.17,1.31,3.72v15.14c0,2.55-0.4,3.18-1.31,3.72v0.43h9.51
		c8.84,0,13.4-5.22,13.4-12.36C52.91,194.74,48.49,190.08,40.15,190.08 M39.24,210.98h-4.25v-18.35h4.55c6.1,0,9.45,3.08,9.45,9.44
		C48.99,207.6,45.94,210.98,39.24,210.98 M131.57,213.09c-1.04-0.43-1.47-1.24-1.14-3.82l1.54-11.66l7.64,15.61h1.41l7.74-15.64
		l1.44,11.82c0.3,2.51-0.03,3.25-1.01,3.68v0.43h6.36v-0.43c-0.87-0.47-1.24-1.17-1.57-3.55l-2.68-19.73h-1.71l-8.74,18.05
		l-8.74-18.05h-1.71l-2.78,19.59c-0.34,2.45-0.84,3.18-1.81,3.68v0.43h5.76V213.09z M117.13,213.09c-1.01-0.57-1.47-1.24-1.47-3.89
		v-16.58h2.85c3.65,0,4.35,0.54,5.33,1.74l0.43-0.13l-0.7-4.45c-1.37,0.17-3.18,0.3-5.46,0.3h-8.61c-2.28,0-4.09-0.13-5.46-0.3
		l-0.7,4.45l0.44,0.13c0.97-1.2,1.67-1.74,5.32-1.74h2.85v16.58c0,2.65-0.47,3.32-1.47,3.89v0.43h6.66V213.09z M87.63,213.53H81.3
		v-0.43c0.74-0.37,1.3-1.17,1.3-3.72v-15.14c0-2.54-0.57-3.35-1.3-3.72v-0.43h8.44c6.23,0,9.11,2.48,9.11,6.8
		c0,2.95-1.78,5.39-5.23,6.3c1.01,0.4,1.84,1.37,3.38,3.32l2.88,3.68c1.61,2.08,2.28,2.58,3.15,2.91v0.43h-4.12
		c-0.87,0-1.34-0.27-2.01-1.17l-4.19-5.63c-1.64-2.21-1.98-2.58-3.08-2.58h-1.01l-1.04-2.11v-0.34h2.21c3.38,0,5.16-1.78,5.16-4.62
		c0-3.11-1.88-4.55-5.59-4.55h-3.05v16.85c0,2.55,0.57,3.35,1.31,3.72V213.53z M75.87,209.91l-9.08-20.09h-1.37l-9.08,20.09
		c-0.9,1.98-1.37,2.71-2.38,3.18v0.43H60v-0.43c-1.21-0.47-1.61-1.21-0.54-3.65l1.24-2.85h9.65l1.24,2.85
		c1.07,2.45,0.7,3.18-0.37,3.65v0.43h6.87v-0.43C77.21,212.62,76.78,211.89,75.87,209.91 M61.77,204.18l3.75-8.57l3.75,8.57H61.77z
		 M246.12,190.52c-0.9,0.54-1.31,1.17-1.31,3.72v6.03h13.43v-6.03c0-2.54-0.4-3.18-1.31-3.72v-0.43h6.33v0.43
		c-0.9,0.54-1.31,1.17-1.31,3.72v15.14c0,2.55,0.4,3.18,1.31,3.72v0.43h-6.33v-0.43c0.91-0.54,1.31-1.17,1.31-3.72v-6.53h-13.43
		v6.53c0,2.55,0.4,3.18,1.31,3.72v0.43h-6.33v-0.43c0.9-0.54,1.31-1.17,1.31-3.72v-15.14c0-2.54-0.4-3.18-1.31-3.72v-0.43h6.33
		V190.52z M228.71,213.53h-6.66v-0.43c1.01-0.57,1.47-1.24,1.47-3.89v-16.58h-2.85c-3.65,0-4.35,0.54-5.32,1.74l-0.44-0.13l0.7-4.45
		c1.37,0.17,3.18,0.3,5.46,0.3h8.61c2.28,0,4.09-0.13,5.46-0.3l0.7,4.45l-0.43,0.13c-0.97-1.2-1.67-1.74-5.33-1.74h-2.85v16.58
		c0,2.65,0.47,3.32,1.47,3.89V213.53z M205.46,190.08h5.79v0.43c-0.97,0.57-1.47,1.24-1.47,3.88v10.01c0,6.2-3.62,9.61-9.71,9.61
		c-6.13,0-9.71-3.38-9.71-9.14v-10.65c0-2.54-0.4-3.18-1.31-3.72v-0.43h6.33v0.43c-0.9,0.54-1.3,1.17-1.3,3.72v10.42
		c0,4.12,2.28,6.43,6.5,6.43c4.05,0,6.36-2.38,6.36-6.66V194.4c0-2.65-0.5-3.32-1.47-3.88V190.08z M171.67,189.55
		c-7.5,0-12.39,5.79-12.39,12.42c0,6.3,4.49,12.06,12.43,12.06c7.5,0,12.39-5.79,12.39-12.42
		C184.1,195.31,179.61,189.55,171.67,189.55 M172.01,211.45c-4.96,0-8.78-4.32-8.78-10.21c0-5.63,3.25-9.11,8.14-9.11
		c4.96,0,8.77,4.32,8.77,10.21C180.15,207.97,176.9,211.45,172.01,211.45"/>
	<g>
		<path d="M149.41,263.02c0,2.7,2.25,3.6,4.2,4.33c1.59,0.6,3.27,1.1,3.27,2.96c0,1.57-1.06,2.43-2.81,2.43
			c-1.83,0-3.49-0.8-4.48-1.95l-0.27,0.13l0.62,2.7c0.84,0.46,2.3,0.84,3.73,0.84c3.2,0,5.5-1.9,5.5-4.84c0-2.7-2.23-3.6-4.2-4.33
			c-1.59-0.6-3.27-1.11-3.27-2.96c0-1.46,1.04-2.34,2.7-2.34c1.35,0,2.78,0.6,3.42,1.48l0.27-0.04v-2.3
			c-0.77-0.49-2.03-0.82-3.4-0.82C151.6,258.31,149.41,260.26,149.41,263.02"/>
		<path d="M170,274.46c2.26,0,4.05-0.51,4.91-1.13v-2.41l-0.27-0.04c-0.8,1.04-2.68,1.88-4.91,1.88c-0.42,0-0.81-0.03-1.19-0.09
			c-3.04-0.71-4.49-3.1-4.5-6.5c0-0.03,0-0.07,0-0.1c0.02-3.82,2.14-5.99,5.69-5.99c2.24,0,4.12,0.84,4.91,1.88l0.27-0.04v-2.41
			c-0.86-0.62-2.66-1.13-4.91-1.13c-4.69,0-7.67,2.8-8.39,6.53c-0.11,0.4-0.17,0.82-0.17,1.24c0,0.09,0.01,0.18,0.01,0.28
			c0,0.09-0.01,0.18-0.01,0.28c0,4.14,2.8,7.77,8.38,7.77l0-0.01C169.87,274.45,169.93,274.46,170,274.46"/>
		<path d="M181.34,259.29c-0.6,0.35-0.86,0.77-0.86,2.45v3.98h8.86v-3.98c0-1.68-0.27-2.1-0.86-2.45V259h4.18v0.29
			c-0.6,0.35-0.86,0.77-0.86,2.45v9.99c0,1.68,0.26,2.1,0.86,2.45v0.29h-4.18v-0.29c0.6-0.35,0.86-0.77,0.86-2.45v-4.31h-8.86v4.31
			c0,1.68,0.27,2.1,0.86,2.45v0.29h-4.17v-0.29c0.6-0.35,0.86-0.77,0.86-2.45v-9.99c0-1.68-0.27-2.1-0.86-2.45V259h4.17V259.29z"/>
		<path d="M203.08,258.31c-4.95,0-8.17,3.82-8.17,8.19c0,4.15,2.96,7.95,8.19,7.95c4.95,0,8.17-3.82,8.17-8.2
			C211.28,262.11,208.32,258.31,203.08,258.31 M203.3,272.76c-3.27,0-5.79-2.85-5.79-6.74c0-3.71,2.14-6.01,5.37-6.01
			c3.27,0,5.79,2.85,5.79,6.74C208.67,270.46,206.53,272.76,203.3,272.76"/>
		<path d="M221.71,258.31c-4.95,0-8.17,3.82-8.17,8.19c0,4.15,2.96,7.95,8.2,7.95c4.95,0,8.17-3.82,8.17-8.2
			C229.91,262.11,226.95,258.31,221.71,258.31 M221.93,272.76c-3.27,0-5.79-2.85-5.79-6.74c0-3.71,2.14-6.01,5.37-6.01
			c3.27,0,5.79,2.85,5.79,6.74C227.3,270.46,225.16,272.76,221.93,272.76"/>
		<path d="M243.24,274.46l1.5-2.76l-0.22-0.2c-1.15,0.8-1.83,1.17-4.2,1.17h-4.2v-11.05c0-1.68,0.26-2.1,0.86-2.45v-0.29h-4.17v0.29
			c0.6,0.35,0.86,0.77,0.86,2.45v9.99c0,1.68-0.27,2.1-0.86,2.45v0.29h7.16C241.47,274.35,242.4,274.37,243.24,274.46"/>
		<path d="M57.63,274.28h-4.4v-0.29c0.66-0.38,0.97-0.82,0.97-2.56v-10.93h-1.88c-2.41,0-2.87,0.35-3.51,1.15l-0.29-0.09l0.46-2.94
			c0.91,0.11,2.1,0.2,3.6,0.2h5.68c1.5,0,2.7-0.09,3.6-0.2l0.46,2.94l-0.29,0.09c-0.64-0.8-1.1-1.15-3.51-1.15h-1.88v10.93
			c0,1.75,0.31,2.19,0.97,2.56V274.28z M69.12,259.1c-0.6,0.35-0.86,0.77-0.86,2.45v3.98h8.86v-3.98c0-1.68-0.27-2.1-0.86-2.45
			v-0.29h4.18v0.29c-0.6,0.35-0.86,0.77-0.86,2.45v9.99c0,1.68,0.26,2.1,0.86,2.45v0.29h-4.18v-0.29c0.6-0.35,0.86-0.77,0.86-2.45
			v-4.31h-8.86v4.31c0,1.68,0.27,2.1,0.86,2.45v0.29h-4.17v-0.29c0.6-0.35,0.86-0.77,0.86-2.45v-9.99c0-1.68-0.27-2.1-0.86-2.45
			v-0.29h4.17V259.1z"/>
		<path d="M87.69,268.11l2.47-5.66l2.47,5.66H87.69z M96.99,271.89L91,258.64h-0.91l-5.99,13.25c-0.6,1.3-0.91,1.79-1.57,2.1v0.29
			h3.98v-0.29c-0.79-0.31-1.06-0.8-0.35-2.41l0.82-1.88h6.36l0.82,1.88c0.71,1.61,0.46,2.1-0.24,2.41v0.29h4.53v-0.29
			C97.87,273.68,97.58,273.19,96.99,271.89"/>
		<path d="M119.92,260.36c2.3,0,3.03,0.15,3.73,0.66l0.24-0.15l-0.88-2.27c-0.82,0.09-1.92,0.11-3.27,0.11h-6.89v0.29
			c0.6,0.35,0.86,0.77,0.86,2.45v9.99c0,1.68-0.26,2.1-0.86,2.45v0.29h7.47c1.5,0,2.43,0.02,3.27,0.11l1.28-2.65l-0.24-0.18
			c-0.95,0.64-1.79,1.06-4.55,1.06h-3.91v-5.41h3.31c0.84,0,1.79,0.07,2.41,0.15l1.08-2.08l-0.2-0.2c-0.68,0.29-1.57,0.44-3.18,0.44
			h-3.42v-5.06H119.92z"/>
		<path d="M130.81,274.28h-4.17v-0.29c0.48-0.24,0.86-0.77,0.86-2.45v-9.99c0-1.68-0.38-2.21-0.86-2.45v-0.29h5.57
			c4.11,0,6.01,1.64,6.01,4.48c0,1.95-1.17,3.56-3.45,4.15c0.66,0.27,1.21,0.91,2.23,2.19l1.9,2.43c1.06,1.37,1.5,1.7,2.08,1.92
			v0.29h-2.72c-0.57,0-0.88-0.18-1.33-0.77l-2.76-3.71c-1.08-1.46-1.3-1.7-2.03-1.7h-0.66l-0.68-1.39v-0.22h1.46
			c2.23,0,3.4-1.17,3.4-3.05c0-2.05-1.24-3-3.69-3h-2.01v11.11c0,1.68,0.38,2.21,0.86,2.45V274.28z"/>
		<path d="M105.14,264.95v6.47c0,1.74,0.31,2.19,0.97,2.56v0.29h-4.4v-0.29c0.66-0.38,0.97-0.82,0.97-2.56v-6.47"/>
		<path d="M105.04,266.14c0,0-2.7-4.36-3.18-5.12c-0.48-0.75-1.06-1.61-0.35-1.92v-0.29h-4.53v0.29c0.81,0.14,1.2,0.72,2.1,1.94
			l4.61,6.91"/>
		<path d="M103.44,268.52c0,0,5-7.08,5.34-7.57c1.14-1.63,1.76-1.68,2.42-1.86v-0.29h-3.98v0.29c0.8,0.13,0.38,0.48-0.4,1.59
			l-3.74,5.46"/>
	</g>
	<g>
		<path d="M198.69,115.42V30H94.58v85.42c0,1.2,0.05,2.38,0.16,3.53l0,0h0c0.02,0.21,0.04,0.42,0.07,0.63c0,0.04,0,0.08,0.01,0.12
			c0.01,0.07,0.02,0.13,0.02,0.2c0.02,0.2,0.05,0.4,0.07,0.6c0.02,0.16,0.05,0.32,0.07,0.48c0.02,0.11,0.03,0.22,0.05,0.33
			c0.03,0.2,0.07,0.39,0.11,0.59c0.06,0.34,0.11,0.68,0.18,1.01c0,0.01,0,0.01,0,0.02c0.01,0.06,0.02,0.11,0.03,0.17l0,0
			c6.46,31.29,51.28,41.98,51.28,41.98s44.79-10.68,51.28-41.95l0,0c0-0.02,0.01-0.04,0.01-0.06c0,0,0-0.01,0-0.01
			c0.04-0.21,0.08-0.42,0.12-0.63c0.1-0.52,0.19-1.05,0.26-1.58c0.04-0.2,0.06-0.4,0.08-0.6c0.02-0.12,0.03-0.23,0.04-0.34
			c0.03-0.21,0.05-0.42,0.07-0.63c0,0,0-0.01,0-0.01c0.01-0.09,0.02-0.18,0.03-0.27h0l0,0v0
			C198.64,117.82,198.69,116.63,198.69,115.42z M189.16,115.62C189.16,115.62,189.16,115.62,189.16,115.62
			C189.16,115.62,189.16,115.62,189.16,115.62c-2.44,0.01-4.88,0.67-7.04,2c-2.17,1.33-4.65,1.99-7.11,1.99
			c-2.46,0-4.92-0.66-7.09-1.99c-2.17-1.33-4.64-2-7.09-2c-2.46,0-4.92,0.67-7.1,2h-0.01c-1.46,0.89-3.06,1.49-4.69,1.78
			c-0.4,0.07-0.8,0.12-1.2,0.16c-0.79,0.07-1.59,0.07-2.38,0c-0.4-0.03-0.79-0.08-1.18-0.15c-1.65-0.29-3.26-0.88-4.73-1.78
			c-2.18-1.33-4.65-2-7.11-2c-2.46,0-4.92,0.67-7.09,2c-2.17,1.33-4.64,1.99-7.1,1.99c-2.46,0-4.92-0.66-7.09-1.99h-0.01
			c-2.15-1.32-4.58-1.98-7.01-2c0,0,0,0,0,0c0-0.07,0-0.14,0-0.2v-4.31c0.13,0,0.27,0,0.4,0c2.3,0.08,4.58,0.74,6.61,1.98l0.01,0.01
			c2.17,1.32,4.63,1.99,7.09,1.99c2.46,0,4.92-0.67,7.1-1.99c4.35-2.66,9.84-2.66,14.2-0.01v0.01c4.35,2.65,9.84,2.65,14.19,0
			l0.01-0.01c2.17-1.32,4.63-1.99,7.09-1.99c2.47,0,4.93,0.67,7.11,2c4.35,2.65,9.84,2.65,14.2,0v-0.01
			c2.04-1.25,4.34-1.91,6.65-1.98c0.13,0,0.27,0,0.4,0v4.31C189.16,115.48,189.16,115.55,189.16,115.62z M169.35,109.33
			c-0.49-0.22-0.97-0.47-1.44-0.76c-2.17-1.33-4.64-2-7.09-2c-2.46,0-4.92,0.67-7.1,2h-0.01c-1.46,0.89-3.06,1.49-4.69,1.78
			c-0.4,0.07-0.8,0.12-1.2,0.16c-0.79,0.07-1.59,0.07-2.38,0c-0.4-0.03-0.79-0.08-1.18-0.15c-0.16-0.03-0.32-0.07-0.47-0.11
			L189.16,65v10.63L169.35,109.33z M189.16,82.83v23.75c0,0,0,0,0,0c-2.44,0.01-4.88,0.67-7.04,2c-1.1,0.67-2.27,1.17-3.48,1.5
			L189.16,82.83z M189.16,62.99l-47.48,37.73c-2.44-4.85-4.99-11.48-7.42-18.69l54.91-25.15V62.99z M125.85,100.8h15.72l-7.41,5.88
			c-0.58-0.08-1.16-0.12-1.75-0.12c-2.26,0-4.53,0.57-6.57,1.7V100.8z M189.16,55.31l-57.23,19.54c-1.78-5.7-3.43-11.49-4.86-16.86
			l62.09-7.02V55.31z M104.11,98.58v-38l13.2-1.49C113.69,72.46,108.8,88.27,104.11,98.58z M104.11,100.8h14.82v9.74
			c-0.24,0.01-0.47,0.02-0.71,0.02c-2.46,0-4.92-0.66-7.09-1.99h-0.01c-2.15-1.32-4.58-1.98-7.01-2c0,0,0,0,0,0V100.8z
			 M189.16,49.52l-63.85,1.62c-1.16-4.68-2.07-8.74-2.62-11.69h66.48V49.52z M122.07,39.44c-0.6,2.98-1.55,7.09-2.74,11.85
			l-15.23,0.39V39.44H122.07z M146.63,155.27c-8.5-2.53-38.34-12.93-42.13-35.12c0,0,0,0,0,0c0,0,0,0,0,0
			c2.3,0.08,4.58,0.74,6.61,1.98l0.01,0.01c2.17,1.32,4.63,1.99,7.09,1.99c2.46,0,4.92-0.67,7.1-1.99c4.35-2.66,9.84-2.66,14.2-0.01
			v0.01c4.35,2.65,9.84,2.65,14.19,0l0.01-0.01c2.17-1.32,4.63-1.99,7.09-1.99c2.47,0,4.93,0.67,7.11,2c4.35,2.65,9.84,2.65,14.2,0
			v-0.01c2.04-1.25,4.34-1.91,6.65-1.98c0,0,0,0,0,0C184.97,142.33,155.11,152.74,146.63,155.27z"/>
		<polygon points="126.34,132.9 129.31,132.19 129.31,140.86 131.77,140.86 131.77,129.58 126.34,130.74 		"/>
		<polygon points="157.06,134.02 159.2,134.02 159.2,131.78 163.79,131.78 159.2,142.97 161.74,142.97 166.23,131.86 166.23,129.84 
			157.06,129.84 		"/>
		<path d="M141.5,134.14v-0.04c1.37-0.43,2.18-1.53,2.18-3.05c0-2.08-1.71-3.56-4.41-3.56c-2.7,0-4.41,1.47-4.41,3.56
			c0,1.51,0.83,2.61,2.18,3.05v0.04c-1.53,0.41-2.62,1.65-2.62,3.2c0,2.3,1.91,3.75,4.84,3.75c2.94,0,4.86-1.45,4.86-3.75
			C144.14,135.79,143.05,134.55,141.5,134.14z M139.28,129.25c1.23,0,2.12,0.65,2.12,1.99c0,1.32-0.89,2.01-2.12,2.01
			c-1.23,0-2.12-0.69-2.12-2.01C137.15,129.89,138.05,129.25,139.28,129.25z M139.28,139.31c-1.45,0-2.42-0.79-2.42-2.14
			c0-1.36,0.97-2.14,2.42-2.14c1.45,0,2.44,0.79,2.44,2.14C141.72,138.52,140.72,139.31,139.28,139.31z"/>
		<path d="M151.5,129.44c1.05,0,1.92,0.61,2.32,1.67l1.73-1.14c-0.67-1.57-2.08-2.48-4.05-2.48c-3.43,0-5.6,2.97-5.6,7.14
			c0,1.69,0.36,3.22,1.13,4.38c0.85,1.28,2.16,2.08,3.97,2.08c2.76,0,4.52-1.89,4.52-4.44c0-2.36-1.53-4.19-4.07-4.19
			c-1.55,0-2.8,0.88-3.25,2.16h-0.06v-0.33C148.15,131.57,149.38,129.44,151.5,129.44z M150.91,134.34c1.39,0,2.38,0.94,2.38,2.42
			c0,1.47-0.99,2.42-2.38,2.42c-1.33,0-2.3-0.94-2.3-2.42C148.6,135.28,149.58,134.34,150.91,134.34z"/>
	</g>
	<g>
		<path d="M40.33,227.63c3.36,0,4.42,0.23,5.45,0.97l0.36-0.23l-1.29-3.32c-1.19,0.13-2.81,0.16-4.78,0.16H30v0.42
			c0.87,0.52,1.26,1.13,1.26,3.58v14.59c0,2.45-0.39,3.06-1.26,3.58v0.42h10.91c2.2,0,3.55,0.03,4.78,0.16l1.87-3.87l-0.36-0.26
			c-1.39,0.94-2.61,1.55-6.65,1.55h-5.71v-7.91h4.84c1.23,0,2.61,0.1,3.52,0.23l1.58-3.03l-0.29-0.29c-1,0.42-2.29,0.65-4.65,0.65
			h-5v-7.39H40.33z"/>
		<path d="M169.47,227.63c3.36,0,4.42,0.23,5.45,0.97l0.36-0.23l-1.29-3.32c-1.19,0.13-2.81,0.16-4.78,0.16h-10.07v0.42
			c0.87,0.52,1.26,1.13,1.26,3.58v14.59c0,2.45-0.39,3.06-1.26,3.58v0.42h10.91c2.2,0,3.55,0.03,4.78,0.16l1.87-3.87l-0.36-0.26
			c-1.39,0.94-2.61,1.55-6.65,1.55h-5.71v-7.91h4.84c1.23,0,2.61,0.1,3.52,0.23l1.58-3.03l-0.29-0.29c-1,0.42-2.29,0.65-4.65,0.65
			h-5v-7.39H169.47z"/>
		<path d="M149.17,227.63c3.36,0,4.42,0.23,5.45,0.97l0.36-0.23l-1.29-3.32c-1.19,0.13-2.81,0.16-4.78,0.16h-10.07v0.42
			c0.87,0.52,1.26,1.13,1.26,3.58v14.59c0,2.45-0.39,3.06-1.26,3.58v0.42h10.91c2.2,0,3.55,0.03,4.78,0.16l1.87-3.87l-0.36-0.26
			c-1.39,0.94-2.61,1.55-6.65,1.55h-5.71v-7.91h4.84c1.23,0,2.61,0.1,3.52,0.23l1.58-3.03l-0.29-0.29c-1,0.42-2.29,0.65-4.65,0.65
			h-5v-7.39H149.17z"/>
		<path d="M71.36,229.41c0-2.55,0.48-3.19,1.42-3.74v-0.42H67.2v0.42c0.94,0.55,1.42,1.19,1.42,3.74v12.1l-16.14-16.4h-1.32v18.56
			c0,2.55-0.48,3.19-1.42,3.74v0.42h5.59v-0.42c-0.94-0.55-1.42-1.19-1.42-3.74v-12.1l16.2,16.4h1.26V229.41z"/>
		<path d="M134.55,229.41c0-2.55,0.48-3.19,1.42-3.74v-0.42h-5.58v0.42c0.94,0.55,1.42,1.19,1.42,3.74v12.1l-16.14-16.4h-1.32v18.56
			c0,2.55-0.48,3.19-1.42,3.74v0.42h5.59v-0.42c-0.94-0.55-1.42-1.19-1.42-3.74v-12.1l16.2,16.4h1.26V229.41z"/>
		<path d="M235.2,229.41c0-2.55,0.48-3.19,1.42-3.74v-0.42h-5.58v0.42c0.94,0.55,1.42,1.19,1.42,3.74v12.1l-16.14-16.4h-1.32v18.56
			c0,2.55-0.48,3.19-1.42,3.74v0.42h5.59v-0.42c-0.94-0.55-1.42-1.19-1.42-3.74v-12.1l16.2,16.4h1.26V229.41z"/>
		<path d="M97.2,244.87l0.06-0.16v-5.2l2.1-1.87v-0.19h-8.78l-1.74,2v0.19h4.94v4.74c-1.23,0.74-2.74,1.16-4.65,1.16
			c-5.87,0-9.55-3.87-9.55-9.88c0-5.62,3.1-8.81,8.3-8.81c3.26,0,6,1.23,7.16,2.74l0.39-0.06v-3.52c-1.26-0.9-3.87-1.65-7.17-1.65
			c-7.91,0-12.49,5.45-12.49,12.14c0,6.04,4.03,11.46,12.17,11.46C91.61,247.97,95.03,246.84,97.2,244.87"/>
		<path d="M261.11,244.87l0.06-0.16v-5.2l2.1-1.87v-0.19h-8.78l-1.74,2v0.19h4.94v4.74c-1.23,0.74-2.74,1.16-4.65,1.16
			c-5.87,0-9.55-3.87-9.55-9.88c0-5.62,3.1-8.81,8.3-8.81c3.26,0,6,1.23,7.16,2.74l0.39-0.06v-3.52c-1.26-0.9-3.87-1.65-7.17-1.65
			c-7.91,0-12.49,5.45-12.49,12.14c0,6.04,4.03,11.46,12.17,11.46C255.52,247.97,258.94,246.84,261.11,244.87"/>
		<path d="M108.66,247.55c-0.87-0.52-1.26-1.13-1.26-3.58v-14.59c0-2.45,0.39-3.07,1.26-3.58v-0.42h-6.1v0.42
			c0.87,0.52,1.26,1.13,1.26,3.58v14.59c0,2.45-0.39,3.07-1.26,3.58v0.42h6.1V247.55z"/>
		<path d="M209.09,247.55c-0.87-0.52-1.26-1.13-1.26-3.58v-14.59c0-2.45,0.39-3.07,1.26-3.58v-0.42h-6.1v0.42
			c0.87,0.52,1.26,1.13,1.26,3.58v14.59c0,2.45-0.39,3.07-1.26,3.58v0.42h6.1V247.55z"/>
		<path d="M185.4,247.97h-6.1v-0.42c0.71-0.36,1.26-1.13,1.26-3.58v-14.59c0-2.45-0.55-3.23-1.26-3.58v-0.42h8.13
			c6,0,8.78,2.39,8.78,6.55c0,2.84-1.71,5.2-5.04,6.07c0.97,0.39,1.78,1.32,3.26,3.2l2.78,3.55c1.55,2,2.2,2.49,3.03,2.81v0.42
			h-3.97c-0.84,0-1.29-0.26-1.94-1.13l-4.03-5.42c-1.58-2.13-1.9-2.49-2.97-2.49h-0.97l-1-2.03v-0.32h2.13
			c3.26,0,4.97-1.71,4.97-4.46c0-3-1.81-4.39-5.39-4.39h-2.94v16.24c0,2.45,0.55,3.23,1.26,3.58V247.97z"/>
	</g>
</g>
</svg>
