<svg xmlns="http://www.w3.org/2000/svg" id="Layer_1" x="0" y="0" version="1.1" viewBox="0 0 300 245" xml:space="preserve"><style>.st0{fill:#003349}.st1{fill:#006937}</style><path d="M9.9 182.7c0 1 .3 1.3 1.4 1.3h.7v.3H6.3v-.3H7c1.1 0 1.4-.3 1.4-1.3v-9H5.3c-.7 0-1.1.4-1.3 2h-.4l.3-3h.3c0 .1.1.2.2.2s.2.1.4.1h8.8c.3 0 .5-.1.6-.3h.3l.3 3h-.3c-.3-1.6-.6-2-1.3-2H9.9v9zM26 179v3.5c0 1.2.2 1.6 1.5 1.6h.1v.3H23v-.3h.1c1.1 0 1.4-.3 1.4-1.3v-8c0-.9-.3-1.2-1.3-1.3v-.3h4.3v.3c-1.3 0-1.5.3-1.5 1.7v3.2h7.1v-3.6c0-1-.3-1.3-1.4-1.3h-.3v-.3h4.7v.3c-1.1 0-1.4.4-1.4 1.5v7.6c0 1.3.4 1.6 1.5 1.6h.2v.3h-5.2v-.3h.6c1.2 0 1.4-.4 1.4-1.4V179H26zM47.8 179.4l-1.1 2.9c-.1.3-.4.9-.4 1.1 0 .5.5.7 1.5.7h.3v.3h-4.2v-.3c1.2 0 1.4-.2 2-1.8l3.3-9.1-.2-.4h1.6l3.8 10.1c.4 1 .7 1.1 1.7 1.1v.3h-5v-.3h.5c1 0 1.4-.1 1.4-.6 0-.3-.1-.6-.2-.7l-1.2-3.3h-3.8zm1.8-5.1l-1.5 4.2h3.1l-1.6-4.2zM70.8 174.7c.6-1 .2-1.3-.9-1.3v-.3H74v.3c-1.2.1-1.8.6-2.3 1.4l-3 5.1v2.7c0 1 .3 1.3 1.5 1.3h.2v.3h-5v-.3h.3c1.1 0 1.5-.4 1.5-1.3V180l-3.2-5.1c-.9-1.4-1.3-1.7-2.5-1.7v-.3h4.8v.3c-1.4 0-1.5.3-1 1.2l2.9 4.5 2.6-4.2zM89.8 180.3h-.3c-.1-1.3-.5-1.4-1.2-1.4h-3.1v3.9c0 .8.3 1 1 1H89c1.3 0 1.7-.5 2.1-2.1h.3l-.3 2.7h-9.7v-.3h.5c1.5 0 1.7-.4 1.7-1.5v-7.7c0-1-.2-1.5-1.5-1.5h-.4v-.3h8.7l.1 2.5h-.3c-.2-1.5-.7-1.9-1.3-1.9h-3.8v4.5h3.3c.7 0 1-.3 1.1-1.4h.3v3.5zM103.5 182.7c0 1.1.4 1.4 1.5 1.4h.4v.3h-5.2v-.3h.3c1.1 0 1.5-.3 1.5-1.5v-7.7c0-1.1-.3-1.5-1.4-1.5h-.4v-.3c.4 0 1.6-.1 2.3-.1.8 0 1.1-.1 2.3-.1 3.4 0 4.9 1.4 4.9 3.2 0 1.4-.9 2.5-2.4 3 .7.5 1.2 1 2.1 1.9l1.4 1.4c1.1 1.1 2.2 1.7 3.6 1.8v.3c-3.2.1-4-.5-5.6-2.2l-1.2-1.2c-.8-.8-1.5-1.3-1.9-1.6h-2.2v3.2zm0-3.4c.4.1.7 0 1.1 0 2.1 0 3.4-.9 3.4-3 0-1.7-.8-3-3.6-3h-.9v6zM135.6 181.7c.4 1.6 1.7 2.6 3.1 2.6 1.2 0 2.5-.7 2.5-2.1 0-2.6-5.8-3.4-5.8-6.6 0-1.5 1.4-2.6 3.2-2.6 1.5 0 1.8.5 2.5.5.1 0 .2 0 .3-.2h.3l.3 2.3h-.3c-.5-1.3-1.7-2.2-2.9-2.2s-2 .7-2 1.7c0 2.6 5.8 3.3 5.8 6.6 0 1.8-1.6 3.1-3.7 3.1-1 0-2.3-.5-2.5-.5s-.3.1-.4.2h-.3l-.4-2.8h.3zM162.2 176.1c-.6-1.7-2.2-2.8-4.2-2.8-3 0-4.9 2.2-4.9 5.3 0 3.3 2.4 5.7 5.1 5.7 1.4 0 3.2-.5 4.4-2.7h.3c-.2.8-.7 1.9-1.2 2.7-1.2-.2-2 .5-4.1.5-3.7 0-6.4-2.4-6.4-5.8 0-3.5 2.7-6.1 6.5-6.1 2.3 0 3.3.7 3.8.7.2 0 .3-.1.3-.1h.3l.2 2.6h-.1zM174.4 179v3.5c0 1.2.2 1.6 1.5 1.6h.1v.3h-4.6v-.3h.1c1.1 0 1.4-.3 1.4-1.3v-8c0-.9-.3-1.2-1.3-1.3v-.3h4.3v.3c-1.3 0-1.5.3-1.5 1.7v3.2h7.1v-3.6c0-1-.3-1.3-1.4-1.3h-.3v-.3h4.7v.3c-1.1 0-1.4.4-1.4 1.5v7.6c0 1.3.4 1.6 1.5 1.6h.2v.3h-5.2v-.3h.6c1.2 0 1.4-.4 1.4-1.4V179h-7.2zM200 184.7c-3.6 0-6.6-2.3-6.6-5.7 0-3.6 2.8-6.2 6.7-6.2 3.4 0 6.4 2.4 6.4 5.6-.1 3.7-3 6.3-6.5 6.3zm-.4-11.4c-3.2 0-4.5 3-4.5 5.2 0 3.4 2.3 5.8 5.3 5.8s4.4-2.6 4.4-5.2c-.1-3.4-2.2-5.8-5.2-5.8zM222 184.7c-3.6 0-6.6-2.3-6.6-5.7 0-3.6 2.8-6.2 6.7-6.2 3.4 0 6.4 2.4 6.4 5.6 0 3.7-2.9 6.3-6.5 6.3zm-.4-11.4c-3.2 0-4.5 3-4.5 5.2 0 3.4 2.3 5.8 5.2 5.8 3 0 4.4-2.6 4.4-5.2.1-3.4-2.1-5.8-5.1-5.8zM245 184.4h-8.1v-.3h.6c.8 0 1.1-.3 1.1-1.2v-8.1c0-1-.3-1.4-1.4-1.4h-.3v-.3h5.4v.3h-.7c-1.2 0-1.5.1-1.5 1.3v8.4c0 .5.2.7.7.7h2.7c1.1 0 1.4-.4 2.6-2h.3l-1.4 2.6zM274.6 184.7c-3.6 0-6.6-2.3-6.6-5.7 0-3.6 2.8-6.2 6.7-6.2 3.4 0 6.4 2.4 6.4 5.6 0 3.7-3 6.3-6.5 6.3zm-.4-11.4c-3.2 0-4.5 3-4.5 5.2 0 3.4 2.3 5.8 5.3 5.8s4.4-2.6 4.4-5.2c0-3.4-2.2-5.8-5.2-5.8zM297.3 180.1h-.3c0-1.1-.4-1.4-1.3-1.4h-3.4v4c0 1 .2 1.4 1.6 1.4v.3h-4.4v-.3c1.1-.1 1.3-.3 1.3-1.8v-7.1c0-1.2-.1-1.7-1.4-1.7v-.3h8.2v2.2h-.3c0-1.1-.4-1.5-1.5-1.5h-3.5v4.3h3.6c.7 0 1-.4 1.1-1.2h.3v3.1zM20.3 208h-.8c-.3-2.9-1.1-3.2-2.7-3.2H10v8.6c0 1.9.7 2.2 2.2 2.2h6.2c2.8 0 3.7-1.1 4.7-4.6h.7l-.6 6H1.7v-.8h1.1c3.2 0 3.8-.9 3.8-3.3v-17c0-2.3-.5-3.2-3.2-3.2h-.9v-.8h19.4l.3 5.6h-.7c-.5-3.4-1.5-4.2-3-4.2H10v9.9h7.2c1.5 0 2.1-.7 2.3-3h.8v7.8zM54 217.3l-21-21.9v17.3c0 2.9.6 3.5 4.1 3.5v.8h-9.4v-.8h.2c2.5 0 3.3-.8 3.3-2.7v-19.9c-.9-.6-2-1-3.4-1v-.8h6.3l19 19.8v-16.1c0-2.5-.7-2.9-4-3v-.8h9.5v.8c-3 0-3.7.5-3.7 2.1v22.5H54v.2zM84.3 215.1c-4 2.1-9.1 2.5-10.8 2.5-8.8 0-13-6.8-13-12.7 0-6.1 4.2-13.7 14.1-13.7 4.3 0 7.2 1.4 8 1.4.4 0 .7-.1.9-.3h.6v6.5h-.8c-1.1-5.1-4.5-6.6-8.3-6.6-7.1 0-10.7 5.9-10.7 12.4 0 8.3 5.8 12 10.5 12 1.9 0 3.9-.4 6.2-1.5V210c0-2.3-.8-3.1-3.2-3.1h-1.5v-.7h10.9v.7c-2 .1-2.8.8-2.8 2.5l-.1 5.7zM100.9 217h-9.8v-.8c2.5-.1 3-.8 3-3.5v-17.2c0-2.2-.8-2.8-3-2.9v-.8h9.8v.8c-2.5 0-3.4.6-3.4 3.3V213c0 2.4.6 3.2 3.4 3.2v.8zM132.4 217.3l-20.9-21.9v17.3c0 2.9.6 3.5 4.1 3.5v.8h-9.4v-.8h.2c2.5 0 3.3-.8 3.3-2.7v-19.9c-.9-.6-2-1-3.4-1v-.8h6.3l19 19.8v-16.1c0-2.5-.7-2.9-4-3v-.8h9.5v.8c-3 0-3.7.5-3.7 2.1v22.5h-1v.2zM159.9 208h-.8c-.3-2.9-1.1-3.2-2.7-3.2h-6.8v8.6c0 1.9.7 2.2 2.2 2.2h6.2c2.8 0 3.7-1.1 4.7-4.6h.7l-.6 6h-21.5v-.8h1.1c3.2 0 3.8-.9 3.8-3.3v-17c0-2.3-.5-3.2-3.2-3.2h-.9v-.8h19.4l.3 5.6h-.7c-.5-3.4-1.5-4.2-3-4.2h-8.5v9.9h7.2c1.5 0 2.1-.7 2.3-3h.8v7.8zM185.6 208h-.8c-.3-2.9-1.1-3.2-2.7-3.2h-6.8v8.6c0 1.9.7 2.2 2.2 2.2h6.2c2.8 0 3.7-1.1 4.7-4.6h.7l-.6 6H167v-.8h1.1c3.2 0 3.8-.9 3.8-3.3v-17c0-2.3-.5-3.2-3.2-3.2h-.9v-.8h19.4l.3 5.6h-.7c-.5-3.4-1.5-4.2-3-4.2h-8.5v9.9h7.2c1.5 0 2.1-.7 2.3-3h.8v7.8zM201.2 213.2c0 2.4 1 3 3.2 3h.9v.8h-11.4v-.8h.7c2.4 0 3.2-.6 3.2-3.4v-17c0-2.5-.7-3.2-3-3.2h-.9v-.8c1 0 3.4-.2 5.1-.2 1.7-.1 2.5-.1 5.1-.1 7.5 0 10.8 3.1 10.8 7.2 0 3-2.1 5.6-5.4 6.5 1.5 1.2 2.7 2.3 4.6 4.2l3.2 3.2c2.4 2.4 5.4 3.4 7.4 3.6v.8c-6 .3-8.3-.8-11.9-4.4l-2.7-2.7c-1.8-1.8-3.2-2.9-4.2-3.6-1 0-1.7.1-2.7.1-.9 0-1.4 0-2.1-.1l.1 6.9zm0-7.6c1 .1 1.6.1 2.5.1 4.5 0 7.4-1.9 7.4-6.7 0-3.8-1.7-6.7-7.9-6.7-.8 0-1.3 0-2 .1v13.2zM234.6 217h-9.8v-.8c2.5-.1 3-.8 3-3.5v-17.2c0-2.2-.8-2.8-3-2.9v-.8h9.8v.8c-2.5 0-3.4.6-3.4 3.3V213c0 2.4.6 3.2 3.4 3.2v.8zM266.5 217.3l-20.9-21.9v17.3c0 2.9.6 3.5 4.1 3.5v.8h-9.4v-.8h.2c2.5 0 3.3-.8 3.3-2.7v-19.9c-.9-.6-2-1-3.4-1v-.8h6.3l19 19.8v-16.1c0-2.5-.7-2.9-4-3v-.8h9.5v.8c-3 0-3.7.5-3.7 2.1v22.5h-1v.2zM297.2 215.1c-4 2.1-9.1 2.5-10.8 2.5-8.8 0-13-6.8-13-12.7 0-6.1 4.2-13.7 14.1-13.7 4.3 0 7.2 1.4 8 1.4.4 0 .7-.1.9-.3h.6v6.5h-.8c-1.1-5.1-4.5-6.6-8.3-6.6-7.1 0-10.7 5.9-10.7 12.4 0 8.3 5.8 12 10.5 12 1.9 0 3.9-.4 6.2-1.5V210c0-2.3-.8-3.1-3.2-3.1h-1.5v-.7H300v.7c-2 .1-2.8.8-2.8 2.5v5.7zM6.7 235.8l-1.8 5c-.2.6-.6 1.5-.6 2 0 .9.8 1.2 2.6 1.2h.5v.6H0v-.6c2.1 0 2.4-.4 3.4-3.1l5.7-15.7-.3-.7h2.7l6.6 17.5c.6 1.7 1.3 2 2.9 2v.6h-8.7v-.6h.8c1.8 0 2.5-.2 2.5-1.1 0-.5-.2-1-.3-1.3l-2.1-5.7-6.5-.1zm3.2-8.7l-2.7 7.3h5.5l-2.8-7.3zM33.3 241.6c0 1.7.6 2.3 2.5 2.3H37v.6H27v-.6h1.2c1.9 0 2.5-.6 2.5-2.3V226h-5.5c-1.3 0-1.8.7-2.3 3.5h-.6l.5-5.1h.6c0 .2.2.3.3.4.2.1.4.1.6.1h15.2c.4 0 .9-.1 1-.5h.6l.5 5.1H41c-.5-2.8-1-3.5-2.3-3.5h-5.5l.1 15.6zM62.5 228.1c0-2.1-.5-2.6-2.4-2.6h-.6v-.6c1.2-.1 2.7-.1 4.4-.2 1.7-.1 3.7-.1 5.3-.1 8.3 0 12 4.2 12 9.4 0 4.8-3.7 10.5-11.7 10.5H59.4v-.6h.6c1.7 0 2.5-.5 2.5-2.3v-13.5zm2.6 14.1c0 1.3.1 1.7 2.6 1.7 4.2 0 6-.6 7.9-2.6 1.2-1.1 2.6-3.6 2.6-6.8 0-2.3-.7-4.9-2.5-6.8-1.5-1.5-3.7-2.6-8.1-2.6-1.3 0-2.1.1-2.5.1v17zM92 235.8l-1.8 5c-.2.6-.6 1.5-.6 2 0 .9.8 1.2 2.6 1.2h.5v.6h-7.3v-.6c2 0 2.4-.4 3.4-3.1l5.7-15.7-.3-.7h2.7l6.6 17.5c.6 1.7 1.3 2 2.9 2v.6h-8.7v-.6h.8c1.8 0 2.5-.2 2.5-1.1 0-.5-.2-1-.3-1.3l-2.1-5.7-6.6-.1zm3.2-8.7l-2.7 7.3H98l-2.8-7.3zM116.9 241.6c0 1.9.8 2.4 2.5 2.4h.7v.6h-8.9v-.6h.5c1.9 0 2.5-.5 2.5-2.6V228c0-2-.5-2.5-2.4-2.5h-.7v-.6c.8 0 2.7-.1 4-.2 1.3-.1 1.9-.1 4-.1 5.8 0 8.5 2.4 8.5 5.6 0 2.4-1.6 4.4-4.2 5.1 1.2.9 2.1 1.8 3.6 3.3l2.5 2.5c1.9 1.9 3.8 3 6.2 3.2v.6c-5.5.3-6.9-.9-9.7-3.8l-2.1-2.1c-1.4-1.4-2.5-2.3-3.2-2.8-.8 0-1.3.1-2.1.1-.7 0-1.1 0-1.6-.1v5.4h-.1zm0-6c.8.1 1.2.1 2 .1 3.5 0 5.8-1.5 5.8-5.3 0-2.9-1.3-5.2-6.2-5.2-.6 0-1 0-1.6.1v10.3zM147.5 241.6c0 1.7.6 2.3 2.5 2.3h1.2v.6h-9.9v-.6h1.2c1.9 0 2.5-.6 2.5-2.3V226h-5.5c-1.3 0-1.8.7-2.3 3.5h-.6l.5-5.1h.6c0 .2.2.3.3.4.2.1.4.1.6.1h15.2c.4 0 .9-.1 1-.5h.6l.5 5.1h-.6c-.5-2.8-1-3.5-2.3-3.5h-5.5v15.6zM174 244.5l-8-16.8h-.1l-.9 14.2c-.1 1.6 1.1 2 2.5 2v.6h-6.6v-.6c2.3 0 2.6-.5 2.7-3.4l.8-12.3c.1-2.1.1-2.6-1.9-2.8v-.6h4.8l7.6 15.9 7.6-15.9h4.6v.6c-1.5.1-2.1.2-2.1 1.2l1 14.3c.2 2.9.4 2.9 2.7 2.9v.6h-8.1v-.6c1.5 0 2.9-.4 2.8-2.1l-.9-14.1h-.1l-7.9 16.8h-.5v.1zM204.9 245c-6.2 0-11.4-4-11.4-9.9 0-6.3 4.8-10.7 11.5-10.7 6 0 11.1 4.1 11.1 9.7 0 6.5-5.1 10.9-11.2 10.9zm-.7-19.8c-5.6 0-7.8 5.2-7.8 9 0 5.9 4 10.1 9.1 10.1s7.6-4.5 7.6-9c0-5.9-3.7-10.1-8.9-10.1zM245.6 224.9v.6c-2.1 0-2.9.9-2.9 2.9v8.5c0 3.9-2.5 8.1-9.3 8.1-6 0-9.1-3.4-9.1-7.9v-9.2c0-2-.6-2.3-2.7-2.4v-.6h8.1v.6h-.3c-1.7 0-2.5.5-2.5 2.3v8.8c0 4.3 2.5 6.8 7.2 6.8 3.6 0 7.2-1.5 7.2-6.8v-7.3c0-3-.5-3.6-3.1-3.7v-.6h7.4v-.1zM262.3 241.6c0 1.7.6 2.3 2.5 2.3h1.2v.6h-10v-.6h1.2c1.9 0 2.5-.6 2.5-2.3V226h-5.5c-1.3 0-1.8.7-2.3 3.5h-.6l.5-5.1h.6c0 .2.2.3.3.4.2.1.4.1.6.1h15.2c.4 0 .9-.1 1-.5h.6l.5 5.1h-.6c-.5-2.8-1-3.5-2.3-3.5h-5.5l.1 15.6zM281.6 235.2v6c0 2 .4 2.8 2.5 2.8h.1v.6h-7.9v-.6h.2c1.9 0 2.5-.5 2.5-2.3v-13.9c0-1.6-.5-2.1-2.3-2.2v-.6h7.5v.6c-2.2 0-2.6.6-2.6 3v5.5H294v-6.2c0-1.7-.5-2.3-2.5-2.3h-.6v-.6h8.1v.6c-1.9.1-2.4.6-2.4 2.6v13.1c0 2.2.6 2.7 2.5 2.7h.3v.6h-8.9v-.6h1c2 0 2.5-.7 2.5-2.4v-6.4h-12.4z" class="st0"/><g><path d="M209.5 41.3L105.3 78.1l-5.5 14.2 109.7-49.6zM209.5 47.6l-78.4 60.2 12.7 3.4 65.7-61.1zM209.5 54.7L179 107l11 1.4 19.5-52.6zM209.5 36.5L93 36.4l.1 9.7 116.4-8.2z" class="st1"/><path d="M197.6 106.5c-15.7-3.9-25.7-1.4-34.4.9-4.5 1.2-8.4 2.2-12.6 2.2-4.2 0-8.1-1-12.6-2.2-8.7-2.3-18.5-4.8-34.1-1l1.1 4.6c14.4-3.5 23.6-1.1 31.8 1 4.6 1.2 9 2.3 13.8 2.3s9.2-1.1 13.8-2.3c8.2-2.1 17.5-4.5 32-.9l1.2-4.6zM186.9 115.4c-10.6-1.4-18.1.5-24.7 2.2-4.2 1.1-7.7 2-11.6 2-3.9 0-7.5-.9-11.6-2-6.8-1.8-14.5-3.8-25.7-2.1l.7 4.4c10.3-1.6 17.2.2 24 2 4.3 1.1 8.3 2.2 12.7 2.2s8.5-1 12.7-2.2c6.5-1.7 13.2-3.4 23-2.1l.5-4.4z" class="st1"/><path d="M118.8 107.3V93.2H96.9c11.2-23 23.8-72.1 26.7-87.7 2.6 15.8 15.5 65.4 26.7 87.7h-21.9v14.1h-9.6zM140.5 17.9h-2.6v-1.6l5.1-.8v12.2h-2.6v-9.8h.1zM162.1 16.1c.4.4.6 1 .6 1.9v1.1c0 .7-.2 1.2-.5 1.6-.4.4-.9.6-1.8.8.9.1 1.5.4 2 .7.4.4.6 1 .6 1.7v1.3c0 1-.2 1.7-.7 2-.4.4-1.2.6-2.3.6h-7.7c-1.1 0-1.9-.2-2.3-.6-.4-.4-.7-1.1-.7-2v-1.3c0-.7.2-1.3.6-1.7.4-.4 1.1-.6 1.9-.7-.8-.2-1.5-.4-1.8-.8-.4-.4-.5-.9-.5-1.6V18c0-.9.2-1.5.6-1.9.4-.3 1.1-.5 2.2-.5h7.6c1.1 0 1.8.1 2.2.5zm-9.1 6.3c-.5 0-.8.1-.9.2-.2.1-.2.4-.2.9v.9c0 .4.1.7.2.9.2.1.5.2.9.2h6.2c.5 0 .8-.1.9-.2.2-.1.2-.4.2-.9v-.9c0-.4-.1-.8-.2-.9-.1-.1-.4-.2-.9-.2H153zm.3-4.8c-.5 0-.8.1-.9.2-.2.2-.2.4-.2.9v.6c0 .4.1.7.2.9.2.2.5.2.9.2h5.7c.4 0 .7-.1.9-.2.2-.2.2-.4.2-.9v-.6c0-.4-.1-.8-.2-.9-.2-.1-.5-.2-.9-.2h-5.7zM172.8 20.1c.9-.1 1.8-.1 2.6-.1 1.9 0 3.3.2 4 .7.7.4 1.1 1.3 1.1 2.4v1.6c0 1-.4 1.8-1 2.2-.7.5-1.7.7-3.1.7h-5.1c-1.5 0-2.6-.3-3.1-.8-.6-.5-.8-1.5-.8-2.9v-1.6c0-2.3.8-4 2.3-5.2 1.6-1.2 3.8-1.9 6.6-1.9h.9l1.7 1.9h-.9c-2.6 0-4.4.2-5.6.7-1.1.5-1.9 1.3-2.3 2.4.9.1 1.9 0 2.7-.1zm-2.9 2.4v.4c0 1.2.2 1.9.5 2.2.3.3 1 .4 2 .4h3.4c.8 0 1.4-.1 1.7-.3.3-.2.5-.6.5-1.1v-.7c0-.6-.2-1-.5-1.1-.4-.2-1.1-.3-2.1-.3-.9 0-1.7 0-2.6.1-.9 0-1.8.1-2.7.2-.2 0-.2.1-.2.2zM193.6 17.6h-8v2.6l-2.6-.4v-4.2h13.4v1.9l-6.3 10.4H187l6.6-10.3z" class="st1"/><path d="M90 0v82.9c0 27.4 35.9 50.5 60.8 58.2 24.9-7.7 60.8-30.8 60.8-58.2V0H90zm116.5 82.9c0 20.2-22.8 35.5-43.6 44.2-2.7 1-8.5 2.2-12.3 2.2-3.9 0-10.2-1.4-12.4-2.3-20.6-8.7-43.2-24-43.2-44.1V10c7.4-1.4 32.5-6.1 55.5-6.1s48.7 4.5 56 6.1v72.9z" class="st1"/></g></svg>