<?xml version="1.0" encoding="utf-8"?>
<!-- Generator: Adobe Illustrator 23.0.6, SVG Export Plug-In . SVG Version: 6.00 Build 0)  -->
<svg version="1.1" xmlns="http://www.w3.org/2000/svg" xmlns:xlink="http://www.w3.org/1999/xlink" x="0px" y="0px"
	 viewBox="0 0 600 696.5" style="enable-background:new 0 0 600 696.5;" xml:space="preserve">
<g id="Layer_1">
</g>
<g id="Layer_2">
	<g>
		<polygon points="589.9,203.8 75.7,385.5 48.4,455.6 589.9,210.8 		"/>
		<polygon points="589.9,234.9 202.6,532.1 265.3,549 589.9,247.2 		"/>
		<polygon points="589.9,270 439,528 493.7,535.2 589.9,275.4 		"/>
		<polygon points="589.9,180.1 14.9,179.8 15.2,227.6 589.9,186.9 		"/>
		<g>
			<path d="M530.8,525.8c-77.7-19.4-126.6-6.7-169.8,4.5c-22.2,5.8-41.3,10.7-62,10.7s-39.8-5-62-10.7
				c-42.9-11.2-91.5-23.8-168.4-4.9l5.6,22.9c71.1-17.5,116.7-5.6,156.9,4.8c22.8,5.9,44.3,11.5,67.9,11.5
				c23.7,0,45.2-5.6,67.9-11.5c40.4-10.5,86.3-22.4,158.2-4.5L530.8,525.8z"/>
		</g>
		<g>
			<path d="M478.2,569.6c-52.5-7-89.3,2.5-121.8,11c-20.5,5.3-38.2,9.9-57.3,9.9c-19.1,0-36.8-4.6-57.3-9.9
				c-33.6-8.8-71.8-18.7-127-10.3l3.3,21.5c50.7-7.7,85,1.2,118.2,9.8c21,5.5,40.9,10.6,62.8,10.6c21.9,0,41.8-5.2,62.8-10.6
				c32.1-8.3,65.2-17,113.5-10.5L478.2,569.6z"/>
		</g>
		<path d="M142,529.5v-69.7H33.9C89.3,346.4,151.5,104,165.6,27c12.9,77.8,76.7,323,131.6,432.9H189.1v69.7H142z"/>
		<g>
			<path d="M249.3,88.2h-12.7v-8l25.4-3.8v60.2h-12.6V88.2z"/>
			<path d="M355.8,79.3c1.9,1.7,2.8,4.8,2.8,9.3V94c0,3.5-0.8,6-2.5,7.8c-1.7,1.7-4.6,3-8.9,3.8c4.4,0.5,7.6,1.7,9.7,3.6
				c2.1,2,3.1,4.7,3.1,8.3v6.3c0,4.9-1,8.2-3.2,10.1c-2.1,1.9-5.9,2.8-11.3,2.8h-38.2c-5.4,0-9.2-0.9-11.2-2.8
				c-2.2-1.7-3.2-5.2-3.2-10.1v-6.3c0-3.6,1-6.4,3.1-8.3c2.1-1.9,5.3-3.1,9.6-3.6c-4.2-0.8-7.2-2.1-8.9-3.8
				c-1.7-1.7-2.6-4.4-2.6-7.8v-5.4c0-4.5,0.9-7.5,2.8-9.3c1.9-1.6,5.6-2.4,10.9-2.4h37.3C350.3,76.9,354,77.7,355.8,79.3z
				 M311,110.7c-2.3,0-3.8,0.3-4.5,1c-0.8,0.7-1.2,2.2-1.2,4.4v4.4c0,2.2,0.3,3.6,1,4.3c0.8,0.7,2.3,1,4.6,1h30.6
				c2.3,0,3.8-0.3,4.5-1c0.8-0.7,1.2-2.1,1.2-4.3v-4.4c0-2.2-0.3-3.7-1.2-4.4c-0.7-0.7-2.2-1-4.5-1H311z M312.4,87.1
				c-2.3,0-3.8,0.3-4.6,1c-0.8,0.8-1.2,2.2-1.2,4.4v3c0,2.2,0.3,3.6,1.2,4.3c0.8,0.8,2.3,1.2,4.6,1.2h27.9c2.2,0,3.7-0.3,4.5-1
				c0.8-0.8,1.2-2.2,1.2-4.4v-3c0-2.2-0.3-3.7-1.2-4.4c-0.8-0.7-2.3-1-4.5-1H312.4z"/>
			<path d="M408.9,99.1c4.4-0.5,8.7-0.6,13-0.6c9.6,0,16.2,1.2,19.8,3.4c3.6,2.2,5.4,6.3,5.4,12v8.1c0,5-1.7,8.7-5,11
				c-3.4,2.4-8.5,3.6-15.5,3.6h-25.2c-7.5,0-12.7-1.3-15.5-3.9c-2.8-2.7-4.2-7.5-4.2-14.5v-7.9c0-11.1,3.8-19.7,11.6-25.8
				c7.6-6.1,18.5-9.1,32.5-9.1c0.6,0,1.2,0,1.7,0c0.6,0.1,1.5,0.1,2.5,0.2l8.2,9.6h-3.8c-12.7,0-21.9,1.2-27.6,3.5
				c-5.7,2.3-9.5,6.3-11.5,11.9C400,99.9,404.5,99.5,408.9,99.1z M394.5,111.2c-0.1,0.5-0.1,1.2-0.1,2c0,5.8,0.8,9.4,2.3,10.7
				c1.5,1.4,4.9,2.1,10.1,2.1h16.7c4.2,0,7-0.5,8.6-1.5c1.5-1,2.3-2.9,2.3-5.7v-3.2c0-2.8-0.9-4.7-2.7-5.7c-1.7-1-5.2-1.5-10.5-1.5
				c-4.3,0-8.6,0.1-13,0.3c-4.5,0.2-8.9,0.6-13.6,1C394.5,110.1,394.5,110.7,394.5,111.2z"/>
			<path d="M511.1,87.1h-39.5v12.9L459,97.7V76.9h66.3v9.6l-31.3,51.2h-15.2L511.1,87.1z"/>
		</g>
		<path d="M0,0v409.2c0,135.1,177,249.3,300,287.3c123-37.9,300-152.1,300-287.3V0L0,0z M575.1,409.2c0,99.6-112.5,175.1-215,218.4
			c-13.2,5-42.2,10.9-60.5,10.9c-19.2,0-50.3-6.9-61.1-11.4h-0.1C136.4,583.7,24.9,508.4,24.9,409.2c0,0,0-339.4,0-359.7
			c36.6-6.7,160.6-29.9,273.8-29.9c113.3,0,240.4,22.3,276.4,29.9C575.1,69.9,575.1,409.2,575.1,409.2z"/>
	</g>
</g>
</svg>
