<svg xmlns="http://www.w3.org/2000/svg" id="Layer_1" x="0" y="0" version="1.1" viewBox="0 0 683.7 598" xml:space="preserve"><style>.st0{fill:#00703c}.st1{fill:#003349}</style><path d="M505.6 115.1L215.3 217.7l-15.4 39.6L505.6 119zM505.6 132.6L287 300.5l35.3 9.5 183.3-170.4zM505.6 152.4l-85.2 145.8 30.9 4 54.3-146.7zM505.6 101.7l-324.6-.2.1 27 324.5-23z" class="st0"/><path d="M472.3 296.9c-43.9-10.9-71.5-3.8-95.9 2.6-12.5 3.3-23.3 6.1-35 6.1s-22.5-2.8-35-6.1c-24.2-6.3-51.7-13.4-95.1-2.8l3.2 12.9c40.2-9.9 65.9-3.2 88.6 2.7 12.9 3.3 25 6.5 38.4 6.5s25.5-3.2 38.4-6.5c22.8-5.9 48.7-12.7 89.3-2.5l3.1-12.9zM442.5 321.6c-29.6-4-50.4 1.4-68.8 6.2-11.6 3-21.6 5.6-32.4 5.6s-20.8-2.6-32.4-5.6c-19-4.9-40.5-10.5-71.7-5.8l1.9 12.2c28.7-4.4 48 .7 66.7 5.5 11.9 3.1 23.1 6 35.5 6s23.6-2.9 35.5-6c18.1-4.7 36.8-9.6 64.1-5.9l1.6-12.2z" class="st0"/><path d="M252.7 299v-39.3h-61C223 195.6 258.1 58.8 266 15.3c7.3 43.9 43.3 182.4 74.3 244.4h-61V299h-26.6zM313.3 49.8h-7.2v-4.5l14.3-2.2v34h-7.1V49.8zM373.5 44.8c1 1 1.6 2.7 1.6 5.2v3.1c0 2-.5 3.4-1.4 4.4-1 1-2.6 1.7-5 2.2 2.5.3 4.3 1 5.5 2 1.2 1.1 1.8 2.7 1.8 4.7v3.5c0 2.7-.6 4.6-1.8 5.7-1.2 1-3.3 1.6-6.4 1.6h-21.6c-3.1 0-5.2-.5-6.3-1.6-1.2-1-1.8-2.9-1.8-5.7v-3.5c0-2 .6-3.6 1.8-4.7 1.2-1 3-1.8 5.4-2-2.4-.5-4.1-1.2-5-2.2-1-1-1.4-2.5-1.4-4.4V50c0-2.5.5-4.2 1.6-5.2 1-.9 3.1-1.4 6.1-1.4h21.1c2.6 0 4.7.5 5.8 1.4zm-25.3 17.7c-1.3 0-2.2.2-2.5.6-.5.4-.7 1.2-.7 2.5v2.5c0 1.2.2 2 .6 2.4.5.4 1.3.6 2.6.6h17.3c1.3 0 2.2-.2 2.5-.6.5-.4.7-1.2.7-2.4v-2.5c0-1.2-.2-2.1-.7-2.5-.4-.4-1.2-.6-2.5-.6h-17.3zm.7-13.3c-1.3 0-2.2.2-2.6.6-.5.5-.7 1.2-.7 2.5V54c0 1.2.2 2 .7 2.4.5.5 1.3.7 2.6.7h15.8c1.2 0 2.1-.2 2.6-.6.5-.5.7-1.2.7-2.5v-1.7c0-1.2-.2-2.1-.7-2.5s-1.3-.6-2.6-.6h-15.8zM403.4 56c2.5-.3 4.9-.3 7.3-.3 5.4 0 9.2.7 11.2 1.9s3.1 3.5 3.1 6.8V69c0 2.8-1 4.9-2.8 6.2-1.9 1.4-4.8 2-8.8 2h-14.2c-4.3 0-7.2-.7-8.8-2.2-1.6-1.5-2.4-4.2-2.4-8.2v-4.4c0-6.3 2.2-11.1 6.5-14.6s10.5-5.2 18.4-5.2h1c.3.1.8.1 1.4.1l4.6 5.4h-2.2c-7.2 0-12.4.7-15.6 2s-5.4 3.5-6.5 6.7c2.8-.4 5.3-.6 7.8-.8zm-8.1 6.8c-.1.3-.1.7-.1 1.1 0 3.3.5 5.3 1.3 6 .8.8 2.7 1.2 5.7 1.2h9.4c2.4 0 3.9-.3 4.8-.9.8-.6 1.3-1.6 1.3-3.2v-1.8c0-1.6-.5-2.7-1.5-3.2-1-.6-2.9-.9-6-.9-2.4 0-4.8.1-7.3.2-2.6.1-5 .3-7.7.6.1.3.1.6.1.9zM461.1 49.2h-22.3v7.3l-7.1-1.2V43.4h37.5v5.4l-17.7 28.9h-8.6l18.2-28.5z" class="st0"/><path d="M172.5 0v231.1c0 76.3 99.9 140.8 169.4 162.2 69.5-21.4 169.4-85.9 169.4-162.2V0H172.5zm324.8 231.1c0 56.2-63.5 98.9-121.4 123.3-7.5 2.8-23.8 6.1-34.1 6.1-10.9 0-28.4-3.9-34.5-6.5-57.7-24.5-120.6-67-120.6-123V27.9c20.5-3.7 90.6-16.8 154.5-16.8 64 0 135.7 12.6 156.1 16.9v203.1z" class="st0"/><g><path d="M25.3 450.7c0-7.2-1.9-8.6-9.2-8.5v-2.5c2.8 0 11.2-.4 15.3-.5 5.3-.1 10.2-.1 13.8-.1 14.6 0 25.2 2.5 31.1 8.5 6.1 6.1 8.4 13.3 8.4 20.6 0 14.2-10 31.9-38.4 31.9H16.1v-2.5c8.2 0 9.2-1.3 9.2-7.8v-39.1zM36 490.3c0 6.1.8 7 7.2 7 11.6 0 17.7-2.5 22.1-7 6-6 7.6-14 7.6-20.9 0-7-1.6-14.9-7.4-20.7-5-4.8-11-7.1-22.4-7.1-1.6 0-4.7 0-7.2.1v48.7h.1v-.1zM80.6 497.4c6.5-.1 7.8-1.2 10.5-8.8l17.5-48.1-.8-2.4h10.9l18.9 50.5c2.8 7.6 3.7 8.8 9.8 8.8v2.5h-28.8v-2.5c7.7 0 9.8-.8 9.8-3.6 0-.9-.4-2.5-1.3-5.2l-4.7-12h-22.2l-4.7 12.9c-.7 1.9-.9 3.1-.9 4 0 2.8 1.9 4 9.7 3.7v2.5H80.4v-2.5h.2v.2zm40.1-25.7l-9.4-24.6-9.2 24.6h18.6zM170.3 487.8c0 8.4 1.1 9.8 9.8 9.6v2.5h-29.6v-2.5c8.1.3 9-1.9 9-8.4v-38.9c0-6.4-1.1-7.8-9-7.8v-2.5c2.3 0 7.2-.4 13.8-.7 5.2-.1 9.8-.1 11.8-.1 19.5 0 26.3 8.5 26.3 17.4 0 7.2-4 12.4-12.2 15.8 1.6 1.1 5.7 5.2 7.3 6.8l6.4 6.4c8.6 8.6 15.3 12.5 23.3 13.3v2.7c-19.1.5-23.8-2.9-32.6-11.6l-5.2-5.2c-5-5-6.5-6.4-10.5-9.3-2.8.1-6.1.3-8.6 0v12.5zm0-15.4c.7.1 2.5.3 3.1.3 12.9-.5 17.4-5.6 17.4-15.4s-5.3-15.7-15.8-15.7c-1.5 0-3.7.1-4.7.4v30.4zM220.9 438h2.5c.4.7.7 1.2 1.6 1.3.9.1 2.3.3 4.7.3h41.1c5 0 5.7-.1 6.4-1.6h2.5l1.7 16.7h-2.8c-1.3-10.1-3.2-10.6-9.2-10.6h-13.8v45.7c0 6.6 1.1 7.7 11.3 7.7v2.5h-33.2v-2.5c9.7 0 11.3-1.2 11.3-7.7v-45.7h-13.8c-5.7 0-7.7.5-9.2 10.6h-2.8l1.7-16.7zM284.3 497.4c6.1 0 7.8-1.1 8.4-9.6l2.3-35.7c.5-8.6-.5-9.8-6.1-9.8v-2.5h17.9l21 44.9 19.8-44.9h17.9v2.5c-5.4 0-6.6 1.2-6.2 5.7l3.5 44.2c.4 5 2.3 5.4 8 5.4v2.5h-27.5v-2.5c8 0 9.3-1.9 8.5-12.2l-2.5-35.9h-.3l-22.3 50.7h-3.2l-22.9-49.5h-.1l-2.3 35.9c-.7 10.4 1.6 10.4 8 10.9v2.5h-21.5v-2.5h-.4zM408.2 438.1c21 0 35.5 12.5 35.5 30.7 0 17.5-14 32.7-35.9 32.7-20.2 0-35.1-12.6-35.1-30 .1-19.4 14.9-33.4 35.5-33.4zm1.2 60.3c13.4 0 22.5-10.9 22.5-27.2 0-17.5-10.2-29.9-24.3-29.9-14 0-22.9 10.6-22.9 27.6-.2 19.4 12.3 29.5 24.7 29.5zM446.6 439.7h27.6v2.5c-7.2 0-8.5 1.6-8.5 8.4v26.2c0 12.9 8.6 18.9 20.7 18.9 10.8 0 20.9-4.7 20.9-19v-26c0-7.6-1.5-8.4-9.3-8.4v-2.5h23.4v2.5c-7.4 0-8.9 1.6-8.9 8.4v27c0 15.3-11.7 23.9-29.4 23.9-18.5 0-28.3-8.9-28.3-24.7v-27.3c0-6-1.6-7.4-8.2-7.4v-2.5h-.1zM526.4 438h2.5c.4.7.7 1.2 1.6 1.3.8.1 2.3.3 4.7.3h41.1c5 0 5.7-.1 6.4-1.6h2.5l1.7 16.7h-2.8c-1.3-10.1-3.2-10.6-9.2-10.6h-13.8v45.7c0 6.6 1.1 7.7 11.3 7.7v2.5h-33.2v-2.5c9.7 0 11.3-1.2 11.3-7.7v-45.7h-13.8c-5.7 0-7.7.5-9.2 10.6h-2.8l1.7-16.7zM610.8 488.9c0 5.7.8 8.2 8.6 8.5v2.5h-28v-2.5c7.8-.5 8.6-2.5 8.6-9.2v-36.1c0-7.3-1.1-9.7-8.6-9.8v-2.5h28v2.5c-7.3.3-8.6 1.9-8.6 10.2v14.3h35.1v-14.4c0-7.8-.9-9.8-8.9-10.2v-2.5h28.6v2.5c-7.7.4-8.9 2-8.9 9.6v36.5c0 6.9 1.1 8.5 8.9 9v2.5H637v-2.5c7.6-.3 8.9-2.3 8.9-9.2v-16.9h-35.1v17.7z" class="st1"/><g><path d="M0 595.7v-2.5c7.8 0 9.8-1.2 9.8-6.8v-41.7c0-6.5-3.2-6.6-9.8-6.6v-2.5h49.6l.8 14.5h-2.5l-.5-2c-1.9-8-3.5-8.1-9.7-8.1H20.5v22.6h15.1c5.7 0 6.8-.7 7.3-7.4h2.5v19.5h-2.5c-.7-6.9-1.9-7.8-7.3-7.8H20.5v17.7c0 6.1.8 7 5.7 7H37c9.8 0 11.7-1.3 14.4-10.9H54L52.4 596H0v-.3zM70.7 546.3v37.3c0 7.6.9 10 9.7 9.6v2.5H57.3v-2.5c7 .1 8.1-2 8.1-8.4v-43.7c-2.3-2-4.4-2.8-8.1-3.1v-2.5h17.5l43.2 45.7v-34.8c0-7.3-1.2-8.5-9.6-8.4v-2.5h23.4v2.5c-6.5 0-8.5 1.2-8.5 8.5v49.7h-5.2l-47.4-49.9zM190 591.3c-10.9 4.3-17.9 6-26 6-19.7 0-32.7-12.1-32.7-30.3 0-12.9 7.4-33.1 34-33.1 9.6 0 15.4 2.5 18.6 2.5 1.2 0 1.9-.3 2.5-1.1h2.8V553h-2.9c-2.3-10.5-9.2-16.3-19.3-16.3-14.5.1-24.1 11.6-24.1 29.1 0 19.4 12.1 27.9 23.8 27.9 4.3 0 8.4-1.1 12.4-3.2v-11.6c0-6.8-1.9-7.6-11.6-7.6v-2.5h29v2.5c-6.6 0-6.8 4-6.8 7.7v12.2l.3.1zM201.2 535.4h27.1v2.5c-6.5 0-8.4 1.5-8.4 8.4V584c0 7.3 1.3 9.2 8.4 9v2.5h-27.1V593c7.7.1 8-2.8 8-8.4v-39.5c0-5.3-1.2-7.4-8-7.3v-2.4zM249.4 546.3v37.3c0 7.6.9 10 9.7 9.6v2.5H236v-2.5c7 .1 8.1-2 8.1-8.4v-43.7c-2.3-2-4.4-2.8-8.1-3.1v-2.5h17.5l43.2 45.7v-34.8c0-7.3-1.2-8.5-9.6-8.4v-2.5h23.4v2.5c-6.5 0-8.5 1.2-8.5 8.5v49.7h-5.3l-47.3-49.9zM316.8 595.7v-2.5c7.8 0 9.8-1.2 9.8-6.8v-41.7c0-6.5-3.2-6.6-9.8-6.6v-2.5h49.6l.8 14.5h-2.5l-.5-2c-1.9-8-3.5-8.1-9.7-8.1h-17.1v22.6h15.1c5.7 0 6.8-.7 7.3-7.4h2.5v19.5h-2.5c-.7-6.9-1.9-7.8-7.3-7.8h-15.1v17.7c0 6.1.8 7 5.7 7h10.8c9.8 0 11.7-1.3 14.4-10.9h2.5l-1.5 15.3h-52.4v-.3h-.1zM373.8 595.7v-2.5c7.8 0 9.8-1.2 9.8-6.8v-41.7c0-6.5-3.2-6.6-9.8-6.6v-2.5h49.6l.8 14.5h-2.5l-.5-2c-1.9-8-3.5-8.1-9.7-8.1h-17.1v22.6h15.1c5.7 0 6.8-.7 7.3-7.4h2.5v19.5h-2.5c-.7-6.9-1.9-7.8-7.3-7.8h-15.1v17.7c0 6.1.8 7 5.7 7h10.8c9.8 0 11.7-1.3 14.4-10.9h2.5l-1.5 15.3h-52.5v-.3zM451.5 583.5c0 8.4 1.1 9.8 9.8 9.6v2.5h-29.6v-2.5c8.1.3 9-1.9 9-8.4v-39c0-6.4-1.1-7.8-9-7.8v-2.5c2.3 0 7.2-.4 13.8-.7 5.2-.1 9.8-.1 11.8-.1 19.5 0 26.3 8.5 26.3 17.4 0 7.2-4 12.4-12.2 15.8 1.6 1.1 5.7 5.2 7.3 6.8l6.4 6.4c8.6 8.6 15.3 12.5 23.3 13.3v2.7c-19.1.5-23.8-2.9-32.6-11.6l-5.2-5.2c-5-5-6.5-6.4-10.5-9.3-2.8.1-6.1.3-8.6 0v12.6zm0-15.5c.7.1 2.5.3 3.1.3 12.9-.5 17.4-5.6 17.4-15.4s-5.3-15.7-15.8-15.7c-1.5 0-3.7.1-4.7.4V568zM510.8 535.4h27.1v2.5c-6.5 0-8.4 1.5-8.4 8.4V584c0 7.3 1.3 9.2 8.4 9v2.5h-27.1V593c7.7.1 8-2.8 8-8.4v-39.5c0-5.3-1.2-7.4-8-7.3v-2.4zM557 546.3v37.3c0 7.6.9 10 9.7 9.6v2.5h-23.1v-2.5c7 .1 8.1-2 8.1-8.4v-43.7c-2.3-2-4.4-2.8-8.1-3.1v-2.5H561l43.2 45.7v-34.8c0-7.3-1.2-8.5-9.6-8.4v-2.5H618v2.5c-6.5 0-8.5 1.2-8.5 8.5v49.7h-5.3L557 546.3zM677.1 591.3c-10.9 4.3-17.9 6-26 6-19.7 0-32.7-12.1-32.7-30.3 0-12.9 7.4-33.1 34-33.1 9.6 0 15.4 2.5 18.6 2.5 1.2 0 1.9-.3 2.5-1.1h2.8V553h-2.9c-2.3-10.5-9.2-16.3-19.3-16.3-14.5 0-24.1 11.4-24.1 29 0 19.4 12.1 27.9 23.8 27.9 4.3 0 8.4-1.1 12.4-3.2v-11.6c0-6.8-1.9-7.6-11.6-7.6v-2.5h29v2.5c-6.6 0-6.8 4-6.8 7.7v12.4h.3z" class="st1"/></g></g></svg>