<svg xmlns="http://www.w3.org/2000/svg" id="Layer_1" x="0" y="0" version="1.1" viewBox="0 0 1159.5 101.2" xml:space="preserve"><style>.st0{fill:#013745}.st1{font-family:&apos;BemboStd-Semibold&apos;}.st2{font-size:72px}.st3{fill:#006937}</style><text class="st0 st1 st2" transform="translate(121.824 74.156)">DARTMOUTH ENGINEERING</text><path d="M85.7 29.6L11 56 7 66.2l78.7-35.6zM85.7 34.1L29.5 77.3l9.1 2.5 47.1-43.9zM85.7 39.2L63.8 76.7l8 1.1L85.7 40zM85.7 26.2l-83.5-.1v7l83.5-5.9z" class="st3"/><path d="M77.2 76.4c-11.3-2.8-18.4-1-24.7.7-3.2.8-6 1.6-9 1.6s-5.8-.7-9-1.6c-6.2-1.6-13.3-3.5-24.5-.7l.8 3.3c10.3-2.5 17-.8 22.8.7 3.3.9 6.4 1.7 9.9 1.7 3.4 0 6.6-.8 9.9-1.7 5.9-1.5 12.5-3.3 23-.7l.8-3.3zM69.5 82.8c-7.6-1-13 .4-17.7 1.6-3 .8-5.6 1.4-8.3 1.4s-5.4-.7-8.3-1.4c-4.9-1.3-10.4-2.7-18.5-1.5l.5 3.1c7.4-1.1 12.4.2 17.2 1.4 3.1.8 5.9 1.5 9.1 1.5 3.2 0 6.1-.8 9.1-1.5 4.7-1.2 9.5-2.5 16.5-1.5l.4-3.1z" class="st3"/><path d="M20.6 77V66.8H4.9C13 50.3 22 15.1 24.1 3.9 26 15.2 35.2 50.8 43.2 66.8H27.5V77h-6.9zM36.2 12.8h-1.9v-1.2L38 11v8.8h-1.8v-7zM51.7 11.5c.3.3.4.7.4 1.3v.8c0 .5-.1.9-.4 1.1-.3.3-.7.4-1.3.6.6.1 1.1.3 1.4.5.3.3.5.7.5 1.2v1c0 .7-.2 1.2-.5 1.5s-.9.4-1.6.4h-5.6c-.8 0-1.3-.1-1.6-.4s-.5-.8-.5-1.5v-.9c0-.5.2-.9.5-1.2s.8-.5 1.4-.5c-.6-.1-1-.3-1.3-.6s-.4-.6-.4-1.1v-.8c0-.7.1-1.1.4-1.3.3-.2.8-.4 1.6-.4h5.4c.8 0 1.3.1 1.6.3zm-6.5 4.6c-.3 0-.6.1-.7.2-.1.1-.2.3-.2.6v.6c0 .3 0 .5.2.6.1.1.3.2.7.2h4.4c.3 0 .6-.1.7-.2.1-.1.2-.3.2-.6v-.6c0-.3 0-.5-.2-.6-.1-.1-.3-.2-.7-.2h-4.4zm.2-3.4c-.3 0-.6.1-.7.2-.1.1-.2.3-.2.6v.4c0 .3.1.5.2.6.1.1.3.2.7.2h4.1c.3 0 .5-.1.7-.2.1-.1.2-.3.2-.6v-.4c0-.3-.1-.5-.2-.6-.1-.1-.3-.2-.7-.2h-4.1zM59.4 14.4c.6-.1 1.3-.1 1.9-.1 1.4 0 2.4.2 2.9.5s.8.9.8 1.8v1.2c0 .7-.3 1.3-.7 1.6-.5.4-1.2.5-2.3.5h-3.7c-1.1 0-1.9-.2-2.3-.6-.4-.4-.6-1.1-.6-2.1V16c0-1.6.6-2.9 1.7-3.8 1.1-.9 2.7-1.3 4.7-1.3h.7l1.2 1.4h-.6c-1.9 0-3.2.2-4 .5s-1.4.9-1.7 1.7c.7 0 1.4 0 2-.1zm-2.1 1.8v.3c0 .8.1 1.4.3 1.5.2.2.7.3 1.5.3h2.4c.6 0 1-.1 1.2-.2.2-.2.3-.4.3-.8v-.5c0-.4-.1-.7-.4-.8-.3-.2-.8-.2-1.5-.2-.6 0-1.2 0-1.9.1-.7 0-1.3.1-2 .2.1-.1.1 0 .1.1zM74.3 12.7h-5.7v1.9l-1.8-.3v-3h9.6v1.4L71.8 20h-2.2l4.7-7.3z" class="st3"/><path d="M0 0v59.5c0 19.6 25.7 36.2 43.6 41.7 17.9-5.5 43.6-22.1 43.6-41.7V0H0zm83.6 59.5C83.6 74 67.3 85 52.4 91.2c-1.9.7-6.1 1.6-8.8 1.6-2.8 0-7.3-1-8.9-1.7-14.8-6.3-31-17.2-31-31.7V7.1C9 6.1 27 2.8 43.5 2.8S78.4 6 83.7 7.2c-.1 3-.1 52.3-.1 52.3z" class="st3"/></svg>