<?xml version="1.0" encoding="utf-8"?>
<!-- Generator: Adobe Illustrator 23.0.6, SVG Export Plug-In . SVG Version: 6.00 Build 0)  -->
<svg version="1.1" id="Layer_1" xmlns="http://www.w3.org/2000/svg" xmlns:xlink="http://www.w3.org/1999/xlink" x="0px" y="0px"
	 viewBox="0 0 683.7 598" style="enable-background:new 0 0 683.7 598;" xml:space="preserve">
<g>
	<g>
		<g>
			<polygon points="505.6,115.1 215.3,217.7 199.9,257.3 505.6,119 			"/>
			<polygon points="505.6,132.6 287,300.5 322.3,310 505.6,139.6 			"/>
			<polygon points="505.6,152.4 420.4,298.2 451.3,302.2 505.6,155.5 			"/>
			<polygon points="505.6,101.7 181,101.5 181.1,128.5 505.6,105.5 			"/>
			<g>
				<path d="M472.3,296.9c-43.9-10.9-71.5-3.8-95.9,2.6c-12.5,3.3-23.3,6.1-35,6.1s-22.5-2.8-35-6.1c-24.2-6.3-51.7-13.4-95.1-2.8
					l3.2,12.9c40.2-9.9,65.9-3.2,88.6,2.7c12.9,3.3,25,6.5,38.4,6.5s25.5-3.2,38.4-6.5c22.8-5.9,48.7-12.7,89.3-2.5L472.3,296.9z"/>
			</g>
			<g>
				<path d="M442.5,321.6c-29.6-4-50.4,1.4-68.8,6.2c-11.6,3-21.6,5.6-32.4,5.6s-20.8-2.6-32.4-5.6c-19-4.9-40.5-10.5-71.7-5.8
					l1.9,12.2c28.7-4.4,48,0.7,66.7,5.5c11.9,3.1,23.1,6,35.5,6s23.6-2.9,35.5-6c18.1-4.7,36.8-9.6,64.1-5.9L442.5,321.6z"/>
			</g>
			<path d="M252.7,299v-39.3h-61C223,195.6,258.1,58.8,266,15.3c7.3,43.9,43.3,182.4,74.3,244.4h-61V299H252.7z"/>
			<g>
				<path d="M313.3,49.8h-7.2v-4.5l14.3-2.2v34h-7.1L313.3,49.8L313.3,49.8z"/>
				<path d="M373.5,44.8c1,1,1.6,2.7,1.6,5.2v3.1c0,2-0.5,3.4-1.4,4.4c-1,1-2.6,1.7-5,2.2c2.5,0.3,4.3,1,5.5,2
					c1.2,1.1,1.8,2.7,1.8,4.7v3.5c0,2.7-0.6,4.6-1.8,5.7c-1.2,1-3.3,1.6-6.4,1.6h-21.6c-3.1,0-5.2-0.5-6.3-1.6
					c-1.2-1-1.8-2.9-1.8-5.7v-3.5c0-2,0.6-3.6,1.8-4.7c1.2-1,3-1.8,5.4-2c-2.4-0.5-4.1-1.2-5-2.2c-1-1-1.4-2.5-1.4-4.4V50
					c0-2.5,0.5-4.2,1.6-5.2c1-0.9,3.1-1.4,6.1-1.4h21.1C370.3,43.4,372.4,43.9,373.5,44.8z M348.2,62.5c-1.3,0-2.2,0.2-2.5,0.6
					c-0.5,0.4-0.7,1.2-0.7,2.5v2.5c0,1.2,0.2,2,0.6,2.4c0.5,0.4,1.3,0.6,2.6,0.6h17.3c1.3,0,2.2-0.2,2.5-0.6
					c0.5-0.4,0.7-1.2,0.7-2.4v-2.5c0-1.2-0.2-2.1-0.7-2.5c-0.4-0.4-1.2-0.6-2.5-0.6H348.2z M348.9,49.2c-1.3,0-2.2,0.2-2.6,0.6
					c-0.5,0.5-0.7,1.2-0.7,2.5V54c0,1.2,0.2,2,0.7,2.4c0.5,0.5,1.3,0.7,2.6,0.7h15.8c1.2,0,2.1-0.2,2.6-0.6c0.5-0.5,0.7-1.2,0.7-2.5
					v-1.7c0-1.2-0.2-2.1-0.7-2.5s-1.3-0.6-2.6-0.6C364.7,49.2,348.9,49.2,348.9,49.2z"/>
				<path d="M403.4,56c2.5-0.3,4.9-0.3,7.3-0.3c5.4,0,9.2,0.7,11.2,1.9s3.1,3.5,3.1,6.8V69c0,2.8-1,4.9-2.8,6.2
					c-1.9,1.4-4.8,2-8.8,2h-14.2c-4.3,0-7.2-0.7-8.8-2.2c-1.6-1.5-2.4-4.2-2.4-8.2v-4.4c0-6.3,2.2-11.1,6.5-14.6s10.5-5.2,18.4-5.2
					c0.3,0,0.7,0,1,0c0.3,0.1,0.8,0.1,1.4,0.1l4.6,5.4h-2.2c-7.2,0-12.4,0.7-15.6,2s-5.4,3.5-6.5,6.7
					C398.4,56.4,400.9,56.2,403.4,56z M395.3,62.8c-0.1,0.3-0.1,0.7-0.1,1.1c0,3.3,0.5,5.3,1.3,6c0.8,0.8,2.7,1.2,5.7,1.2h9.4
					c2.4,0,3.9-0.3,4.8-0.9c0.8-0.6,1.3-1.6,1.3-3.2v-1.8c0-1.6-0.5-2.7-1.5-3.2c-1-0.6-2.9-0.9-6-0.9c-2.4,0-4.8,0.1-7.3,0.2
					c-2.6,0.1-5,0.3-7.7,0.6C395.3,62.2,395.3,62.5,395.3,62.8z"/>
				<path d="M461.1,49.2h-22.3v7.3l-7.1-1.2V43.4h37.5v5.4l-17.7,28.9h-8.6L461.1,49.2z"/>
			</g>
			<path d="M172.5,0v231.1c0,76.3,99.9,140.8,169.4,162.2c69.5-21.4,169.4-85.9,169.4-162.2V0H172.5z M497.3,231.1
				c0,56.2-63.5,98.9-121.4,123.3c-7.5,2.8-23.8,6.1-34.1,6.1c-10.9,0-28.4-3.9-34.5-6.5l0,0c-57.7-24.5-120.6-67-120.6-123
				c0,0,0-191.7,0-203.1c20.5-3.7,90.6-16.8,154.5-16.8c64,0,135.7,12.6,156.1,16.9C497.3,39.5,497.3,231.1,497.3,231.1z"/>
		</g>
	</g>
</g>
<g>
	<path d="M22.1,453c0-7.1-1.9-8.5-9.1-8.4v-2.5c2.8,0,11.1-0.4,15.1-0.5c5.2-0.1,10.1-0.1,13.7-0.1c14.5,0,24.9,2.5,30.8,8.4
		c6,6,8.3,13.2,8.3,20.4c0,14.1-9.9,31.6-38,31.6H13v-2.5c8.1,0,9.1-1.3,9.1-7.7V453z M32.7,492.2c0,6,0.8,6.9,7.1,6.9
		c11.5,0,17.5-2.5,21.9-6.9c5.9-5.9,7.5-13.9,7.5-20.7c0-6.9-1.6-14.7-7.3-20.5c-4.9-4.8-10.9-7-22.2-7c-1.6,0-4.7,0-7.1,0.1v48.2
		h0.1C32.7,492.3,32.7,492.2,32.7,492.2z"/>
	<path d="M80.8,499.2c6.4-0.1,7.7-1.2,10.4-8.7l17.3-47.6l-0.8-2.4h10.8l18.7,50c2.8,7.5,3.7,8.7,9.7,8.7v2.5h-28.5v-2.5
		c7.6,0,9.7-0.8,9.7-3.6c0-0.9-0.4-2.5-1.3-5.1l-4.7-11.9h-22l-4.7,12.8c-0.7,1.9-0.9,3.1-0.9,4c0,2.8,1.9,4,9.6,3.7v2.5H80.6v-2.5
		h0.2C80.8,499.1,80.8,499.2,80.8,499.2z M120.5,473.8l-9.3-24.3l-9.1,24.3H120.5z"/>
	<path d="M169.6,489.7c0,8.3,1.1,9.7,9.7,9.5v2.5H150v-2.5c8,0.3,8.9-1.9,8.9-8.3v-38.5c0-6.3-1.1-7.7-8.9-7.7v-2.5
		c2.3,0,7.1-0.4,13.7-0.7c5.1-0.1,9.7-0.1,11.7-0.1c19.3,0,26,8.4,26,17.2c0,7.1-4,12.3-12.1,15.6c1.6,1.1,5.6,5.1,7.2,6.7l6.3,6.3
		c8.5,8.5,15.1,12.4,23.1,13.2v2.7c-18.9,0.5-23.6-2.9-32.3-11.5l-5.1-5.1c-4.9-4.9-6.4-6.3-10.4-9.2c-2.8,0.1-6,0.3-8.5,0
		L169.6,489.7L169.6,489.7z M169.6,474.4c0.7,0.1,2.5,0.3,3.1,0.3c12.8-0.5,17.2-5.5,17.2-15.2s-5.2-15.5-15.6-15.5
		c-1.5,0-3.7,0.1-4.7,0.4V474.4L169.6,474.4z"/>
	<path d="M220.7,440.4h2.5c0.4,0.7,0.7,1.2,1.6,1.3c0.9,0.1,2.3,0.3,4.7,0.3h40.7c4.9,0,5.6-0.1,6.3-1.6h2.5l1.7,16.5h-2.8
		c-1.3-10-3.2-10.5-9.1-10.5h-13.7v45.2c0,6.5,1.1,7.6,11.2,7.6v2.5h-32.9v-2.5c9.6,0,11.2-1.2,11.2-7.6v-45.2h-13.7
		c-5.6,0-7.6,0.5-9.1,10.5H219L220.7,440.4z"/>
	<path d="M284.4,499.2c6,0,7.7-1.1,8.3-9.5l2.3-35.3c0.5-8.5-0.5-9.7-6-9.7v-2.5h17.7l20.8,44.4l19.6-44.4h17.7v2.5
		c-5.3,0-6.5,1.2-6.1,5.6l3.5,43.7c0.4,4.9,2.3,5.3,7.9,5.3v2.5h-27.2v-2.5c7.9,0,9.2-1.9,8.4-12.1l-2.5-35.5h-0.3l-22.1,50.2h-3.2
		l-22.7-49h-0.1l-2.3,35.5c-0.7,10.3,1.6,10.3,7.9,10.8v2.5h-21.3v-2.5H284.4z"/>
	<path d="M412.1,440.5c20.8,0,35.1,12.4,35.1,30.4c0,17.3-13.9,32.4-35.5,32.4c-20,0-34.7-12.5-34.7-29.7
		C377,454.4,391.7,440.5,412.1,440.5z M413.3,500.2c13.3,0,22.3-10.8,22.3-26.9c0-17.3-10.1-29.6-24.1-29.6
		c-13.9,0-22.7,10.5-22.7,27.3C388.6,490.2,401,500.2,413.3,500.2z"/>
	<path d="M454.1,442.1h27.3v2.5c-7.1,0-8.4,1.6-8.4,8.3v25.9c0,12.8,8.5,18.7,20.5,18.7c10.7,0,20.7-4.7,20.7-18.8V453
		c0-7.5-1.5-8.3-9.2-8.3v-2.5h23.2v2.5c-7.3,0-8.8,1.6-8.8,8.3v26.7c0,15.1-11.6,23.7-29.1,23.7c-18.3,0-28-8.8-28-24.4v-27
		c0-5.9-1.6-7.3-8.1-7.3v-2.5h-0.1V442.1z"/>
	<path d="M533.1,440.4h2.5c0.4,0.7,0.7,1.2,1.6,1.3c0.8,0.1,2.3,0.3,4.7,0.3h40.7c4.9,0,5.6-0.1,6.3-1.6h2.5l1.7,16.5h-2.8
		c-1.3-10-3.2-10.5-9.1-10.5h-13.7v45.2c0,6.5,1.1,7.6,11.2,7.6v2.5h-32.9v-2.5c9.6,0,11.2-1.2,11.2-7.6v-45.2h-13.7
		c-5.6,0-7.6,0.5-9.1,10.5h-2.8L533.1,440.4z"/>
	<path d="M616.6,490.8c0,5.6,0.8,8.1,8.5,8.4v2.5h-27.7v-2.5c7.7-0.5,8.5-2.5,8.5-9.1v-35.7c0-7.2-1.1-9.6-8.5-9.7v-2.5h27.7v2.5
		c-7.2,0.3-8.5,1.9-8.5,10.1V469h34.7v-14.3c0-7.7-0.9-9.7-8.8-10.1v-2.5h28.3v2.5c-7.6,0.4-8.8,2-8.8,9.5v36.1
		c0,6.8,1.1,8.4,8.8,8.9v2.5h-28.3v-2.5c7.5-0.3,8.8-2.3,8.8-9.1v-16.7h-34.7V490.8z"/>
</g>
<g>
	<path d="M0,596.5V594c7.7,0,9.7-1.2,9.7-6.7V546c0-6.4-3.2-6.5-9.7-6.5V537h49.1l0.8,14.4h-2.5l-0.5-2c-1.9-7.9-3.5-8-9.6-8h-17
		v22.4h14.9c5.6,0,6.7-0.7,7.2-7.3h2.5v19.3h-2.5c-0.7-6.8-1.9-7.7-7.2-7.7H20.3v17.5c0,6,0.8,6.9,5.6,6.9h10.7
		c9.7,0,11.6-1.3,14.3-10.8h2.5l-1.5,15.1H0V596.5z"/>
	<path d="M70,547.6v36.9c0,7.5,0.9,9.9,9.6,9.5v2.5H56.7V594c6.9,0.1,8-2,8-8.3v-43.3c-2.3-2-4.4-2.8-8-3.1v-2.5H74l42.8,45.2v-34.4
		c0-7.2-1.2-8.4-9.5-8.3v-2.5h23.2v2.5c-6.4,0-8.4,1.2-8.4,8.4v49.2H117L70,547.6z"/>
	<path d="M191.1,592.1c-10.8,4.3-17.7,5.9-25.7,5.9c-19.5,0-32.4-12-32.4-30c0-12.8,7.3-32.8,33.7-32.8c9.5,0,15.2,2.5,18.4,2.5
		c1.2,0,1.9-0.3,2.5-1.1h2.8v17.6h-2.9c-2.3-10.4-9.1-16.1-19.1-16.1c-14.4,0.1-23.9,11.5-23.9,28.8c0,19.2,12,27.6,23.6,27.6
		c4.3,0,8.3-1.1,12.3-3.2v-11.5c0-6.7-1.9-7.5-11.5-7.5v-2.5h28.7v2.5c-6.5,0-6.7,4-6.7,7.6V592L191.1,592.1L191.1,592.1z"/>
	<path d="M202.1,536.8h26.8v2.5c-6.4,0-8.3,1.5-8.3,8.3v37.3c0,7.2,1.3,9.1,8.3,8.9v2.5h-26.8v-2.5c7.6,0.1,7.9-2.8,7.9-8.3v-39.1
		c0-5.2-1.2-7.3-7.9-7.2V536.8z"/>
	<path d="M249.8,547.6v36.9c0,7.5,0.9,9.9,9.6,9.5v2.5h-22.9V594c6.9,0.1,8-2,8-8.3v-43.3c-2.3-2-4.4-2.8-8-3.1v-2.5h17.3l42.8,45.2
		v-34.4c0-7.2-1.2-8.4-9.5-8.3v-2.5h23.2v2.5c-6.4,0-8.4,1.2-8.4,8.4v49.2h-5.2L249.8,547.6z"/>
	<path d="M316.6,596.5V594c7.7,0,9.7-1.2,9.7-6.7V546c0-6.4-3.2-6.5-9.7-6.5V537h49.1l0.8,14.4H364l-0.5-2c-1.9-7.9-3.5-8-9.6-8H337
		v22.4h14.9c5.6,0,6.7-0.7,7.2-7.3h2.5v19.3h-2.5c-0.7-6.8-1.9-7.7-7.2-7.7H337v17.5c0,6,0.8,6.9,5.6,6.9h10.7
		c9.7,0,11.6-1.3,14.3-10.8h2.5l-1.5,15.1h-51.9v-0.3L316.6,596.5L316.6,596.5z"/>
	<path d="M372,596.5V594c7.7,0,9.7-1.2,9.7-6.7V546c0-6.4-3.2-6.5-9.7-6.5V537h49.1l0.8,14.4h-2.5l-0.5-2c-1.9-7.9-3.5-8-9.6-8
		h-16.9v22.4h14.9c5.6,0,6.7-0.7,7.2-7.3h2.5v19.3h-2.5c-0.7-6.8-1.9-7.7-7.2-7.7h-14.9v17.5c0,6,0.8,6.9,5.6,6.9h10.7
		c9.7,0,11.6-1.3,14.3-10.8h2.5l-1.5,15.1h-52V596.5z"/>
	<path d="M447.9,584.4c0,8.3,1.1,9.7,9.7,9.5v2.5h-29.3v-2.5c8,0.3,8.9-1.9,8.9-8.3V547c0-6.3-1.1-7.7-8.9-7.7v-2.5
		c2.3,0,7.1-0.4,13.7-0.7c5.1-0.1,9.7-0.1,11.7-0.1c19.3,0,26,8.4,26,17.2c0,7.1-4,12.3-12.1,15.6c1.6,1.1,5.6,5.1,7.2,6.7l6.3,6.3
		c8.5,8.5,15.1,12.4,23.1,13.2v2.7c-18.9,0.5-23.6-2.9-32.3-11.5l-5.1-5.1c-4.9-4.9-6.4-6.3-10.4-9.2c-2.8,0.1-6,0.3-8.5,0
		L447.9,584.4L447.9,584.4z M447.9,569.1c0.7,0.1,2.5,0.3,3.1,0.3c12.8-0.5,17.2-5.5,17.2-15.2s-5.2-15.5-15.6-15.5
		c-1.5,0-3.7,0.1-4.7,0.4V569.1z"/>
	<path d="M505.6,536.8h26.8v2.5c-6.4,0-8.3,1.5-8.3,8.3v37.3c0,7.2,1.3,9.1,8.3,8.9v2.5h-26.8v-2.5c7.6,0.1,7.9-2.8,7.9-8.3v-39.1
		c0-5.2-1.2-7.3-7.9-7.2L505.6,536.8L505.6,536.8z"/>
	<path d="M551.3,547.6v36.9c0,7.5,0.9,9.9,9.6,9.5v2.5H538V594c6.9,0.1,8-2,8-8.3v-43.3c-2.3-2-4.4-2.8-8-3.1v-2.5h17.3l42.8,45.2
		v-34.4c0-7.2-1.2-8.4-9.5-8.3v-2.5h23.2v2.5c-6.4,0-8.4,1.2-8.4,8.4v49.2h-5.2L551.3,547.6z"/>
	<path d="M677.2,592.1c-10.8,4.3-17.7,5.9-25.7,5.9c-19.5,0-32.4-12-32.4-30c0-12.8,7.3-32.8,33.7-32.8c9.5,0,15.2,2.5,18.4,2.5
		c1.2,0,1.9-0.3,2.5-1.1h2.8v17.6h-2.9c-2.3-10.4-9.1-16.1-19.1-16.1c-14.4,0-23.9,11.3-23.9,28.7c0,19.2,12,27.6,23.6,27.6
		c4.3,0,8.3-1.1,12.3-3.2v-11.5c0-6.7-1.9-7.5-11.5-7.5v-2.5h28.7v2.5c-6.5,0-6.7,4-6.7,7.6v12.3H677.2z"/>
</g>
</svg>
