<svg xmlns="http://www.w3.org/2000/svg" id="Layer_1" x="0" y="0" version="1.1" viewBox="0 0 1159.5 101.2" xml:space="preserve"><style>.st0{enable-background:new}.st1{fill:#fff}</style><g class="st0"><path d="M130.3 37.6c0-5.3-1.4-6.4-6.8-6.3v-1.9c2.1 0 8.3-.3 11.3-.4 3.9-.1 7.6-.1 10.3-.1 10.9 0 18.7 1.9 23.1 6.3 4.5 4.5 6.2 9.9 6.2 15.3 0 10.6-7.4 23.7-28.5 23.7h-22.4v-1.9c6.1 0 6.8-1 6.8-5.8V37.6zm8 29.4c0 4.5.6 5.2 5.3 5.2 8.6 0 13.1-1.9 16.4-5.2 4.4-4.4 5.6-10.4 5.6-15.5 0-5.2-1.2-11-5.5-15.4-3.6-3.6-8.1-5.3-16.6-5.3-1.2 0-3.5 0-5.3.1V67zM173.7 72.2c4.8-.1 5.8-.9 7.8-6.5l13-35.7-.6-1.8h8.1l14 37.5c2.1 5.6 2.8 6.5 7.3 6.5v1.9H202v-1.9c5.7 0 7.3-.6 7.3-2.7 0-.7-.3-1.9-1-3.8l-3.5-8.9h-16.5l-3.5 9.6c-.5 1.4-.7 2.3-.7 3 0 2.1 1.4 3 7.2 2.8v1.9h-17.6v-1.9zm29.7-19L196.5 35l-6.8 18.2h13.7zM241.9 65.1c0 6.2.8 7.3 7.3 7.1v1.9h-22v-1.9c6 .2 6.7-1.4 6.7-6.2V37.1c0-4.7-.8-5.8-6.7-5.8v-1.9c1.7 0 5.3-.3 10.3-.5 3.8-.1 7.3-.1 8.8-.1 14.5 0 19.5 6.3 19.5 12.9 0 5.3-3 9.2-9.1 11.7 1.2.8 4.2 3.8 5.4 5l4.7 4.7c6.4 6.4 11.3 9.3 17.3 9.9v2c-14.2.4-17.7-2.2-24.2-8.6l-3.8-3.8c-3.7-3.7-4.8-4.7-7.8-6.9-2.1.1-4.5.2-6.4 0v9.4zm0-11.5c.5.1 1.9.2 2.3.2 9.6-.4 12.9-4.1 12.9-11.4 0-7.3-3.9-11.6-11.7-11.6-1.1 0-2.8.1-3.5.3v22.5zM282.4 28.1h1.9c.3.5.5.9 1.2 1s1.7.2 3.5.2h30.5c3.7 0 4.2-.1 4.7-1.2h1.9l1.3 12.4h-2.1c-1-7.5-2.4-7.9-6.8-7.9h-10.3v33.9c0 4.9.8 5.7 8.4 5.7v1.9h-24.7v-1.9c7.2 0 8.4-.9 8.4-5.7V32.6H290c-4.2 0-5.7.4-6.8 7.9h-2.1l1.3-12.4zM329.2 72.2c4.5 0 5.8-.8 6.2-7.1l1.7-26.5c.4-6.4-.4-7.3-4.5-7.3v-1.9h13.3l15.6 33.3 14.7-33.3h13.3v1.9c-4 0-4.9.9-4.6 4.2l2.6 32.8c.3 3.7 1.7 4 5.9 4v1.9H373v-1.9c5.9 0 6.9-1.4 6.3-9.1l-1.9-26.6h-.1l-16.6 37.6h-2.4l-16.9-36.7h-.4l-1.7 26.6c-.5 7.7 1.2 7.7 5.9 8.1v1.9h-16v-1.9zM422.6 28.2c15.6 0 26.3 9.3 26.3 22.8 0 13-10.4 24.3-26.6 24.3-15 0-26-9.4-26-22.3.1-14.4 11.1-24.8 26.3-24.8zm.9 44.8c10 0 16.7-8.1 16.7-20.2 0-13-7.6-22.2-18.1-22.2-10.4 0-17 7.9-17 20.5 0 14.4 9.3 21.9 18.4 21.9zM451.9 29.4h20.5v1.9c-5.3 0-6.3 1.2-6.3 6.2v19.4c0 9.6 6.4 14 15.4 14 8 0 15.5-3.5 15.5-14.1V37.5c0-5.6-1.1-6.2-6.9-6.2v-1.9h17.4v1.9c-5.5 0-6.6 1.2-6.6 6.2v20c0 11.3-8.7 17.8-21.8 17.8-13.7 0-21-6.6-21-18.3V36.8c0-4.4-1.2-5.5-6.1-5.5v-1.9zM512.2 28.1h1.9c.3.5.5.9 1.2 1 .6.1 1.7.2 3.5.2h30.5c3.7 0 4.2-.1 4.7-1.2h1.9l1.3 12.4h-2.1c-1-7.5-2.4-7.9-6.8-7.9H538v33.9c0 4.9.8 5.7 8.4 5.7v1.9h-24.7v-1.9c7.2 0 8.4-.9 8.4-5.7V32.6h-10.3c-4.2 0-5.7.4-6.8 7.9h-2.1l1.3-12.4zM575.4 65.9c0 4.2.6 6.1 6.4 6.3v1.9H561v-1.9c5.8-.4 6.4-1.9 6.4-6.8V38.6c0-5.4-.8-7.2-6.4-7.3v-1.9h20.8v1.9c-5.4.2-6.4 1.4-6.4 7.6v10.7h26V38.9c0-5.8-.7-7.3-6.6-7.6v-1.9H616v1.9c-5.7.3-6.6 1.5-6.6 7.1v27.1c0 5.1.8 6.3 6.6 6.7v1.9h-21.2v-1.9c5.6-.2 6.6-1.7 6.6-6.8V52.9h-26v13zM642.3 74.2v-1.9c5.8 0 7.3-.9 7.3-5v-31c0-4.8-2.4-4.9-7.3-4.9v-1.9h36.8l.6 10.8h-1.9l-.4-1.5c-1.4-5.9-2.6-6-7.2-6h-12.7v16.8h11.2c4.2 0 5-.5 5.4-5.5h1.9v14.5h-1.9c-.5-5.1-1.4-5.8-5.4-5.8h-11.2v13.1c0 4.5.6 5.2 4.2 5.2h8c7.3 0 8.7-1 10.7-8.1h1.9l-1.1 11.3h-38.9zM695.9 37.5v27.7c0 5.6.7 7.4 7.2 7.1v1.9h-17.2v-1.9c5.2.1 6-1.5 6-6.2V33.6c-1.7-1.5-3.3-2.1-6-2.3v-1.9h13L731 63.3V37.5c0-5.4-.9-6.3-7.1-6.2v-1.9h17.4v1.9c-4.8 0-6.3.9-6.3 6.3v36.9h-3.9l-35.2-37zM788.3 70.9c-8.1 3.2-13.3 4.4-19.3 4.4-14.6 0-24.3-9-24.3-22.5 0-9.6 5.5-24.6 25.3-24.6 7.1 0 11.4 1.9 13.8 1.9.9 0 1.4-.2 1.9-.8h2.1v13.2h-2.2c-1.7-7.8-6.8-12.1-14.3-12.1-10.8 0-17.9 8.5-17.9 21.5 0 14.4 9 20.7 17.7 20.7 3.2 0 6.2-.8 9.2-2.4v-8.6c0-5-1.4-5.6-8.6-5.6v-1.9h21.5V56c-4.9 0-5 3-5 5.7v9.2zM795.6 29.4h20.1v1.9c-4.8 0-6.2 1.1-6.2 6.2v28c0 5.4 1 6.8 6.2 6.7v1.9h-20.1v-1.9c5.7.1 5.9-2.1 5.9-6.2V36.7c0-3.9-.9-5.5-5.9-5.4v-1.9zM830.3 37.5v27.7c0 5.6.7 7.4 7.2 7.1v1.9h-17.2v-1.9c5.2.1 6-1.5 6-6.2V33.6c-1.7-1.5-3.3-2.1-6-2.3v-1.9h13l32.1 33.9V37.5c0-5.4-.9-6.3-7.1-6.2v-1.9h17.4v1.9c-4.8 0-6.3.9-6.3 6.3v36.9h-3.9l-35.2-37zM879.7 74.2v-1.9c5.8 0 7.3-.9 7.3-5v-31c0-4.8-2.4-4.9-7.3-4.9v-1.9h36.8l.6 10.8h-1.9l-.4-1.5c-1.4-5.9-2.6-6-7.2-6H895v16.8h11.2c4.2 0 5-.5 5.4-5.5h1.9v14.5h-1.9c-.5-5.1-1.4-5.8-5.4-5.8H895v13.1c0 4.5.6 5.2 4.2 5.2h8c7.3 0 8.7-1 10.7-8.1h1.9l-1.1 11.3h-39zM922.8 74.2v-1.9c5.8 0 7.3-.9 7.3-5v-31c0-4.8-2.4-4.9-7.3-4.9v-1.9h36.8l.6 10.8h-1.9l-.4-1.5c-1.4-5.9-2.6-6-7.2-6H938v16.8h11.2c4.2 0 5-.5 5.4-5.5h1.9v14.5h-1.9c-.5-5.1-1.4-5.8-5.4-5.8H938v13.1c0 4.5.6 5.2 4.2 5.2h8c7.3 0 8.7-1 10.7-8.1h1.9l-1.1 11.3h-38.9zM980.9 65.1c0 6.2.8 7.3 7.3 7.1v1.9h-22v-1.9c6 .2 6.7-1.4 6.7-6.2V37.1c0-4.7-.8-5.8-6.7-5.8v-1.9c1.7 0 5.3-.3 10.3-.5 3.8-.1 7.3-.1 8.8-.1 14.5 0 19.5 6.3 19.5 12.9 0 5.3-3 9.2-9.1 11.7 1.2.8 4.2 3.8 5.4 5l4.7 4.7c6.4 6.4 11.3 9.3 17.3 9.9v2c-14.2.4-17.7-2.2-24.2-8.6l-3.8-3.8c-3.7-3.7-4.8-4.7-7.8-6.9-2.1.1-4.5.2-6.4 0v9.4zm0-11.5c.5.1 1.9.2 2.3.2 9.6-.4 12.9-4.1 12.9-11.4 0-7.3-3.9-11.6-11.7-11.6-1.1 0-2.8.1-3.5.3v22.5zM1026.5 29.4h20.1v1.9c-4.8 0-6.2 1.1-6.2 6.2v28c0 5.4 1 6.8 6.2 6.7v1.9h-20.1v-1.9c5.7.1 5.9-2.1 5.9-6.2V36.7c0-3.9-.9-5.5-5.9-5.4v-1.9zM1061.2 37.5v27.7c0 5.6.7 7.4 7.2 7.1v1.9h-17.2v-1.9c5.2.1 6-1.5 6-6.2V33.6c-1.7-1.5-3.3-2.1-6-2.3v-1.9h13l32.1 33.9V37.5c0-5.4-.9-6.3-7.1-6.2v-1.9h17.4v1.9c-4.8 0-6.3.9-6.3 6.3v36.9h-3.9l-35.2-37zM1153.6 70.9c-8.1 3.2-13.3 4.4-19.3 4.4-14.6 0-24.3-9-24.3-22.5 0-9.6 5.5-24.6 25.3-24.6 7.1 0 11.4 1.9 13.8 1.9.9 0 1.4-.2 1.9-.8h2.1v13.2h-2.2c-1.7-7.8-6.8-12.1-14.3-12.1-10.8 0-17.9 8.5-17.9 21.5 0 14.4 9 20.7 17.7 20.7 3.2 0 6.2-.8 9.2-2.4v-8.6c0-5-1.4-5.6-8.6-5.6v-1.9h21.5V56c-4.9 0-5 3-5 5.7v9.2z" class="st1"/></g><path d="M85.7 29.6L11 56 7 66.2l78.7-35.6zM85.7 34.1L29.5 77.3l9.1 2.5 47.1-43.9zM85.7 39.2L63.8 76.7l8 1.1L85.7 40zM85.7 26.2l-83.5-.1v7l83.5-5.9z" class="st1"/><path d="M77.2 76.4c-11.3-2.8-18.4-1-24.7.7-3.2.8-6 1.6-9 1.6s-5.8-.7-9-1.6c-6.2-1.6-13.3-3.5-24.5-.7l.8 3.3c10.3-2.5 17-.8 22.8.7 3.3.9 6.4 1.7 9.9 1.7 3.4 0 6.6-.8 9.9-1.7 5.9-1.5 12.5-3.3 23-.7l.8-3.3zM69.5 82.8c-7.6-1-13 .4-17.7 1.6-3 .8-5.6 1.4-8.3 1.4s-5.4-.7-8.3-1.4c-4.9-1.3-10.4-2.7-18.5-1.5l.5 3.1c7.4-1.1 12.4.2 17.2 1.4 3.1.8 5.9 1.5 9.1 1.5 3.2 0 6.1-.8 9.1-1.5 4.7-1.2 9.5-2.5 16.5-1.5l.4-3.1z" class="st1"/><path d="M20.6 77V66.8H4.9C13 50.3 22 15.1 24.1 3.9 26 15.2 35.2 50.8 43.2 66.8H27.5V77h-6.9zM36.2 12.8h-1.9v-1.2L38 11v8.8h-1.8v-7zM51.7 11.5c.3.3.4.7.4 1.3v.8c0 .5-.1.9-.4 1.1-.3.3-.7.4-1.3.6.6.1 1.1.3 1.4.5.3.3.5.7.5 1.2v1c0 .7-.2 1.2-.5 1.5s-.9.4-1.6.4h-5.6c-.8 0-1.3-.1-1.6-.4s-.5-.8-.5-1.5v-.9c0-.5.2-.9.5-1.2s.8-.5 1.4-.5c-.6-.1-1-.3-1.3-.6s-.4-.6-.4-1.1v-.8c0-.7.1-1.1.4-1.3.3-.2.8-.4 1.6-.4h5.4c.8 0 1.3.1 1.6.3zm-6.5 4.6c-.3 0-.6.1-.7.2-.1.1-.2.3-.2.6v.6c0 .3 0 .5.2.6.1.1.3.2.7.2h4.4c.3 0 .6-.1.7-.2.1-.1.2-.3.2-.6v-.6c0-.3 0-.5-.2-.6-.1-.1-.3-.2-.7-.2h-4.4zm.2-3.4c-.3 0-.6.1-.7.2-.1.1-.2.3-.2.6v.4c0 .3.1.5.2.6.1.1.3.2.7.2h4.1c.3 0 .5-.1.7-.2.1-.1.2-.3.2-.6v-.4c0-.3-.1-.5-.2-.6-.1-.1-.3-.2-.7-.2h-4.1zM59.4 14.4c.6-.1 1.3-.1 1.9-.1 1.4 0 2.4.2 2.9.5s.8.9.8 1.8v1.2c0 .7-.3 1.3-.7 1.6-.5.4-1.2.5-2.3.5h-3.7c-1.1 0-1.9-.2-2.3-.6-.4-.4-.6-1.1-.6-2.1V16c0-1.6.6-2.9 1.7-3.8 1.1-.9 2.7-1.3 4.7-1.3h.7l1.2 1.4h-.6c-1.9 0-3.2.2-4 .5s-1.4.9-1.7 1.7c.7 0 1.4 0 2-.1zm-2.1 1.8v.3c0 .8.1 1.4.3 1.5.2.2.7.3 1.5.3h2.4c.6 0 1-.1 1.2-.2.2-.2.3-.4.3-.8v-.5c0-.4-.1-.7-.4-.8-.3-.2-.8-.2-1.5-.2-.6 0-1.2 0-1.9.1-.7 0-1.3.1-2 .2.1-.1.1 0 .1.1zM74.3 12.7h-5.7v1.9l-1.8-.3v-3h9.6v1.4L71.8 20h-2.2l4.7-7.3z" class="st1"/><path d="M0 0v59.5c0 19.6 25.7 36.2 43.6 41.7 17.9-5.5 43.6-22.1 43.6-41.7V0H0zm83.6 59.5C83.6 74 67.3 85 52.4 91.2c-1.9.7-6.1 1.6-8.8 1.6-2.8 0-7.3-1-8.9-1.7-14.8-6.3-31-17.2-31-31.7V7.1C9 6.1 27 2.8 43.5 2.8S78.4 6 83.7 7.2c-.1 3-.1 52.3-.1 52.3z" class="st1"/></svg>