<?xml version="1.0" encoding="utf-8"?>
<!-- Generator: Adobe Illustrator 23.0.6, SVG Export Plug-In . SVG Version: 6.00 Build 0)  -->
<svg version="1.1" id="Layer_1" xmlns="http://www.w3.org/2000/svg" xmlns:xlink="http://www.w3.org/1999/xlink" x="0px" y="0px"
	 viewBox="0 0 300 245" style="enable-background:new 0 0 300 245;" xml:space="preserve">
<g>
	<g>
		<path d="M9.9,182.7c0,1,0.3,1.3,1.4,1.3h0.7v0.3H6.3v-0.3H7c1.1,0,1.4-0.3,1.4-1.3v-9H5.3c-0.7,0-1.1,0.4-1.3,2H3.6l0.3-3h0.3
			c0,0.1,0.1,0.2,0.2,0.2c0.1,0,0.2,0.1,0.4,0.1h8.8c0.3,0,0.5-0.1,0.6-0.3h0.3l0.3,3h-0.3c-0.3-1.6-0.6-2-1.3-2H9.9V182.7z"/>
		<path d="M26,179v3.5c0,1.2,0.2,1.6,1.5,1.6h0.1v0.3H23v-0.3h0.1c1.1,0,1.4-0.3,1.4-1.3v-8c0-0.9-0.3-1.2-1.3-1.3v-0.3h4.3v0.3
			c-1.3,0-1.5,0.3-1.5,1.7v3.2h7.1v-3.6c0-1-0.3-1.3-1.4-1.3h-0.3v-0.3h4.7v0.3c-1.1,0-1.4,0.4-1.4,1.5v7.6c0,1.3,0.4,1.6,1.5,1.6
			h0.2v0.3h-5.2v-0.3h0.6c1.2,0,1.4-0.4,1.4-1.4V179H26z"/>
		<path d="M47.8,179.4l-1.1,2.9c-0.1,0.3-0.4,0.9-0.4,1.1c0,0.5,0.5,0.7,1.5,0.7h0.3v0.3h-4.2v-0.3c1.2,0,1.4-0.2,2-1.8l3.3-9.1
			l-0.2-0.4h1.6l3.8,10.1c0.4,1,0.7,1.1,1.7,1.1v0.3h-5v-0.3h0.5c1,0,1.4-0.1,1.4-0.6c0-0.3-0.1-0.6-0.2-0.7l-1.2-3.3H47.8z
			 M49.6,174.3l-1.5,4.2h3.1L49.6,174.3z"/>
		<path d="M70.8,174.7c0.6-1,0.2-1.3-0.9-1.3v-0.3H74v0.3c-1.2,0.1-1.8,0.6-2.3,1.4l-3,5.1v2.7c0,1,0.3,1.3,1.5,1.3h0.2v0.3h-5v-0.3
			h0.3c1.1,0,1.5-0.4,1.5-1.3v-2.6l-3.2-5.1c-0.9-1.4-1.3-1.7-2.5-1.7v-0.3h4.8v0.3c-1.4,0-1.5,0.3-1,1.2l2.9,4.5L70.8,174.7z"/>
		<path d="M89.8,180.3h-0.3c-0.1-1.3-0.5-1.4-1.2-1.4h-3.1v3.9c0,0.8,0.3,1,1,1h2.8c1.3,0,1.7-0.5,2.1-2.1h0.3l-0.3,2.7h-9.7v-0.3
			h0.5c1.5,0,1.7-0.4,1.7-1.5v-7.7c0-1-0.2-1.5-1.5-1.5h-0.4v-0.3h8.7l0.1,2.5h-0.3c-0.2-1.5-0.7-1.9-1.3-1.9h-3.8v4.5h3.3
			c0.7,0,1-0.3,1.1-1.4h0.3V180.3z"/>
		<path d="M103.5,182.7c0,1.1,0.4,1.4,1.5,1.4h0.4v0.3h-5.2v-0.3h0.3c1.1,0,1.5-0.3,1.5-1.5v-7.7c0-1.1-0.3-1.5-1.4-1.5h-0.4v-0.3
			c0.4,0,1.6-0.1,2.3-0.1c0.8,0,1.1-0.1,2.3-0.1c3.4,0,4.9,1.4,4.9,3.2c0,1.4-0.9,2.5-2.4,3c0.7,0.5,1.2,1,2.1,1.9l1.4,1.4
			c1.1,1.1,2.2,1.7,3.6,1.8v0.3c-3.2,0.1-4-0.5-5.6-2.2l-1.2-1.2c-0.8-0.8-1.5-1.3-1.9-1.6c-0.5,0-0.8,0-1.3,0c-0.4,0-0.6,0-0.9,0
			V182.7z M103.5,179.3c0.4,0.1,0.7,0,1.1,0c2.1,0,3.4-0.9,3.4-3c0-1.7-0.8-3-3.6-3c-0.4,0-0.6,0-0.9,0V179.3z"/>
		<path d="M135.6,181.7c0.4,1.6,1.7,2.6,3.1,2.6c1.2,0,2.5-0.7,2.5-2.1c0-2.6-5.8-3.4-5.8-6.6c0-1.5,1.4-2.6,3.2-2.6
			c1.5,0,1.8,0.5,2.5,0.5c0.1,0,0.2,0,0.3-0.2h0.3l0.3,2.3h-0.3c-0.5-1.3-1.7-2.2-2.9-2.2c-1.2,0-2,0.7-2,1.7c0,2.6,5.8,3.3,5.8,6.6
			c0,1.8-1.6,3.1-3.7,3.1c-1,0-2.3-0.5-2.5-0.5c-0.2,0-0.3,0.1-0.4,0.2h-0.3l-0.4-2.8H135.6z"/>
		<path d="M162.2,176.1c-0.6-1.7-2.2-2.8-4.2-2.8c-3,0-4.9,2.2-4.9,5.3c0,3.3,2.4,5.7,5.1,5.7c1.4,0,3.2-0.5,4.4-2.7h0.3
			c-0.2,0.8-0.7,1.9-1.2,2.7c-1.2-0.2-2,0.5-4.1,0.5c-3.7,0-6.4-2.4-6.4-5.8c0-3.5,2.7-6.1,6.5-6.1c2.3,0,3.3,0.7,3.8,0.7
			c0.2,0,0.3-0.1,0.3-0.1h0.3l0.2,2.6H162.2z"/>
		<path d="M174.4,179v3.5c0,1.2,0.2,1.6,1.5,1.6h0.1v0.3h-4.6v-0.3h0.1c1.1,0,1.4-0.3,1.4-1.3v-8c0-0.9-0.3-1.2-1.3-1.3v-0.3h4.3
			v0.3c-1.3,0-1.5,0.3-1.5,1.7v3.2h7.1v-3.6c0-1-0.3-1.3-1.4-1.3h-0.3v-0.3h4.7v0.3c-1.1,0-1.4,0.4-1.4,1.5v7.6
			c0,1.3,0.4,1.6,1.5,1.6h0.2v0.3h-5.2v-0.3h0.6c1.2,0,1.4-0.4,1.4-1.4V179H174.4z"/>
		<path d="M200,184.7c-3.6,0-6.6-2.3-6.6-5.7c0-3.6,2.8-6.2,6.7-6.2c3.4,0,6.4,2.4,6.4,5.6C206.4,182.1,203.5,184.7,200,184.7z
			 M199.6,173.3c-3.2,0-4.5,3-4.5,5.2c0,3.4,2.3,5.8,5.3,5.8c3,0,4.4-2.6,4.4-5.2C204.7,175.7,202.6,173.3,199.6,173.3z"/>
		<path d="M222,184.7c-3.6,0-6.6-2.3-6.6-5.7c0-3.6,2.8-6.2,6.7-6.2c3.4,0,6.4,2.4,6.4,5.6C228.5,182.1,225.6,184.7,222,184.7z
			 M221.6,173.3c-3.2,0-4.5,3-4.5,5.2c0,3.4,2.3,5.8,5.2,5.8c3,0,4.4-2.6,4.4-5.2C226.8,175.7,224.6,173.3,221.6,173.3z"/>
		<path d="M245,184.4h-8.1v-0.3h0.6c0.8,0,1.1-0.3,1.1-1.2v-8.1c0-1-0.3-1.4-1.4-1.4h-0.3v-0.3h5.4v0.3h-0.7c-1.2,0-1.5,0.1-1.5,1.3
			v8.4c0,0.5,0.2,0.7,0.7,0.7h2.7c1.1,0,1.4-0.4,2.6-2h0.3L245,184.4z"/>
		<path d="M274.6,184.7c-3.6,0-6.6-2.3-6.6-5.7c0-3.6,2.8-6.2,6.7-6.2c3.4,0,6.4,2.4,6.4,5.6C281.1,182.1,278.1,184.7,274.6,184.7z
			 M274.2,173.3c-3.2,0-4.5,3-4.5,5.2c0,3.4,2.3,5.8,5.3,5.8c3,0,4.4-2.6,4.4-5.2C279.4,175.7,277.2,173.3,274.2,173.3z"/>
		<path d="M297.3,180.1H297c0-1.1-0.4-1.4-1.3-1.4h-3.4v4c0,1,0.2,1.4,1.6,1.4v0.3h-4.4v-0.3c1.1-0.1,1.3-0.3,1.3-1.8v-7.1
			c0-1.2-0.1-1.7-1.4-1.7v-0.3h8.2v2.2h-0.3c0-1.1-0.4-1.5-1.5-1.5h-3.5v4.3h3.6c0.7,0,1-0.4,1.1-1.2h0.3V180.1z"/>
		<path d="M20.3,208h-0.8c-0.3-2.9-1.1-3.2-2.7-3.2H10v8.6c0,1.9,0.7,2.2,2.2,2.2h6.2c2.8,0,3.7-1.1,4.7-4.6h0.7l-0.6,6H1.7v-0.8
			h1.1c3.2,0,3.8-0.9,3.8-3.3v-17c0-2.3-0.5-3.2-3.2-3.2H2.5v-0.8h19.4l0.3,5.6h-0.7c-0.5-3.4-1.5-4.2-3-4.2H10v9.9h7.2
			c1.5,0,2.1-0.7,2.3-3h0.8V208z"/>
		<path d="M54,217.3L33,195.4v17.3c0,2.9,0.6,3.5,4.1,3.5v0.8h-9.4v-0.8h0.2c2.5,0,3.3-0.8,3.3-2.7v-19.9c-0.9-0.6-2-1-3.4-1v-0.8
			h6.3l19,19.8v-16.1c0-2.5-0.7-2.9-4-3v-0.8h9.5v0.8c-3,0-3.7,0.5-3.7,2.1v22.5H54z"/>
		<path d="M84.3,215.1c-4,2.1-9.1,2.5-10.8,2.5c-8.8,0-13-6.8-13-12.7c0-6.1,4.2-13.7,14.1-13.7c4.3,0,7.2,1.4,8,1.4
			c0.4,0,0.7-0.1,0.9-0.3h0.6v6.5h-0.8c-1.1-5.1-4.5-6.6-8.3-6.6c-7.1,0-10.7,5.9-10.7,12.4c0,8.3,5.8,12,10.5,12
			c1.9,0,3.9-0.4,6.2-1.5v-5.1c0-2.3-0.8-3.1-3.2-3.1h-1.5v-0.7h10.9v0.7c-2,0.1-2.8,0.8-2.8,2.5V215.1z"/>
		<path d="M100.9,217h-9.8v-0.8c2.5-0.1,3-0.8,3-3.5v-17.2c0-2.2-0.8-2.8-3-2.9v-0.8h9.8v0.8c-2.5,0-3.4,0.6-3.4,3.3v17.1
			c0,2.4,0.6,3.2,3.4,3.2V217z"/>
		<path d="M132.4,217.3l-20.9-21.9v17.3c0,2.9,0.6,3.5,4.1,3.5v0.8h-9.4v-0.8h0.2c2.5,0,3.3-0.8,3.3-2.7v-19.9c-0.9-0.6-2-1-3.4-1
			v-0.8h6.3l19,19.8v-16.1c0-2.5-0.7-2.9-4-3v-0.8h9.5v0.8c-3,0-3.7,0.5-3.7,2.1v22.5H132.4z"/>
		<path d="M159.9,208h-0.8c-0.3-2.9-1.1-3.2-2.7-3.2h-6.8v8.6c0,1.9,0.7,2.2,2.2,2.2h6.2c2.8,0,3.7-1.1,4.7-4.6h0.7l-0.6,6h-21.5
			v-0.8h1.1c3.2,0,3.8-0.9,3.8-3.3v-17c0-2.3-0.5-3.2-3.2-3.2h-0.9v-0.8h19.4l0.3,5.6h-0.7c-0.5-3.4-1.5-4.2-3-4.2h-8.5v9.9h7.2
			c1.5,0,2.1-0.7,2.3-3h0.8V208z"/>
		<path d="M185.6,208h-0.8c-0.3-2.9-1.1-3.2-2.7-3.2h-6.8v8.6c0,1.9,0.7,2.2,2.2,2.2h6.2c2.8,0,3.7-1.1,4.7-4.6h0.7l-0.6,6H167v-0.8
			h1.1c3.2,0,3.8-0.9,3.8-3.3v-17c0-2.3-0.5-3.2-3.2-3.2h-0.9v-0.8h19.4l0.3,5.6h-0.7c-0.5-3.4-1.5-4.2-3-4.2h-8.5v9.9h7.2
			c1.5,0,2.1-0.7,2.3-3h0.8V208z"/>
		<path d="M201.2,213.2c0,2.4,1,3,3.2,3h0.9v0.8h-11.4v-0.8h0.7c2.4,0,3.2-0.6,3.2-3.4v-17c0-2.5-0.7-3.2-3-3.2h-0.9v-0.8
			c1,0,3.4-0.2,5.1-0.2c1.7-0.1,2.5-0.1,5.1-0.1c7.5,0,10.8,3.1,10.8,7.2c0,3-2.1,5.6-5.4,6.5c1.5,1.2,2.7,2.3,4.6,4.2l3.2,3.2
			c2.4,2.4,5.4,3.4,7.4,3.6v0.8c-6,0.3-8.3-0.8-11.9-4.4l-2.7-2.7c-1.8-1.8-3.2-2.9-4.2-3.6c-1,0-1.7,0.1-2.7,0.1
			c-0.9,0-1.4,0-2.1-0.1V213.2z M201.2,205.6c1,0.1,1.6,0.1,2.5,0.1c4.5,0,7.4-1.9,7.4-6.7c0-3.8-1.7-6.7-7.9-6.7
			c-0.8,0-1.3,0-2,0.1V205.6z"/>
		<path d="M234.6,217h-9.8v-0.8c2.5-0.1,3-0.8,3-3.5v-17.2c0-2.2-0.8-2.8-3-2.9v-0.8h9.8v0.8c-2.5,0-3.4,0.6-3.4,3.3v17.1
			c0,2.4,0.6,3.2,3.4,3.2V217z"/>
		<path d="M266.5,217.3l-20.9-21.9v17.3c0,2.9,0.6,3.5,4.1,3.5v0.8h-9.4v-0.8h0.2c2.5,0,3.3-0.8,3.3-2.7v-19.9c-0.9-0.6-2-1-3.4-1
			v-0.8h6.3l19,19.8v-16.1c0-2.5-0.7-2.9-4-3v-0.8h9.5v0.8c-3,0-3.7,0.5-3.7,2.1v22.5H266.5z"/>
		<path d="M297.2,215.1c-4,2.1-9.1,2.5-10.8,2.5c-8.8,0-13-6.8-13-12.7c0-6.1,4.2-13.7,14.1-13.7c4.3,0,7.2,1.4,8,1.4
			c0.4,0,0.7-0.1,0.9-0.3h0.6v6.5h-0.8c-1.1-5.1-4.5-6.6-8.3-6.6c-7.1,0-10.7,5.9-10.7,12.4c0,8.3,5.8,12,10.5,12
			c1.9,0,3.9-0.4,6.2-1.5v-5.1c0-2.3-0.8-3.1-3.2-3.1h-1.5v-0.7H300v0.7c-2,0.1-2.8,0.8-2.8,2.5V215.1z"/>
		<path d="M6.7,235.8l-1.8,5c-0.2,0.6-0.6,1.5-0.6,2c0,0.9,0.8,1.2,2.6,1.2h0.5v0.6H0v-0.6c2.1,0,2.4-0.4,3.4-3.1l5.7-15.7l-0.3-0.7
			h2.7l6.6,17.5c0.6,1.7,1.3,2,2.9,2v0.6h-8.7v-0.6h0.8c1.8,0,2.5-0.2,2.5-1.1c0-0.5-0.2-1-0.3-1.3l-2.1-5.7H6.7z M9.9,227.1
			l-2.7,7.3h5.5L9.9,227.1z"/>
		<path d="M33.3,241.6c0,1.7,0.6,2.3,2.5,2.3h1.2v0.6H27v-0.6h1.2c1.9,0,2.5-0.6,2.5-2.3V226h-5.5c-1.3,0-1.8,0.7-2.3,3.5h-0.6
			l0.5-5.1h0.6c0,0.2,0.2,0.3,0.3,0.4c0.2,0.1,0.4,0.1,0.6,0.1h15.2c0.4,0,0.9-0.1,1-0.5h0.6l0.5,5.1h-0.6c-0.5-2.8-1-3.5-2.3-3.5
			h-5.5V241.6z"/>
		<path d="M62.5,228.1c0-2.1-0.5-2.6-2.4-2.6h-0.6v-0.6c1.2-0.1,2.7-0.1,4.4-0.2c1.7-0.1,3.7-0.1,5.3-0.1c8.3,0,12,4.2,12,9.4
			c0,4.8-3.7,10.5-11.7,10.5H59.4v-0.6H60c1.7,0,2.5-0.5,2.5-2.3V228.1z M65.1,242.2c0,1.3,0.1,1.7,2.6,1.7c4.2,0,6-0.6,7.9-2.6
			c1.2-1.1,2.6-3.6,2.6-6.8c0-2.3-0.7-4.9-2.5-6.8c-1.5-1.5-3.7-2.6-8.1-2.6c-1.3,0-2.1,0.1-2.5,0.1V242.2z"/>
		<path d="M92,235.8l-1.8,5c-0.2,0.6-0.6,1.5-0.6,2c0,0.9,0.8,1.2,2.6,1.2h0.5v0.6h-7.3v-0.6c2,0,2.4-0.4,3.4-3.1l5.7-15.7l-0.3-0.7
			h2.7l6.6,17.5c0.6,1.7,1.3,2,2.9,2v0.6h-8.7v-0.6h0.8c1.8,0,2.5-0.2,2.5-1.1c0-0.5-0.2-1-0.3-1.3l-2.1-5.7H92z M95.2,227.1
			l-2.7,7.3H98L95.2,227.1z"/>
		<path d="M116.9,241.6c0,1.9,0.8,2.4,2.5,2.4h0.7v0.6h-8.9v-0.6h0.5c1.9,0,2.5-0.5,2.5-2.6V228c0-2-0.5-2.5-2.4-2.5h-0.7v-0.6
			c0.8,0,2.7-0.1,4-0.2c1.3-0.1,1.9-0.1,4-0.1c5.8,0,8.5,2.4,8.5,5.6c0,2.4-1.6,4.4-4.2,5.1c1.2,0.9,2.1,1.8,3.6,3.3l2.5,2.5
			c1.9,1.9,3.8,3,6.2,3.2v0.6c-5.5,0.3-6.9-0.9-9.7-3.8l-2.1-2.1c-1.4-1.4-2.5-2.3-3.2-2.8c-0.8,0-1.3,0.1-2.1,0.1
			c-0.7,0-1.1,0-1.6-0.1V241.6z M116.9,235.6c0.8,0.1,1.2,0.1,2,0.1c3.5,0,5.8-1.5,5.8-5.3c0-2.9-1.3-5.2-6.2-5.2
			c-0.6,0-1,0-1.6,0.1V235.6z"/>
		<path d="M147.5,241.6c0,1.7,0.6,2.3,2.5,2.3h1.2v0.6h-9.9v-0.6h1.2c1.9,0,2.5-0.6,2.5-2.3V226h-5.5c-1.3,0-1.8,0.7-2.3,3.5h-0.6
			l0.5-5.1h0.6c0,0.2,0.2,0.3,0.3,0.4c0.2,0.1,0.4,0.1,0.6,0.1h15.2c0.4,0,0.9-0.1,1-0.5h0.6l0.5,5.1h-0.6c-0.5-2.8-1-3.5-2.3-3.5
			h-5.5V241.6z"/>
		<path d="M174,244.5l-8-16.8h-0.1l-0.9,14.2c-0.1,1.6,1.1,2,2.5,2v0.6h-6.6v-0.6c2.3,0,2.6-0.5,2.7-3.4l0.8-12.3
			c0.1-2.1,0.1-2.6-1.9-2.8v-0.6h4.8l7.6,15.9l7.6-15.9h4.6v0.6c-1.5,0.1-2.1,0.2-2.1,1.2l1,14.3c0.2,2.9,0.4,2.9,2.7,2.9v0.6h-8.1
			v-0.6c1.5,0,2.9-0.4,2.8-2.1l-0.9-14.1h-0.1l-7.9,16.8H174z"/>
		<path d="M204.9,245c-6.2,0-11.4-4-11.4-9.9c0-6.3,4.8-10.7,11.5-10.7c6,0,11.1,4.1,11.1,9.7C216.1,240.6,211,245,204.9,245z
			 M204.2,225.2c-5.6,0-7.8,5.2-7.8,9c0,5.9,4,10.1,9.1,10.1c5.1,0,7.6-4.5,7.6-9C213.1,229.4,209.4,225.2,204.2,225.2z"/>
		<path d="M245.6,224.9v0.6c-2.1,0-2.9,0.9-2.9,2.9v8.5c0,3.9-2.5,8.1-9.3,8.1c-6,0-9.1-3.4-9.1-7.9v-9.2c0-2-0.6-2.3-2.7-2.4v-0.6
			h8.1v0.6h-0.3c-1.7,0-2.5,0.5-2.5,2.3v8.8c0,4.3,2.5,6.8,7.2,6.8c3.6,0,7.2-1.5,7.2-6.8v-7.3c0-3-0.5-3.6-3.1-3.7v-0.6H245.6z"/>
		<path d="M262.3,241.6c0,1.7,0.6,2.3,2.5,2.3h1.2v0.6H256v-0.6h1.2c1.9,0,2.5-0.6,2.5-2.3V226h-5.5c-1.3,0-1.8,0.7-2.3,3.5h-0.6
			l0.5-5.1h0.6c0,0.2,0.2,0.3,0.3,0.4c0.2,0.1,0.4,0.1,0.6,0.1h15.2c0.4,0,0.9-0.1,1-0.5h0.6l0.5,5.1H270c-0.5-2.8-1-3.5-2.3-3.5
			h-5.5V241.6z"/>
		<path d="M281.6,235.2v6c0,2,0.4,2.8,2.5,2.8h0.1v0.6h-7.9v-0.6h0.2c1.9,0,2.5-0.5,2.5-2.3v-13.9c0-1.6-0.5-2.1-2.3-2.2v-0.6h7.5
			v0.6c-2.2,0-2.6,0.6-2.6,3v5.5H294v-6.2c0-1.7-0.5-2.3-2.5-2.3h-0.6v-0.6h8.1v0.6c-1.9,0.1-2.4,0.6-2.4,2.6v13.1
			c0,2.2,0.6,2.7,2.5,2.7h0.3v0.6h-8.9v-0.6h1c2,0,2.5-0.7,2.5-2.4v-6.4H281.6z"/>
	</g>
	<g>
		<polygon points="209.5,41.3 105.3,78.1 99.8,92.3 209.5,42.7 		"/>
		<polygon points="209.5,47.6 131.1,107.8 143.8,111.2 209.5,50.1 		"/>
		<polygon points="209.5,54.7 179,107 190,108.4 209.5,55.8 		"/>
		<polygon points="209.5,36.5 93,36.4 93.1,46.1 209.5,37.9 		"/>
		<g>
			<path d="M197.6,106.5c-15.7-3.9-25.7-1.4-34.4,0.9c-4.5,1.2-8.4,2.2-12.6,2.2c-4.2,0-8.1-1-12.6-2.2c-8.7-2.3-18.5-4.8-34.1-1
				l1.1,4.6c14.4-3.5,23.6-1.1,31.8,1c4.6,1.2,9,2.3,13.8,2.3c4.8,0,9.2-1.1,13.8-2.3c8.2-2.1,17.5-4.5,32-0.9L197.6,106.5z"/>
		</g>
		<g>
			<path d="M186.9,115.4c-10.6-1.4-18.1,0.5-24.7,2.2c-4.2,1.1-7.7,2-11.6,2c-3.9,0-7.5-0.9-11.6-2c-6.8-1.8-14.5-3.8-25.7-2.1
				l0.7,4.4c10.3-1.6,17.2,0.2,24,2c4.3,1.1,8.3,2.2,12.7,2.2c4.4,0,8.5-1,12.7-2.2c6.5-1.7,13.2-3.4,23-2.1L186.9,115.4z"/>
		</g>
		<path d="M118.8,107.3V93.2H96.9c11.2-23,23.8-72.1,26.7-87.7c2.6,15.8,15.5,65.4,26.7,87.7h-21.9v14.1H118.8z"/>
		<g>
			<path d="M140.5,17.9h-2.6v-1.6l5.1-0.8v12.2h-2.6V17.9z"/>
			<path d="M162.1,16.1c0.4,0.4,0.6,1,0.6,1.9v1.1c0,0.7-0.2,1.2-0.5,1.6c-0.4,0.4-0.9,0.6-1.8,0.8c0.9,0.1,1.5,0.4,2,0.7
				c0.4,0.4,0.6,1,0.6,1.7v1.3c0,1-0.2,1.7-0.7,2c-0.4,0.4-1.2,0.6-2.3,0.6h-7.7c-1.1,0-1.9-0.2-2.3-0.6c-0.4-0.4-0.7-1.1-0.7-2
				v-1.3c0-0.7,0.2-1.3,0.6-1.7c0.4-0.4,1.1-0.6,1.9-0.7c-0.8-0.2-1.5-0.4-1.8-0.8c-0.4-0.4-0.5-0.9-0.5-1.6V18
				c0-0.9,0.2-1.5,0.6-1.9c0.4-0.3,1.1-0.5,2.2-0.5h7.6C161,15.6,161.7,15.7,162.1,16.1z M153,22.4c-0.5,0-0.8,0.1-0.9,0.2
				c-0.2,0.1-0.2,0.4-0.2,0.9v0.9c0,0.4,0.1,0.7,0.2,0.9c0.2,0.1,0.5,0.2,0.9,0.2h6.2c0.5,0,0.8-0.1,0.9-0.2
				c0.2-0.1,0.2-0.4,0.2-0.9v-0.9c0-0.4-0.1-0.8-0.2-0.9c-0.1-0.1-0.4-0.2-0.9-0.2H153z M153.3,17.6c-0.5,0-0.8,0.1-0.9,0.2
				c-0.2,0.2-0.2,0.4-0.2,0.9v0.6c0,0.4,0.1,0.7,0.2,0.9c0.2,0.2,0.5,0.2,0.9,0.2h5.7c0.4,0,0.7-0.1,0.9-0.2
				c0.2-0.2,0.2-0.4,0.2-0.9v-0.6c0-0.4-0.1-0.8-0.2-0.9c-0.2-0.1-0.5-0.2-0.9-0.2H153.3z"/>
			<path d="M172.8,20.1c0.9-0.1,1.8-0.1,2.6-0.1c1.9,0,3.3,0.2,4,0.7c0.7,0.4,1.1,1.3,1.1,2.4v1.6c0,1-0.4,1.8-1,2.2
				c-0.7,0.5-1.7,0.7-3.1,0.7h-5.1c-1.5,0-2.6-0.3-3.1-0.8c-0.6-0.5-0.8-1.5-0.8-2.9v-1.6c0-2.3,0.8-4,2.3-5.2
				c1.6-1.2,3.8-1.9,6.6-1.9c0.1,0,0.2,0,0.4,0c0.1,0,0.3,0,0.5,0l1.7,1.9H178c-2.6,0-4.4,0.2-5.6,0.7c-1.1,0.5-1.9,1.3-2.3,2.4
				C171,20.3,172,20.2,172.8,20.1z M169.9,22.5c0,0.1,0,0.2,0,0.4c0,1.2,0.2,1.9,0.5,2.2c0.3,0.3,1,0.4,2,0.4h3.4
				c0.8,0,1.4-0.1,1.7-0.3c0.3-0.2,0.5-0.6,0.5-1.1v-0.7c0-0.6-0.2-1-0.5-1.1c-0.4-0.2-1.1-0.3-2.1-0.3c-0.9,0-1.7,0-2.6,0.1
				c-0.9,0-1.8,0.1-2.7,0.2C169.9,22.3,169.9,22.4,169.9,22.5z"/>
			<path d="M193.6,17.6h-8v2.6l-2.6-0.4v-4.2h13.4v1.9l-6.3,10.4H187L193.6,17.6z"/>
		</g>
		<path d="M90,0v82.9c0,27.4,35.9,50.5,60.8,58.2c24.9-7.7,60.8-30.8,60.8-58.2V0L90,0z M206.5,82.9c0,20.2-22.8,35.5-43.6,44.2
			c-2.7,1-8.5,2.2-12.3,2.2c-3.9,0-10.2-1.4-12.4-2.3h0C117.6,118.3,95,103,95,82.9c0,0,0-68.8,0-72.9c7.4-1.4,32.5-6.1,55.5-6.1
			c23,0,48.7,4.5,56,6.1C206.5,14.2,206.5,82.9,206.5,82.9z"/>
	</g>
</g>
</svg>
