<svg xmlns="http://www.w3.org/2000/svg" id="Layer_1" x="0" y="0" version="1.1" viewBox="0 0 600 600" xml:space="preserve"><style>.st0{fill:#006937}.st1{fill:#fff}</style><path d="M260.5 314L600 194v-11.7l-371.8 25.9c9.9 35.2 20.9 71.5 32.3 105.8zM295 127.5h27.8c2.1 0 3.5-.3 4.1-.9.7-.6 1-1.9 1-3.9v-4c0-2-.3-3.4-1-4-.6-.6-2-.9-4.1-.9H295c-2.1 0-3.5.3-4.1.9-.7.6-1 2-1 4v4c0 2 .3 3.3.9 3.9.8.6 2.1.9 4.2.9zM379 127.5h15.1c3.8 0 6.3-.4 7.8-1.4 1.4-.9 2.1-2.6 2.1-5.2V118c0-2.5-.9-4.3-2.4-5.2-1.6-.9-4.7-1.4-9.6-1.4-3.9 0-7.8.1-11.8.3-4.1.2-8.1.5-12.3.9-.1.4-.1.9-.1 1.4-.1.4-.1 1-.1 1.8 0 5.3.7 8.5 2.1 9.7 1.5 1.4 4.5 2 9.2 2zM296.3 104.9h25.4c2 0 3.4-.3 4.1-.9.7-.7 1.1-2 1.1-4v-2.7c0-2-.3-3.4-1.1-4-.7-.6-2.1-.9-4.1-.9h-25.4c-2.1 0-3.5.3-4.2.9-.7.7-1 2-1 4v2.7c0 2 .3 3.3 1 3.9.7.7 2.1 1 4.2 1zM306.6 431h-98.2v54.3c.3 0 .6.1.9.1 8.5 1.4 17.4 3.2 26.8 5.5v.1c1.8.4 3.5.9 5.3 1.3L600 211.9V199L272.1 347.4c11.5 32 23.2 60.9 34.5 83.6zM536.4 495c20.2 5.2 37.6 9.8 56.3 9.8 2.4 0 4.9-.1 7.3-.2V253.5l-94.9 234c11 2.3 21.3 4.9 31.3 7.5zM308.3 504.8c18.8 0 36.2-4.5 56.3-9.8 24.8-6.5 51.8-13.4 86.1-13.2h6.4L600 237.5v-15.9l-299.4 283c2.5.1 5.1.2 7.7.2zM81.8 495c5.6-1.4 11.3-2.9 17.1-4.3v-.1c9-2.2 17.6-3.9 25.8-5.3 12.5-2.1 26-3.5 40.9-3.5V431H67.4c26-53.3 53.7-137.8 76.1-216.8L0 224.2v278.1c8.5 1.5 16.8 2.5 25.5 2.5 18.7 0 36.2-4.5 56.3-9.8zM523 559.8c-14.8-3.7-29.8-7.4-46.5-9.6v.1c-11.2-1.4-21.5-2.1-31.1-2.1h-1c-10.2.1-21.2.9-33.2 2.7v-.1c-15 2.2-28.6 5.6-42 9-19.9 5-38.7 9.7-59.4 9.7-20.7 0-39.5-4.7-59.4-9.7-15-3.8-30.3-7.5-47.4-9.7-10.2-1.2-19.7-1.8-28.6-1.8h-1.8c-1 0-1.9 0-2.9.1-1.8 0-3.6.1-5.5.2h-.7c-2.4.1-4.9.3-7.4.5h-.5c-2.3.2-4.6.4-7 .7-.7.1-1.4.2-2.1.2-1.1.1-2.2.3-3.3.4-16.4 2.2-31.2 5.9-45.7 9.5-19.9 5-38.7 9.7-59.4 9.7-13.2 0-25.7-1.9-38.1-4.6v35h600v-31.6c-5.8.7-11.6 1.1-17.6 1.1-20.8 0-39.5-4.7-59.4-9.7z" class="st0"/><path d="M187 37.6c4.7 28.1 16.6 80.2 32.5 139l380.5.3V0H0v176.5l153.9.1c15.9-58.9 28-111 33.1-139zM426.5 83h60.3v8.7l-28.4 46.5h-13.8l29.2-46H438V104l-11.5-2V83zm-70.3 30.4c0-10.1 3.5-17.9 10.5-23.5 7-5.6 16.8-8.3 29.6-8.3h1.6c.5.1 1.4.1 2.3.2l7.5 8.7h-3.5c-11.6 0-19.9 1.1-25.1 3.2-5.2 2.1-8.6 5.7-10.4 10.8 4.1-.6 8.2-1 12.2-1.4 4-.4 7.9-.5 11.8-.5 8.7 0 14.7 1.1 18 3.1 3.3 2 4.9 5.7 4.9 10.9v7.4c0 4.5-1.6 7.9-4.5 10-3.1 2.2-7.7 3.3-14.1 3.3h-22.9c-6.8 0-11.6-1.2-14.1-3.6-2.5-2.4-3.8-6.8-3.8-13.1v-7.2zm-77.8 6.6c0-3.3.9-5.8 2.8-7.6 1.9-1.7 4.8-2.8 8.7-3.3-3.8-.7-6.5-1.9-8.1-3.5-1.6-1.6-2.3-4-2.3-7v-5c0-4.1.9-6.8 2.5-8.4 1.7-1.5 5-2.2 9.9-2.2h33.9c4.8 0 8.2.7 9.9 2.2 1.7 1.6 2.5 4.3 2.5 8.4v5c0 3.2-.7 5.5-2.3 7-1.6 1.6-4.2 2.7-8.1 3.5 4 .4 6.9 1.6 8.8 3.3 1.9 1.8 2.8 4.3 2.8 7.6v5.7c0 4.4-.9 7.5-2.9 9.2-1.9 1.7-5.4 2.5-10.3 2.5h-34.7c-4.9 0-8.3-.8-10.2-2.5-2-1.6-2.9-4.7-2.9-9.2V120zm-45-33.9l23-3.5v54.7H245v-44h-11.6v-7.2zM592.7 526.2c-21.5 0-41.1-5.1-61.7-10.5-5.6-1.5-11.3-2.9-17.2-4.4l-.1.3c-23.8-5.9-44.5-8.3-62.9-8.4-18.3.1-38.7 2.3-62.3 8.1l-.1-.3c-6.3 1.5-12.4 3.1-18.4 4.6-20.7 5.4-40.2 10.5-61.7 10.5s-41.1-5.1-61.7-10.5c-15.7-4.1-32.3-8.4-51.3-10.7-1.2-.1-2.4-.3-3.6-.4h-.4c-6.8-.7-13.4-1.1-19.7-1.2H163.2c-7.7.1-15.8.7-24.4 1.7-.8.1-1.6.2-2.3.3-.4 0-.7.1-1.1.1-17.6 2.4-33.3 6.5-48.1 10.3-20.7 5.4-40.2 10.5-61.7 10.5-8.8 0-17.2-.9-25.5-2.2v20.6c13 3 25.2 5.1 38.1 5.1 18.1 0 34.8-4.2 54.2-9 13.3-3.3 27.4-6.9 43.2-9.3v-.1c4.9-.7 9.7-1.3 14.4-1.7.3 0 .5 0 .8-.1 1.7-.2 3.4-.3 5.1-.4.9-.1 1.9-.1 2.8-.2 1.8-.1 3.5-.2 5.2-.3.8 0 1.7-.1 2.5-.1 2.1-.1 4.1-.1 6.2-.1h1c8.7 0 16.8.4 24.6 1.2.2 0 .4 0 .6.1 2.2.2 4.3.5 6.5.7l2.4.3c17.7 2.4 33.3 6.3 48 10 19.4 4.8 36.1 9 54.2 9s34.8-4.2 54.2-9c22-5.5 46.1-11.5 76.1-12.1h.7c1.5 0 2.9-.1 4.4-.1 33.2-.2 59.3 6.3 82.9 12.2 19.4 4.8 36.1 9 54.2 9 6 0 11.8-.5 17.6-1.2V526c-2.4.1-4.8.2-7.3.2z" class="st0"/><path d="M600 199.1V194v5.1zM87.2 515.8c14.8-3.9 30.4-7.9 48.1-10.3.4 0 .7-.1 1.1-.1.8-.1 1.5-.2 2.3-.3 8.6-1 16.7-1.6 24.4-1.7h8.4c6.3.1 12.8.5 19.7 1.2h.4c1.2.1 2.4.3 3.6.4 19 2.3 35.6 6.6 51.3 10.7 20.7 5.4 40.2 10.5 61.7 10.5s41-5.1 61.7-10.5c6-1.6 12.1-3.1 18.4-4.6l.1.3c23.6-5.8 44-8 62.3-8.1 18.4.1 39.1 2.4 62.9 8.4l.1-.3c5.9 1.4 11.6 2.9 17.2 4.4 20.7 5.4 40.2 10.5 61.7 10.5 2.4 0 4.9-.1 7.3-.2v-21.4c-2.4.1-4.8.2-7.3.2-18.8 0-36.2-4.5-56.3-9.8-10-2.6-20.3-5.3-31.3-7.5l94.9-234v-16L457.1 481.8c-2.1 0-4.2-.1-6.4 0-34.3-.2-61.3 6.8-86.1 13.2-20.1 5.2-37.6 9.8-56.3 9.8-2.6 0-5.1-.1-7.7-.3l299.4-283v-9.6L241.3 492.3c-1.7-.4-3.5-.9-5.3-1.3v-.1c-9.4-2.3-18.3-4.2-26.8-5.5-.3 0-.6-.1-.9-.1V431h98.2c-11.3-22.6-23-51.6-34.5-83.6l328-148.3V194L260.5 314c-11.4-34.3-22.4-70.6-32.3-105.7l371.8-26v-5.4l-380.5-.3c-15.8-58.8-27.8-110.9-32.5-139-5.1 28-17.2 80-33.1 139L0 176.5v47.7l143.5-10C121.1 293.1 93.4 377.7 67.4 431h98.2v50.8c-14.9.1-28.4 1.4-40.9 3.5-8.2 1.3-16.8 3.1-25.8 5.3v.1c-5.8 1.4-11.5 2.9-17.1 4.3-20.1 5.2-37.6 9.8-56.3 9.8-8.7 0-17-1-25.5-2.5V524c8.3 1.4 16.7 2.2 25.5 2.2 21.5 0 41-5.1 61.7-10.4zM528.1 540.7c-23.7-5.9-49.7-12.4-82.9-12.2-1.5 0-3 0-4.4.1h-.7c-30 .7-54.1 6.6-76.1 12.1-19.4 4.8-36.1 9-54.2 9s-34.8-4.2-54.2-9c-14.7-3.7-30.3-7.6-48-10l-2.4-.3c-2.1-.3-4.3-.5-6.5-.7-.2 0-.4 0-.6-.1-7.8-.8-15.9-1.2-24.6-1.2h-1c-2 0-4.1.1-6.2.1-.8 0-1.7.1-2.5.1-1.7.1-3.5.2-5.2.3-.9.1-1.9.1-2.8.2-1.7.1-3.4.3-5.1.4-.3 0-.5 0-.8.1-4.7.4-9.5 1-14.4 1.7v.1c-15.7 2.4-29.8 5.9-43.2 9.3-19.4 4.8-36.1 9-54.2 9-12.9 0-25.1-2.1-38.1-5.1v20.3c12.4 2.7 24.9 4.6 38.1 4.6 20.7 0 39.5-4.7 59.4-9.7 14.5-3.6 29.3-7.3 45.7-9.5 1.1-.1 2.2-.3 3.3-.4.7-.1 1.4-.2 2.1-.2 2.4-.3 4.7-.5 7-.7h.5c2.5-.2 5-.3 7.4-.5h.7c1.9-.1 3.7-.1 5.5-.2 1 0 1.9 0 2.9-.1h1.8c8.9 0 18.4.6 28.6 1.8 17.1 2.2 32.4 6 47.4 9.7 19.9 5 38.7 9.7 59.4 9.7 20.7 0 39.5-4.7 59.4-9.7 13.4-3.4 27-6.7 42-9v.1c11.9-1.7 22.9-2.6 33.2-2.7h1c9.7 0 20 .6 31.1 2.1v-.1c16.7 2.2 31.7 5.9 46.5 9.6 19.9 5 38.7 9.7 59.4 9.7 6 0 11.9-.4 17.6-1.1v-20c-5.8.8-11.7 1.2-17.6 1.2-18.1.2-34.9-4-54.3-8.8z" class="st1"/><path d="M245 137.3h11.4V82.6l-23 3.5v7.2H245zM281.4 134.8c1.9 1.7 5.3 2.5 10.2 2.5h34.7c4.9 0 8.4-.8 10.3-2.5 2-1.7 2.9-4.7 2.9-9.2V120c0-3.3-.9-5.8-2.8-7.6-1.9-1.7-4.8-2.8-8.8-3.3 3.9-.7 6.5-1.9 8.1-3.5 1.6-1.6 2.3-3.9 2.3-7v-5c0-4.1-.9-6.8-2.5-8.4-1.7-1.5-5.1-2.2-9.9-2.2H292c-4.8 0-8.2.7-9.9 2.2-1.7 1.6-2.5 4.3-2.5 8.4v5c0 3 .7 5.5 2.3 7 1.6 1.6 4.3 2.7 8.1 3.5-3.9.4-6.9 1.6-8.7 3.3-1.9 1.8-2.8 4.3-2.8 7.6v5.7c-.1 4.4.9 7.5 2.9 9.1zm9.6-37.6c0-2 .3-3.3 1-4 .7-.6 2.1-.9 4.2-.9h25.4c2 0 3.4.3 4.1.9.7.6 1.1 2 1.1 4v2.7c0 2-.3 3.3-1.1 4-.7.6-2.1.9-4.1.9h-25.4c-2.1 0-3.5-.3-4.2-1-.7-.6-1-1.9-1-3.9v-2.7zm-1.1 21.5c0-2 .3-3.4 1-4 .6-.6 2-.9 4.1-.9h27.8c2.1 0 3.5.3 4.1.9.7.6 1 2 1 4v4c0 2-.3 3.3-1 3.9-.6.6-2 .9-4.1.9H295c-2.1 0-3.5-.3-4.2-.9-.6-.6-.9-1.9-.9-3.9v-4zM374.1 137.3H397c6.4 0 11-1 14.1-3.3 3-2.1 4.5-5.5 4.5-10v-7.4c0-5.3-1.7-8.9-4.9-10.9-3.3-2-9.3-3.1-18-3.1-3.9 0-7.8.1-11.8.5-4 .3-8.1.7-12.2 1.4 1.8-5.2 5.3-8.7 10.4-10.8 5.2-2.1 13.5-3.2 25.1-3.2h3.5l-7.5-8.7c-1-.1-1.8-.1-2.3-.2h-1.6c-12.7 0-22.6 2.7-29.6 8.3-7 5.6-10.5 13.4-10.5 23.5v7.2c0 6.3 1.3 10.7 3.8 13.1 2.5 2.5 7.3 3.6 14.1 3.6zm-6.2-23.1c0-.4 0-.9.1-1.4 4.2-.4 8.2-.7 12.3-.9 4-.2 7.9-.3 11.8-.3 4.8 0 8 .4 9.6 1.4 1.6.8 2.4 2.6 2.4 5.2v2.9c0 2.5-.7 4.2-2.1 5.2-1.5.9-4 1.4-7.8 1.4H379c-4.8 0-7.8-.6-9.2-1.9-1.4-1.2-2.1-4.4-2.1-9.7.1-.9.1-1.5.2-1.9zM438 92.3h35.8l-29.2 46h13.8l28.4-46.5V83h-60.3v19l11.5 2z" class="st1"/></svg>