<?xml version="1.0" encoding="utf-8"?>
<!-- Generator: Adobe Illustrator 23.1.1, SVG Export Plug-In . SVG Version: 6.00 Build 0)  -->
<svg version="1.1" id="Layer_1" xmlns="http://www.w3.org/2000/svg" xmlns:xlink="http://www.w3.org/1999/xlink" x="0px" y="0px"
	 viewBox="0 0 683.7 598" style="enable-background:new 0 0 683.7 598;" xml:space="preserve">
<style type="text/css">
	.st0{fill:#FFFFFF;}
</style>
<title>thayer-logo-eng-vertical-white</title>
<polygon class="st0" points="505.6,115.1 215.3,217.7 199.9,257.3 505.6,119 "/>
<polygon class="st0" points="505.6,132.6 287,300.5 322.3,310 505.6,139.6 "/>
<polygon class="st0" points="505.6,152.4 420.4,298.2 451.3,302.2 505.6,155.5 "/>
<polygon class="st0" points="505.6,101.7 181,101.5 181.1,128.5 505.6,105.5 "/>
<path class="st0" d="M472.3,296.9c-43.9-10.9-71.5-3.8-95.9,2.6c-12.5,3.3-23.3,6.1-35,6.1s-22.5-2.8-35-6.1
	c-24.2-6.3-51.7-13.4-95.1-2.8l3.2,12.9c40.2-9.9,65.9-3.2,88.6,2.7c12.9,3.3,25,6.5,38.4,6.5s25.5-3.2,38.4-6.5
	c22.8-5.9,48.7-12.7,89.3-2.5L472.3,296.9z"/>
<path class="st0" d="M442.5,321.6c-29.6-4-50.4,1.4-68.8,6.2c-11.6,3-21.6,5.6-32.4,5.6s-20.8-2.6-32.4-5.6
	c-19-4.9-40.5-10.5-71.7-5.8l1.9,12.2c28.7-4.4,48,0.7,66.7,5.5c11.9,3.1,23.1,6,35.5,6s23.6-2.9,35.5-6c18.1-4.7,36.8-9.6,64.1-5.9
	L442.5,321.6z"/>
<path class="st0" d="M252.7,299v-39.3h-61C223,195.6,258.1,58.8,266,15.3c7.3,43.9,43.3,182.4,74.3,244.4h-61V299H252.7z"/>
<path class="st0" d="M313.3,49.8h-7.2v-4.5l14.3-2.2v34h-7.1L313.3,49.8L313.3,49.8z"/>
<path class="st0" d="M373.5,44.8c1,1,1.6,2.7,1.6,5.2v3.1c0.1,1.6-0.4,3.2-1.4,4.4c-1.4,1.2-3.2,2-5,2.2c2,0.1,3.9,0.8,5.5,2
	c1.2,1.2,1.9,2.9,1.8,4.7v3.5c0,2.7-0.6,4.6-1.8,5.7c-1.2,1-3.3,1.6-6.4,1.6h-21.6c-3.1,0-5.2-0.5-6.3-1.6s-1.8-2.9-1.8-5.7v-3.5
	c-0.1-1.8,0.6-3.5,1.8-4.7c1.6-1.2,3.4-1.9,5.4-2c-2.4-0.5-4.1-1.2-5-2.2c-1-1.2-1.5-2.8-1.4-4.4V50c0-2.5,0.5-4.2,1.6-5.2
	s3.1-1.4,6.1-1.4h21.1C370.3,43.4,372.4,43.9,373.5,44.8z M348.2,62.5c-1.3,0-2.2,0.2-2.5,0.6c-0.5,0.4-0.7,1.2-0.7,2.5v2.5
	c-0.1,0.8,0.1,1.7,0.6,2.4c0.8,0.5,1.7,0.7,2.6,0.6h17.3c1.3,0,2.2-0.2,2.5-0.6c0.6-0.7,0.8-1.5,0.7-2.4v-2.5
	c0.1-0.9-0.1-1.8-0.7-2.5c-0.7-0.5-1.6-0.7-2.5-0.6H348.2z M348.9,49.2c-0.9-0.1-1.8,0.1-2.6,0.6c-0.6,0.7-0.8,1.6-0.7,2.5V54
	c-0.1,0.9,0.1,1.7,0.7,2.4c0.7,0.6,1.7,0.8,2.6,0.7h15.8c0.9,0.1,1.8-0.1,2.6-0.6c0.6-0.7,0.8-1.6,0.7-2.5v-1.7
	c0.1-0.9-0.1-1.8-0.7-2.5c-0.8-0.5-1.7-0.7-2.6-0.6H348.9z"/>
<path class="st0" d="M403.4,56c2.4-0.2,4.9-0.3,7.3-0.3c5.4,0,9.2,0.7,11.2,1.9s3.1,3.5,3.1,6.8V69c0.2,2.4-0.9,4.7-2.8,6.2
	c-1.9,1.4-4.8,2-8.8,2h-14.2c-4.3,0-7.2-0.7-8.8-2.2s-2.4-4.2-2.4-8.2v-4.4c0-6.3,2.2-11.1,6.5-14.6s10.5-5.2,18.4-5.2h1
	c0.5,0.1,0.9,0.1,1.4,0.1l4.6,5.4h-2.2c-7.2,0-12.4,0.7-15.6,2c-3.1,1.1-5.5,3.6-6.5,6.7C398.4,56.4,400.9,56.2,403.4,56z
	 M395.3,62.8c-0.1,0.4-0.1,0.7-0.1,1.1c0,3.3,0.5,5.3,1.3,6s2.7,1.2,5.7,1.2h9.4c2.4,0,3.9-0.3,4.8-0.9c0.9-0.8,1.4-2,1.3-3.2v-1.8
	c0-1.6-0.5-2.7-1.5-3.2s-2.9-0.9-6-0.9c-2.4,0-4.8,0.1-7.3,0.2s-5,0.3-7.7,0.6C395.3,62.2,395.3,62.5,395.3,62.8z"/>
<path class="st0" d="M461.1,49.2h-22.3v7.3l-7.1-1.2V43.4h37.5v5.4l-17.7,28.9h-8.6L461.1,49.2z"/>
<path class="st0" d="M172.5,0v231.1c0,76.3,99.9,140.8,169.4,162.2c69.5-21.4,169.4-85.9,169.4-162.2V0H172.5z M497.3,231.1
	c0,56.2-63.5,98.9-121.4,123.3c-7.5,2.8-23.8,6.1-34.1,6.1c-10.9,0-28.4-3.9-34.5-6.5l0,0c-57.7-24.5-120.6-67-120.6-123V27.9
	c20.5-3.7,90.6-16.8,154.5-16.8S476.9,23.7,497.3,28V231.1z"/>
<g>
	<g>
		<path class="st0" d="M25.3,451.5c0-7.2-1.9-8.6-9.2-8.5v-2.5c2.8,0,11.2-0.4,15.3-0.5c5.3-0.1,10.2-0.1,13.8-0.1
			c14.6,0,25.2,2.5,31.1,8.5c6.1,6.1,8.4,13.3,8.4,20.6c0,14.2-10,31.9-38.4,31.9H16.1v-2.5c8.2,0,9.2-1.3,9.2-7.8V451.5z M36,491.1
			c0,6.1,0.8,7,7.2,7c11.6,0,17.7-2.5,22.1-7c6-6,7.6-14,7.6-20.9c0-7-1.6-14.9-7.4-20.7c-5-4.8-11-7.1-22.4-7.1
			c-1.6,0-4.7,0-7.2,0.1v48.7H36C36,491.2,36,491.1,36,491.1z"/>
		<path class="st0" d="M80.6,498.2c6.5-0.1,7.8-1.2,10.5-8.8l17.5-48.1l-0.8-2.4h10.9l18.9,50.5c2.8,7.6,3.7,8.8,9.8,8.8v2.5h-28.8
			v-2.5c7.7,0,9.8-0.8,9.8-3.6c0-0.9-0.4-2.5-1.3-5.2l-4.7-12h-22.2l-4.7,12.9c-0.7,1.9-0.9,3.1-0.9,4c0,2.8,1.9,4,9.7,3.7v2.5H80.4
			v-2.5h0.2C80.6,498.1,80.6,498.2,80.6,498.2z M120.7,472.5l-9.4-24.6l-9.2,24.6H120.7z"/>
		<path class="st0" d="M170.3,488.6c0,8.4,1.1,9.8,9.8,9.6v2.5h-29.6v-2.5c8.1,0.3,9-1.9,9-8.4v-38.9c0-6.4-1.1-7.8-9-7.8v-2.5
			c2.3,0,7.2-0.4,13.8-0.7c5.2-0.1,9.8-0.1,11.8-0.1c19.5,0,26.3,8.5,26.3,17.4c0,7.2-4,12.4-12.2,15.8c1.6,1.1,5.7,5.2,7.3,6.8
			l6.4,6.4c8.6,8.6,15.3,12.5,23.3,13.3v2.7c-19.1,0.5-23.8-2.9-32.6-11.6l-5.2-5.2c-5-5-6.5-6.4-10.5-9.3c-2.8,0.1-6.1,0.3-8.6,0
			L170.3,488.6L170.3,488.6z M170.3,473.1c0.7,0.1,2.5,0.3,3.1,0.3c12.9-0.5,17.4-5.6,17.4-15.4s-5.3-15.7-15.8-15.7
			c-1.5,0-3.7,0.1-4.7,0.4V473.1L170.3,473.1z"/>
		<path class="st0" d="M220.9,438.8h2.5c0.4,0.7,0.7,1.2,1.6,1.3c0.9,0.1,2.3,0.3,4.7,0.3h41.1c5,0,5.7-0.1,6.4-1.6h2.5l1.7,16.7
			h-2.8c-1.3-10.1-3.2-10.6-9.2-10.6h-13.8v45.7c0,6.6,1.1,7.7,11.3,7.7v2.5h-33.2v-2.5c9.7,0,11.3-1.2,11.3-7.7v-45.7h-13.8
			c-5.7,0-7.7,0.5-9.2,10.6h-2.8L220.9,438.8z"/>
		<path class="st0" d="M284.3,498.2c6.1,0,7.8-1.1,8.4-9.6l2.3-35.7c0.5-8.6-0.5-9.8-6.1-9.8v-2.5h17.9l21,44.9l19.8-44.9h17.9v2.5
			c-5.4,0-6.6,1.2-6.2,5.7l3.5,44.2c0.4,5,2.3,5.4,8,5.4v2.5h-27.5v-2.5c8,0,9.3-1.9,8.5-12.2l-2.5-35.9H349l-22.3,50.7h-3.2
			l-22.9-49.5h-0.1l-2.3,35.9c-0.7,10.4,1.6,10.4,8,10.9v2.5h-21.5v-2.5H284.3z"/>
		<path class="st0" d="M408.2,438.9c21,0,35.5,12.5,35.5,30.7c0,17.5-14,32.7-35.9,32.7c-20.2,0-35.1-12.6-35.1-30
			C372.8,452.9,387.6,438.9,408.2,438.9z M409.4,499.2c13.4,0,22.5-10.9,22.5-27.2c0-17.5-10.2-29.9-24.3-29.9
			c-14,0-22.9,10.6-22.9,27.6C384.5,489.1,397,499.2,409.4,499.2z"/>
		<path class="st0" d="M446.6,440.5h27.6v2.5c-7.2,0-8.5,1.6-8.5,8.4v26.2c0,12.9,8.6,18.9,20.7,18.9c10.8,0,20.9-4.7,20.9-19v-26
			c0-7.6-1.5-8.4-9.3-8.4v-2.5h23.4v2.5c-7.4,0-8.9,1.6-8.9,8.4v27c0,15.3-11.7,23.9-29.4,23.9c-18.5,0-28.3-8.9-28.3-24.7v-27.3
			c0-6-1.6-7.4-8.2-7.4v-2.5h-0.1V440.5z"/>
		<path class="st0" d="M526.4,438.8h2.5c0.4,0.7,0.7,1.2,1.6,1.3c0.8,0.1,2.3,0.3,4.7,0.3h41.1c5,0,5.7-0.1,6.4-1.6h2.5l1.7,16.7
			h-2.8c-1.3-10.1-3.2-10.6-9.2-10.6h-13.8v45.7c0,6.6,1.1,7.7,11.3,7.7v2.5h-33.2v-2.5c9.7,0,11.3-1.2,11.3-7.7v-45.7h-13.8
			c-5.7,0-7.7,0.5-9.2,10.6h-2.8L526.4,438.8z"/>
		<path class="st0" d="M610.8,489.7c0,5.7,0.8,8.2,8.6,8.5v2.5h-28v-2.5c7.8-0.5,8.6-2.5,8.6-9.2v-36.1c0-7.3-1.1-9.7-8.6-9.8v-2.5
			h28v2.5c-7.3,0.3-8.6,1.9-8.6,10.2v14.3h35.1v-14.4c0-7.8-0.9-9.8-8.9-10.2v-2.5h28.6v2.5c-7.7,0.4-8.9,2-8.9,9.6v36.5
			c0,6.9,1.1,8.5,8.9,9v2.5H637v-2.5c7.6-0.3,8.9-2.3,8.9-9.2V472h-35.1V489.7z"/>
	</g>
	<g>
		<path class="st0" d="M0,596.5V594c7.8,0,9.8-1.2,9.8-6.8v-41.7c0-6.5-3.2-6.6-9.8-6.6v-2.5h49.6l0.8,14.5h-2.5l-0.5-2
			c-1.9-8-3.5-8.1-9.7-8.1H20.5v22.6h15.1c5.7,0,6.8-0.7,7.3-7.4h2.5v19.5h-2.5c-0.7-6.9-1.9-7.8-7.3-7.8H20.5v17.7
			c0,6.1,0.8,7,5.7,7H37c9.8,0,11.7-1.3,14.4-10.9H54l-1.5,15.3H0V596.5z"/>
		<path class="st0" d="M70.7,547.1v37.3c0,7.6,0.9,10,9.7,9.6v2.5H57.3V594c7,0.1,8.1-2,8.1-8.4v-43.7c-2.3-2-4.4-2.8-8.1-3.1v-2.5
			h17.5l43.2,45.7v-34.8c0-7.3-1.2-8.5-9.6-8.4v-2.5h23.4v2.5c-6.5,0-8.5,1.2-8.5,8.5v49.7h-5.2L70.7,547.1z"/>
		<path class="st0" d="M190,592c-10.9,4.3-17.9,6-26,6c-19.7,0-32.7-12.1-32.7-30.3c0-12.9,7.4-33.1,34-33.1
			c9.6,0,15.4,2.5,18.6,2.5c1.2,0,1.9-0.3,2.5-1.1h2.8v17.8h-2.9c-2.3-10.5-9.2-16.3-19.3-16.3c-14.5,0.1-24.1,11.6-24.1,29.1
			c0,19.4,12.1,27.9,23.8,27.9c4.3,0,8.4-1.1,12.4-3.2v-11.6c0-6.8-1.9-7.6-11.6-7.6v-2.5h29v2.5c-6.6,0-6.8,4-6.8,7.7v12.2L190,592
			L190,592z"/>
		<path class="st0" d="M201.2,536.2h27.1v2.5c-6.5,0-8.4,1.5-8.4,8.4v37.7c0,7.3,1.3,9.2,8.4,9v2.5h-27.1v-2.5c7.7,0.1,8-2.8,8-8.4
			v-39.5c0-5.3-1.2-7.4-8-7.3V536.2z"/>
		<path class="st0" d="M249.4,547.1v37.3c0,7.6,0.9,10,9.7,9.6v2.5h-23.1V594c7,0.1,8.1-2,8.1-8.4v-43.7c-2.3-2-4.4-2.8-8.1-3.1
			v-2.5h17.5l43.2,45.7v-34.8c0-7.3-1.2-8.5-9.6-8.4v-2.5h23.4v2.5c-6.5,0-8.5,1.2-8.5,8.5v49.7h-5.3L249.4,547.1z"/>
		<path class="st0" d="M316.8,596.5V594c7.8,0,9.8-1.2,9.8-6.8v-41.7c0-6.5-3.2-6.6-9.8-6.6v-2.5h49.6l0.8,14.5h-2.5l-0.5-2
			c-1.9-8-3.5-8.1-9.7-8.1h-17.1v22.6h15.1c5.7,0,6.8-0.7,7.3-7.4h2.5v19.5h-2.5c-0.7-6.9-1.9-7.8-7.3-7.8h-15.1v17.7
			c0,6.1,0.8,7,5.7,7h10.8c9.8,0,11.7-1.3,14.4-10.9h2.5l-1.5,15.3h-52.4v-0.3L316.8,596.5L316.8,596.5z"/>
		<path class="st0" d="M373.8,596.5V594c7.8,0,9.8-1.2,9.8-6.8v-41.7c0-6.5-3.2-6.6-9.8-6.6v-2.5h49.6l0.8,14.5h-2.5l-0.5-2
			c-1.9-8-3.5-8.1-9.7-8.1h-17.1v22.6h15.1c5.7,0,6.8-0.7,7.3-7.4h2.5v19.5h-2.5c-0.7-6.9-1.9-7.8-7.3-7.8h-15.1v17.7
			c0,6.1,0.8,7,5.7,7h10.8c9.8,0,11.7-1.3,14.4-10.9h2.5l-1.5,15.3h-52.5V596.5z"/>
		<path class="st0" d="M451.5,584.3c0,8.4,1.1,9.8,9.8,9.6v2.5h-29.6v-2.5c8.1,0.3,9-1.9,9-8.4v-39c0-6.4-1.1-7.8-9-7.8v-2.5
			c2.3,0,7.2-0.4,13.8-0.7c5.2-0.1,9.8-0.1,11.8-0.1c19.5,0,26.3,8.5,26.3,17.4c0,7.2-4,12.4-12.2,15.8c1.6,1.1,5.7,5.2,7.3,6.8
			l6.4,6.4c8.6,8.6,15.3,12.5,23.3,13.3v2.7c-19.1,0.5-23.8-2.9-32.6-11.6l-5.2-5.2c-5-5-6.5-6.4-10.5-9.3c-2.8,0.1-6.1,0.3-8.6,0
			L451.5,584.3L451.5,584.3z M451.5,568.8c0.7,0.1,2.5,0.3,3.1,0.3c12.9-0.5,17.4-5.6,17.4-15.4s-5.3-15.7-15.8-15.7
			c-1.5,0-3.7,0.1-4.7,0.4V568.8z"/>
		<path class="st0" d="M510.8,536.2h27.1v2.5c-6.5,0-8.4,1.5-8.4,8.4v37.7c0,7.3,1.3,9.2,8.4,9v2.5h-27.1v-2.5c7.7,0.1,8-2.8,8-8.4
			v-39.5c0-5.3-1.2-7.4-8-7.3L510.8,536.2L510.8,536.2z"/>
		<path class="st0" d="M557,547.1v37.3c0,7.6,0.9,10,9.7,9.6v2.5h-23.1V594c7,0.1,8.1-2,8.1-8.4v-43.7c-2.3-2-4.4-2.8-8.1-3.1v-2.5
			H561l43.2,45.7v-34.8c0-7.3-1.2-8.5-9.6-8.4v-2.5h23.4v2.5c-6.5,0-8.5,1.2-8.5,8.5v49.7h-5.3L557,547.1z"/>
		<path class="st0" d="M677.1,592c-10.9,4.3-17.9,6-26,6c-19.7,0-32.7-12.1-32.7-30.3c0-12.9,7.4-33.1,34-33.1
			c9.6,0,15.4,2.5,18.6,2.5c1.2,0,1.9-0.3,2.5-1.1h2.8v17.8h-2.9c-2.3-10.5-9.2-16.3-19.3-16.3c-14.5,0-24.1,11.4-24.1,29
			c0,19.4,12.1,27.9,23.8,27.9c4.3,0,8.4-1.1,12.4-3.2v-11.6c0-6.8-1.9-7.6-11.6-7.6v-2.5h29v2.5c-6.6,0-6.8,4-6.8,7.7V592H677.1z"
			/>
	</g>
</g>
</svg>
