<svg xmlns="http://www.w3.org/2000/svg" viewBox="0 0 600 696.5"><style>.st0{fill:#fff}</style><g id="Layer_2"><path d="M589.9 203.8L75.7 385.5l-27.3 70.1 541.5-244.8zM589.9 234.9L202.6 532.1l62.7 16.9 324.6-301.8zM589.9 270L439 528l54.7 7.2 96.2-259.8zM589.9 180.1l-575-.3.3 47.8 574.7-40.7z" class="st0"/><path d="M530.8 525.8c-77.7-19.4-126.6-6.7-169.8 4.5-22.2 5.8-41.3 10.7-62 10.7s-39.8-5-62-10.7c-42.9-11.2-91.5-23.8-168.4-4.9l5.6 22.9c71.1-17.5 116.7-5.6 156.9 4.8 22.8 5.9 44.3 11.5 67.9 11.5 23.7 0 45.2-5.6 67.9-11.5 40.4-10.5 86.3-22.4 158.2-4.5l5.7-22.8zM478.2 569.6c-52.5-7-89.3 2.5-121.8 11-20.5 5.3-38.2 9.9-57.3 9.9-19.1 0-36.8-4.6-57.3-9.9-33.6-8.8-71.8-18.7-127-10.3l3.3 21.5c50.7-7.7 85 1.2 118.2 9.8 21 5.5 40.9 10.6 62.8 10.6s41.8-5.2 62.8-10.6c32.1-8.3 65.2-17 113.5-10.5l2.8-21.5z" class="st0"/><path d="M142 529.5v-69.7H33.9C89.3 346.4 151.5 104 165.6 27c12.9 77.8 76.7 323 131.6 432.9H189.1v69.7H142zM249.3 88.2h-12.7v-8l25.4-3.8v60.2h-12.6V88.2zM355.8 79.3c1.9 1.7 2.8 4.8 2.8 9.3V94c0 3.5-.8 6-2.5 7.8-1.7 1.7-4.6 3-8.9 3.8 4.4.5 7.6 1.7 9.7 3.6 2.1 2 3.1 4.7 3.1 8.3v6.3c0 4.9-1 8.2-3.2 10.1-2.1 1.9-5.9 2.8-11.3 2.8h-38.2c-5.4 0-9.2-.9-11.2-2.8-2.2-1.7-3.2-5.2-3.2-10.1v-6.3c0-3.6 1-6.4 3.1-8.3 2.1-1.9 5.3-3.1 9.6-3.6-4.2-.8-7.2-2.1-8.9-3.8-1.7-1.7-2.6-4.4-2.6-7.8v-5.4c0-4.5.9-7.5 2.8-9.3 1.9-1.6 5.6-2.4 10.9-2.4h37.3c5.2 0 8.9.8 10.7 2.4zM311 110.7c-2.3 0-3.8.3-4.5 1-.8.7-1.2 2.2-1.2 4.4v4.4c0 2.2.3 3.6 1 4.3.8.7 2.3 1 4.6 1h30.6c2.3 0 3.8-.3 4.5-1 .8-.7 1.2-2.1 1.2-4.3v-4.4c0-2.2-.3-3.7-1.2-4.4-.7-.7-2.2-1-4.5-1H311zm1.4-23.6c-2.3 0-3.8.3-4.6 1-.8.8-1.2 2.2-1.2 4.4v3c0 2.2.3 3.6 1.2 4.3.8.8 2.3 1.2 4.6 1.2h27.9c2.2 0 3.7-.3 4.5-1 .8-.8 1.2-2.2 1.2-4.4v-3c0-2.2-.3-3.7-1.2-4.4-.8-.7-2.3-1-4.5-1h-27.9zM408.9 99.1c4.4-.5 8.7-.6 13-.6 9.6 0 16.2 1.2 19.8 3.4 3.6 2.2 5.4 6.3 5.4 12v8.1c0 5-1.7 8.7-5 11-3.4 2.4-8.5 3.6-15.5 3.6h-25.2c-7.5 0-12.7-1.3-15.5-3.9-2.8-2.7-4.2-7.5-4.2-14.5v-7.9c0-11.1 3.8-19.7 11.6-25.8 7.6-6.1 18.5-9.1 32.5-9.1h1.7c.6.1 1.5.1 2.5.2l8.2 9.6h-3.8c-12.7 0-21.9 1.2-27.6 3.5-5.7 2.3-9.5 6.3-11.5 11.9 4.7-.7 9.2-1.1 13.6-1.5zm-14.4 12.1c-.1.5-.1 1.2-.1 2 0 5.8.8 9.4 2.3 10.7 1.5 1.4 4.9 2.1 10.1 2.1h16.7c4.2 0 7-.5 8.6-1.5 1.5-1 2.3-2.9 2.3-5.7v-3.2c0-2.8-.9-4.7-2.7-5.7-1.7-1-5.2-1.5-10.5-1.5-4.3 0-8.6.1-13 .3-4.5.2-8.9.6-13.6 1-.1.4-.1 1-.1 1.5zM511.1 87.1h-39.5V100L459 97.7V76.9h66.3v9.6L494 137.7h-15.2l32.3-50.6z" class="st0"/><path d="M0 0v409.2c0 135.1 177 249.3 300 287.3 123-37.9 300-152.1 300-287.3V0H0zm575.1 409.2c0 99.6-112.5 175.1-215 218.4-13.2 5-42.2 10.9-60.5 10.9-19.2 0-50.3-6.9-61.1-11.4h-.1c-102-43.4-213.5-118.7-213.5-217.9V49.5c36.6-6.7 160.6-29.9 273.8-29.9 113.3 0 240.4 22.3 276.4 29.9v359.7z" class="st0"/></g></svg>