<?xml version="1.0" encoding="utf-8"?>
<!-- Generator: Adobe Illustrator 25.0.1, SVG Export Plug-In . SVG Version: 6.00 Build 0)  -->
<svg version="1.1" id="Layer_1" xmlns="http://www.w3.org/2000/svg" xmlns:xlink="http://www.w3.org/1999/xlink" x="0px" y="0px"
	 viewBox="0 0 320.7 97.9" style="enable-background:new 0 0 320.7 97.9;" xml:space="preserve">
<style type="text/css">
	.st0{fill:#00693E;}
</style>
<g>
	<path class="st0" d="M97.6,0.5H87.4V1c0.9,0.5,1.3,1.2,1.3,3.7v15.1c0,2.5-0.4,3.2-1.3,3.7V24H97c8.8,0,13.4-5.2,13.4-12.4
		C110.4,5.2,105.9,0.5,97.6,0.5 M96.7,21.4h-4.2V3.1H97c6.1,0,9.4,3.1,9.4,9.4C106.4,18,103.4,21.4,96.7,21.4 M189,23.5
		c-1-0.4-1.5-1.2-1.1-3.8l1.5-11.7l7.6,15.6h1.4L206.2,8l1.4,11.8c0.3,2.5,0,3.2-1,3.7V24h6.3v-0.4c-0.9-0.5-1.2-1.2-1.6-3.5
		l-2.7-19.7H207l-8.7,18l-8.7-18h-1.7l-2.8,19.6c-0.3,2.5-0.8,3.2-1.8,3.7V24h5.8L189,23.5L189,23.5z M174.6,23.5
		c-1-0.6-1.5-1.2-1.5-3.9V3.1h2.9c3.6,0,4.4,0.5,5.3,1.7l0.4-0.1L181,0.2c-1.4,0.2-3.2,0.3-5.5,0.3H167c-2.3,0-4.1-0.1-5.5-0.3
		l-0.7,4.5l0.4,0.1c1-1.2,1.7-1.7,5.3-1.7h2.9v16.6c0,2.7-0.5,3.3-1.5,3.9V24h6.7L174.6,23.5L174.6,23.5z M145.1,24h-6.3v-0.4
		c0.7-0.4,1.3-1.2,1.3-3.7V4.7c0-2.5-0.6-3.4-1.3-3.7V0.5h8.4c6.2,0,9.1,2.5,9.1,6.8c0,3-1.8,5.4-5.2,6.3c1,0.4,1.8,1.4,3.4,3.3
		l2.9,3.7c1.6,2.1,2.3,2.6,3.1,2.9V24h-4.1c-0.9,0-1.3-0.3-2-1.2l-4.2-5.6c-1.6-2.2-2-2.6-3.1-2.6h-1l-1-2.1v-0.3h2.2
		c3.4,0,5.2-1.8,5.2-4.6c0-3.1-1.9-4.5-5.6-4.5h-3.1v16.9c0,2.5,0.6,3.3,1.3,3.7L145.1,24L145.1,24z M133.3,20.4l-9.1-20.1h-1.4
		l-9.1,20.1c-0.9,2-1.4,2.7-2.4,3.2V24h6v-0.4c-1.2-0.5-1.6-1.2-0.5-3.7l1.2-2.8h9.6l1.2,2.8c1.1,2.5,0.7,3.2-0.4,3.7V24h6.9v-0.4
		C134.7,23.1,134.2,22.3,133.3,20.4 M119.2,14.6l3.8-8.6l3.8,8.6H119.2z M303.6,1c-0.9,0.5-1.3,1.2-1.3,3.7v6h13.4v-6
		c0-2.5-0.4-3.2-1.3-3.7V0.5h6.3V1c-0.9,0.5-1.3,1.2-1.3,3.7v15.1c0,2.5,0.4,3.2,1.3,3.7V24h-6.3v-0.4c0.9-0.5,1.3-1.2,1.3-3.7v-6.5
		h-13.4v6.5c0,2.5,0.4,3.2,1.3,3.7V24h-6.3v-0.4c0.9-0.5,1.3-1.2,1.3-3.7V4.7c0-2.5-0.4-3.2-1.3-3.7V0.5h6.3V1z M286.2,24h-6.7v-0.4
		c1-0.6,1.5-1.2,1.5-3.9V3.1h-2.9c-3.6,0-4.4,0.5-5.3,1.7l-0.4-0.1l0.7-4.5c1.4,0.2,3.2,0.3,5.5,0.3h8.6c2.3,0,4.1-0.1,5.5-0.3
		l0.7,4.5l-0.4,0.1c-1-1.2-1.7-1.7-5.3-1.7h-2.9v16.6c0,2.7,0.5,3.3,1.5,3.9L286.2,24L286.2,24z M262.9,0.5h5.8V1
		c-1,0.6-1.5,1.2-1.5,3.9v10c0,6.2-3.6,9.6-9.7,9.6c-6.1,0-9.7-3.4-9.7-9.1V4.7c0-2.5-0.4-3.2-1.3-3.7V0.5h6.3V1
		c-0.9,0.5-1.3,1.2-1.3,3.7v10.4c0,4.1,2.3,6.4,6.5,6.4c4,0,6.4-2.4,6.4-6.7v-10c0-2.7-0.5-3.3-1.5-3.9L262.9,0.5L262.9,0.5z
		 M229.1,0c-7.5,0-12.4,5.8-12.4,12.4c0,6.3,4.5,12.1,12.4,12.1c7.5,0,12.4-5.8,12.4-12.4C241.6,5.8,237.1,0,229.1,0 M229.5,21.9
		c-5,0-8.8-4.3-8.8-10.2c0-5.6,3.2-9.1,8.1-9.1c5,0,8.8,4.3,8.8,10.2C237.6,18.4,234.4,21.9,229.5,21.9"/>
	<g>
		<path class="st0" d="M188.3,73.5c0,2.7,2.2,3.6,4.2,4.3c1.6,0.6,3.3,1.1,3.3,3c0,1.6-1.1,2.4-2.8,2.4c-1.8,0-3.5-0.8-4.5-1.9
			l-0.3,0.1l0.6,2.7c0.8,0.5,2.3,0.8,3.7,0.8c3.2,0,5.5-1.9,5.5-4.8c0-2.7-2.2-3.6-4.2-4.3c-1.6-0.6-3.3-1.1-3.3-3
			c0-1.5,1-2.3,2.7-2.3c1.4,0,2.8,0.6,3.4,1.5l0.3,0v-2.3c-0.8-0.5-2-0.8-3.4-0.8C190.5,68.8,188.3,70.7,188.3,73.5"/>
		<path class="st0" d="M208.9,84.9c2.3,0,4.1-0.5,4.9-1.1v-2.4l-0.3,0c-0.8,1-2.7,1.9-4.9,1.9c-0.4,0-0.8,0-1.2-0.1
			c-3-0.7-4.5-3.1-4.5-6.5c0,0,0-0.1,0-0.1c0-3.8,2.1-6,5.7-6c2.2,0,4.1,0.8,4.9,1.9l0.3,0V70c-0.9-0.6-2.7-1.1-4.9-1.1
			c-4.7,0-7.7,2.8-8.4,6.5c-0.1,0.4-0.2,0.8-0.2,1.2c0,0.1,0,0.2,0,0.3c0,0.1,0,0.2,0,0.3c0,4.1,2.8,7.8,8.4,7.8v0
			C208.8,84.9,208.9,84.9,208.9,84.9"/>
		<path class="st0" d="M220.3,69.7c-0.6,0.3-0.9,0.8-0.9,2.4v4h8.9v-4c0-1.7-0.3-2.1-0.9-2.4v-0.3h4.2v0.3c-0.6,0.3-0.9,0.8-0.9,2.4
			v10c0,1.7,0.3,2.1,0.9,2.4v0.3h-4.2v-0.3c0.6-0.3,0.9-0.8,0.9-2.4v-4.3h-8.9v4.3c0,1.7,0.3,2.1,0.9,2.4v0.3h-4.2v-0.3
			c0.6-0.3,0.9-0.8,0.9-2.4v-10c0-1.7-0.3-2.1-0.9-2.4v-0.3h4.2L220.3,69.7L220.3,69.7z"/>
		<path class="st0" d="M242,68.8c-5,0-8.2,3.8-8.2,8.2c0,4.2,3,7.9,8.2,7.9c5,0,8.2-3.8,8.2-8.2C250.2,72.6,247.2,68.8,242,68.8
			 M242.2,83.2c-3.3,0-5.8-2.8-5.8-6.7c0-3.7,2.1-6,5.4-6c3.3,0,5.8,2.8,5.8,6.7C247.6,80.9,245.5,83.2,242.2,83.2"/>
		<path class="st0" d="M260.6,68.8c-5,0-8.2,3.8-8.2,8.2c0,4.2,3,7.9,8.2,7.9c5,0,8.2-3.8,8.2-8.2C268.8,72.6,265.9,68.8,260.6,68.8
			 M260.9,83.2c-3.3,0-5.8-2.8-5.8-6.7c0-3.7,2.1-6,5.4-6c3.3,0,5.8,2.8,5.8,6.7C266.2,80.9,264.1,83.2,260.9,83.2"/>
		<path class="st0" d="M282.2,84.9l1.5-2.8l-0.2-0.2c-1.1,0.8-1.8,1.2-4.2,1.2H275V72.1c0-1.7,0.3-2.1,0.9-2.4v-0.3h-4.2v0.3
			c0.6,0.3,0.9,0.8,0.9,2.4v10c0,1.7-0.3,2.1-0.9,2.4v0.3h7.2C280.4,84.8,281.3,84.8,282.2,84.9"/>
		<path class="st0" d="M96.6,84.7h-4.4v-0.3c0.7-0.4,1-0.8,1-2.6V71h-1.9c-2.4,0-2.9,0.3-3.5,1.2L87.4,72l0.5-2.9
			c0.9,0.1,2.1,0.2,3.6,0.2h5.7c1.5,0,2.7-0.1,3.6-0.2l0.5,2.9l-0.3,0.1c-0.6-0.8-1.1-1.2-3.5-1.2h-1.9v10.9c0,1.8,0.3,2.2,1,2.6
			L96.6,84.7L96.6,84.7z M108.1,69.6c-0.6,0.3-0.9,0.8-0.9,2.4v4h8.9v-4c0-1.7-0.3-2.1-0.9-2.4v-0.3h4.2v0.3
			c-0.6,0.3-0.9,0.8-0.9,2.4v10c0,1.7,0.3,2.1,0.9,2.4v0.3h-4.2v-0.3c0.6-0.3,0.9-0.8,0.9-2.4v-4.3h-8.9V82c0,1.7,0.3,2.1,0.9,2.4
			v0.3h-4.2v-0.3c0.6-0.3,0.9-0.8,0.9-2.4V72c0-1.7-0.3-2.1-0.9-2.4v-0.3h4.2V69.6z"/>
		<path class="st0" d="M126.6,78.6l2.5-5.7l2.5,5.7H126.6z M135.9,82.3l-6-13.2H129l-6,13.2c-0.6,1.3-0.9,1.8-1.6,2.1v0.3h4v-0.3
			c-0.8-0.3-1.1-0.8-0.4-2.4l0.8-1.9h6.4l0.8,1.9c0.7,1.6,0.5,2.1-0.2,2.4v0.3h4.5v-0.3C136.8,84.1,136.5,83.6,135.9,82.3"/>
		<path class="st0" d="M158.9,70.8c2.3,0,3,0.2,3.7,0.7l0.2-0.2l-0.9-2.3c-0.8,0.1-1.9,0.1-3.3,0.1h-6.9v0.3
			c0.6,0.3,0.9,0.8,0.9,2.4v10c0,1.7-0.3,2.1-0.9,2.4v0.3h7.5c1.5,0,2.4,0,3.3,0.1l1.3-2.7l-0.2-0.2c-0.9,0.6-1.8,1.1-4.6,1.1h-3.9
			v-5.4h3.3c0.8,0,1.8,0.1,2.4,0.2l1.1-2.1l-0.2-0.2c-0.7,0.3-1.6,0.4-3.2,0.4h-3.4v-5.1C155.1,70.8,158.9,70.8,158.9,70.8z"/>
		<path class="st0" d="M169.7,84.7h-4.2v-0.3c0.5-0.2,0.9-0.8,0.9-2.4V72c0-1.7-0.4-2.2-0.9-2.4v-0.3h5.6c4.1,0,6,1.6,6,4.5
			c0,1.9-1.2,3.6-3.4,4.2c0.7,0.3,1.2,0.9,2.2,2.2l1.9,2.4c1.1,1.4,1.5,1.7,2.1,1.9v0.3h-2.7c-0.6,0-0.9-0.2-1.3-0.8l-2.8-3.7
			c-1.1-1.5-1.3-1.7-2-1.7h-0.7l-0.7-1.4v-0.2h1.5c2.2,0,3.4-1.2,3.4-3.1c0-2.1-1.2-3-3.7-3h-2V82c0,1.7,0.4,2.2,0.9,2.4L169.7,84.7
			L169.7,84.7z"/>
		<path class="st0" d="M144.1,75.4v6.5c0,1.7,0.3,2.2,1,2.6v0.3h-4.4v-0.3c0.7-0.4,1-0.8,1-2.6v-6.5"/>
		<path class="st0" d="M144,76.6c0,0-2.7-4.4-3.2-5.1c-0.5-0.8-1.1-1.6-0.4-1.9v-0.3h-4.5v0.3c0.8,0.1,1.2,0.7,2.1,1.9l4.6,6.9"/>
		<path class="st0" d="M142.4,79c0,0,5-7.1,5.3-7.6c1.1-1.6,1.8-1.7,2.4-1.9v-0.3h-4v0.3c0.8,0.1,0.4,0.5-0.4,1.6l-3.7,5.5"/>
	</g>
	<g>
		<path class="st0" d="M97.8,38.1c3.4,0,4.4,0.2,5.5,1l0.4-0.2l-1.3-3.3c-1.2,0.1-2.8,0.2-4.8,0.2H87.5v0.4c0.9,0.5,1.3,1.1,1.3,3.6
			v14.6c0,2.4-0.4,3.1-1.3,3.6v0.4h10.9c2.2,0,3.6,0,4.8,0.2l1.9-3.9l-0.4-0.3c-1.4,0.9-2.6,1.6-6.6,1.6h-5.7v-7.9h4.8
			c1.2,0,2.6,0.1,3.5,0.2l1.6-3l-0.3-0.3c-1,0.4-2.3,0.7-4.7,0.7h-5v-7.4L97.8,38.1L97.8,38.1z"/>
		<path class="st0" d="M226.9,38.1c3.4,0,4.4,0.2,5.5,1l0.4-0.2l-1.3-3.3c-1.2,0.1-2.8,0.2-4.8,0.2h-10.1v0.4
			c0.9,0.5,1.3,1.1,1.3,3.6v14.6c0,2.4-0.4,3.1-1.3,3.6v0.4h10.9c2.2,0,3.5,0,4.8,0.2l1.9-3.9l-0.4-0.3c-1.4,0.9-2.6,1.6-6.6,1.6
			h-5.7v-7.9h4.8c1.2,0,2.6,0.1,3.5,0.2l1.6-3l-0.3-0.3c-1,0.4-2.3,0.7-4.6,0.7h-5v-7.4L226.9,38.1L226.9,38.1z"/>
		<path class="st0" d="M206.6,38.1c3.4,0,4.4,0.2,5.4,1l0.4-0.2l-1.3-3.3c-1.2,0.1-2.8,0.2-4.8,0.2h-10.1v0.4
			c0.9,0.5,1.3,1.1,1.3,3.6v14.6c0,2.4-0.4,3.1-1.3,3.6v0.4h10.9c2.2,0,3.6,0,4.8,0.2l1.9-3.9l-0.4-0.3c-1.4,0.9-2.6,1.6-6.6,1.6
			h-5.7v-7.9h4.8c1.2,0,2.6,0.1,3.5,0.2l1.6-3l-0.3-0.3c-1,0.4-2.3,0.7-4.6,0.7h-5v-7.4L206.6,38.1L206.6,38.1z"/>
		<path class="st0" d="M128.8,39.9c0-2.6,0.5-3.2,1.4-3.7v-0.4h-5.6v0.4c0.9,0.6,1.4,1.2,1.4,3.7V52l-16.1-16.4h-1.3v18.6
			c0,2.6-0.5,3.2-1.4,3.7v0.4h5.6v-0.4c-0.9-0.6-1.4-1.2-1.4-3.7V42l16.2,16.4h1.3L128.8,39.9L128.8,39.9z"/>
		<path class="st0" d="M192,39.9c0-2.6,0.5-3.2,1.4-3.7v-0.4h-5.6v0.4c0.9,0.6,1.4,1.2,1.4,3.7V52l-16.1-16.4h-1.3v18.6
			c0,2.6-0.5,3.2-1.4,3.7v0.4h5.6v-0.4c-0.9-0.6-1.4-1.2-1.4-3.7V42l16.2,16.4h1.3L192,39.9L192,39.9z"/>
		<path class="st0" d="M292.7,39.9c0-2.6,0.5-3.2,1.4-3.7v-0.4h-5.6v0.4c0.9,0.6,1.4,1.2,1.4,3.7V52l-16.1-16.4h-1.3v18.6
			c0,2.6-0.5,3.2-1.4,3.7v0.4h5.6v-0.4c-0.9-0.6-1.4-1.2-1.4-3.7V42l16.2,16.4h1.3L292.7,39.9L292.7,39.9z"/>
		<path class="st0" d="M154.6,55.3l0.1-0.2V50l2.1-1.9v-0.2H148l-1.7,2v0.2h4.9v4.7c-1.2,0.7-2.7,1.2-4.6,1.2
			c-5.9,0-9.6-3.9-9.6-9.9c0-5.6,3.1-8.8,8.3-8.8c3.3,0,6,1.2,7.2,2.7l0.4-0.1v-3.5c-1.3-0.9-3.9-1.7-7.2-1.7
			c-7.9,0-12.5,5.4-12.5,12.1c0,6,4,11.5,12.2,11.5C149.1,58.4,152.5,57.3,154.6,55.3"/>
		<path class="st0" d="M318.6,55.3l0.1-0.2V50l2.1-1.9v-0.2h-8.8l-1.7,2v0.2h4.9v4.7c-1.2,0.7-2.7,1.2-4.6,1.2
			c-5.9,0-9.5-3.9-9.5-9.9c0-5.6,3.1-8.8,8.3-8.8c3.3,0,6,1.2,7.2,2.7l0.4-0.1v-3.5c-1.3-0.9-3.9-1.7-7.2-1.7
			c-7.9,0-12.5,5.4-12.5,12.1c0,6,4,11.5,12.2,11.5C313,58.4,316.4,57.3,318.6,55.3"/>
		<path class="st0" d="M166.1,58c-0.9-0.5-1.3-1.1-1.3-3.6V39.8c0-2.4,0.4-3.1,1.3-3.6v-0.4H160v0.4c0.9,0.5,1.3,1.1,1.3,3.6v14.6
			c0,2.4-0.4,3.1-1.3,3.6v0.4h6.1V58z"/>
		<path class="st0" d="M266.5,58c-0.9-0.5-1.3-1.1-1.3-3.6V39.8c0-2.4,0.4-3.1,1.3-3.6v-0.4h-6.1v0.4c0.9,0.5,1.3,1.1,1.3,3.6v14.6
			c0,2.4-0.4,3.1-1.3,3.6v0.4h6.1V58z"/>
		<path class="st0" d="M242.9,58.4h-6.1V58c0.7-0.4,1.3-1.1,1.3-3.6V39.8c0-2.4-0.5-3.2-1.3-3.6v-0.4h8.1c6,0,8.8,2.4,8.8,6.6
			c0,2.8-1.7,5.2-5,6.1c1,0.4,1.8,1.3,3.3,3.2l2.8,3.6c1.5,2,2.2,2.5,3,2.8v0.4h-4c-0.8,0-1.3-0.3-1.9-1.1l-4-5.4
			c-1.6-2.1-1.9-2.5-3-2.5h-1l-1-2V47h2.1c3.3,0,5-1.7,5-4.5c0-3-1.8-4.4-5.4-4.4h-2.9v16.2c0,2.4,0.5,3.2,1.3,3.6L242.9,58.4
			L242.9,58.4z"/>
	</g>
	<g>
		<path class="st0" d="M75.5,61.9V0H0v61.9c0,0.9,0,1.7,0.1,2.6l0,0l0,0c0,0.2,0,0.3,0,0.5c0,0,0,0.1,0,0.1c0,0,0,0,0,0
			c0,0.2,0,0.4,0.1,0.6c0,0.1,0,0.2,0,0.3c0,0.1,0,0.2,0,0.2c0,0.1,0,0.2,0.1,0.4c0,0.3,0.1,0.5,0.1,0.8v0c0,0,0,0.1,0,0.1l0,0
			c4.7,22.7,37.2,30.4,37.2,30.4s32.5-7.7,37.2-30.4l0,0c0,0,0,0,0,0v0c0-0.2,0.1-0.3,0.1-0.4c0.1-0.4,0.1-0.8,0.2-1.2
			c0-0.1,0.1-0.3,0.1-0.4c0-0.1,0-0.2,0-0.2c0-0.2,0-0.3,0.1-0.5c0,0,0,0,0,0c0-0.1,0-0.1,0-0.2l0,0l0,0l0,0
			C75.4,63.7,75.5,62.8,75.5,61.9z M68.6,62.1L68.6,62.1L68.6,62.1c-1.8,0-3.5,0.5-5.1,1.4c-1.6,1-3.4,1.4-5.2,1.4s-3.6-0.5-5.1-1.4
			c-1.6-1-3.4-1.4-5.1-1.4c-1.8,0-3.6,0.5-5.2,1.4h0c-1.1,0.7-2.2,1.1-3.4,1.3c-0.3,0.1-0.6,0.1-0.9,0.1c-0.6,0.1-1.2,0.1-1.7,0
			c-0.3,0-0.6-0.1-0.9-0.1c-1.2-0.2-2.4-0.6-3.4-1.3c-1.6-1-3.4-1.4-5.2-1.4c-1.8,0-3.6,0.5-5.1,1.4c-1.6,1-3.4,1.4-5.2,1.4
			c-1.8,0-3.6-0.5-5.1-1.4h0c-1.6-0.9-3.3-1.4-5.1-1.4l0,0c0-0.1,0-0.1,0-0.2v-3.1c0.1,0,0.2,0,0.3,0c1.7,0.1,3.3,0.5,4.8,1.4l0,0
			c1.6,1,3.4,1.4,5.1,1.4c1.8,0,3.6-0.5,5.2-1.4c3.2-1.9,7.1-1.9,10.3,0v0c3.1,1.9,7.1,1.9,10.3,0l0,0c1.6-1,3.4-1.4,5.1-1.4
			c1.8,0,3.6,0.5,5.2,1.4c3.2,1.9,7.1,1.9,10.3,0v0c1.5-0.9,3.2-1.4,4.8-1.4c0.1,0,0.2,0,0.3,0v3.1C68.6,62,68.6,62,68.6,62.1z
			 M54.2,57.5c-0.4-0.2-0.7-0.3-1.1-0.5c-1.6-1-3.4-1.4-5.1-1.4c-1.8,0-3.6,0.5-5.2,1.4h0c-1.1,0.7-2.2,1.1-3.4,1.3
			c-0.3,0.1-0.6,0.1-0.9,0.1c-0.6,0.1-1.2,0.1-1.7,0c-0.3,0-0.6-0.1-0.9-0.1c-0.1,0-0.2-0.1-0.3-0.1l32.9-32.8v7.7L54.2,57.5z
			 M68.6,38.3v17.2l0,0c-1.8,0-3.5,0.5-5.1,1.4c-0.8,0.5-1.7,0.8-2.5,1.1L68.6,38.3z M68.6,23.9L34.2,51.3
			c-1.8-3.5-3.6-8.3-5.4-13.6l39.8-18.2L68.6,23.9L68.6,23.9z M22.7,51.3h11.4l-5.4,4.3c-0.4-0.1-0.8-0.1-1.3-0.1
			c-1.6,0-3.3,0.4-4.8,1.2L22.7,51.3L22.7,51.3z M68.6,18.3L27.1,32.5c-1.3-4.1-2.5-8.3-3.5-12.2l45-5.1L68.6,18.3L68.6,18.3z
			 M6.9,49.7V22.2l9.6-1.1C13.9,30.8,10.3,42.2,6.9,49.7z M6.9,51.3h10.8v7c-0.2,0-0.3,0-0.5,0c-1.8,0-3.6-0.5-5.1-1.4h0
			c-1.6-0.9-3.3-1.4-5.1-1.4l0,0L6.9,51.3L6.9,51.3z M68.6,14.2l-46.3,1.2c-0.8-3.4-1.5-6.3-1.9-8.5h48.2V14.2z M19.9,6.8
			c-0.4,2.2-1.1,5.1-2,8.6l-11,0.3V6.8H19.9z M37.7,90.8C31.6,89,9.9,81.4,7.2,65.4l0,0l0,0c1.7,0.1,3.3,0.5,4.8,1.4h0
			c1.6,1,3.4,1.4,5.1,1.4c1.8,0,3.6-0.5,5.2-1.4c3.2-1.9,7.1-1.9,10.3,0v0c3.1,1.9,7.1,1.9,10.3,0l0,0c1.6-1,3.4-1.4,5.1-1.4
			c1.8,0,3.6,0.5,5.2,1.4c3.2,1.9,7.1,1.9,10.3,0v0c1.5-0.9,3.2-1.4,4.8-1.4l0,0C65.5,81.4,43.9,89,37.7,90.8z"/>
		<polygon class="st0" points="23,74.6 25.2,74.1 25.2,80.4 27,80.4 27,72.2 23,73 		"/>
		<polygon class="st0" points="45.3,75.4 46.8,75.4 46.8,73.8 50.2,73.8 46.8,81.9 48.7,81.9 51.9,73.8 51.9,72.4 45.3,72.4 		"/>
		<path class="st0" d="M34,75.5L34,75.5c1-0.3,1.6-1.1,1.6-2.2c0-1.5-1.2-2.6-3.2-2.6c-2,0-3.2,1.1-3.2,2.6c0,1.1,0.6,1.9,1.6,2.2v0
			c-1.1,0.3-1.9,1.2-1.9,2.3c0,1.7,1.4,2.7,3.5,2.7c2.1,0,3.5-1.1,3.5-2.7C35.9,76.7,35.1,75.8,34,75.5z M32.4,71.9
			c0.9,0,1.5,0.5,1.5,1.4c0,1-0.7,1.4-1.5,1.4s-1.5-0.5-1.5-1.4C30.9,72.4,31.5,71.9,32.4,71.9z M32.4,79.2c-1,0-1.8-0.6-1.8-1.6
			s0.7-1.6,1.8-1.6s1.8,0.6,1.8,1.6S33.5,79.2,32.4,79.2z"/>
		<path class="st0" d="M41.3,72.1c0.8,0,1.4,0.4,1.7,1.2l1.2-0.8c-0.5-1.1-1.5-1.8-2.9-1.8c-2.5,0-4.1,2.2-4.1,5.2
			c0,1.2,0.3,2.3,0.8,3.2c0.6,0.9,1.6,1.5,2.9,1.5c2,0,3.3-1.4,3.3-3.2c0-1.7-1.1-3-2.9-3c-1.1,0-2,0.6-2.4,1.6h0v-0.2
			C38.8,73.6,39.7,72.1,41.3,72.1z M40.8,75.7c1,0,1.7,0.7,1.7,1.8s-0.7,1.8-1.7,1.8c-1,0-1.7-0.7-1.7-1.8S39.9,75.7,40.8,75.7z"/>
	</g>
</g>
</svg>
