<?xml version="1.0" encoding="utf-8"?>
<!-- Generator: Adobe Illustrator 23.0.6, SVG Export Plug-In . SVG Version: 6.00 Build 0)  -->
<svg version="1.1" id="Layer_1" xmlns="http://www.w3.org/2000/svg" xmlns:xlink="http://www.w3.org/1999/xlink" x="0px" y="0px"
	 viewBox="0 0 535.8 599" style="enable-background:new 0 0 535.8 599;" xml:space="preserve">
<style type="text/css">
	.st0{fill:#003846;}
	.st1{fill:#00703C;}
</style>
<g>
	<g>
		<g>
			<path class="st0" d="M33.9,492.7c0,5.3,1.8,7.1,7.7,7.1h3.6v1.8H14.5v-1.8h3.6c5.9,0,7.7-1.9,7.7-7.1v-48.1H8.9
				c-3.9,0-5.6,2.2-7.1,10.8H0l1.6-15.8h1.8c0.1,0.6,0.5,1,1.1,1.2s1.3,0.3,2,0.3h46.8c1.4,0,2.8-0.3,3-1.5h1.9l1.6,15.8H58
				c-1.5-8.6-3.2-10.8-7.1-10.8h-17V492.7z"/>
			<path class="st0" d="M108.6,472.8v18.5c0,6.3,1.3,8.6,7.8,8.6h0.3v1.8H92.2v-1.8h0.6c5.7,0,7.7-1.6,7.7-7.1V450
				c0-5.1-1.7-6.5-7-6.9v-1.8h23.2v1.8c-6.9,0-8.1,1.8-8.1,9.3v16.9h38.1v-19.2c0-5.2-1.7-7.1-7.7-7.1h-1.8v-1.8h25v1.8
				c-5.8,0.2-7.4,1.9-7.4,8v40.4c0,6.9,1.9,8.5,7.8,8.5h1v1.8H136v-1.8h3c6.3,0,7.7-2.2,7.7-7.3v-19.7L108.6,472.8L108.6,472.8z"/>
			<path class="st0" d="M213.5,474.6l-5.7,15.3c-0.7,1.8-1.9,4.8-1.9,6.1c0,2.6,2.5,3.6,7.9,3.6h1.6v1.8h-22.6v-1.8
				c6.4-0.1,7.4-1.2,10.6-9.6l17.7-48.3l-0.9-2.1h8.5l20.3,54c1.9,5.1,4,6.1,8.9,6.1v1.8h-26.7v-1.8h2.5c5.5,0,7.6-0.6,7.6-3.3
				c0-1.6-0.7-3-1.1-4l-6.5-17.7h-20.2V474.6z M223.4,447.7l-8.3,22.7H232L223.4,447.7z"/>
			<path class="st0" d="M325.1,449.8c3.1-5.4,1.3-7-5-7V441h22v1.8c-6.6,0.5-9.4,3.1-12.2,7.7l-16.2,27.3v14.6
				c0,5.2,1.8,7.2,7.8,7.2h1.3v1.8H296v-1.8h1.8c6,0,7.8-2.2,7.8-7v-13.7l-17.3-27.1c-4.8-7.5-7-8.9-13.3-9V441h26v1.8
				c-7.6,0-8.1,1.8-5.2,6.3l15.6,24L325.1,449.8z"/>
			<path class="st0" d="M415.6,479.6h-1.8c-0.8-6.9-2.6-7.7-6.6-7.7h-16.4v20.7c0,4.5,1.7,5.3,5.3,5.3h15c6.8,0,8.8-2.6,11.3-11h1.8
				l-1.6,14.5h-51.7v-1.8h2.7c7.8,0,9.1-2.1,9.1-8v-41.1c0-5.4-1.3-7.8-7.8-7.8h-2.1V441h46.7l0.8,13.5h-1.7c-1.3-8.3-3.7-10-7.2-10
				h-20.5v23.9h17.4c3.5,0,5.2-1.6,5.6-7.3h1.8L415.6,479.6L415.6,479.6z"/>
			<path class="st0" d="M477.4,492.3c0,5.8,2.4,7.3,7.9,7.3h2.3v1.8h-27.8v-1.8h1.6c5.8,0,7.8-1.6,7.8-8.1v-41c0-6-1.7-7.8-7.3-7.8
				h-2.1V441c2.3,0,8.3-0.4,12.3-0.6c4.1-0.2,6-0.3,12.5-0.3c18.2,0,26.3,7.4,26.3,17.3c0,7.3-5,13.4-13,15.8
				c3.6,2.8,6.5,5.5,11.1,10.1l7.7,7.7c5.7,5.7,11.7,9.3,19.2,9.8v1.8c-17,0.8-21.4-2.9-30.1-11.6l-6.4-6.4
				c-4.3-4.3-7.8-7.1-10.1-8.7c-2.5,0.1-4,0.2-6.7,0.2c-2.2,0-3.5-0.1-5-0.2v16.4H477.4z M477.4,474c2.4,0.3,3.9,0.2,6.1,0.2
				c11,0,18.1-4.6,18.1-16.2c0-9-4.1-16-19.3-16c-1.9,0-3.2,0-4.9,0.2L477.4,474L477.4,474z"/>
			<path class="st0" d="M9.2,582.6c2,8.7,8.8,13.7,16.4,13.7c6.5,0,13.4-3.8,13.4-11.5c0-14-31.2-18.3-31.2-35.3
				c0-8.1,7.4-14.1,17.3-14.1c8.2,0,9.8,2.4,13.2,2.4c0.8,0,1.2-0.2,1.7-1h1.6l1.7,12.4h-1.7c-2.7-7-8.9-11.5-15.7-11.5
				c-6.4,0-10.9,3.7-10.9,9.1c0,13.8,31.2,17.5,31.2,35.4c0,9.5-8.5,16.6-19.9,16.6c-5.3,0-12.2-2.6-13.5-2.6
				c-0.9,0-1.6,0.5-1.9,1.1H9.4l-2-14.8L9.2,582.6L9.2,582.6z"/>
			<path class="st0" d="M138.1,552.9c-3.2-9-11.6-15-22.2-15c-16.2,0-26.4,11.8-26.4,28.1c0,17.6,12.6,30.5,27.4,30.5
				c7.7,0,17.1-2.6,23.7-14.4h1.8c-1.3,4.4-3.9,10.4-6.2,14.2c-6.2-0.9-10.5,2.6-22,2.6c-19.7,0-33.9-13-33.9-31
				c0-18.9,14.6-32.5,34.9-32.5c12.3,0,17.5,3.9,20.5,3.9c1.1,0,1.6-0.3,1.8-0.6h1.5l0.9,14.1h-1.8V552.9z"/>
			<path class="st0" d="M190.1,568.5V587c0,6.3,1.3,8.6,7.8,8.6h0.3v1.8h-24.5v-1.8h0.6c5.7,0,7.7-1.6,7.7-7.1v-42.8
				c0-5.1-1.6-6.5-7-6.9V537h23.2v1.8c-6.9,0-8.1,1.8-8.1,9.3V565h38.2v-19.2c0-5.2-1.7-7.1-7.7-7.1h-1.9v-1.8h25v1.8
				c-5.8,0.2-7.4,1.9-7.4,8v40.4c0,6.9,1.9,8.5,7.8,8.5h1v1.8h-27.5v-1.8h3c6.3,0,7.7-2.2,7.7-7.3v-19.7h-38.2V568.5z"/>
			<path class="st0" d="M313.2,599c-19.1,0-35.1-12.3-35.1-30.4c0-19.4,14.9-33.1,35.6-33.1c18.4,0,34.1,12.5,34.1,30.1
				C347.8,585.1,332.1,599,313.2,599z M311.2,537.9c-17.1,0-23.9,16-23.9,27.6c0,18.2,12.4,31,28,31c15.9,0,23.4-14,23.4-27.8
				C338.7,550.6,327.2,537.9,311.2,537.9z"/>
			<path class="st0" d="M417.8,599c-19.1,0-35.1-12.3-35.1-30.4c0-19.4,14.9-33.1,35.6-33.1c18.4,0,34.1,12.5,34.1,30.1
				C452.5,585.1,436.7,599,417.8,599z M415.8,537.9c-17.1,0-23.9,16-23.9,27.6c0,18.2,12.4,31,28,31c15.9,0,23.4-14,23.4-27.8
				C443.3,550.6,431.8,537.9,415.8,537.9z"/>
			<path class="st0" d="M527.5,597.4H484v-1.8h3.2c4.5,0,6.1-1.5,6.1-6.4V546c0-5.2-1.6-7.3-7.7-7.3h-1.4v-1.8H513v1.8h-3.6
				c-6.3,0-8,0.7-8,6.7v44.9c0,2.6,1.1,3.6,3.9,3.6h14.3c5.7,0,7.5-2.2,13.6-10.7h1.8L527.5,597.4z"/>
		</g>
		<g>
			<polygon class="st1" points="431.4,115.1 141.1,217.7 125.7,257.3 431.4,119 			"/>
			<polygon class="st1" points="431.4,132.6 212.8,300.5 248.1,310 431.4,139.6 			"/>
			<polygon class="st1" points="431.4,152.4 346.2,298.2 377.1,302.2 431.4,155.5 			"/>
			<polygon class="st1" points="431.4,101.7 106.8,101.5 106.9,128.5 431.4,105.5 			"/>
			<g>
				<path class="st1" d="M398.1,296.9c-43.9-10.9-71.5-3.8-95.9,2.6c-12.5,3.3-23.3,6.1-35,6.1c-11.7,0-22.5-2.8-35-6.1
					c-24.2-6.3-51.7-13.4-95.1-2.8l3.2,12.9c40.2-9.9,65.9-3.2,88.6,2.7c12.9,3.3,25,6.5,38.4,6.5s25.5-3.2,38.4-6.5
					c22.8-5.9,48.7-12.7,89.3-2.5L398.1,296.9z"/>
			</g>
			<g>
				<path class="st1" d="M368.3,321.6c-29.6-4-50.4,1.4-68.8,6.2c-11.6,3-21.6,5.6-32.4,5.6s-20.8-2.6-32.4-5.6
					c-19-4.9-40.5-10.5-71.7-5.8l1.9,12.2c28.7-4.4,48,0.7,66.7,5.5c11.9,3.1,23.1,6,35.5,6s23.6-2.9,35.5-6
					c18.1-4.7,36.8-9.6,64.1-5.9L368.3,321.6z"/>
			</g>
			<path class="st1" d="M178.5,299v-39.3h-61c31.3-64.1,66.4-200.9,74.3-244.4c7.3,43.9,43.3,182.4,74.3,244.4h-61V299H178.5z"/>
			<g>
				<path class="st1" d="M239.1,49.8h-7.2v-4.5l14.3-2.2v34h-7.1V49.8z"/>
				<path class="st1" d="M299.3,44.8c1,1,1.6,2.7,1.6,5.2v3.1c0,2-0.5,3.4-1.4,4.4c-1,1-2.6,1.7-5,2.2c2.5,0.3,4.3,1,5.5,2
					c1.2,1.1,1.8,2.7,1.8,4.7v3.5c0,2.7-0.6,4.6-1.8,5.7c-1.2,1-3.3,1.6-6.4,1.6H272c-3.1,0-5.2-0.5-6.3-1.6c-1.2-1-1.8-2.9-1.8-5.7
					v-3.5c0-2,0.6-3.6,1.8-4.7c1.2-1,3-1.8,5.4-2c-2.4-0.5-4.1-1.2-5-2.2c-1-1-1.4-2.5-1.4-4.4V50c0-2.5,0.5-4.2,1.6-5.2
					c1-0.9,3.1-1.4,6.1-1.4h21.1C296.1,43.4,298.2,43.9,299.3,44.8z M274,62.5c-1.3,0-2.2,0.2-2.5,0.6c-0.5,0.4-0.7,1.2-0.7,2.5v2.5
					c0,1.2,0.2,2,0.6,2.4c0.5,0.4,1.3,0.6,2.6,0.6h17.3c1.3,0,2.2-0.2,2.5-0.6c0.5-0.4,0.7-1.2,0.7-2.4v-2.5c0-1.2-0.2-2.1-0.7-2.5
					c-0.4-0.4-1.2-0.6-2.5-0.6H274z M274.7,49.2c-1.3,0-2.2,0.2-2.6,0.6c-0.5,0.5-0.7,1.2-0.7,2.5V54c0,1.2,0.2,2,0.7,2.4
					c0.5,0.5,1.3,0.7,2.6,0.7h15.8c1.2,0,2.1-0.2,2.6-0.6c0.5-0.5,0.7-1.2,0.7-2.5v-1.7c0-1.2-0.2-2.1-0.7-2.5s-1.3-0.6-2.6-0.6
					C290.5,49.2,274.7,49.2,274.7,49.2z"/>
				<path class="st1" d="M329.2,56c2.5-0.3,4.9-0.3,7.3-0.3c5.4,0,9.2,0.7,11.2,1.9s3.1,3.5,3.1,6.8V69c0,2.8-1,4.9-2.8,6.2
					c-1.9,1.4-4.8,2-8.8,2H325c-4.3,0-7.2-0.7-8.8-2.2c-1.6-1.5-2.4-4.2-2.4-8.2v-4.4c0-6.3,2.2-11.1,6.5-14.6s10.5-5.2,18.4-5.2
					c0.3,0,0.7,0,1,0c0.3,0.1,0.8,0.1,1.4,0.1l4.6,5.4h-2.2c-7.2,0-12.4,0.7-15.6,2s-5.4,3.5-6.5,6.7
					C324.2,56.4,326.7,56.2,329.2,56z M321.1,62.8c-0.1,0.3-0.1,0.7-0.1,1.1c0,3.3,0.5,5.3,1.3,6c0.8,0.8,2.7,1.2,5.7,1.2h9.4
					c2.4,0,3.9-0.3,4.8-0.9c0.8-0.6,1.3-1.6,1.3-3.2v-1.8c0-1.6-0.5-2.7-1.5-3.2c-1-0.6-2.9-0.9-6-0.9c-2.4,0-4.8,0.1-7.3,0.2
					c-2.6,0.1-5,0.3-7.7,0.6C321.1,62.2,321.1,62.5,321.1,62.8z"/>
				<path class="st1" d="M386.9,49.2h-22.3v7.3l-7.1-1.2V43.4H395v5.4l-17.7,28.9h-8.6L386.9,49.2z"/>
			</g>
			<path class="st1" d="M98.3,0v231.1c0,76.3,99.9,140.8,169.4,162.2c69.5-21.4,169.4-85.9,169.4-162.2V0H98.3z M423.1,231.1
				c0,56.2-63.5,98.9-121.4,123.3c-7.5,2.8-23.8,6.1-34.1,6.1c-10.9,0-28.4-3.9-34.5-6.5l0,0c-57.7-24.5-120.6-67-120.6-123
				c0,0,0-191.7,0-203.1C133,24.2,203.1,11.1,267,11.1c64,0,135.7,12.6,156.1,16.9C423.1,39.5,423.1,231.1,423.1,231.1z"/>
		</g>
	</g>
</g>
</svg>
