<?xml version="1.0" encoding="utf-8"?>
<!-- Generator: Adobe Illustrator 24.0.1, SVG Export Plug-In . SVG Version: 6.00 Build 0)  -->
<svg version="1.1" id="Layer_1" xmlns="http://www.w3.org/2000/svg" xmlns:xlink="http://www.w3.org/1999/xlink" x="0px" y="0px"
	 viewBox="0 0 380.73 157.93" style="enable-background:new 0 0 380.73 157.93;" xml:space="preserve">
<style type="text/css">
	.st0{fill:#FFFFFF;}
</style>
<g>
	<path class="st0" d="M127.6,30.54h-10.15v0.43c0.9,0.54,1.31,1.17,1.31,3.72v15.14c0,2.55-0.4,3.18-1.31,3.72v0.43h9.51
		c8.84,0,13.4-5.22,13.4-12.36C140.36,35.19,135.94,30.54,127.6,30.54 M126.7,51.43h-4.25V33.08H127c6.1,0,9.45,3.08,9.45,9.44
		C136.45,48.05,133.4,51.43,126.7,51.43 M219.03,53.54c-1.04-0.43-1.47-1.24-1.14-3.82l1.54-11.66l7.64,15.61h1.41l7.74-15.64
		l1.44,11.82c0.3,2.51-0.03,3.25-1.01,3.68v0.43H243v-0.43c-0.87-0.47-1.24-1.17-1.57-3.55l-2.68-19.73h-1.71l-8.74,18.05
		l-8.74-18.05h-1.71l-2.78,19.59c-0.34,2.45-0.84,3.18-1.81,3.68v0.43h5.76V53.54z M204.59,53.54c-1.01-0.57-1.47-1.24-1.47-3.89
		V33.08h2.85c3.65,0,4.35,0.54,5.33,1.74l0.43-0.13l-0.7-4.45c-1.37,0.17-3.18,0.3-5.46,0.3h-8.61c-2.28,0-4.09-0.13-5.46-0.3
		l-0.7,4.45l0.44,0.13c0.97-1.2,1.67-1.74,5.32-1.74h2.85v16.58c0,2.65-0.47,3.32-1.47,3.89v0.43h6.66V53.54z M175.08,53.98h-6.33
		v-0.43c0.74-0.37,1.3-1.17,1.3-3.72V34.69c0-2.54-0.57-3.35-1.3-3.72v-0.43h8.44c6.23,0,9.11,2.48,9.11,6.8
		c0,2.95-1.78,5.39-5.23,6.3c1.01,0.4,1.84,1.37,3.38,3.32l2.88,3.68c1.61,2.08,2.28,2.58,3.15,2.91v0.43h-4.12
		c-0.87,0-1.34-0.27-2.01-1.17l-4.19-5.63c-1.64-2.21-1.98-2.58-3.08-2.58h-1.01l-1.04-2.11v-0.34h2.21c3.38,0,5.16-1.78,5.16-4.62
		c0-3.11-1.88-4.55-5.59-4.55h-3.05v16.85c0,2.55,0.57,3.35,1.31,3.72V53.98z M163.33,50.36l-9.08-20.09h-1.37l-9.08,20.09
		c-0.9,1.98-1.37,2.71-2.38,3.18v0.43h6.03v-0.43c-1.21-0.47-1.61-1.21-0.54-3.65l1.24-2.85h9.65l1.24,2.85
		c1.07,2.45,0.7,3.18-0.37,3.65v0.43h6.87v-0.43C164.67,53.08,164.23,52.34,163.33,50.36 M149.23,44.64l3.75-8.57l3.75,8.57H149.23z
		 M333.58,30.97c-0.9,0.54-1.31,1.17-1.31,3.72v6.03h13.43v-6.03c0-2.54-0.4-3.18-1.31-3.72v-0.43h6.33v0.43
		c-0.9,0.54-1.31,1.17-1.31,3.72v15.14c0,2.55,0.4,3.18,1.31,3.72v0.43h-6.33v-0.43c0.91-0.54,1.31-1.17,1.31-3.72V43.3h-13.43v6.53
		c0,2.55,0.4,3.18,1.31,3.72v0.43h-6.33v-0.43c0.9-0.54,1.31-1.17,1.31-3.72V34.69c0-2.54-0.4-3.18-1.31-3.72v-0.43h6.33V30.97z
		 M316.16,53.98h-6.66v-0.43c1.01-0.57,1.47-1.24,1.47-3.89V33.08h-2.85c-3.65,0-4.35,0.54-5.32,1.74l-0.44-0.13l0.7-4.45
		c1.37,0.17,3.18,0.3,5.46,0.3h8.61c2.28,0,4.09-0.13,5.46-0.3l0.7,4.45l-0.43,0.13c-0.97-1.2-1.67-1.74-5.33-1.74h-2.85v16.58
		c0,2.65,0.47,3.32,1.47,3.89V53.98z M292.92,30.54h5.79v0.43c-0.97,0.57-1.47,1.24-1.47,3.88v10.01c0,6.2-3.62,9.61-9.71,9.61
		c-6.13,0-9.71-3.38-9.71-9.14V34.69c0-2.54-0.4-3.18-1.31-3.72v-0.43h6.33v0.43c-0.9,0.54-1.3,1.17-1.3,3.72V45.1
		c0,4.12,2.28,6.43,6.5,6.43c4.05,0,6.36-2.38,6.36-6.66V34.86c0-2.65-0.5-3.32-1.47-3.88V30.54z M259.13,30
		c-7.5,0-12.39,5.79-12.39,12.42c0,6.3,4.49,12.06,12.43,12.06c7.5,0,12.39-5.79,12.39-12.42C271.56,35.76,267.07,30,259.13,30
		 M259.47,51.9c-4.96,0-8.78-4.32-8.78-10.21c0-5.63,3.25-9.11,8.14-9.11c4.96,0,8.77,4.32,8.77,10.21
		C267.6,48.42,264.36,51.9,259.47,51.9"/>
	<g>
		<path class="st0" d="M218.33,103.47c0,2.7,2.25,3.6,4.2,4.33c1.59,0.6,3.27,1.1,3.27,2.96c0,1.57-1.06,2.43-2.81,2.43
			c-1.83,0-3.49-0.8-4.48-1.95l-0.27,0.13l0.62,2.7c0.84,0.46,2.3,0.84,3.73,0.84c3.2,0,5.5-1.9,5.5-4.84c0-2.7-2.23-3.6-4.2-4.33
			c-1.59-0.6-3.27-1.11-3.27-2.96c0-1.46,1.04-2.34,2.7-2.34c1.35,0,2.78,0.6,3.42,1.48l0.27-0.04v-2.3
			c-0.77-0.49-2.03-0.82-3.4-0.82C220.52,98.76,218.33,100.71,218.33,103.47"/>
		<path class="st0" d="M238.92,114.91c2.26,0,4.05-0.51,4.91-1.13v-2.41l-0.27-0.04c-0.8,1.04-2.68,1.88-4.91,1.88
			c-0.42,0-0.81-0.03-1.19-0.09c-3.04-0.71-4.49-3.1-4.5-6.5c0-0.03,0-0.07,0-0.1c0.02-3.82,2.14-5.99,5.69-5.99
			c2.24,0,4.12,0.84,4.91,1.88l0.27-0.04v-2.41c-0.86-0.62-2.66-1.13-4.91-1.13c-4.69,0-7.67,2.8-8.39,6.53
			c-0.11,0.4-0.17,0.82-0.17,1.24c0,0.09,0.01,0.18,0.01,0.28c0,0.09-0.01,0.18-0.01,0.28c0,4.14,2.8,7.77,8.38,7.77l0-0.01
			C238.8,114.91,238.86,114.91,238.92,114.91"/>
		<path class="st0" d="M250.27,99.74c-0.6,0.35-0.86,0.77-0.86,2.45v3.98h8.86v-3.98c0-1.68-0.27-2.1-0.86-2.45v-0.29h4.18v0.29
			c-0.6,0.35-0.86,0.77-0.86,2.45v9.99c0,1.68,0.26,2.1,0.86,2.45v0.29h-4.18v-0.29c0.6-0.35,0.86-0.77,0.86-2.45v-4.31h-8.86v4.31
			c0,1.68,0.27,2.1,0.86,2.45v0.29h-4.17v-0.29c0.6-0.35,0.86-0.77,0.86-2.45v-9.99c0-1.68-0.27-2.1-0.86-2.45v-0.29h4.17V99.74z"/>
		<path class="st0" d="M272.01,98.77c-4.95,0-8.17,3.82-8.17,8.19c0,4.15,2.96,7.95,8.19,7.95c4.95,0,8.17-3.82,8.17-8.2
			C280.21,102.56,277.25,98.77,272.01,98.77 M272.23,113.21c-3.27,0-5.79-2.85-5.79-6.74c0-3.71,2.14-6.01,5.37-6.01
			c3.27,0,5.79,2.85,5.79,6.74C277.6,110.91,275.46,113.21,272.23,113.21"/>
		<path class="st0" d="M290.64,98.77c-4.95,0-8.17,3.82-8.17,8.19c0,4.15,2.96,7.95,8.2,7.95c4.95,0,8.17-3.82,8.17-8.2
			C298.83,102.56,295.87,98.77,290.64,98.77 M290.86,113.21c-3.27,0-5.79-2.85-5.79-6.74c0-3.71,2.14-6.01,5.37-6.01
			c3.27,0,5.79,2.85,5.79,6.74C296.23,110.91,294.08,113.21,290.86,113.21"/>
		<path class="st0" d="M312.16,114.91l1.5-2.76l-0.22-0.2c-1.15,0.8-1.83,1.17-4.2,1.17h-4.2v-11.05c0-1.68,0.26-2.1,0.86-2.45
			v-0.29h-4.17v0.29c0.6,0.35,0.86,0.77,0.86,2.45v9.99c0,1.68-0.27,2.1-0.86,2.45v0.29h7.16
			C310.4,114.8,311.32,114.82,312.16,114.91"/>
		<path class="st0" d="M126.56,114.73h-4.4v-0.29c0.66-0.38,0.97-0.82,0.97-2.56v-10.93h-1.88c-2.41,0-2.87,0.35-3.51,1.15
			l-0.29-0.09l0.46-2.94c0.91,0.11,2.1,0.2,3.6,0.2h5.68c1.5,0,2.7-0.09,3.6-0.2l0.46,2.94l-0.29,0.09c-0.64-0.8-1.1-1.15-3.51-1.15
			h-1.88v10.93c0,1.75,0.31,2.19,0.97,2.56V114.73z M138.05,99.55c-0.6,0.35-0.86,0.77-0.86,2.45v3.98h8.86V102
			c0-1.68-0.27-2.1-0.86-2.45v-0.29h4.18v0.29c-0.6,0.35-0.86,0.77-0.86,2.45v9.99c0,1.68,0.26,2.1,0.86,2.45v0.29h-4.18v-0.29
			c0.6-0.35,0.86-0.77,0.86-2.45v-4.31h-8.86v4.31c0,1.68,0.27,2.1,0.86,2.45v0.29h-4.17v-0.29c0.6-0.35,0.86-0.77,0.86-2.45V102
			c0-1.68-0.27-2.1-0.86-2.45v-0.29h4.17V99.55z"/>
		<path class="st0" d="M156.61,108.56l2.47-5.66l2.47,5.66H156.61z M165.91,112.34l-5.99-13.25h-0.91l-5.99,13.25
			c-0.6,1.3-0.91,1.79-1.57,2.1v0.29h3.98v-0.29c-0.79-0.31-1.06-0.8-0.35-2.41l0.82-1.88h6.36l0.82,1.88
			c0.71,1.61,0.46,2.1-0.24,2.41v0.29h4.53v-0.29C166.8,114.13,166.51,113.64,165.91,112.34"/>
		<path class="st0" d="M188.85,100.81c2.3,0,3.03,0.15,3.73,0.66l0.24-0.15l-0.88-2.27c-0.82,0.09-1.92,0.11-3.27,0.11h-6.89v0.29
			c0.6,0.35,0.86,0.77,0.86,2.45v9.99c0,1.68-0.26,2.1-0.86,2.45v0.29h7.47c1.5,0,2.43,0.02,3.27,0.11l1.28-2.65l-0.24-0.18
			c-0.95,0.64-1.79,1.06-4.55,1.06h-3.91v-5.41h3.31c0.84,0,1.79,0.07,2.41,0.15l1.08-2.08l-0.2-0.2c-0.68,0.29-1.57,0.44-3.18,0.44
			h-3.42v-5.06H188.85z"/>
		<path class="st0" d="M199.74,114.73h-4.17v-0.29c0.48-0.24,0.86-0.77,0.86-2.45V102c0-1.68-0.38-2.21-0.86-2.45v-0.29h5.57
			c4.11,0,6.01,1.64,6.01,4.48c0,1.95-1.17,3.56-3.45,4.15c0.66,0.27,1.21,0.91,2.23,2.19l1.9,2.43c1.06,1.37,1.5,1.7,2.08,1.92
			v0.29h-2.72c-0.57,0-0.88-0.18-1.33-0.77l-2.76-3.71c-1.08-1.46-1.3-1.7-2.03-1.7h-0.66l-0.68-1.39v-0.22h1.46
			c2.23,0,3.4-1.17,3.4-3.05c0-2.05-1.24-3-3.69-3h-2.01v11.11c0,1.68,0.38,2.21,0.86,2.45V114.73z"/>
		<path class="st0" d="M174.07,105.4v6.47c0,1.74,0.31,2.19,0.97,2.56v0.29h-4.4v-0.29c0.66-0.38,0.97-0.82,0.97-2.56v-6.47"/>
		<path class="st0" d="M173.97,106.59c0,0-2.7-4.36-3.18-5.12c-0.48-0.75-1.06-1.61-0.35-1.92v-0.29h-4.53v0.29
			c0.81,0.14,1.2,0.72,2.1,1.94l4.61,6.91"/>
		<path class="st0" d="M172.36,108.97c0,0,5-7.08,5.34-7.57c1.14-1.63,1.76-1.68,2.42-1.86v-0.29h-3.98v0.29
			c0.8,0.13,0.38,0.48-0.4,1.59l-3.74,5.46"/>
	</g>
	<g>
		<path class="st0" d="M127.79,68.09c3.36,0,4.42,0.23,5.45,0.97l0.36-0.23l-1.29-3.32c-1.19,0.13-2.81,0.16-4.78,0.16h-10.07v0.42
			c0.87,0.52,1.26,1.13,1.26,3.58v14.59c0,2.45-0.39,3.06-1.26,3.58v0.42h10.91c2.2,0,3.55,0.03,4.78,0.16l1.87-3.87l-0.36-0.26
			c-1.39,0.94-2.61,1.55-6.65,1.55h-5.71v-7.91h4.84c1.23,0,2.61,0.1,3.52,0.23l1.58-3.03l-0.29-0.29c-1,0.42-2.29,0.65-4.65,0.65
			h-5v-7.39H127.79z"/>
		<path class="st0" d="M256.92,68.09c3.36,0,4.42,0.23,5.45,0.97l0.36-0.23l-1.29-3.32c-1.19,0.13-2.81,0.16-4.78,0.16H246.6v0.42
			c0.87,0.52,1.26,1.13,1.26,3.58v14.59c0,2.45-0.39,3.06-1.26,3.58v0.42h10.91c2.2,0,3.55,0.03,4.78,0.16l1.87-3.87l-0.36-0.26
			c-1.39,0.94-2.61,1.55-6.65,1.55h-5.71v-7.91h4.84c1.23,0,2.61,0.1,3.52,0.23l1.58-3.03l-0.29-0.29c-1,0.42-2.29,0.65-4.65,0.65
			h-5v-7.39H256.92z"/>
		<path class="st0" d="M236.63,68.09c3.36,0,4.42,0.23,5.45,0.97l0.36-0.23l-1.29-3.32c-1.19,0.13-2.81,0.16-4.78,0.16H226.3v0.42
			c0.87,0.52,1.26,1.13,1.26,3.58v14.59c0,2.45-0.39,3.06-1.26,3.58v0.42h10.91c2.2,0,3.55,0.03,4.78,0.16l1.87-3.87l-0.36-0.26
			c-1.39,0.94-2.61,1.55-6.65,1.55h-5.71v-7.91h4.84c1.23,0,2.61,0.1,3.52,0.23l1.58-3.03l-0.29-0.29c-1,0.42-2.29,0.65-4.65,0.65
			h-5v-7.39H236.63z"/>
		<path class="st0" d="M158.82,69.86c0-2.55,0.48-3.19,1.42-3.74V65.7h-5.58v0.42c0.94,0.55,1.42,1.19,1.42,3.74v12.1l-16.14-16.4
			h-1.32v18.56c0,2.55-0.48,3.19-1.42,3.74v0.42h5.59v-0.42c-0.94-0.55-1.42-1.19-1.42-3.74v-12.1l16.2,16.4h1.26V69.86z"/>
		<path class="st0" d="M222.01,69.86c0-2.55,0.48-3.19,1.42-3.74V65.7h-5.58v0.42c0.94,0.55,1.42,1.19,1.42,3.74v12.1l-16.14-16.4
			h-1.32v18.56c0,2.55-0.48,3.19-1.42,3.74v0.42h5.59v-0.42c-0.94-0.55-1.42-1.19-1.42-3.74v-12.1l16.2,16.4h1.26V69.86z"/>
		<path class="st0" d="M322.66,69.86c0-2.55,0.48-3.19,1.42-3.74V65.7h-5.58v0.42c0.94,0.55,1.42,1.19,1.42,3.74v12.1l-16.14-16.4
			h-1.32v18.56c0,2.55-0.48,3.19-1.42,3.74v0.42h5.59v-0.42c-0.94-0.55-1.42-1.19-1.42-3.74v-12.1l16.2,16.4h1.26V69.86z"/>
		<path class="st0" d="M184.65,85.32l0.06-0.16v-5.2l2.1-1.87V77.9h-8.78l-1.74,2v0.19h4.94v4.74c-1.23,0.74-2.74,1.16-4.65,1.16
			c-5.87,0-9.55-3.87-9.55-9.88c0-5.62,3.1-8.81,8.3-8.81c3.26,0,6,1.23,7.16,2.74l0.39-0.06v-3.52c-1.26-0.9-3.87-1.65-7.17-1.65
			c-7.91,0-12.49,5.45-12.49,12.14c0,6.04,4.03,11.46,12.17,11.46C179.07,88.42,182.49,87.29,184.65,85.32"/>
		<path class="st0" d="M348.56,85.32l0.06-0.16v-5.2l2.1-1.87V77.9h-8.78l-1.74,2v0.19h4.94v4.74c-1.23,0.74-2.74,1.16-4.65,1.16
			c-5.87,0-9.55-3.87-9.55-9.88c0-5.62,3.1-8.81,8.3-8.81c3.26,0,6,1.23,7.16,2.74l0.39-0.06v-3.52c-1.26-0.9-3.87-1.65-7.17-1.65
			c-7.91,0-12.49,5.45-12.49,12.14c0,6.04,4.03,11.46,12.17,11.46C342.98,88.42,346.4,87.29,348.56,85.32"/>
		<path class="st0" d="M196.12,88c-0.87-0.52-1.26-1.13-1.26-3.58V69.83c0-2.45,0.39-3.07,1.26-3.58v-0.42h-6.1v0.42
			c0.87,0.52,1.26,1.13,1.26,3.58v14.59c0,2.45-0.39,3.07-1.26,3.58v0.42h6.1V88z"/>
		<path class="st0" d="M296.55,88c-0.87-0.52-1.26-1.13-1.26-3.58V69.83c0-2.45,0.39-3.07,1.26-3.58v-0.42h-6.1v0.42
			c0.87,0.52,1.26,1.13,1.26,3.58v14.59c0,2.45-0.39,3.07-1.26,3.58v0.42h6.1V88z"/>
		<path class="st0" d="M272.86,88.42h-6.1V88c0.71-0.36,1.26-1.13,1.26-3.58V69.83c0-2.45-0.55-3.23-1.26-3.58v-0.42h8.13
			c6,0,8.78,2.39,8.78,6.55c0,2.84-1.71,5.2-5.04,6.07c0.97,0.39,1.78,1.32,3.26,3.2l2.78,3.55c1.55,2,2.2,2.49,3.03,2.81v0.42
			h-3.97c-0.84,0-1.29-0.26-1.94-1.13l-4.03-5.42c-1.58-2.13-1.9-2.49-2.97-2.49h-0.97l-1-2.03v-0.32h2.13
			c3.26,0,4.97-1.71,4.97-4.46c0-3-1.81-4.39-5.39-4.39h-2.94v16.24c0,2.45,0.55,3.23,1.26,3.58V88.42z"/>
	</g>
	<g>
		<path class="st0" d="M105.48,91.93V30H30v61.93c0,0.87,0.04,1.72,0.12,2.56h0h0c0.01,0.15,0.03,0.31,0.05,0.46
			c0,0.03,0,0.06,0.01,0.08c0,0.01,0,0.02,0,0.03c0.02,0.19,0.04,0.37,0.07,0.56c0.01,0.11,0.03,0.23,0.05,0.34
			c0.01,0.08,0.02,0.17,0.04,0.25c0.02,0.13,0.05,0.25,0.07,0.38c0.04,0.26,0.09,0.53,0.14,0.78c0,0,0,0.01,0,0.01
			c0.01,0.04,0.02,0.08,0.02,0.12l0,0c4.69,22.69,37.18,30.44,37.18,30.44s32.48-7.74,37.18-30.42l0,0c0-0.01,0.01-0.03,0.01-0.04
			c0,0,0-0.01,0-0.01c0.03-0.15,0.06-0.3,0.09-0.45c0.07-0.38,0.14-0.76,0.19-1.15c0.03-0.14,0.05-0.29,0.06-0.43
			c0.01-0.08,0.02-0.17,0.03-0.25c0.02-0.15,0.04-0.3,0.05-0.46c0,0,0,0,0-0.01c0.01-0.07,0.02-0.13,0.02-0.19h0l0,0v0
			C105.44,93.67,105.48,92.81,105.48,91.93z M98.57,92.07C98.57,92.07,98.57,92.07,98.57,92.07C98.57,92.07,98.57,92.07,98.57,92.07
			c-1.77,0.01-3.54,0.49-5.11,1.45c-1.58,0.96-3.37,1.44-5.15,1.44c-1.78,0-3.57-0.48-5.14-1.44c-1.58-0.96-3.36-1.45-5.14-1.45
			c-1.79,0-3.57,0.49-5.15,1.45h-0.01c-1.06,0.65-2.22,1.08-3.4,1.29c-0.29,0.05-0.58,0.09-0.87,0.11c-0.57,0.05-1.15,0.05-1.73,0
			c-0.29-0.02-0.57-0.06-0.86-0.11c-1.2-0.21-2.36-0.64-3.43-1.29c-1.58-0.96-3.37-1.45-5.15-1.45c-1.78,0-3.57,0.49-5.14,1.45
			c-1.58,0.96-3.36,1.44-5.15,1.44c-1.78,0-3.57-0.48-5.14-1.44h-0.01c-1.56-0.95-3.32-1.44-5.08-1.45c0,0,0,0,0,0
			c0-0.05,0-0.1,0-0.15v-3.12c0.1,0,0.19-0.01,0.29-0.01c1.67,0.06,3.32,0.54,4.8,1.44L42,90.24c1.58,0.96,3.36,1.44,5.14,1.44
			c1.79,0,3.57-0.49,5.15-1.44c3.15-1.93,7.13-1.93,10.3-0.01v0.01c3.15,1.92,7.13,1.92,10.29,0l0.01-0.01
			c1.58-0.96,3.36-1.44,5.14-1.44c1.79,0,3.58,0.49,5.15,1.45c3.15,1.92,7.14,1.92,10.3,0v-0.01c1.48-0.9,3.15-1.38,4.82-1.44
			c0.1,0,0.19,0.01,0.29,0.01v3.12C98.57,91.98,98.57,92.03,98.57,92.07z M84.21,87.51c-0.36-0.16-0.71-0.34-1.05-0.54
			c-1.58-0.96-3.36-1.45-5.14-1.45c-1.79,0-3.57,0.49-5.15,1.45h-0.01c-1.06,0.65-2.22,1.08-3.4,1.29
			c-0.29,0.05-0.58,0.09-0.87,0.11c-0.57,0.05-1.15,0.05-1.73,0c-0.29-0.02-0.57-0.06-0.86-0.11c-0.12-0.02-0.23-0.05-0.34-0.08
			l32.9-32.81v7.71L84.21,87.51z M98.57,68.3v17.22c0,0,0,0,0,0c-1.77,0.01-3.54,0.49-5.11,1.45c-0.8,0.49-1.65,0.85-2.52,1.09
			L98.57,68.3z M98.57,53.92L64.15,81.27c-1.77-3.51-3.62-8.33-5.38-13.55l39.81-18.24V53.92z M52.67,81.33h11.4l-5.37,4.27
			c-0.42-0.05-0.84-0.09-1.26-0.09c-1.64,0-3.28,0.43-4.76,1.25V81.33z M98.57,48.35L57.08,62.51c-1.29-4.13-2.49-8.33-3.52-12.23
			l45.02-5.09V48.35z M36.91,79.72V52.17l9.57-1.08C43.86,60.78,40.31,72.25,36.91,79.72z M36.91,81.33h10.75v7.04
			c-0.17,0.01-0.34,0.03-0.51,0.03c-1.78,0-3.57-0.48-5.14-1.44h-0.01c-1.56-0.95-3.32-1.44-5.08-1.45c0,0,0,0,0,0V81.33z
			 M98.57,44.15l-46.3,1.17c-0.84-3.4-1.5-6.33-1.9-8.48h48.2V44.15z M49.93,36.85c-0.44,2.16-1.12,5.14-1.99,8.59l-11.04,0.28
			v-8.87H49.93z M67.74,120.82c-6.16-1.83-27.79-9.38-30.55-25.46c0,0,0,0,0,0c0,0,0,0,0,0c1.67,0.06,3.32,0.54,4.8,1.44L42,96.8
			c1.58,0.96,3.36,1.44,5.14,1.44c1.79,0,3.57-0.49,5.15-1.44c3.15-1.93,7.13-1.93,10.3-0.01v0.01c3.15,1.92,7.13,1.92,10.29,0
			l0.01-0.01c1.58-0.96,3.36-1.44,5.14-1.44c1.79,0,3.58,0.49,5.15,1.45c3.15,1.92,7.14,1.92,10.3,0V96.8
			c1.48-0.9,3.15-1.38,4.82-1.44l0,0C95.53,111.44,73.88,118.99,67.74,120.82z"/>
		<polygon class="st0" points="53.02,104.61 55.18,104.09 55.18,110.38 56.97,110.38 56.97,102.2 53.02,103.04 		"/>
		<polygon class="st0" points="75.3,105.42 76.85,105.42 76.85,103.79 80.18,103.79 76.85,111.9 78.69,111.9 81.95,103.85 
			81.95,102.38 75.3,102.38 		"/>
		<path class="st0" d="M64.02,105.5v-0.03c0.99-0.31,1.58-1.11,1.58-2.21c0-1.51-1.24-2.58-3.19-2.58c-1.96,0-3.19,1.07-3.19,2.58
			c0,1.1,0.6,1.9,1.58,2.21v0.03c-1.11,0.3-1.9,1.2-1.9,2.32c0,1.67,1.38,2.72,3.51,2.72c2.13,0,3.52-1.05,3.52-2.72
			C65.93,106.7,65.14,105.8,64.02,105.5z M62.41,101.95c0.89,0,1.54,0.47,1.54,1.44c0,0.96-0.65,1.45-1.54,1.45
			c-0.89,0-1.54-0.5-1.54-1.45C60.87,102.43,61.51,101.95,62.41,101.95z M62.41,109.25c-1.05,0-1.76-0.57-1.76-1.55
			c0-0.98,0.71-1.55,1.76-1.55c1.05,0,1.77,0.57,1.77,1.55C64.18,108.68,63.46,109.25,62.41,109.25z"/>
		<path class="st0" d="M71.27,102.1c0.76,0,1.4,0.44,1.68,1.21l1.25-0.83c-0.49-1.14-1.51-1.8-2.94-1.8c-2.49,0-4.06,2.15-4.06,5.17
			c0,1.23,0.26,2.34,0.82,3.18c0.62,0.93,1.57,1.51,2.88,1.51c2,0,3.28-1.37,3.28-3.22c0-1.71-1.11-3.04-2.95-3.04
			c-1.12,0-2.03,0.64-2.36,1.57h-0.04v-0.24C68.84,103.64,69.73,102.1,71.27,102.1z M70.84,105.65c1.01,0,1.73,0.68,1.73,1.75
			c0,1.07-0.72,1.75-1.73,1.75c-0.96,0-1.67-0.68-1.67-1.75C69.17,106.33,69.87,105.65,70.84,105.65z"/>
	</g>
</g>
</svg>
