<svg xmlns="http://www.w3.org/2000/svg" baseProfile="tiny" version="1.2" viewBox="0 0 391.07 87.22"><path fill="#231F20" d="M105.49 14.25c0 .97.32 1.31 1.42 1.31h.66v.34h-5.65v-.34h.66c1.09 0 1.42-.34 1.42-1.31V5.38h-3.12c-.72 0-1.04.41-1.31 1.99h-.32l.29-2.91h.34c.02.11.09.18.2.21.11.04.23.05.36.05h8.63c.25 0 .52-.05.56-.27h.34l.29 2.91h-.32c-.27-1.58-.59-1.99-1.31-1.99h-3.12v8.88h-.02zM121.34 10.57v3.41c0 1.17.23 1.58 1.44 1.58h.05v.34h-4.5v-.34h.11c1.06 0 1.42-.29 1.42-1.31v-7.9c0-.93-.31-1.2-1.29-1.27v-.35h4.27v.34c-1.27 0-1.49.34-1.49 1.72v3.12h7.03V6.39c0-.95-.31-1.31-1.42-1.31h-.34v-.35h4.61v.34c-1.08.04-1.36.36-1.36 1.47V14c0 1.27.36 1.56 1.44 1.56h.18v.34h-5.08v-.34h.56c1.16 0 1.42-.41 1.42-1.35v-3.64h-7.05zM142.74 10.94l-1.04 2.82c-.13.34-.36.88-.36 1.13 0 .48.47.66 1.46.66h.28v.34h-4.14v-.34c1.17-.02 1.36-.22 1.94-1.78l3.27-8.92-.16-.4h1.56l3.75 9.96c.36.95.74 1.13 1.63 1.13v.34H146v-.34h.47c1.02 0 1.4-.11 1.4-.61 0-.29-.12-.56-.2-.74l-1.2-3.27h-3.73v.02zm1.83-4.97l-1.52 4.18h3.1l-1.58-4.18zM165.39 6.37c.57-.99.23-1.29-.91-1.29v-.35h4.06v.34c-1.22.09-1.74.58-2.24 1.42l-2.98 5.04v2.69c0 .95.34 1.33 1.43 1.33h.23v.34h-4.93v-.34h.34c1.11 0 1.43-.41 1.43-1.29v-2.53l-3.19-4.99c-.88-1.38-1.29-1.63-2.46-1.67v-.34h4.77v.34c-1.4 0-1.49.34-.95 1.17l2.87 4.43 2.53-4.3zM184.13 11.86h-.34c-.14-1.27-.49-1.42-1.22-1.42h-3.03v3.82c0 .83.31.99.97.99h2.76c1.25 0 1.63-.48 2.08-2.03h.33l-.29 2.67h-9.53v-.34h.5c1.43 0 1.69-.4 1.69-1.47V6.51c0-1-.23-1.44-1.44-1.44h-.39v-.34h8.61l.14 2.49h-.32c-.23-1.52-.68-1.85-1.33-1.85h-3.79V9.8h3.21c.65 0 .95-.3 1.04-1.34h.34l.01 3.4zM197.59 14.21c0 1.08.44 1.35 1.46 1.35h.42v.34h-5.14v-.34h.3c1.06 0 1.44-.29 1.44-1.49V6.51c0-1.11-.31-1.44-1.35-1.44h-.4v-.34c.43 0 1.53-.07 2.27-.11.75-.04 1.11-.05 2.3-.05 3.35 0 4.84 1.36 4.84 3.19 0 1.35-.91 2.48-2.39 2.91.67.52 1.21 1.02 2.05 1.87l1.42 1.42c1.06 1.06 2.15 1.72 3.54 1.81v.32c-3.14.14-3.95-.54-5.55-2.14l-1.19-1.18c-.8-.79-1.43-1.31-1.87-1.6-.45.02-.75.04-1.24.04-.4 0-.64-.02-.93-.04v3.04h.02zm0-3.37c.44.05.71.04 1.13.04 2.02 0 3.34-.84 3.34-3 0-1.67-.76-2.96-3.56-2.96-.35 0-.58 0-.91.04v5.88zM229.19 13.17c.38 1.6 1.63 2.53 3.03 2.53 1.2 0 2.47-.7 2.47-2.12 0-2.58-5.76-3.37-5.76-6.51 0-1.49 1.36-2.6 3.2-2.6 1.51 0 1.81.45 2.44.45.14 0 .22-.04.32-.18h.29l.3 2.28h-.3c-.5-1.29-1.65-2.12-2.89-2.12-1.18 0-2.01.68-2.01 1.69 0 2.55 5.76 3.23 5.76 6.53 0 1.76-1.56 3.07-3.66 3.07-.99 0-2.24-.48-2.49-.48a.43.43 0 00-.36.2h-.31l-.38-2.73h.35v-.01zM255.41 7.68c-.59-1.67-2.14-2.76-4.09-2.76-3 0-4.86 2.17-4.86 5.18 0 3.25 2.33 5.63 5.06 5.63 1.42 0 3.16-.48 4.38-2.65h.34c-.23.81-.72 1.92-1.15 2.62-1.15-.16-1.94.48-4.06.48-3.64 0-6.26-2.4-6.26-5.72 0-3.48 2.69-5.99 6.44-5.99 2.26 0 3.23.72 3.79.72.2 0 .29-.05.32-.11h.27l.16 2.6h-.34zM267.45 10.57v3.41c0 1.17.23 1.58 1.44 1.58h.05v.34h-4.5v-.34h.11c1.06 0 1.42-.29 1.42-1.31v-7.9c0-.93-.3-1.2-1.29-1.27v-.35h4.27v.34c-1.27 0-1.49.34-1.49 1.72v3.12h7.03V6.39c0-.95-.3-1.31-1.42-1.31h-.34v-.35h4.61v.34c-1.08.04-1.36.36-1.36 1.47V14c0 1.27.36 1.56 1.44 1.56h.18v.34h-5.08v-.34h.56c1.17 0 1.42-.41 1.42-1.35v-3.64h-7.05zM292.56 16.18c-3.52 0-6.48-2.26-6.48-5.62 0-3.57 2.75-6.1 6.57-6.1 3.39 0 6.3 2.31 6.3 5.54 0 3.64-2.9 6.18-6.39 6.18zm-.37-11.26c-3.16 0-4.42 2.94-4.42 5.09 0 3.36 2.28 5.72 5.17 5.72 2.93 0 4.32-2.58 4.32-5.13.01-3.33-2.11-5.68-5.07-5.68zM314.3 16.18c-3.52 0-6.48-2.26-6.48-5.62 0-3.57 2.75-6.1 6.57-6.1 3.39 0 6.3 2.31 6.3 5.54-.01 3.64-2.91 6.18-6.39 6.18zm-.38-11.26c-3.16 0-4.41 2.94-4.41 5.09 0 3.36 2.28 5.72 5.17 5.72 2.93 0 4.33-2.58 4.33-5.13-.01-3.33-2.13-5.68-5.09-5.68zM336.95 15.9h-8.02v-.34h.59c.82 0 1.13-.27 1.13-1.18V6.42c0-.95-.29-1.35-1.42-1.35h-.25v-.34h5.3v.34h-.67c-1.17 0-1.47.13-1.47 1.24v8.27c0 .49.2.67.72.67h2.64c1.06 0 1.38-.41 2.51-1.97h.32l-1.38 2.62zM366.05 16.18c-3.52 0-6.48-2.26-6.48-5.62 0-3.57 2.74-6.1 6.57-6.1 3.39 0 6.3 2.31 6.3 5.54 0 3.64-2.91 6.18-6.39 6.18zm-.38-11.26c-3.16 0-4.42 2.94-4.42 5.09 0 3.36 2.28 5.72 5.17 5.72 2.92 0 4.33-2.58 4.33-5.13 0-3.33-2.12-5.68-5.08-5.68zM388.44 11.61h-.31c-.04-1.04-.41-1.36-1.27-1.36h-3.32v3.93c0 1 .22 1.38 1.56 1.38v.34h-4.36v-.34c1.11-.07 1.31-.31 1.31-1.76V6.76c0-1.15-.09-1.67-1.35-1.69v-.34h8.04v2.12h-.3c-.02-1.04-.38-1.47-1.49-1.47h-3.41V9.6h3.55c.66 0 .99-.38 1.04-1.15h.31v3.16zM115.68 39.06h-.76c-.32-2.82-1.07-3.14-2.7-3.14h-6.72v8.47c0 1.83.68 2.19 2.15 2.19h6.13c2.78 0 3.62-1.07 4.61-4.49h.72l-.64 5.93H97.34v-.76h1.12c3.18 0 3.74-.87 3.74-3.26V27.21c0-2.23-.52-3.18-3.18-3.18h-.88v-.76h19.09l.32 5.53h-.72c-.52-3.38-1.51-4.1-2.94-4.1h-8.39v9.78h7.12c1.43 0 2.11-.68 2.31-2.98h.76l-.01 7.56zM148.82 48.29l-20.6-21.56v17.06c0 2.87.64 3.46 4.02 3.46v.76H123v-.76h.16c2.47 0 3.26-.84 3.26-2.66V25.02c-.91-.64-1.95-.95-3.34-.99v-.76h6.24l18.74 19.53V26.97c0-2.43-.72-2.86-3.9-2.94v-.76h9.31v.76c-2.99 0-3.62.52-3.62 2.07v22.2l-1.03-.01zM178.7 46.14c-3.94 2.03-8.99 2.5-10.66 2.5-8.71 0-12.77-6.72-12.77-12.53 0-5.97 4.18-13.45 13.88-13.45 4.26 0 7.08 1.35 7.92 1.35.36 0 .68-.08.91-.28h.56v6.44h-.8c-1.07-4.97-4.46-6.52-8.15-6.52-7 0-10.58 5.81-10.58 12.21 0 8.15 5.73 11.77 10.3 11.77 1.83 0 3.86-.4 6.09-1.51v-5.01c0-2.27-.8-3.02-3.18-3.02h-1.47v-.72h10.74v.72c-1.99.12-2.78.8-2.78 2.5v5.55h-.01zM195.09 48.01h-9.67v-.76c2.47-.12 2.98-.76 2.98-3.42V26.89c0-2.15-.76-2.75-2.98-2.86v-.76h9.67v.76c-2.51 0-3.38.56-3.38 3.22v16.87c0 2.35.64 3.14 3.38 3.14v.75zM226.1 48.29l-20.6-21.56v17.06c0 2.87.64 3.46 4.02 3.46v.76h-9.23v-.76h.16c2.47 0 3.26-.84 3.26-2.66V25.02c-.92-.64-1.95-.95-3.34-.99v-.76h6.24l18.74 19.53V26.97c0-2.43-.72-2.86-3.9-2.94v-.76h9.31v.76c-2.98 0-3.62.52-3.62 2.07v22.2l-1.04-.01zM253.13 39.06h-.76c-.32-2.82-1.07-3.14-2.71-3.14h-6.72v8.47c0 1.83.68 2.19 2.15 2.19h6.12c2.79 0 3.62-1.07 4.61-4.49h.72l-.64 5.93h-21.12v-.76h1.11c3.18 0 3.74-.87 3.74-3.26V27.21c0-2.23-.52-3.18-3.18-3.18h-.87v-.76h19.09l.33 5.53h-.71c-.52-3.38-1.51-4.1-2.94-4.1h-8.39v9.78h7.12c1.43 0 2.11-.68 2.31-2.98h.76v7.56h-.02zM278.48 39.06h-.76c-.32-2.82-1.07-3.14-2.71-3.14h-6.72v8.47c0 1.83.68 2.19 2.15 2.19h6.13c2.78 0 3.62-1.07 4.61-4.49h.72l-.64 5.93h-21.12v-.76h1.11c3.18 0 3.74-.87 3.74-3.26V27.21c0-2.23-.52-3.18-3.18-3.18h-.88v-.76h19.09l.32 5.53h-.72c-.52-3.38-1.51-4.1-2.94-4.1h-8.39v9.78h7.12c1.43 0 2.11-.68 2.31-2.98h.76v7.56zM293.8 44.27c0 2.39.95 2.98 3.18 2.98h.91v.76h-11.26v-.76h.68c2.35 0 3.18-.64 3.18-3.3V27.21c0-2.47-.68-3.18-2.98-3.18h-.87v-.76c.95 0 3.38-.16 5.01-.24s2.42-.12 5.01-.12c7.36 0 10.66 3.02 10.66 7.08 0 2.98-2.03 5.49-5.29 6.44 1.47 1.15 2.66 2.27 4.53 4.14l3.14 3.14c2.35 2.35 5.27 3.34 7.27 3.54v.76c-5.9.32-8.19-.76-11.73-4.3l-2.62-2.62c-1.75-1.75-3.14-2.9-4.1-3.54-1 .04-1.63.08-2.71.08-.88 0-1.39-.04-2.03-.08v6.72h.02zm0-7.48c.95.12 1.55.08 2.47.08 4.42 0 7.32-1.87 7.32-6.64 0-3.7-1.67-6.56-7.79-6.56-.76 0-1.27 0-1.99.08v13.04h-.01zM326.65 48.01h-9.67v-.76c2.47-.12 2.98-.76 2.98-3.42V26.89c0-2.15-.76-2.75-2.98-2.86v-.76h9.67v.76c-2.51 0-3.38.56-3.38 3.22v16.87c0 2.35.64 3.14 3.38 3.14v.75zM358.13 48.29l-20.6-21.56v17.06c0 2.87.64 3.46 4.02 3.46v.76h-9.23v-.76h.16c2.47 0 3.26-.84 3.26-2.66V25.02c-.92-.64-1.95-.95-3.34-.99v-.76h6.25l18.73 19.53V26.97c0-2.43-.71-2.86-3.9-2.94v-.76h9.31v.76c-2.98 0-3.62.52-3.62 2.07v22.2l-1.04-.01zM388.29 46.14c-3.94 2.03-8.99 2.5-10.66 2.5-8.71 0-12.77-6.72-12.77-12.53 0-5.97 4.18-13.45 13.88-13.45 4.26 0 7.08 1.35 7.92 1.35.36 0 .67-.08.92-.28h.56v6.44h-.8c-1.07-4.97-4.45-6.52-8.15-6.52-7 0-10.58 5.81-10.58 12.21 0 8.15 5.73 11.77 10.3 11.77 1.83 0 3.86-.4 6.09-1.51v-5.01c0-2.27-.8-3.02-3.18-3.02h-1.47v-.72h10.74v.72c-1.99.12-2.78.8-2.78 2.5v5.55h-.02zM102.28 66.51l-1.8 4.88c-.22.59-.62 1.52-.62 1.95 0 .84.81 1.15 2.51 1.15h.49v.59H95.7v-.59c2.02-.03 2.36-.37 3.36-3.07l5.65-15.43-.28-.68h2.7l6.49 17.23c.62 1.65 1.27 1.96 2.83 1.96v.59h-8.54v-.59h.81c1.77 0 2.42-.19 2.42-1.05 0-.5-.22-.96-.34-1.27l-2.08-5.65h-6.44v-.02zm3.17-8.6l-2.64 7.24h5.37l-2.73-7.24zM128.47 72.22c0 1.68.56 2.27 2.45 2.27h1.15v.59h-9.78v-.59h1.15c1.89 0 2.45-.59 2.45-2.27V56.88h-5.4c-1.24 0-1.8.71-2.27 3.45h-.56l.5-5.03h.59c.03.19.15.31.34.37.19.06.41.1.62.1h14.93c.44 0 .9-.1.96-.47h.59l.5 5.03h-.56c-.47-2.73-1.02-3.45-2.27-3.45h-5.4v15.34h.01zM157.18 58.87c0-2.02-.53-2.52-2.36-2.52h-.62v-.59c1.15-.06 2.67-.13 4.38-.19s3.6-.1 5.21-.1c8.2 0 11.83 4.16 11.83 9.28 0 4.69-3.63 10.31-11.49 10.31h-9.94v-.59h.53c1.68 0 2.45-.46 2.45-2.27l.01-13.33zm2.58 13.91c0 1.27.09 1.71 2.55 1.71 4.16 0 5.9-.59 7.82-2.51 1.15-1.12 2.58-3.51 2.58-6.71 0-2.3-.65-4.84-2.48-6.68-1.43-1.43-3.63-2.51-7.98-2.51-1.27 0-2.11.09-2.48.12v16.58h-.01zM186.26 66.51l-1.8 4.88c-.22.59-.62 1.52-.62 1.95 0 .84.81 1.15 2.52 1.15h.5v.59h-7.17v-.59c2.02-.03 2.36-.37 3.35-3.07l5.65-15.43-.28-.68h2.7l6.48 17.23c.62 1.65 1.27 1.96 2.83 1.96v.59h-8.53v-.59h.81c1.77 0 2.42-.19 2.42-1.05 0-.5-.22-.96-.34-1.27l-2.08-5.65h-6.44v-.02zm3.16-8.6l-2.64 7.24h5.37l-2.73-7.24zM210.77 72.16c0 1.86.75 2.33 2.48 2.33h.71v.59h-8.79v-.59h.53c1.83 0 2.48-.5 2.48-2.58V58.84c0-1.93-.53-2.48-2.33-2.48h-.68v-.59c.74 0 2.64-.13 3.91-.19s1.89-.1 3.91-.1c5.75 0 8.32 2.36 8.32 5.53 0 2.33-1.58 4.28-4.13 5.03 1.15.9 2.08 1.77 3.54 3.23l2.45 2.45c1.83 1.83 3.73 2.98 6.11 3.13v.56c-5.43.25-6.83-.93-9.59-3.7l-2.05-2.05c-1.36-1.37-2.45-2.27-3.2-2.76-.77.03-1.27.06-2.11.06-.68 0-1.09-.03-1.58-.06v5.26h.02zm0-5.84c.75.09 1.21.06 1.92.06 3.45 0 5.71-1.46 5.71-5.19 0-2.89-1.3-5.12-6.09-5.12-.59 0-.99 0-1.55.06l.01 10.19zM240.88 72.22c0 1.68.56 2.27 2.45 2.27h1.15v.59h-9.78v-.59h1.15c1.9 0 2.45-.59 2.45-2.27V56.88h-5.4c-1.24 0-1.8.71-2.27 3.45h-.56l.5-5.03h.59c.03.19.15.31.34.37.19.06.4.1.62.1h14.93c.43 0 .9-.1.96-.47h.59l.5 5.03h-.56c-.47-2.73-1.03-3.45-2.27-3.45h-5.4v15.34h.01zM267.06 75.08l-7.92-16.55h-.06l-.84 13.97c-.09 1.58 1.09 1.93 2.48 1.99v.59h-6.46v-.59c2.27 0 2.55-.5 2.7-3.32l.75-12.08c.12-2.05.06-2.61-1.86-2.73v-.56h4.69l7.48 15.65 7.45-15.65h4.56v.56c-1.52.12-2.11.15-2.05 1.21l.99 14.07c.19 2.86.43 2.86 2.7 2.86v.59h-7.98v-.59c1.46 0 2.89-.4 2.76-2.05l-.9-13.91h-.06l-7.73 16.55-.7-.01zM297.42 75.57c-6.09 0-11.21-3.91-11.21-9.72 0-6.18 4.75-10.56 11.36-10.56 5.87 0 10.9 4.01 10.9 9.6.01 6.27-5.02 10.68-11.05 10.68zm-.65-19.5c-5.46 0-7.64 5.09-7.64 8.82 0 5.8 3.94 9.9 8.94 9.9 5.06 0 7.48-4.47 7.48-8.88.01-5.77-3.65-9.84-8.78-9.84zM337.53 55.76v.59c-2.08.03-2.82.87-2.82 2.86v8.38c0 3.85-2.45 7.98-9.19 7.98-5.93 0-8.97-3.38-8.97-7.82v-9.07c0-1.99-.56-2.3-2.67-2.33v-.59h7.98v.59h-.28c-1.71 0-2.45.46-2.45 2.27v8.63c0 4.19 2.45 6.71 7.08 6.71 3.51 0 7.08-1.46 7.08-6.74v-7.24c0-2.98-.47-3.51-3.04-3.63v-.59h7.28zM353.91 72.22c0 1.68.56 2.27 2.46 2.27h1.15v.59h-9.78v-.59h1.15c1.89 0 2.45-.59 2.45-2.27V56.88h-5.4c-1.24 0-1.8.71-2.27 3.45h-.56l.5-5.03h.59c.03.19.15.31.34.37.19.06.4.1.62.1h14.93c.43 0 .9-.1.96-.47h.59l.5 5.03h-.56c-.47-2.73-1.02-3.45-2.27-3.45h-5.4v15.34zM372.99 65.85v5.9c0 2.02.41 2.73 2.49 2.73h.09v.59h-7.79v-.59h.19c1.83 0 2.45-.5 2.45-2.27V58.56c0-1.61-.53-2.08-2.23-2.2v-.59h7.39v.59c-2.21 0-2.58.59-2.58 2.98v5.4h12.17v-6.12c0-1.65-.53-2.27-2.45-2.27h-.59v-.59h7.98v.59c-1.86.06-2.36.62-2.36 2.55v12.89c0 2.2.62 2.7 2.48 2.7h.31v.59h-8.79v-.59h.96c2.02 0 2.45-.71 2.45-2.33v-6.3l-12.17-.01zM73.87 25.53L9.48 48.28l-3.42 8.77L73.87 26.4zM73.87 29.42L25.38 66.64l7.84 2.11 40.65-37.79zM73.87 33.8L54.98 66.12l6.84.9 12.05-32.53zM73.87 22.55l-72-.04.03 5.99 71.97-5.1z"/><path fill="#231F20" d="M66.47 65.85c-9.73-2.43-15.86-.84-21.26.57-2.78.72-5.18 1.35-7.77 1.35s-4.99-.62-7.77-1.35c-5.37-1.4-11.46-2.98-21.09-.61l.7 2.86c8.91-2.19 14.61-.71 19.64.6 2.85.74 5.54 1.44 8.51 1.44s5.66-.7 8.51-1.44c5.07-1.32 10.81-2.81 19.81-.56l.72-2.86zM59.88 71.33c-6.57-.88-11.18.32-15.26 1.38-2.57.67-4.78 1.24-7.18 1.24-2.39 0-4.61-.57-7.18-1.24-4.21-1.1-8.99-2.34-15.9-1.29l.41 2.7c6.36-.97 10.65.15 14.8 1.23 2.63.68 5.12 1.33 7.86 1.33s5.23-.65 7.86-1.33c4.02-1.04 8.17-2.12 14.21-1.31l.38-2.71z"/><path fill="#231F20" d="M17.78 66.31v-8.72H4.25c6.94-14.21 14.72-44.56 16.48-54.21 1.61 9.75 9.6 40.45 16.48 54.21H23.68v8.72h-5.9z"/><g fill="#231F20"><path d="M31.22 11.05h-1.59v-1l3.18-.48v7.54h-1.58l-.01-6.06zM44.56 9.93c.23.22.35.59.35 1.16v.68c0 .43-.1.75-.32.97s-.58.38-1.12.48c.55.06.96.22 1.22.45.26.25.39.59.39 1.04v.78c0 .61-.13 1.03-.41 1.26-.26.23-.74.35-1.42.35h-4.79c-.68 0-1.14-.12-1.41-.35-.28-.22-.41-.65-.41-1.26v-.78c0-.45.13-.8.39-1.04.26-.23.67-.39 1.2-.45-.52-.1-.9-.26-1.12-.48-.22-.22-.32-.55-.32-.97v-.68c0-.57.12-.94.35-1.16.23-.2.7-.3 1.36-.3h4.67c.69 0 1.16.1 1.39.3zm-5.61 3.93c-.29 0-.48.04-.57.13-.1.09-.14.28-.14.55v.55c0 .28.04.45.13.54.1.09.29.13.58.13h3.83c.29 0 .48-.04.57-.13.1-.09.14-.26.14-.54v-.55c0-.28-.04-.46-.14-.55-.09-.09-.28-.13-.57-.13h-3.83zm.17-2.95c-.29 0-.48.04-.58.13-.1.1-.14.28-.14.55v.38c0 .28.04.45.14.54.1.1.29.14.58.14h3.5c.28 0 .46-.04.57-.13.1-.1.14-.28.14-.55v-.38c0-.28-.04-.46-.14-.55s-.29-.13-.57-.13h-3.5zM51.2 12.41c.55-.06 1.09-.07 1.62-.07 1.2 0 2.03.14 2.48.42s.68.78.68 1.51v1.02c0 .62-.22 1.09-.62 1.38-.42.3-1.06.45-1.94.45h-3.16c-.94 0-1.59-.16-1.94-.49s-.52-.94-.52-1.81v-.99c0-1.39.48-2.47 1.45-3.23.96-.77 2.32-1.15 4.08-1.15h.22c.07.02.19.02.32.03l1.03 1.2h-.48c-1.59 0-2.74.15-3.45.44s-1.19.78-1.44 1.49c.56-.09 1.12-.15 1.67-.2zm-1.8 1.51c-.01.06-.01.14-.01.25 0 .72.1 1.17.29 1.33.19.17.61.26 1.26.26h2.09c.52 0 .87-.06 1.07-.19.19-.13.29-.36.29-.71v-.41c0-.35-.12-.59-.33-.71-.22-.13-.65-.19-1.32-.19-.54 0-1.07.01-1.63.04s-1.12.07-1.7.13c-.01.07-.01.14-.01.2zM64.01 10.91h-4.94v1.61l-1.58-.28V9.63h8.31v1.2l-3.92 6.41h-1.9l4.03-6.33z"/></g><path fill="#231F20" d="M0 0v51.25c0 16.92 22.16 31.22 37.57 35.97 15.41-4.75 37.57-19.05 37.57-35.97V0H0zm72.02 51.25c0 12.47-14.08 21.93-26.92 27.35-1.65.63-5.28 1.36-7.57 1.36-2.41 0-6.3-.86-7.66-1.43h-.01C17.08 73.1 3.12 63.67 3.12 51.25V6.2c4.57-.84 20.11-3.74 34.28-3.74 14.19 0 30.1 2.79 34.62 3.75v45.04z"/></svg>