<svg id="Layer_1" data-name="Layer 1" xmlns="http://www.w3.org/2000/svg" viewBox="0 0 683.7 598"><defs><style>.cls-1{fill:#fff;}</style></defs><title>thayer-logo-eng-vertical-white</title><polygon class="cls-1" points="505.6 115.1 215.3 217.7 199.9 257.3 505.6 119 505.6 115.1"/><polygon class="cls-1" points="505.6 132.6 287 300.5 322.3 310 505.6 139.6 505.6 132.6"/><polygon class="cls-1" points="505.6 152.4 420.4 298.2 451.3 302.2 505.6 155.5 505.6 152.4"/><polygon class="cls-1" points="505.6 101.7 181 101.5 181.1 128.5 505.6 105.5 505.6 101.7"/><path class="cls-1" d="M472.3,296.9c-43.9-10.9-71.5-3.8-95.9,2.6-12.5,3.3-23.3,6.1-35,6.1s-22.5-2.8-35-6.1c-24.2-6.3-51.7-13.4-95.1-2.8l3.2,12.9c40.2-9.9,65.9-3.2,88.6,2.7,12.9,3.3,25,6.5,38.4,6.5s25.5-3.2,38.4-6.5c22.8-5.9,48.7-12.7,89.3-2.5Z"/><path class="cls-1" d="M442.5,321.6c-29.6-4-50.4,1.4-68.8,6.2-11.6,3-21.6,5.6-32.4,5.6s-20.8-2.6-32.4-5.6c-19-4.9-40.5-10.5-71.7-5.8l1.9,12.2c28.7-4.4,48,.7,66.7,5.5,11.9,3.1,23.1,6,35.5,6s23.6-2.9,35.5-6c18.1-4.7,36.8-9.6,64.1-5.9Z"/><path class="cls-1" d="M252.7,299V259.7h-61C223,195.6,258.1,58.8,266,15.3c7.3,43.9,43.3,182.4,74.3,244.4h-61V299Z"/><path class="cls-1" d="M313.3,49.8h-7.2V45.3l14.3-2.2v34h-7.1V49.8Z"/><path class="cls-1" d="M373.5,44.8c1,1,1.6,2.7,1.6,5.2v3.1a6.27,6.27,0,0,1-1.4,4.4,9.72,9.72,0,0,1-5,2.2,10.41,10.41,0,0,1,5.5,2,6.1,6.1,0,0,1,1.8,4.7v3.5q0,4-1.8,5.7c-1.2,1-3.3,1.6-6.4,1.6H346.2c-3.1,0-5.2-.5-6.3-1.6s-1.8-2.9-1.8-5.7V66.4a6.1,6.1,0,0,1,1.8-4.7,9.58,9.58,0,0,1,5.4-2c-2.4-.5-4.1-1.2-5-2.2a6,6,0,0,1-1.4-4.4V50c0-2.5.5-4.2,1.6-5.2s3.1-1.4,6.1-1.4h21.1C370.3,43.4,372.4,43.9,373.5,44.8ZM348.2,62.5c-1.3,0-2.2.2-2.5.6-.5.4-.7,1.2-.7,2.5v2.5a3.47,3.47,0,0,0,.6,2.4,4.12,4.12,0,0,0,2.6.6h17.3c1.3,0,2.2-.2,2.5-.6a3,3,0,0,0,.7-2.4V65.6a3.25,3.25,0,0,0-.7-2.5,3.61,3.61,0,0,0-2.5-.6Zm.7-13.3a3.93,3.93,0,0,0-2.6.6,3.25,3.25,0,0,0-.7,2.5V54a3,3,0,0,0,.7,2.4,3.52,3.52,0,0,0,2.6.7h15.8a4.33,4.33,0,0,0,2.6-.6A3.25,3.25,0,0,0,368,54V52.3a3.25,3.25,0,0,0-.7-2.5,4.12,4.12,0,0,0-2.6-.6Z"/><path class="cls-1" d="M403.4,56a60.23,60.23,0,0,1,7.3-.3c5.4,0,9.2.7,11.2,1.9s3.1,3.5,3.1,6.8V69a7.23,7.23,0,0,1-2.8,6.2c-1.9,1.4-4.8,2-8.8,2H399.2c-4.3,0-7.2-.7-8.8-2.2s-2.4-4.2-2.4-8.2V62.4c0-6.3,2.2-11.1,6.5-14.6s10.5-5.2,18.4-5.2h1a5.31,5.31,0,0,0,1.4.1l4.6,5.4h-2.2c-7.2,0-12.4.7-15.6,2a10.79,10.79,0,0,0-6.5,6.7C398.4,56.4,400.9,56.2,403.4,56Zm-8.1,6.8a3.75,3.75,0,0,0-.1,1.1c0,3.3.5,5.3,1.3,6s2.7,1.2,5.7,1.2h9.4c2.4,0,3.9-.3,4.8-.9a3.71,3.71,0,0,0,1.3-3.2V65.2c0-1.6-.5-2.7-1.5-3.2s-2.9-.9-6-.9c-2.4,0-4.8.1-7.3.2s-5,.3-7.7.6A2.77,2.77,0,0,1,395.3,62.8Z"/><path class="cls-1" d="M461.1,49.2H438.8v7.3l-7.1-1.2V43.4h37.5v5.4L451.5,77.7h-8.6Z"/><path class="cls-1" d="M172.5,0V231.1c0,76.3,99.9,140.8,169.4,162.2,69.5-21.4,169.4-85.9,169.4-162.2V0ZM497.3,231.1c0,56.2-63.5,98.9-121.4,123.3-7.5,2.8-23.8,6.1-34.1,6.1-10.9,0-28.4-3.9-34.5-6.5h0c-57.7-24.5-120.6-67-120.6-123V27.9c20.5-3.7,90.6-16.8,154.5-16.8S476.9,23.7,497.3,28Z"/><path class="cls-1" d="M22.1,453c0-7.1-1.9-8.5-9.1-8.4v-2.5c2.8,0,11.1-.4,15.1-.5,5.2-.1,10.1-.1,13.7-.1,14.5,0,24.9,2.5,30.8,8.4a28,28,0,0,1,8.3,20.4c0,14.1-9.9,31.6-38,31.6H13v-2.5c8.1,0,9.1-1.3,9.1-7.7Zm10.6,39.2c0,6,.8,6.9,7.1,6.9,11.5,0,17.5-2.5,21.9-6.9,5.9-5.9,7.5-13.9,7.5-20.7s-1.6-14.7-7.3-20.5c-4.9-4.8-10.9-7-22.2-7-1.6,0-4.7,0-7.1.1v48.2h.1Z"/><path class="cls-1" d="M80.8,499.2c6.4-.1,7.7-1.2,10.4-8.7l17.3-47.6-.8-2.4h10.8l18.7,50c2.8,7.5,3.7,8.7,9.7,8.7v2.5H118.4v-2.5c7.6,0,9.7-.8,9.7-3.6a19.07,19.07,0,0,0-1.3-5.1l-4.7-11.9h-22l-4.7,12.8a11.67,11.67,0,0,0-.9,4c0,2.8,1.9,4,9.6,3.7v2.5H80.6v-2.5h.2Zm39.7-25.4-9.3-24.3-9.1,24.3Z"/><path class="cls-1" d="M169.6,489.7c0,8.3,1.1,9.7,9.7,9.5v2.5H150v-2.5c8,.3,8.9-1.9,8.9-8.3V452.4c0-6.3-1.1-7.7-8.9-7.7v-2.5c2.3,0,7.1-.4,13.7-.7,5.1-.1,9.7-.1,11.7-.1,19.3,0,26,8.4,26,17.2,0,7.1-4,12.3-12.1,15.6a88.1,88.1,0,0,1,7.2,6.7l6.3,6.3c8.5,8.5,15.1,12.4,23.1,13.2v2.7c-18.9.5-23.6-2.9-32.3-11.5l-5.1-5.1c-4.9-4.9-6.4-6.3-10.4-9.2a60.24,60.24,0,0,1-8.5,0v12.4Zm0-15.3c.7.1,2.5.3,3.1.3,12.8-.5,17.2-5.5,17.2-15.2S184.7,444,174.3,444a21.67,21.67,0,0,0-4.7.4v30Z"/><path class="cls-1" d="M220.7,440.4h2.5c.4.7.7,1.2,1.6,1.3a35.76,35.76,0,0,0,4.7.3h40.7c4.9,0,5.6-.1,6.3-1.6H279l1.7,16.5h-2.8c-1.3-10-3.2-10.5-9.1-10.5H255.1v45.2c0,6.5,1.1,7.6,11.2,7.6v2.5H233.4v-2.5c9.6,0,11.2-1.2,11.2-7.6V446.4H230.9c-5.6,0-7.6.5-9.1,10.5H219Z"/><path class="cls-1" d="M284.4,499.2c6,0,7.7-1.1,8.3-9.5l2.3-35.3c.5-8.5-.5-9.7-6-9.7v-2.5h17.7l20.8,44.4,19.6-44.4h17.7v2.5c-5.3,0-6.5,1.2-6.1,5.6l3.5,43.7c.4,4.9,2.3,5.3,7.9,5.3v2.5H342.9v-2.5c7.9,0,9.2-1.9,8.4-12.1l-2.5-35.5h-.3l-22.1,50.2h-3.2l-22.7-49h-.1l-2.3,35.5c-.7,10.3,1.6,10.3,7.9,10.8v2.5H284.7v-2.5Z"/><path class="cls-1" d="M412.1,440.5c20.8,0,35.1,12.4,35.1,30.4,0,17.3-13.9,32.4-35.5,32.4-20,0-34.7-12.5-34.7-29.7C377,454.4,391.7,440.5,412.1,440.5Zm1.2,59.7c13.3,0,22.3-10.8,22.3-26.9,0-17.3-10.1-29.6-24.1-29.6s-22.7,10.5-22.7,27.3C388.6,490.2,401,500.2,413.3,500.2Z"/><path class="cls-1" d="M454.1,442.1h27.3v2.5c-7.1,0-8.4,1.6-8.4,8.3v25.9c0,12.8,8.5,18.7,20.5,18.7,10.7,0,20.7-4.7,20.7-18.8V453c0-7.5-1.5-8.3-9.2-8.3v-2.5h23.2v2.5c-7.3,0-8.8,1.6-8.8,8.3v26.7c0,15.1-11.6,23.7-29.1,23.7-18.3,0-28-8.8-28-24.4V452c0-5.9-1.6-7.3-8.1-7.3v-2.5h-.1Z"/><path class="cls-1" d="M533.1,440.4h2.5c.4.7.7,1.2,1.6,1.3a34.34,34.34,0,0,0,4.7.3h40.7c4.9,0,5.6-.1,6.3-1.6h2.5l1.7,16.5h-2.8c-1.3-10-3.2-10.5-9.1-10.5H567.5v45.2c0,6.5,1.1,7.6,11.2,7.6v2.5H545.8v-2.5c9.6,0,11.2-1.2,11.2-7.6V446.4H543.3c-5.6,0-7.6.5-9.1,10.5h-2.8Z"/><path class="cls-1" d="M616.6,490.8c0,5.6.8,8.1,8.5,8.4v2.5H597.4v-2.5c7.7-.5,8.5-2.5,8.5-9.1V454.4c0-7.2-1.1-9.6-8.5-9.7v-2.5h27.7v2.5c-7.2.3-8.5,1.9-8.5,10.1V469h34.7V454.7c0-7.7-.9-9.7-8.8-10.1v-2.5h28.3v2.5c-7.6.4-8.8,2-8.8,9.5v36.1c0,6.8,1.1,8.4,8.8,8.9v2.5H642.5v-2.5c7.5-.3,8.8-2.3,8.8-9.1V473.3H616.6Z"/><path class="cls-1" d="M0,596.5V594c7.7,0,9.7-1.2,9.7-6.7V546c0-6.4-3.2-6.5-9.7-6.5V537H49.1l.8,14.4H47.4l-.5-2c-1.9-7.9-3.5-8-9.6-8h-17v22.4H35.2c5.6,0,6.7-.7,7.2-7.3h2.5v19.3H42.4c-.7-6.8-1.9-7.7-7.2-7.7H20.3v17.5c0,6,.8,6.9,5.6,6.9H36.6c9.7,0,11.6-1.3,14.3-10.8h2.5l-1.5,15.1H0Z"/><path class="cls-1" d="M70,547.6v36.9c0,7.5.9,9.9,9.6,9.5v2.5H56.7V594c6.9.1,8-2,8-8.3V542.4c-2.3-2-4.4-2.8-8-3.1v-2.5H74L116.8,582V547.6c0-7.2-1.2-8.4-9.5-8.3v-2.5h23.2v2.5c-6.4,0-8.4,1.2-8.4,8.4v49.2H117Z"/><path class="cls-1" d="M196.1,592.1c-10.8,4.3-17.7,5.9-25.7,5.9-19.5,0-32.4-12-32.4-30,0-12.8,7.3-32.8,33.7-32.8,9.5,0,15.2,2.5,18.4,2.5a2.73,2.73,0,0,0,2.5-1.1h2.8v17.6h-2.9c-2.3-10.4-9.1-16.1-19.1-16.1-14.4.1-23.9,11.5-23.9,28.8,0,19.2,12,27.6,23.6,27.6a25.93,25.93,0,0,0,12.3-3.2V579.8c0-6.7-1.9-7.5-11.5-7.5v-2.5h28.7v2.5c-6.5,0-6.7,4-6.7,7.6V592h.2Z"/><path class="cls-1" d="M207.1,536.8h26.8v2.5c-6.4,0-8.3,1.5-8.3,8.3v37.3c0,7.2,1.3,9.1,8.3,8.9v2.5H207.1v-2.5c7.6.1,7.9-2.8,7.9-8.3V546.4c0-5.2-1.2-7.3-7.9-7.2Z"/><path class="cls-1" d="M252.8,547.6v36.9c0,7.5.9,9.9,9.6,9.5v2.5H239.5V594c6.9.1,8-2,8-8.3V542.4c-2.3-2-4.4-2.8-8-3.1v-2.5h17.3L299.6,582V547.6c0-7.2-1.2-8.4-9.5-8.3v-2.5h23.2v2.5c-6.4,0-8.4,1.2-8.4,8.4v49.2h-5.2Z"/><path class="cls-1" d="M316.6,596.5V594c7.7,0,9.7-1.2,9.7-6.7V546c0-6.4-3.2-6.5-9.7-6.5V537h49.1l.8,14.4H364l-.5-2c-1.9-7.9-3.5-8-9.6-8H337v22.4h14.9c5.6,0,6.7-.7,7.2-7.3h2.5v19.3h-2.5c-.7-6.8-1.9-7.7-7.2-7.7H337v17.5c0,6,.8,6.9,5.6,6.9h10.7c9.7,0,11.6-1.3,14.3-10.8h2.5l-1.5,15.1H316.7v-.3Z"/><path class="cls-1" d="M372,596.5V594c7.7,0,9.7-1.2,9.7-6.7V546c0-6.4-3.2-6.5-9.7-6.5V537h49.1l.8,14.4h-2.5l-.5-2c-1.9-7.9-3.5-8-9.6-8H392.4v22.4h14.9c5.6,0,6.7-.7,7.2-7.3H417v19.3h-2.5c-.7-6.8-1.9-7.7-7.2-7.7H392.4v17.5c0,6,.8,6.9,5.6,6.9h10.7c9.7,0,11.6-1.3,14.3-10.8h2.5L424,596.8H372Z"/><path class="cls-1" d="M447.9,584.4c0,8.3,1.1,9.7,9.7,9.5v2.5H428.3v-2.5c8,.3,8.9-1.9,8.9-8.3V547c0-6.3-1.1-7.7-8.9-7.7v-2.5c2.3,0,7.1-.4,13.7-.7,5.1-.1,9.7-.1,11.7-.1,19.3,0,26,8.4,26,17.2,0,7.1-4,12.3-12.1,15.6a88.1,88.1,0,0,1,7.2,6.7l6.3,6.3c8.5,8.5,15.1,12.4,23.1,13.2v2.7c-18.9.5-23.6-2.9-32.3-11.5l-5.1-5.1c-4.9-4.9-6.4-6.3-10.4-9.2a60.24,60.24,0,0,1-8.5,0v12.5Zm0-15.3c.7.1,2.5.3,3.1.3,12.8-.5,17.2-5.5,17.2-15.2s-5.2-15.5-15.6-15.5a21.67,21.67,0,0,0-4.7.4Z"/><path class="cls-1" d="M505.6,536.8h26.8v2.5c-6.4,0-8.3,1.5-8.3,8.3v37.3c0,7.2,1.3,9.1,8.3,8.9v2.5H505.6v-2.5c7.6.1,7.9-2.8,7.9-8.3V546.4c0-5.2-1.2-7.3-7.9-7.2v-2.4Z"/><path class="cls-1" d="M551.3,547.6v36.9c0,7.5.9,9.9,9.6,9.5v2.5H538V594c6.9.1,8-2,8-8.3V542.4c-2.3-2-4.4-2.8-8-3.1v-2.5h17.3L598.1,582V547.6c0-7.2-1.2-8.4-9.5-8.3v-2.5h23.2v2.5c-6.4,0-8.4,1.2-8.4,8.4v49.2h-5.2Z"/><path class="cls-1" d="M677.2,592.1c-10.8,4.3-17.7,5.9-25.7,5.9-19.5,0-32.4-12-32.4-30,0-12.8,7.3-32.8,33.7-32.8,9.5,0,15.2,2.5,18.4,2.5a2.73,2.73,0,0,0,2.5-1.1h2.8v17.6h-2.9c-2.3-10.4-9.1-16.1-19.1-16.1-14.4,0-23.9,11.3-23.9,28.7,0,19.2,12,27.6,23.6,27.6a25.93,25.93,0,0,0,12.3-3.2V579.7c0-6.7-1.9-7.5-11.5-7.5v-2.5h28.7v2.5c-6.5,0-6.7,4-6.7,7.6v12.3Z"/></svg>