<svg xmlns="http://www.w3.org/2000/svg" id="Layer_1" x="0" y="0" version="1.1" viewBox="0 0 535.8 599" xml:space="preserve"><style>.st0{fill:#003349}.st1{fill:#00703c}</style><path d="M33.9 492.7c0 5.3 1.8 7.1 7.7 7.1h3.6v1.8H14.5v-1.8h3.6c5.9 0 7.7-1.9 7.7-7.1v-48.1H8.9c-3.9 0-5.6 2.2-7.1 10.8H0l1.6-15.8h1.8c.1.6.5 1 1.1 1.2s1.3.3 2 .3h46.8c1.4 0 2.8-.3 3-1.5h1.9l1.6 15.8H58c-1.5-8.6-3.2-10.8-7.1-10.8h-17v48.1zM108.6 472.8v18.5c0 6.3 1.3 8.6 7.8 8.6h.3v1.8H92.2v-1.8h.6c5.7 0 7.7-1.6 7.7-7.1V450c0-5.1-1.7-6.5-7-6.9v-1.8h23.2v1.8c-6.9 0-8.1 1.8-8.1 9.3v16.9h38.1v-19.2c0-5.2-1.7-7.1-7.7-7.1h-1.8v-1.8h25v1.8c-5.8.2-7.4 1.9-7.4 8v40.4c0 6.9 1.9 8.5 7.8 8.5h1v1.8H136v-1.8h3c6.3 0 7.7-2.2 7.7-7.3v-19.7l-38.1-.1zM213.5 474.6l-5.7 15.3c-.7 1.8-1.9 4.8-1.9 6.1 0 2.6 2.5 3.6 7.9 3.6h1.6v1.8h-22.6v-1.8c6.4-.1 7.4-1.2 10.6-9.6l17.7-48.3-.9-2.1h8.5l20.3 54c1.9 5.1 4 6.1 8.9 6.1v1.8h-26.7v-1.8h2.5c5.5 0 7.6-.6 7.6-3.3 0-1.6-.7-3-1.1-4l-6.5-17.7h-20.2v-.1zm9.9-26.9l-8.3 22.7H232l-8.6-22.7zM325.1 449.8c3.1-5.4 1.3-7-5-7V441h22v1.8c-6.6.5-9.4 3.1-12.2 7.7l-16.2 27.3v14.6c0 5.2 1.8 7.2 7.8 7.2h1.3v1.8H296v-1.8h1.8c6 0 7.8-2.2 7.8-7v-13.7l-17.3-27.1c-4.8-7.5-7-8.9-13.3-9V441h26v1.8c-7.6 0-8.1 1.8-5.2 6.3l15.6 24 13.7-23.3zM415.6 479.6h-1.8c-.8-6.9-2.6-7.7-6.6-7.7h-16.4v20.7c0 4.5 1.7 5.3 5.3 5.3h15c6.8 0 8.8-2.6 11.3-11h1.8l-1.6 14.5h-51.7v-1.8h2.7c7.8 0 9.1-2.1 9.1-8v-41.1c0-5.4-1.3-7.8-7.8-7.8h-2.1V441h46.7l.8 13.5h-1.7c-1.3-8.3-3.7-10-7.2-10h-20.5v23.9h17.4c3.5 0 5.2-1.6 5.6-7.3h1.8l-.1 18.5zM477.4 492.3c0 5.8 2.4 7.3 7.9 7.3h2.3v1.8h-27.8v-1.8h1.6c5.8 0 7.8-1.6 7.8-8.1v-41c0-6-1.7-7.8-7.3-7.8h-2.1V441c2.3 0 8.3-.4 12.3-.6 4.1-.2 6-.3 12.5-.3 18.2 0 26.3 7.4 26.3 17.3 0 7.3-5 13.4-13 15.8 3.6 2.8 6.5 5.5 11.1 10.1l7.7 7.7c5.7 5.7 11.7 9.3 19.2 9.8v1.8c-17 .8-21.4-2.9-30.1-11.6l-6.4-6.4c-4.3-4.3-7.8-7.1-10.1-8.7-2.5.1-4 .2-6.7.2-2.2 0-3.5-.1-5-.2v16.4h-.2zm0-18.3c2.4.3 3.9.2 6.1.2 11 0 18.1-4.6 18.1-16.2 0-9-4.1-16-19.3-16-1.9 0-3.2 0-4.9.2V474zM9.2 582.6c2 8.7 8.8 13.7 16.4 13.7 6.5 0 13.4-3.8 13.4-11.5 0-14-31.2-18.3-31.2-35.3 0-8.1 7.4-14.1 17.3-14.1 8.2 0 9.8 2.4 13.2 2.4.8 0 1.2-.2 1.7-1h1.6l1.7 12.4h-1.7c-2.7-7-8.9-11.5-15.7-11.5-6.4 0-10.9 3.7-10.9 9.1 0 13.8 31.2 17.5 31.2 35.4 0 9.5-8.5 16.6-19.9 16.6-5.3 0-12.2-2.6-13.5-2.6-.9 0-1.6.5-1.9 1.1H9.4l-2-14.8 1.8.1zM138.1 552.9c-3.2-9-11.6-15-22.2-15-16.2 0-26.4 11.8-26.4 28.1 0 17.6 12.6 30.5 27.4 30.5 7.7 0 17.1-2.6 23.7-14.4h1.8c-1.3 4.4-3.9 10.4-6.2 14.2-6.2-.9-10.5 2.6-22 2.6-19.7 0-33.9-13-33.9-31 0-18.9 14.6-32.5 34.9-32.5 12.3 0 17.5 3.9 20.5 3.9 1.1 0 1.6-.3 1.8-.6h1.5l.9 14.1h-1.8v.1zM190.1 568.5V587c0 6.3 1.3 8.6 7.8 8.6h.3v1.8h-24.5v-1.8h.6c5.7 0 7.7-1.6 7.7-7.1v-42.8c0-5.1-1.6-6.5-7-6.9V537h23.2v1.8c-6.9 0-8.1 1.8-8.1 9.3V565h38.2v-19.2c0-5.2-1.7-7.1-7.7-7.1h-1.9v-1.8h25v1.8c-5.8.2-7.4 1.9-7.4 8v40.4c0 6.9 1.9 8.5 7.8 8.5h1v1.8h-27.5v-1.8h3c6.3 0 7.7-2.2 7.7-7.3v-19.7h-38.2v-.1zM313.2 599c-19.1 0-35.1-12.3-35.1-30.4 0-19.4 14.9-33.1 35.6-33.1 18.4 0 34.1 12.5 34.1 30.1 0 19.5-15.7 33.4-34.6 33.4zm-2-61.1c-17.1 0-23.9 16-23.9 27.6 0 18.2 12.4 31 28 31 15.9 0 23.4-14 23.4-27.8 0-18.1-11.5-30.8-27.5-30.8zM417.8 599c-19.1 0-35.1-12.3-35.1-30.4 0-19.4 14.9-33.1 35.6-33.1 18.4 0 34.1 12.5 34.1 30.1.1 19.5-15.7 33.4-34.6 33.4zm-2-61.1c-17.1 0-23.9 16-23.9 27.6 0 18.2 12.4 31 28 31 15.9 0 23.4-14 23.4-27.8 0-18.1-11.5-30.8-27.5-30.8zM527.5 597.4H484v-1.8h3.2c4.5 0 6.1-1.5 6.1-6.4V546c0-5.2-1.6-7.3-7.7-7.3h-1.4v-1.8H513v1.8h-3.6c-6.3 0-8 .7-8 6.7v44.9c0 2.6 1.1 3.6 3.9 3.6h14.3c5.7 0 7.5-2.2 13.6-10.7h1.8l-7.5 14.2z" class="st0"/><g><path d="M431.4 115.1L141.1 217.7l-15.4 39.6L431.4 119zM431.4 132.6L212.8 300.5l35.3 9.5 183.3-170.4zM431.4 152.4l-85.2 145.8 30.9 4 54.3-146.7zM431.4 101.7l-324.6-.2.1 27 324.5-23z" class="st1"/><path d="M398.1 296.9c-43.9-10.9-71.5-3.8-95.9 2.6-12.5 3.3-23.3 6.1-35 6.1s-22.5-2.8-35-6.1c-24.2-6.3-51.7-13.4-95.1-2.8l3.2 12.9c40.2-9.9 65.9-3.2 88.6 2.7 12.9 3.3 25 6.5 38.4 6.5s25.5-3.2 38.4-6.5c22.8-5.9 48.7-12.7 89.3-2.5l3.1-12.9zM368.3 321.6c-29.6-4-50.4 1.4-68.8 6.2-11.6 3-21.6 5.6-32.4 5.6s-20.8-2.6-32.4-5.6c-19-4.9-40.5-10.5-71.7-5.8l1.9 12.2c28.7-4.4 48 .7 66.7 5.5 11.9 3.1 23.1 6 35.5 6s23.6-2.9 35.5-6c18.1-4.7 36.8-9.6 64.1-5.9l1.6-12.2z" class="st1"/><path d="M178.5 299v-39.3h-61c31.3-64.1 66.4-200.9 74.3-244.4 7.3 43.9 43.3 182.4 74.3 244.4h-61V299h-26.6zM239.1 49.8h-7.2v-4.5l14.3-2.2v34h-7.1V49.8zM299.3 44.8c1 1 1.6 2.7 1.6 5.2v3.1c0 2-.5 3.4-1.4 4.4-1 1-2.6 1.7-5 2.2 2.5.3 4.3 1 5.5 2 1.2 1.1 1.8 2.7 1.8 4.7v3.5c0 2.7-.6 4.6-1.8 5.7-1.2 1-3.3 1.6-6.4 1.6H272c-3.1 0-5.2-.5-6.3-1.6-1.2-1-1.8-2.9-1.8-5.7v-3.5c0-2 .6-3.6 1.8-4.7 1.2-1 3-1.8 5.4-2-2.4-.5-4.1-1.2-5-2.2-1-1-1.4-2.5-1.4-4.4V50c0-2.5.5-4.2 1.6-5.2 1-.9 3.1-1.4 6.1-1.4h21.1c2.6 0 4.7.5 5.8 1.4zM274 62.5c-1.3 0-2.2.2-2.5.6-.5.4-.7 1.2-.7 2.5v2.5c0 1.2.2 2 .6 2.4.5.4 1.3.6 2.6.6h17.3c1.3 0 2.2-.2 2.5-.6.5-.4.7-1.2.7-2.4v-2.5c0-1.2-.2-2.1-.7-2.5-.4-.4-1.2-.6-2.5-.6H274zm.7-13.3c-1.3 0-2.2.2-2.6.6-.5.5-.7 1.2-.7 2.5V54c0 1.2.2 2 .7 2.4.5.5 1.3.7 2.6.7h15.8c1.2 0 2.1-.2 2.6-.6.5-.5.7-1.2.7-2.5v-1.7c0-1.2-.2-2.1-.7-2.5s-1.3-.6-2.6-.6h-15.8zM329.2 56c2.5-.3 4.9-.3 7.3-.3 5.4 0 9.2.7 11.2 1.9s3.1 3.5 3.1 6.8V69c0 2.8-1 4.9-2.8 6.2-1.9 1.4-4.8 2-8.8 2H325c-4.3 0-7.2-.7-8.8-2.2-1.6-1.5-2.4-4.2-2.4-8.2v-4.4c0-6.3 2.2-11.1 6.5-14.6s10.5-5.2 18.4-5.2h1c.3.1.8.1 1.4.1l4.6 5.4h-2.2c-7.2 0-12.4.7-15.6 2s-5.4 3.5-6.5 6.7c2.8-.4 5.3-.6 7.8-.8zm-8.1 6.8c-.1.3-.1.7-.1 1.1 0 3.3.5 5.3 1.3 6 .8.8 2.7 1.2 5.7 1.2h9.4c2.4 0 3.9-.3 4.8-.9.8-.6 1.3-1.6 1.3-3.2v-1.8c0-1.6-.5-2.7-1.5-3.2-1-.6-2.9-.9-6-.9-2.4 0-4.8.1-7.3.2-2.6.1-5 .3-7.7.6.1.3.1.6.1.9zM386.9 49.2h-22.3v7.3l-7.1-1.2V43.4H395v5.4l-17.7 28.9h-8.6l18.2-28.5z" class="st1"/><path d="M98.3 0v231.1c0 76.3 99.9 140.8 169.4 162.2 69.5-21.4 169.4-85.9 169.4-162.2V0H98.3zm324.8 231.1c0 56.2-63.5 98.9-121.4 123.3-7.5 2.8-23.8 6.1-34.1 6.1-10.9 0-28.4-3.9-34.5-6.5-57.7-24.5-120.6-67-120.6-123V27.9C133 24.2 203.1 11.1 267 11.1c64 0 135.7 12.6 156.1 16.9v203.1z" class="st1"/></g></svg>