<?xml version="1.0" encoding="utf-8"?>
<!-- Generator: Adobe Illustrator 24.1.2, SVG Export Plug-In . SVG Version: 6.00 Build 0)  -->
<svg version="1.1" id="Layer_1" xmlns="http://www.w3.org/2000/svg" xmlns:xlink="http://www.w3.org/1999/xlink" x="0px" y="0px"
	 viewBox="0 0 600 600" style="enable-background:new 0 0 600 600;" xml:space="preserve">
<style type="text/css">
	.st0{fill:#FFFFFF;}
	.st1{fill:#00693E;}
	.st2{display:none;fill:#00693E;}
</style>
<rect class="st0" width="600" height="600"/>
<g>
	<path class="st1" d="M183.6,26.9c3.2,19,9.6,49,18.4,84.6l398-10.1V0H0v116.5l164.3-4C173.3,76.4,180.1,46.1,183.6,26.9z"/>
	<path class="st1" d="M68.8,457.6c11.6,0,23.2,2.4,34,7.1c0.1,0,0.1,0.1,0.2,0.1c0.8,0.4,1.6,0.7,2.4,1.1c0.2,0.1,0.3,0.2,0.5,0.2
		c0.7,0.3,1.4,0.7,2.1,1.1c0.2,0.1,0.4,0.2,0.7,0.4c0.6,0.3,1.3,0.7,1.9,1c0.2,0.1,0.5,0.3,0.7,0.4c0.6,0.3,1.2,0.7,1.8,1l0,0l0,0
		c1.5,0.9,3.1,1.8,4.7,2.7c0.4,0.2,0.8,0.4,1.1,0.6c0.6,0.3,1.2,0.6,1.7,0.9c1,0.5,2,0.9,3,1.4c0.1,0.1,0.2,0.1,0.4,0.2
		c1.1,0.4,2.1,0.9,3.2,1.3c0.1,0.1,0.3,0.1,0.4,0.2c4.9,1.8,9.9,3.2,14.9,4.1c2.4,0.4,4.9,0.7,7.4,0.9c4,0.4,8,0.4,12,0.2v-60.9
		H63.6c30.9-63.2,64.1-170.5,88.2-260.3l0,0L0,178.5v301.7c8.5-2,16.8-5.4,24.5-10.1C38.1,461.8,53.4,457.6,68.8,457.6z"/>
	<path class="st1" d="M256.8,458.3l46.3-36.7l0,0H205v46.6c12.7-7,26.9-10.6,41-10.6C249.6,457.6,253.2,457.8,256.8,458.3z"/>
	<path class="st1" d="M243.1,259.6l356.9-122v-27.2l-387.1,43.8C221.8,187.8,232.1,224.1,243.1,259.6z"/>
	<path class="st1" d="M68.9,513.9c15.4,0,30.8,4.2,44.4,12.5c9.2,5.6,19.2,9.3,29.5,11.1c2.4,0.4,4.9,0.7,7.4,0.9
		c4.9,0.4,9.9,0.4,14.9,0c2.5-0.2,5-0.6,7.5-1c10.2-1.8,20.2-5.5,29.3-11.1l0,0c5.9-3.6,12.2-6.5,18.7-8.5c8.3-2.6,17-4,25.7-4
		c15.4,0,30.7,4.2,44.3,12.5c4.2,2.6,8.5,4.7,13,6.5c0.1,0,0.2,0.1,0.3,0.1c0.8,0.3,1.5,0.6,2.3,0.9c0.3,0.1,0.6,0.2,0.9,0.3
		c0.7,0.2,1.4,0.5,2.1,0.7c0.5,0.1,0.9,0.3,1.4,0.4c1,0.3,2,0.6,3,0.8c0.6,0.2,1.2,0.3,1.8,0.4c0.5,0.1,1.1,0.2,1.6,0.4
		c0.7,0.1,1.3,0.3,2,0.4c0.5,0.1,0.9,0.2,1.4,0.3c1,0.2,2.1,0.3,3.1,0.5c0.3,0,0.5,0.1,0.8,0.1c1.1,0.1,2.1,0.2,3.2,0.3
		c4.9,0.4,9.9,0.4,14.9,0c2.5-0.2,5-0.6,7.5-1c1.3-0.2,2.5-0.5,3.8-0.8c0,0,0,0,0.1,0c8.9-2,17.5-5.4,25.5-10.3l0,0
		c1.7-1,3.4-2,5.1-2.9c9.6-5,20-8.1,30.6-9.2h0.1c0.9-0.1,1.8-0.2,2.7-0.2c0.2,0,0.4,0,0.6,0c0.7,0,1.5-0.1,2.2-0.1
		c0.4,0,0.7,0,1.1,0c0.5,0,1.1,0,1.6,0l0,0l0,0l0,0l0,0l0,0c0.1,0,0.2,0,0.3,0c15.4,0,30.7,4.2,44.3,12.5
		c13.6,8.3,28.9,12.4,44.3,12.4c15.4,0,30.8-4.1,44.4-12.4c13.4-8.2,28.6-12.4,43.7-12.5v-28c-0.5,0-2.2-0.1-2.2-0.1
		c-14.4,0.5-28.8,4.6-41.5,12.4l0,0c-27.2,16.6-61.5,16.6-88.6,0c-13.6-8.3-28.9-12.5-44.4-12.5c-0.9,0-1.9,0-2.8,0l0,0l0,0
		c-0.3,0-0.6,0-0.9,0c-0.7,0-1.4,0.1-2,0.1l0,0c-13.4,0.9-26.6,5-38.5,12.2l0,0c-19.5,11.9-42.8,15.3-64.4,10
		c-8.5-2-16.7-5.4-24.3-10c-7.6-4.7-15.8-8-24.3-10.1c-21.6-5.2-44.8-1.8-64.3,10.1c-13.6,8.3-28.9,12.4-44.3,12.4
		c-6.7,0-13.5-0.8-20.1-2.4c-8.5-2-16.7-5.4-24.3-10.1l0,0c-0.1-0.1-0.3-0.2-0.4-0.3c-0.7-0.4-1.4-0.8-2.1-1.2
		c-0.2-0.1-0.3-0.2-0.5-0.2c-0.7-0.4-1.4-0.8-2.1-1.1c-0.2-0.1-0.4-0.2-0.5-0.3c-0.7-0.3-1.4-0.7-2.1-1c-0.2-0.1-0.4-0.2-0.6-0.3
		c-0.7-0.3-1.3-0.6-2-0.9c-0.3-0.1-0.5-0.2-0.8-0.3c-0.6-0.3-1.2-0.5-1.8-0.8c-0.3-0.1-0.6-0.2-0.9-0.4c-0.6-0.2-1.1-0.4-1.7-0.6
		c-0.4-0.1-0.8-0.3-1.1-0.4c-0.5-0.2-1-0.3-1.5-0.5c-0.5-0.1-0.9-0.3-1.4-0.4c-0.4-0.1-0.8-0.2-1.2-0.4c-0.5-0.2-1.1-0.3-1.6-0.5
		c-0.3-0.1-0.6-0.1-0.9-0.2c-0.7-0.2-1.3-0.3-2-0.5c-0.1,0-0.3-0.1-0.4-0.1c-5.2-1.2-10.5-1.8-15.7-2l0,0l0,0l0,0
		c-16.4-0.6-32.9,3.5-47.4,12.4C17,502.6,8.7,506,0.2,508v28.2c8.6-2,16.9-5.4,24.6-10.1C38.2,518.1,53.6,513.9,68.9,513.9z"/>
	<path class="st1" d="M597.8,542.2c-14.4,0.5-28.8,4.6-41.5,12.4l0,0c-27.2,16.6-61.5,16.6-88.6,0c-13.6-8.3-28.9-12.5-44.4-12.5
		c-0.9,0-1.8,0-2.7,0l0,0l0,0c-0.8,0-1.7,0.1-2.5,0.1c-0.1,0-0.1,0-0.2,0c-0.7,0-1.3,0.1-2,0.2c-0.3,0-0.5,0-0.8,0.1
		c-0.5,0.1-1.1,0.1-1.6,0.2c-0.4,0-0.8,0.1-1.2,0.1c-0.5,0.1-0.9,0.1-1.4,0.2c-0.5,0.1-1,0.1-1.5,0.2c-0.4,0.1-0.7,0.1-1.1,0.2
		c-0.6,0.1-1.2,0.2-1.8,0.3c-0.3,0.1-0.6,0.1-0.9,0.2c-0.7,0.1-1.3,0.3-2,0.5c-0.2,0.1-0.4,0.1-0.6,0.2c-0.7,0.2-1.5,0.4-2.2,0.6
		c-0.1,0-0.3,0.1-0.4,0.1c-0.8,0.2-1.6,0.5-2.4,0.7c-0.1,0-0.2,0.1-0.3,0.1c-0.9,0.3-1.7,0.6-2.6,0.9H395c-0.9,0.3-1.8,0.7-2.7,1
		l0,0c-2.7,1.1-5.4,2.3-8,3.6c0,0,0,0-0.1,0c-0.7,0.4-1.4,0.8-2.2,1.2c-0.2,0.1-0.3,0.2-0.5,0.3c-0.3,0.2-0.6,0.3-0.9,0.5
		c-0.5,0.3-1.1,0.6-1.6,0.9l0,0c-6,3.6-12.2,6.5-18.7,8.5c-23.1,7.3-48.7,4.5-69.9-8.5l0,0c-1-0.6-2.1-1.2-3.1-1.8
		c-26.7-14.7-59.4-14.1-85.5,1.8c-13.6,8.3-28.9,12.4-44.3,12.4s-30.7-4.2-44.3-12.4l0,0c-12.7-7.8-26.9-11.9-41.3-12.4l0,0l0,0l0,0
		c-16.3-0.6-32.8,3.6-47.2,12.4c-7.7,4.7-16.1,8.1-24.6,10.1V600h600v-57.6C598.8,542.2,597.8,542.2,597.8,542.2z"/>
	<path class="st1" d="M320,481.2c2.4,0.4,4.9,0.7,7.4,0.9c3.7,0.3,7.4,0.4,11.1,0.2c0.1,0,0.2,0,0.2,0c1,0,2.1-0.1,3.1-0.2
		c0.2,0,0.5,0,0.7-0.1c1-0.1,2-0.2,3-0.3c0.2,0,0.4,0,0.6-0.1c1-0.1,2-0.3,3-0.5c0.7-0.1,1.4-0.3,2.1-0.4c0.3-0.1,0.7-0.1,1-0.2
		c0.8-0.2,1.6-0.3,2.4-0.5c0.1,0,0.1,0,0.2-0.1c8.4-2,16.6-5.4,24.2-10c12.7-7.8,27-11.9,41.5-12.4c0.2,0,0.4,0,0.5,0
		c0.7,0,1.3,0,2,0l0,0l0,0l0,0l0,0l0,0c0.1,0,0.3,0,0.4,0c15.4,0,30.7,4.2,44.3,12.5c2.9,1.8,5.8,3.3,8.8,4.7l123.6-210v-66.5
		L316.9,480.6C317.9,480.8,318.9,481,320,481.2z"/>
	<path class="st1" d="M556.3,470.1c13.4-8.2,28.6-12.4,43.7-12.5V309.8l-65.7,169.7C542,477.5,549.4,474.3,556.3,470.1z"/>
	<path class="st1" d="M257.3,303.9c15.1,45.3,31,87,46.2,117.4l0.4-0.3L600,185.7v-38.3L257.5,304.3L257.3,303.9z"/>
	<path class="st2" d="M556.3,526.4c-13.6,8.3-29,12.4-44.4,12.4s-30.7-4.1-44.3-12.4c-13.6-8.3-28.9-12.5-44.3-12.5
		c-0.1,0-0.2,0-0.3,0l0,0l0,0c-0.5,0-1.1,0-1.6,0c-0.4,0-0.7,0-1.1,0c-0.7,0-1.5,0.1-2.2,0.1c-0.2,0-0.4,0-0.6,0
		c-0.9,0.1-1.8,0.1-2.7,0.2h-0.1c-10.6,1.1-20.9,4.1-30.6,9.2c-1.7,0.9-3.4,1.8-5.1,2.9l0,0c-8,4.9-16.6,8.3-25.5,10.3
		c0,0,0,0-0.1,0c-1.3,0.3-2.5,0.5-3.8,0.8c-2.5,0.4-5,0.8-7.5,1c-4.9,0.4-9.9,0.4-14.9,0c-1.1-0.1-2.1-0.2-3.2-0.3
		c-0.3,0-0.5-0.1-0.8-0.1c-1-0.1-2.1-0.3-3.1-0.5c-0.5-0.1-0.9-0.2-1.4-0.3c-0.7-0.1-1.3-0.3-2-0.4c-0.5-0.1-1.1-0.2-1.6-0.4
		c-0.6-0.1-1.2-0.3-1.8-0.4c-1-0.3-2-0.5-3-0.8c-0.5-0.1-0.9-0.3-1.4-0.4c-0.7-0.2-1.4-0.5-2.1-0.7c-0.3-0.1-0.6-0.2-0.9-0.3
		c-0.8-0.3-1.5-0.6-2.3-0.9c-0.1,0-0.2-0.1-0.3-0.1c-4.5-1.8-8.8-3.9-13-6.5c-13.6-8.3-28.9-12.5-44.3-12.5c-8.7,0-17.3,1.3-25.7,4
		c-6.5,2-12.7,4.9-18.7,8.5l0,0c-9.1,5.6-19.1,9.3-29.3,11.1c-2.5,0.4-5,0.8-7.5,1c-4.9,0.4-9.9,0.4-14.9,0
		c-2.5-0.2-4.9-0.5-7.4-0.9c-10.3-1.8-20.3-5.5-29.5-11.1c-13.6-8.3-29-12.5-44.4-12.5s-30.7,4.2-44.3,12.5
		c-7.7,4.7-16.1,8.1-24.6,10.1v28.2c8.6-2,16.9-5.4,24.6-10.1c14.4-8.8,30.9-13,47.2-12.4l0,0l0,0l0,0c14.4,0.5,28.6,4.6,41.3,12.4
		l0,0c13.6,8.3,28.9,12.4,44.3,12.4s30.7-4.2,44.3-12.4c26.1-16,58.8-16.6,85.5-1.8c1,0.6,2.1,1.2,3.1,1.8l0,0
		c21.2,12.9,46.8,15.8,69.9,8.5c6.5-2,12.8-4.9,18.7-8.5l0,0c0.5-0.3,1.1-0.6,1.6-0.9c0.3-0.2,0.6-0.3,0.9-0.5
		c0.2-0.1,0.3-0.2,0.5-0.3c0.7-0.4,1.4-0.8,2.2-1.2c0,0,0,0,0.1,0c2.6-1.3,5.3-2.5,8-3.6l0,0c0.9-0.4,1.8-0.7,2.7-1h0.1
		c0.9-0.3,1.7-0.6,2.6-0.9c0.1,0,0.2-0.1,0.3-0.1c0.8-0.3,1.6-0.5,2.4-0.7c0.1,0,0.3-0.1,0.4-0.1c0.7-0.2,1.5-0.4,2.2-0.6
		c0.2-0.1,0.4-0.1,0.6-0.2c0.7-0.2,1.3-0.3,2-0.5c0.3-0.1,0.6-0.1,0.9-0.2c0.6-0.1,1.2-0.2,1.8-0.3c0.4-0.1,0.7-0.1,1.1-0.2
		c0.5-0.1,1-0.2,1.5-0.2c0.5-0.1,0.9-0.1,1.4-0.2c0.4-0.1,0.8-0.1,1.2-0.1c0.5-0.1,1.1-0.1,1.6-0.2c0.3,0,0.5,0,0.8-0.1
		c0.7-0.1,1.3-0.1,2-0.2c0.1,0,0.1,0,0.2,0c0.8-0.1,1.7-0.1,2.5-0.1l0,0l0,0c0.9,0,1.8,0,2.7,0c15.4,0,30.8,4.2,44.4,12.5
		c27.1,16.6,61.4,16.6,88.6,0l0,0c12.7-7.8,27.1-11.9,41.5-12.4c0,0,1,0,2.2,0.1V514C584.8,514.1,569.7,518.2,556.3,526.4z"/>
	<path class="st1" d="M423.1,513.9L423.1,513.9L423.1,513.9z"/>
	<path class="st1" d="M422.9,457.6L422.9,457.6L422.9,457.6z"/>
	<path class="st2" d="M71.9,485.9L71.9,485.9L71.9,485.9L71.9,485.9c5.3,0.2,10.6,0.9,15.8,2.1c0.1,0,0.3,0.1,0.4,0.1
		c0.7,0.2,1.3,0.3,2,0.5c0.3,0.1,0.6,0.1,0.9,0.2c0.5,0.1,1.1,0.3,1.6,0.5c0.4,0.1,0.8,0.2,1.2,0.4c0.5,0.1,0.9,0.3,1.4,0.4
		c0.5,0.2,1,0.3,1.5,0.5c0.4,0.1,0.8,0.3,1.1,0.4c0.6,0.2,1.1,0.4,1.7,0.6c0.3,0.1,0.6,0.2,0.9,0.4c0.6,0.2,1.2,0.5,1.8,0.8
		c0.3,0.1,0.5,0.2,0.8,0.3c0.7,0.3,1.3,0.6,2,0.9c0.2,0.1,0.4,0.2,0.6,0.3c0.7,0.3,1.4,0.7,2.1,1c0.2,0.1,0.4,0.2,0.5,0.3
		c0.7,0.4,1.4,0.8,2.1,1.1c0.2,0.1,0.3,0.2,0.5,0.2c0.7,0.4,1.4,0.8,2.1,1.2c0.1,0.1,0.3,0.2,0.4,0.3l0,0c7.6,4.7,15.8,8,24.3,10.1
		c6.6,1.6,13.3,2.4,20.1,2.4c15.4,0,30.7-4.2,44.3-12.4c19.5-11.9,42.7-15.3,64.3-10.1c8.4,2.1,16.6,5.4,24.3,10.1
		c7.6,4.7,15.9,8,24.3,10c21.6,5.2,44.8,1.9,64.4-10l0,0c11.9-7.2,25.1-11.3,38.5-12.2l0,0c0.7,0,1.4-0.1,2-0.1c0.3,0,0.6,0,0.9,0
		l0,0l0,0c0.9,0,1.9,0,2.8,0c15.4,0,30.8,4.2,44.4,12.5c27.1,16.6,61.4,16.6,88.6,0l0,0c12.7-7.8,27.1-11.9,41.5-12.4
		c0,0,1.8,0.1,2.2,0.1v-28.3c-15.2,0.1-30.3,4.2-43.7,12.5c-6.9,4.2-14.3,7.4-21.9,9.4L600,309.8v-45.1l-123.6,210
		c-3-1.4-5.9-2.9-8.8-4.7c-13.6-8.3-28.9-12.5-44.3-12.5c-0.1,0-0.3,0-0.4,0l0,0l0,0c-0.7,0-1.3,0-2,0c-0.2,0-0.4,0-0.5,0
		c-14.4,0.5-28.7,4.6-41.5,12.4c-7.6,4.6-15.8,8-24.2,10c-0.1,0-0.1,0-0.2,0.1c-0.8,0.2-1.6,0.4-2.4,0.5c-0.3,0.1-0.7,0.1-1,0.2
		c-0.7,0.1-1.4,0.3-2.1,0.4c-1,0.2-2,0.3-3,0.5c-0.2,0-0.4,0-0.6,0.1c-1,0.1-2,0.2-3,0.3c-0.2,0-0.5,0-0.7,0.1
		c-1,0.1-2.1,0.2-3.1,0.2c-0.1,0-0.2,0-0.2,0c-3.7,0.2-7.4,0.1-11.1-0.2c-2.5-0.2-4.9-0.5-7.4-0.9c-1-0.2-2.1-0.4-3.1-0.6L600,198.3
		v-12.6L303.8,421l-0.4,0.3c-15.2-30.4-31.1-72.1-46.2-117.4l0.2,0.4L600,147.4v-9.8l-356.9,122c-11-35.6-21.3-71.8-30.1-105.4
		l387-43.7v-9l-398,10.1C193.2,76,186.7,46,183.6,27c-3.5,19.1-10.3,49.5-19.3,85.6L0,116.5v62l151.7-17.3l0,0
		c-24.1,89.8-57.3,197-88.2,260.3H162v60.9c-4,0.2-8,0.2-12-0.2c-2.5-0.2-4.9-0.5-7.4-0.9c-5.1-0.9-10.1-2.2-14.9-4.1
		c-0.1-0.1-0.3-0.1-0.4-0.2c-1.1-0.4-2.1-0.8-3.2-1.3c-0.1-0.1-0.2-0.1-0.4-0.2c-1-0.4-2-0.9-3-1.4c-0.6-0.3-1.2-0.6-1.7-0.9
		c-0.4-0.2-0.8-0.4-1.1-0.6c-1.6-0.8-3.1-1.7-4.7-2.7l0,0l0,0c-0.6-0.4-1.2-0.7-1.8-1c-0.2-0.1-0.5-0.3-0.7-0.4
		c-0.6-0.4-1.3-0.7-1.9-1c-0.2-0.1-0.4-0.2-0.7-0.4c-0.7-0.4-1.4-0.7-2.1-1.1c-0.2-0.1-0.3-0.2-0.5-0.2c-0.8-0.4-1.6-0.8-2.4-1.1
		c-0.1,0-0.1-0.1-0.2-0.1c-10.8-4.7-22.4-7.1-34-7.1c-15.4,0-30.7,4.2-44.3,12.5c-7.7,4.7-16,8.1-24.5,10.1v28.2
		c8.5-2,16.8-5.4,24.5-10.1C39,489.4,55.5,485.3,71.9,485.9z M205,421.5h98.1l0,0l-46.3,36.7c-3.6-0.5-7.2-0.7-10.8-0.7
		c-14.1,0-28.3,3.5-41,10.6L205,421.5L205,421.5z"/>
</g>
</svg>
