<?xml version="1.0" encoding="utf-8"?>
<!-- Generator: Adobe Illustrator 24.1.0, SVG Export Plug-In . SVG Version: 6.00 Build 0)  -->
<svg version="1.1" id="Layer_1" xmlns="http://www.w3.org/2000/svg" xmlns:xlink="http://www.w3.org/1999/xlink" x="0px" y="0px"
	 viewBox="0 0 942.3 47.5" style="enable-background:new 0 0 942.3 47.5;" xml:space="preserve">
<style type="text/css">
	.st0{fill:#FFFFFF;}
</style>
<g>
	<path class="st0" d="M19.4,1.6H0v0.8c1.7,1,2.5,2.2,2.5,7.1v29c0,4.9-0.8,6.1-2.5,7.1v0.8h18.2c16.9,0,25.7-10,25.7-23.7
		C43.9,10.6,35.4,1.6,19.4,1.6 M17.7,41.7H9.6V6.5h8.7c11.7,0,18.1,5.9,18.1,18.1C36.4,35.2,30.5,41.7,17.7,41.7 M192.9,45.7
		c-2-0.8-2.8-2.4-2.2-7.3l2.9-22.3L208.3,46h2.7l14.8-30l2.8,22.6c0.6,4.8-0.1,6.2-1.9,7.1v0.8h12.2v-0.8c-1.7-0.9-2.4-2.2-3-6.8
		l-5.1-37.8h-3.3l-16.7,34.6L193.9,1.1h-3.3l-5.3,37.5c-0.6,4.7-1.6,6.1-3.5,7.1v0.8h11V45.7z M166.9,45.7c-1.9-1.1-2.8-2.4-2.8-7.4
		V6.5h5.5c7,0,8.3,1,10.2,3.3l0.8-0.3l-1.3-8.5c-2.6,0.3-6.1,0.6-10.5,0.6h-16.5c-4.4,0-7.8-0.3-10.5-0.6l-1.3,8.5l0.8,0.3
		c1.9-2.3,3.2-3.3,10.2-3.3h5.5v31.8c0,5.1-0.9,6.4-2.8,7.4v0.8h12.8V45.7z M110.4,46.6H98.3v-0.8c1.4-0.7,2.5-2.2,2.5-7.1v-29
		c0-4.9-1.1-6.4-2.5-7.1V1.6h16.2c11.9,0,17.5,4.7,17.5,13c0,5.6-3.4,10.3-10,12.1c1.9,0.8,3.5,2.6,6.5,6.4l5.5,7.1
		c3.1,4,4.4,4.9,6,5.6v0.8H132c-1.7,0-2.6-0.5-3.9-2.2l-8-10.8c-3.1-4.2-3.8-4.9-5.9-4.9h-1.9l-2-4v-0.6h4.2c6.5,0,9.9-3.4,9.9-8.9
		c0-6-3.6-8.7-10.7-8.7h-5.8v32.3c0,4.9,1.1,6.4,2.5,7.1V46.6z M87.9,39.6L70.5,1.1h-2.6L50.5,39.6c-1.7,3.8-2.6,5.2-4.6,6.1v0.8
		h11.5v-0.8c-2.3-0.9-3.1-2.3-1-7l2.4-5.5h18.5l2.4,5.5c2.1,4.7,1.3,6.1-0.7,7v0.8h13.2v-0.8C90.4,44.8,89.6,43.4,87.9,39.6
		 M60.9,28.7L68,12.2l7.2,16.4H60.9z M406.5,2.5c-1.7,1-2.5,2.2-2.5,7.1v11.5h25.7V9.6c0-4.9-0.8-6.1-2.5-7.1V1.6h12.1v0.8
		c-1.7,1-2.5,2.2-2.5,7.1v29c0,4.9,0.8,6.1,2.5,7.1v0.8h-12.1v-0.8c1.7-1,2.5-2.2,2.5-7.1V26.1H404v12.5c0,4.9,0.8,6.1,2.5,7.1v0.8
		h-12.1v-0.8c1.7-1,2.5-2.2,2.5-7.1v-29c0-4.9-0.8-6.1-2.5-7.1V1.6h12.1V2.5z M374.3,46.6h-12.8v-0.8c1.9-1.1,2.8-2.4,2.8-7.4V6.5
		h-5.5c-7,0-8.3,1-10.2,3.3l-0.8-0.3l1.3-8.5c2.6,0.3,6.1,0.6,10.5,0.6h16.5c4.4,0,7.8-0.3,10.5-0.6l1.3,8.5l-0.8,0.3
		c-1.9-2.3-3.2-3.3-10.2-3.3h-5.5v31.8c0,5.1,0.9,6.4,2.8,7.4V46.6z M329.8,1.6h11.1v0.8c-1.9,1.1-2.8,2.4-2.8,7.4v19.2
		c0,11.9-6.9,18.4-18.6,18.4c-11.7,0-18.6-6.5-18.6-17.5V9.6c0-4.9-0.8-6.1-2.5-7.1V1.6h12.1v0.8c-1.7,1-2.5,2.2-2.5,7.1v20
		c0,7.9,4.4,12.3,12.4,12.3c7.8,0,12.2-4.6,12.2-12.8V9.9c0-5.1-1-6.4-2.8-7.4V1.6z M265.6,0.6c-14.4,0-23.7,11.1-23.7,23.8
		c0,12.1,8.6,23.1,23.8,23.1c14.4,0,23.7-11.1,23.7-23.8C289.4,11.7,280.8,0.6,265.6,0.6 M266.3,42.6c-9.5,0-16.8-8.3-16.8-19.6
		c0-10.8,6.2-17.4,15.6-17.4c9.5,0,16.8,8.3,16.8,19.6C281.9,35.9,275.6,42.6,266.3,42.6"/>
	<g>
		<path class="st0" d="M492.6,6.5c6.7,0,8.8,0.4,10.8,1.9l0.7-0.4l-2.6-6.6c-2.4,0.3-5.6,0.3-9.5,0.3h-20v0.8c1.7,1,2.5,2.2,2.5,7.1
			v29c0,4.9-0.8,6.1-2.5,7.1v0.8h21.7c4.4,0,7.1,0.1,9.5,0.3l3.7-7.7l-0.7-0.5c-2.8,1.9-5.2,3.1-13.2,3.1h-11.4V26h9.6
			c2.4,0,5.2,0.2,7,0.4l3.1-6l-0.6-0.6c-2,0.8-4.6,1.3-9.2,1.3h-9.9V6.5H492.6z"/>
		<path class="st0" d="M754.3,6.5c6.7,0,8.8,0.4,10.8,1.9l0.7-0.4l-2.6-6.6c-2.4,0.3-5.6,0.3-9.5,0.3h-20v0.8c1.7,1,2.5,2.2,2.5,7.1
			v29c0,4.9-0.8,6.1-2.5,7.1v0.8h21.7c4.4,0,7.1,0.1,9.5,0.3l3.7-7.7l-0.7-0.5c-2.8,1.9-5.2,3.1-13.2,3.1h-11.4V26h9.6
			c2.4,0,5.2,0.2,7,0.4l3.1-6l-0.6-0.6c-2,0.8-4.6,1.3-9.2,1.3h-9.9V6.5H754.3z"/>
		<path class="st0" d="M714.2,6.5c6.7,0,8.8,0.4,10.8,1.9l0.7-0.4l-2.6-6.6c-2.4,0.3-5.6,0.3-9.5,0.3h-20v0.8c1.7,1,2.5,2.2,2.5,7.1
			v29c0,4.9-0.8,6.1-2.5,7.1v0.8h21.7c4.4,0,7.1,0.1,9.5,0.3l3.7-7.7l-0.7-0.5c-2.8,1.9-5.2,3.1-13.2,3.1h-11.4V26h9.6
			c2.4,0,5.2,0.2,7,0.4l3.1-6l-0.6-0.6c-2,0.8-4.6,1.3-9.2,1.3h-9.9V6.5H714.2z"/>
		<path class="st0" d="M554.5,10c0-5.1,1-6.3,2.8-7.4V1.7h-11.1v0.8c1.9,1.1,2.8,2.4,2.8,7.4v24L517,1.5h-2.6v36.9
			c0,5.1-1,6.3-2.8,7.4v0.8h11.1v-0.8c-1.9-1.1-2.8-2.4-2.8-7.4v-24L552,46.9h2.5V10z"/>
		<path class="st0" d="M681.8,10c0-5.1,1-6.3,2.8-7.4V1.7h-11.1v0.8c1.9,1.1,2.8,2.4,2.8,7.4v24L644.3,1.5h-2.6v36.9
			c0,5.1-1,6.3-2.8,7.4v0.8h11.1v-0.8c-1.9-1.1-2.8-2.4-2.8-7.4v-24l32.2,32.6h2.5V10z"/>
		<path class="st0" d="M886.3,10c0-5.1,1-6.3,2.8-7.4V1.7H878v0.8c1.9,1.1,2.8,2.4,2.8,7.4v24L848.7,1.5h-2.6v36.9
			c0,5.1-1,6.3-2.8,7.4v0.8h11.1v-0.8c-1.9-1.1-2.8-2.4-2.8-7.4v-24l32.2,32.6h2.5V10z"/>
		<path class="st0" d="M605.6,40.7l0.1-0.3V30.1l4.2-3.7V26h-17.4l-3.5,4v0.4h9.8v9.4c-2.4,1.5-5.5,2.3-9.2,2.3
			c-11.7,0-19-7.7-19-19.6c0-11.2,6.2-17.5,16.5-17.5c6.5,0,11.9,2.4,14.2,5.5l0.8-0.1v-7c-2.5-1.8-7.7-3.3-14.2-3.3
			C572.1,0,563,10.8,563,24.1c0,12,8,22.8,24.2,22.8C594.5,46.9,601.3,44.6,605.6,40.7"/>
		<path class="st0" d="M938,40.7l0.1-0.3V30.1l4.2-3.7V26h-17.4l-3.5,4v0.4h9.8v9.4c-2.4,1.5-5.5,2.3-9.2,2.3
			c-11.7,0-19-7.7-19-19.6c0-11.2,6.2-17.5,16.5-17.5c6.5,0,11.9,2.4,14.2,5.5l0.8-0.1v-7C932,1.5,926.8,0,920.2,0
			c-15.7,0-24.8,10.8-24.8,24.1c0,12,8,22.8,24.2,22.8C926.9,46.9,933.7,44.6,938,40.7"/>
		<path class="st0" d="M629.2,46c-1.7-1-2.5-2.2-2.5-7.1v-29c0-4.9,0.8-6.1,2.5-7.1V2h-12.1v0.8c1.7,1,2.5,2.2,2.5,7.1v29
			c0,4.9-0.8,6.1-2.5,7.1v0.8h12.1V46z"/>
		<path class="st0" d="M833.3,46c-1.7-1-2.5-2.2-2.5-7.1v-29c0-4.9,0.8-6.1,2.5-7.1V2h-12.1v0.8c1.7,1,2.5,2.2,2.5,7.1v29
			c0,4.9-0.8,6.1-2.5,7.1v0.8h12.1V46z"/>
		<path class="st0" d="M785.1,46.9h-12.1V46c1.4-0.7,2.5-2.2,2.5-7.1v-29c0-4.9-1.1-6.4-2.5-7.1V2h16.2c11.9,0,17.4,4.7,17.4,13
			c0,5.6-3.4,10.3-10,12.1c1.9,0.8,3.5,2.6,6.5,6.3l5.5,7.1c3.1,4,4.4,4.9,6,5.6v0.8h-7.9c-1.7,0-2.6-0.5-3.8-2.2l-8-10.8
			c-3.1-4.2-3.8-4.9-5.9-4.9H787l-2-4v-0.6h4.2c6.5,0,9.9-3.4,9.9-8.9c0-6-3.6-8.7-10.7-8.7h-5.8v32.3c0,4.9,1.1,6.4,2.5,7.1V46.9z"
			/>
	</g>
</g>
</svg>
