<?xml version="1.0" encoding="utf-8"?>
<!-- Generator: Adobe Illustrator 23.0.6, SVG Export Plug-In . SVG Version: 6.00 Build 0)  -->
<svg version="1.1" id="Layer_1" xmlns="http://www.w3.org/2000/svg" xmlns:xlink="http://www.w3.org/1999/xlink" x="0px" y="0px"
	 viewBox="0 0 600 600" style="enable-background:new 0 0 600 600;" xml:space="preserve">
<style type="text/css">
	.st0{fill:#FFFFFF;}
	.st1{fill:#006937;}
</style>
<g>
	<path class="st0" d="M260.5,314L600,194v-11.7l-371.8,25.9C238.1,243.4,249.1,279.7,260.5,314z"/>
	<path class="st0" d="M295,127.5h27.8c2.1,0,3.5-0.3,4.1-0.9c0.7-0.6,1-1.9,1-3.9v-4c0-2-0.3-3.4-1-4c-0.6-0.6-2-0.9-4.1-0.9H295
		c-2.1,0-3.5,0.3-4.1,0.9c-0.7,0.6-1,2-1,4v4c0,2,0.3,3.3,0.9,3.9C291.6,127.2,292.9,127.5,295,127.5z"/>
	<path class="st0" d="M379,127.5h15.1c3.8,0,6.3-0.4,7.8-1.4c1.4-0.9,2.1-2.6,2.1-5.2v-2.9c0-2.5-0.9-4.3-2.4-5.2
		c-1.6-0.9-4.7-1.4-9.6-1.4c-3.9,0-7.8,0.1-11.8,0.3c-4.1,0.2-8.1,0.5-12.3,0.9c-0.1,0.4-0.1,0.9-0.1,1.4c-0.1,0.4-0.1,1-0.1,1.8
		c0,5.3,0.7,8.5,2.1,9.7C371.3,126.9,374.3,127.5,379,127.5z"/>
	<path class="st0" d="M296.3,104.9h25.4c2,0,3.4-0.3,4.1-0.9c0.7-0.7,1.1-2,1.1-4v-2.7c0-2-0.3-3.4-1.1-4c-0.7-0.6-2.1-0.9-4.1-0.9
		h-25.4c-2.1,0-3.5,0.3-4.2,0.9c-0.7,0.7-1,2-1,4v2.7c0,2,0.3,3.3,1,3.9C292.8,104.6,294.2,104.9,296.3,104.9z"/>
	<path class="st0" d="M306.6,431h-98.2v54.3c0.3,0,0.6,0.1,0.9,0.1c8.5,1.4,17.4,3.2,26.8,5.5l0,0.1c1.8,0.4,3.5,0.9,5.3,1.3
		L600,211.9v-12.9L272.1,347.4C283.6,379.4,295.3,408.3,306.6,431z"/>
	<path class="st0" d="M536.4,495c20.2,5.2,37.6,9.8,56.3,9.8c2.4,0,4.9-0.1,7.3-0.2V253.5l-94.9,234
		C516.1,489.8,526.4,492.4,536.4,495z"/>
	<path class="st0" d="M308.3,504.8c18.8,0,36.2-4.5,56.3-9.8c24.8-6.5,51.8-13.4,86.1-13.2c2.1,0,4.3,0,6.4,0L600,237.5v-15.9
		l-299.4,283C303.1,504.7,305.7,504.8,308.3,504.8z"/>
	<path class="st0" d="M81.8,495c5.6-1.4,11.3-2.9,17.1-4.3l0-0.1c9-2.2,17.6-3.9,25.8-5.3c12.5-2.1,26-3.5,40.9-3.5V431H67.4
		c26-53.3,53.7-137.8,76.1-216.8L0,224.2v278.1c8.5,1.5,16.8,2.5,25.5,2.5C44.2,504.8,61.7,500.3,81.8,495z"/>
	<path class="st0" d="M523,559.8c-14.8-3.7-29.8-7.4-46.5-9.6l0,0.1c-11.2-1.4-21.5-2.1-31.1-2.1c-0.3,0-0.5,0-0.8,0
		c-0.1,0-0.1,0-0.2,0c-10.2,0.1-21.2,0.9-33.2,2.7l0-0.1c-15,2.2-28.6,5.6-42,9c-19.9,5-38.7,9.7-59.4,9.7
		c-20.7,0-39.5-4.7-59.4-9.7c-15-3.8-30.3-7.5-47.4-9.7c-10.2-1.2-19.7-1.8-28.6-1.8c-0.6,0-1.2,0-1.8,0c-1,0-1.9,0-2.9,0.1
		c-1.8,0-3.6,0.1-5.5,0.2c-0.2,0-0.5,0-0.7,0c-2.4,0.1-4.9,0.3-7.4,0.5c-0.2,0-0.4,0-0.5,0c-2.3,0.2-4.6,0.4-7,0.7
		c-0.7,0.1-1.4,0.2-2.1,0.2c-1.1,0.1-2.2,0.3-3.3,0.4c-16.4,2.2-31.2,5.9-45.7,9.5c-19.9,5-38.7,9.7-59.4,9.7
		c-13.2,0-25.7-1.9-38.1-4.6V600h600v-31.6c-5.8,0.7-11.6,1.1-17.6,1.1C561.6,569.5,542.9,564.8,523,559.8z"/>
	<path class="st0" d="M187,37.6c4.7,28.1,16.6,80.2,32.5,139l380.5,0.3V0H0v176.5l153.9,0.1C169.8,117.7,181.9,65.6,187,37.6z
		 M426.5,83h60.3v8.7l-28.4,46.5h-13.8l29.2-46H438V104l-11.5-2V83z M356.2,113.4c0-10.1,3.5-17.9,10.5-23.5
		c7-5.6,16.8-8.3,29.6-8.3c0.5,0,1.1,0,1.6,0c0.5,0.1,1.4,0.1,2.3,0.2l7.5,8.7h-3.5c-11.6,0-19.9,1.1-25.1,3.2
		c-5.2,2.1-8.6,5.7-10.4,10.8c4.1-0.6,8.2-1,12.2-1.4c4-0.4,7.9-0.5,11.8-0.5c8.7,0,14.7,1.1,18,3.1c3.3,2,4.9,5.7,4.9,10.9v7.4
		c0,4.5-1.6,7.9-4.5,10c-3.1,2.2-7.7,3.3-14.1,3.3h-22.9c-6.8,0-11.6-1.2-14.1-3.6c-2.5-2.4-3.8-6.8-3.8-13.1V113.4z M278.4,120
		c0-3.3,0.9-5.8,2.8-7.6c1.9-1.7,4.8-2.8,8.7-3.3c-3.8-0.7-6.5-1.9-8.1-3.5c-1.6-1.6-2.3-4-2.3-7v-5c0-4.1,0.9-6.8,2.5-8.4
		c1.7-1.5,5-2.2,9.9-2.2h33.9c4.8,0,8.2,0.7,9.9,2.2c1.7,1.6,2.5,4.3,2.5,8.4v5c0,3.2-0.7,5.5-2.3,7c-1.6,1.6-4.2,2.7-8.1,3.5
		c4,0.4,6.9,1.6,8.8,3.3c1.9,1.8,2.8,4.3,2.8,7.6v5.7c0,4.4-0.9,7.5-2.9,9.2c-1.9,1.7-5.4,2.5-10.3,2.5h-34.7
		c-4.9,0-8.3-0.8-10.2-2.5c-2-1.6-2.9-4.7-2.9-9.2V120z M233.4,86.1l23-3.5v54.7H245v-44h-11.6V86.1z"/>
	<path class="st0" d="M592.7,526.2c-21.5,0-41.1-5.1-61.7-10.5c-5.6-1.5-11.3-2.9-17.2-4.4l-0.1,0.3c-23.8-5.9-44.5-8.3-62.9-8.4
		c-18.3,0.1-38.7,2.3-62.3,8.1l-0.1-0.3c-6.3,1.5-12.4,3.1-18.4,4.6c-20.7,5.4-40.2,10.5-61.7,10.5c-21.5,0-41.1-5.1-61.7-10.5
		c-15.7-4.1-32.3-8.4-51.3-10.7c-1.2-0.1-2.4-0.3-3.6-0.4c-0.1,0-0.3,0-0.4,0c-6.8-0.7-13.4-1.1-19.7-1.2c-0.5,0-0.9,0-1.4,0
		c-0.9,0-1.9,0-2.8,0c-1.3,0-2.6,0-4,0c-0.1,0-0.1,0-0.2,0c-7.7,0.1-15.8,0.7-24.4,1.7c-0.8,0.1-1.6,0.2-2.3,0.3
		c-0.4,0-0.7,0.1-1.1,0.1c-17.6,2.4-33.3,6.5-48.1,10.3c-20.7,5.4-40.2,10.5-61.7,10.5c-8.8,0-17.2-0.9-25.5-2.2v20.6
		c13,3,25.2,5.1,38.1,5.1c18.1,0,34.8-4.2,54.2-9c13.3-3.3,27.4-6.9,43.2-9.3l0-0.1c4.9-0.7,9.7-1.3,14.4-1.7c0.3,0,0.5,0,0.8-0.1
		c1.7-0.2,3.4-0.3,5.1-0.4c0.9-0.1,1.9-0.1,2.8-0.2c1.8-0.1,3.5-0.2,5.2-0.3c0.8,0,1.7-0.1,2.5-0.1c2.1-0.1,4.1-0.1,6.2-0.1
		c0.3,0,0.7,0,1,0c8.7,0,16.8,0.4,24.6,1.2c0.2,0,0.4,0,0.6,0.1c2.2,0.2,4.3,0.5,6.5,0.7c0.8,0.1,1.6,0.2,2.4,0.3l0,0
		c17.7,2.4,33.3,6.3,48,10c19.4,4.8,36.1,9,54.2,9c18.1,0,34.8-4.2,54.2-9c22-5.5,46.1-11.5,76.1-12.1c0.2,0,0.5,0,0.7,0
		c1.5,0,2.9-0.1,4.4-0.1c33.2-0.2,59.3,6.3,82.9,12.2c19.4,4.8,36.1,9,54.2,9c6,0,11.8-0.5,17.6-1.2V526
		C597.6,526.1,595.2,526.2,592.7,526.2z"/>
	<polygon class="st0" points="600,199.1 600,194 600,194 600,199.1 	"/>
	<path class="st1" d="M87.2,515.8c14.8-3.9,30.4-7.9,48.1-10.3c0.4,0,0.7-0.1,1.1-0.1c0.8-0.1,1.5-0.2,2.3-0.3
		c8.6-1,16.7-1.6,24.4-1.7c0.1,0,0.1,0,0.2,0c1.3,0,2.6,0,4,0c0.9,0,1.9,0,2.8,0c0.5,0,0.9,0,1.4,0c6.3,0.1,12.8,0.5,19.7,1.2
		c0.1,0,0.3,0,0.4,0c1.2,0.1,2.4,0.3,3.6,0.4c19,2.3,35.6,6.6,51.3,10.7c20.7,5.4,40.2,10.5,61.7,10.5c21.5,0,41-5.1,61.7-10.5
		c6-1.6,12.1-3.1,18.4-4.6l0.1,0.3c23.6-5.8,44-8,62.3-8.1c18.4,0.1,39.1,2.4,62.9,8.4l0.1-0.3c5.9,1.4,11.6,2.9,17.2,4.4
		c20.7,5.4,40.2,10.5,61.7,10.5c2.4,0,4.9-0.1,7.3-0.2v-21.4c-2.4,0.1-4.8,0.2-7.3,0.2c-18.8,0-36.2-4.5-56.3-9.8
		c-10-2.6-20.3-5.3-31.3-7.5l94.9-234v-16L457.1,481.8c-2.1,0-4.2-0.1-6.4,0c-34.3-0.2-61.3,6.8-86.1,13.2
		c-20.1,5.2-37.6,9.8-56.3,9.8c-2.6,0-5.1-0.1-7.7-0.3l299.4-283v-9.6L241.3,492.3c-1.7-0.4-3.5-0.9-5.3-1.3l0-0.1
		c-9.4-2.3-18.3-4.2-26.8-5.5c-0.3,0-0.6-0.1-0.9-0.1V431h98.2c-11.3-22.6-23-51.6-34.5-83.6L600,199.1V194L260.5,314
		c-11.4-34.3-22.4-70.6-32.3-105.7L600,182.3v-5.4l-380.5-0.3c-15.8-58.8-27.8-110.9-32.5-139c-5.1,28-17.2,80-33.1,139L0,176.5
		v47.7l143.5-10C121.1,293.1,93.4,377.7,67.4,431h98.2v50.8c-14.9,0.1-28.4,1.4-40.9,3.5c-8.2,1.3-16.8,3.1-25.8,5.3l0,0.1
		c-5.8,1.4-11.5,2.9-17.1,4.3c-20.1,5.2-37.6,9.8-56.3,9.8c-8.7,0-17-1-25.5-2.5V524c8.3,1.4,16.7,2.2,25.5,2.2
		C47,526.2,66.5,521.1,87.2,515.8z"/>
	<path class="st1" d="M528.1,540.7c-23.7-5.9-49.7-12.4-82.9-12.2c-1.5,0-3,0-4.4,0.1c-0.2,0-0.5,0-0.7,0
		c-30,0.7-54.1,6.6-76.1,12.1c-19.4,4.8-36.1,9-54.2,9c-18.1,0-34.8-4.2-54.2-9c-14.7-3.7-30.3-7.6-48-10l0,0
		c-0.8-0.1-1.6-0.2-2.4-0.3c-2.1-0.3-4.3-0.5-6.5-0.7c-0.2,0-0.4,0-0.6-0.1c-7.8-0.8-15.9-1.2-24.6-1.2c-0.3,0-0.7,0-1,0
		c-2,0-4.1,0.1-6.2,0.1c-0.8,0-1.7,0.1-2.5,0.1c-1.7,0.1-3.5,0.2-5.2,0.3c-0.9,0.1-1.9,0.1-2.8,0.2c-1.7,0.1-3.4,0.3-5.1,0.4
		c-0.3,0-0.5,0-0.8,0.1c-4.7,0.4-9.5,1-14.4,1.7l0,0.1c-15.7,2.4-29.8,5.9-43.2,9.3c-19.4,4.8-36.1,9-54.2,9
		c-12.9,0-25.1-2.1-38.1-5.1v20.3c12.4,2.7,24.9,4.6,38.1,4.6c20.7,0,39.5-4.7,59.4-9.7c14.5-3.6,29.3-7.3,45.7-9.5
		c1.1-0.1,2.2-0.3,3.3-0.4c0.7-0.1,1.4-0.2,2.1-0.2c2.4-0.3,4.7-0.5,7-0.7c0.2,0,0.4,0,0.5,0c2.5-0.2,5-0.3,7.4-0.5
		c0.2,0,0.5,0,0.7,0c1.9-0.1,3.7-0.1,5.5-0.2c1,0,1.9,0,2.9-0.1c0.6,0,1.2,0,1.8,0c8.9,0,18.4,0.6,28.6,1.8
		c17.1,2.2,32.4,6,47.4,9.7c19.9,5,38.7,9.7,59.4,9.7c20.7,0,39.5-4.7,59.4-9.7c13.4-3.4,27-6.7,42-9l0,0.1
		c11.9-1.7,22.9-2.6,33.2-2.7c0.1,0,0.1,0,0.2,0c0.3,0,0.5,0,0.8,0c9.7,0,20,0.6,31.1,2.1l0-0.1c16.7,2.2,31.7,5.9,46.5,9.6
		c19.9,5,38.7,9.7,59.4,9.7c6,0,11.9-0.4,17.6-1.1v-20c-5.8,0.8-11.7,1.2-17.6,1.2C564.3,549.7,547.5,545.5,528.1,540.7z"/>
	<polygon class="st1" points="245,137.3 256.4,137.3 256.4,82.6 233.4,86.1 233.4,93.3 245,93.3 	"/>
	<path class="st1" d="M281.4,134.8c1.9,1.7,5.3,2.5,10.2,2.5h34.7c4.9,0,8.4-0.8,10.3-2.5c2-1.7,2.9-4.7,2.9-9.2V120
		c0-3.3-0.9-5.8-2.8-7.6c-1.9-1.7-4.8-2.8-8.8-3.3c3.9-0.7,6.5-1.9,8.1-3.5c1.6-1.6,2.3-3.9,2.3-7v-5c0-4.1-0.9-6.8-2.5-8.4
		c-1.7-1.5-5.1-2.2-9.9-2.2H292c-4.8,0-8.2,0.7-9.9,2.2c-1.7,1.6-2.5,4.3-2.5,8.4v5c0,3,0.7,5.5,2.3,7c1.6,1.6,4.3,2.7,8.1,3.5
		c-3.9,0.4-6.9,1.6-8.7,3.3c-1.9,1.8-2.8,4.3-2.8,7.6v5.7C278.4,130.1,279.4,133.2,281.4,134.8z M291,97.2c0-2,0.3-3.3,1-4
		c0.7-0.6,2.1-0.9,4.2-0.9h25.4c2,0,3.4,0.3,4.1,0.9c0.7,0.6,1.1,2,1.1,4v2.7c0,2-0.3,3.3-1.1,4c-0.7,0.6-2.1,0.9-4.1,0.9h-25.4
		c-2.1,0-3.5-0.3-4.2-1c-0.7-0.6-1-1.9-1-3.9V97.2z M289.9,118.7c0-2,0.3-3.4,1-4c0.6-0.6,2-0.9,4.1-0.9h27.8c2.1,0,3.5,0.3,4.1,0.9
		c0.7,0.6,1,2,1,4v4c0,2-0.3,3.3-1,3.9c-0.6,0.6-2,0.9-4.1,0.9H295c-2.1,0-3.5-0.3-4.2-0.9c-0.6-0.6-0.9-1.9-0.9-3.9V118.7z"/>
	<path class="st1" d="M374.1,137.3H397c6.4,0,11-1,14.1-3.3c3-2.1,4.5-5.5,4.5-10v-7.4c0-5.3-1.7-8.9-4.9-10.9
		c-3.3-2-9.3-3.1-18-3.1c-3.9,0-7.8,0.1-11.8,0.5c-4,0.3-8.1,0.7-12.2,1.4c1.8-5.2,5.3-8.7,10.4-10.8c5.2-2.1,13.5-3.2,25.1-3.2h3.5
		l-7.5-8.7c-1-0.1-1.8-0.1-2.3-0.2c-0.5,0-1,0-1.6,0c-12.7,0-22.6,2.7-29.6,8.3c-7,5.6-10.5,13.4-10.5,23.5v7.2
		c0,6.3,1.3,10.7,3.8,13.1C362.5,136.2,367.3,137.3,374.1,137.3z M367.9,114.2c0-0.4,0-0.9,0.1-1.4c4.2-0.4,8.2-0.7,12.3-0.9
		c4-0.2,7.9-0.3,11.8-0.3c4.8,0,8,0.4,9.6,1.4c1.6,0.8,2.4,2.6,2.4,5.2v2.9c0,2.5-0.7,4.2-2.1,5.2c-1.5,0.9-4,1.4-7.8,1.4H379
		c-4.8,0-7.8-0.6-9.2-1.9c-1.4-1.2-2.1-4.4-2.1-9.7C367.8,115.2,367.8,114.6,367.9,114.2z"/>
	<polygon class="st1" points="438,92.3 473.8,92.3 444.6,138.3 458.4,138.3 486.8,91.8 486.8,83 426.5,83 426.5,102 438,104 	"/>
</g>
</svg>
