<svg width="100" height="100" xmlns="http://www.w3.org/2000/svg"><g fill="none"><path d="M50.016 0C29.142 0 23.036.022 21.85.12c-4.284.356-6.95 1.03-9.853 2.477-2.238 1.112-4.004 2.4-5.746 4.207C3.08 10.098 1.156 14.15.461 18.968.12 21.306.022 21.783.002 33.729c-.007 3.982 0 9.222 0 16.251 0 20.864.023 26.964.123 28.149.347 4.17 1 6.793 2.385 9.662 2.645 5.493 7.698 9.616 13.65 11.155 2.062.53 4.339.823 7.261.962 1.238.054 13.859.092 26.487.092 12.629 0 25.257-.015 26.465-.077 3.384-.16 5.349-.423 7.521-.985a20.936 20.936 0 0 0 13.652-11.177c1.357-2.8 2.045-5.524 2.357-9.476.068-.862.096-14.599.096-28.318 0-13.72-.03-27.433-.098-28.294-.316-4.016-1.004-6.716-2.405-9.57-1.15-2.337-2.427-4.082-4.28-5.866-3.308-3.16-7.354-5.083-12.174-5.778C78.707.12 78.242.02 66.29 0H50.016z" fill="#8A6996"/><path d="M50.003 13.082c-10.026 0-11.284.044-15.222.223-3.93.18-6.613.802-8.96 1.715-2.429.943-4.488 2.205-6.54 4.258-2.054 2.052-3.315 4.111-4.261 6.539-.916 2.348-1.539 5.031-1.715 8.96-.177 3.938-.223 5.197-.223 15.223s.045 11.28.223 15.219c.181 3.93.803 6.612 1.715 8.96.944 2.428 2.206 4.488 4.258 6.54 2.052 2.053 4.111 3.318 6.538 4.26 2.349.914 5.032 1.536 8.962 1.716 3.938.179 5.195.223 15.22.223 10.028 0 11.282-.044 15.22-.223 3.93-.18 6.616-.802 8.965-1.715 2.428-.943 4.484-2.208 6.536-4.261 2.053-2.052 3.315-4.112 4.26-6.54.908-2.348 1.531-5.031 1.716-8.96.177-3.938.223-5.193.223-15.219s-.046-11.285-.223-15.222c-.185-3.93-.808-6.613-1.715-8.96-.946-2.429-2.208-4.488-4.261-6.54-2.054-2.054-4.108-3.315-6.538-4.258-2.354-.913-5.038-1.535-8.968-1.715-3.938-.179-5.192-.223-15.221-.223h.011zm-3.311 6.653h3.311c9.858 0 11.026.036 14.918.212 3.6.165 5.554.766 6.855 1.272 1.723.669 2.951 1.469 4.242 2.76 1.293 1.293 2.092 2.524 2.763 4.246.505 1.3 1.108 3.254 1.272 6.853.176 3.892.215 5.061.215 14.914 0 9.852-.039 11.021-.215 14.913-.165 3.6-.767 5.553-1.272 6.853-.669 1.722-1.47 2.95-2.763 4.24-1.292 1.293-2.518 2.093-4.242 2.762-1.3.507-3.255 1.107-6.855 1.272-3.891.177-5.06.215-14.918.215-9.857 0-11.026-.038-14.918-.215-3.6-.166-5.553-.768-6.855-1.273-1.723-.67-2.953-1.47-4.245-2.761-1.292-1.292-2.092-2.52-2.763-4.243-.505-1.3-1.108-3.254-1.271-6.853-.177-3.892-.213-5.061-.213-14.92 0-9.858.036-11.021.213-14.913.164-3.6.766-5.553 1.27-6.854.67-1.723 1.472-2.954 2.764-4.246 1.292-1.292 2.522-2.092 4.245-2.763 1.302-.507 3.256-1.107 6.855-1.272 3.406-.154 4.726-.2 11.607-.208v.01zm23.018 6.13a4.43 4.43 0 1 0 4.43 4.429 4.431 4.431 0 0 0-4.43-4.43v.001zm-19.707 5.176c-10.47 0-18.959 8.489-18.959 18.959 0 10.47 8.49 18.955 18.96 18.955S68.958 60.47 68.958 50c0-10.47-8.486-18.959-18.956-18.959zm0 6.653c6.796 0 12.307 5.51 12.307 12.306 0 6.796-5.51 12.306-12.307 12.306-6.796 0-12.306-5.51-12.306-12.306 0-6.797 5.51-12.306 12.306-12.306z" fill="#000"/></g></svg>