<?xml version="1.0" encoding="utf-8"?>
<!-- Generator: Adobe Illustrator 23.0.6, SVG Export Plug-In . SVG Version: 6.00 Build 0)  -->
<svg version="1.1" id="Layer_1" xmlns="http://www.w3.org/2000/svg" xmlns:xlink="http://www.w3.org/1999/xlink" x="0px" y="0px"
	 viewBox="0 0 300 66.9" style="enable-background:new 0 0 300 66.9;" xml:space="preserve">
<style type="text/css">
	.st0{fill:#FFFFFF;}
</style>
<g>
	<path class="st0" d="M80.9,10.9c0,0.7,0.2,1,1.1,1h0.5v0.3h-4.3v-0.3h0.5c0.8,0,1.1-0.3,1.1-1V4.1h-2.4c-0.6,0-0.8,0.3-1,1.5h-0.2
		l0.2-2.2h0.3c0,0.1,0.1,0.1,0.2,0.2c0.1,0,0.2,0,0.3,0h6.6c0.2,0,0.4,0,0.4-0.2h0.3l0.2,2.2h-0.2c-0.2-1.2-0.5-1.5-1-1.5h-2.4V10.9
		z"/>
	<path class="st0" d="M93.1,8.1v2.6c0,0.9,0.2,1.2,1.1,1.2h0v0.3h-3.5v-0.3h0.1c0.8,0,1.1-0.2,1.1-1V4.9c0-0.7-0.2-0.9-1-1V3.6h3.3
		v0.3c-1,0-1.1,0.3-1.1,1.3v2.4h5.4V4.9c0-0.7-0.2-1-1.1-1h-0.3V3.6h3.5v0.3c-0.8,0-1,0.3-1,1.1v5.7c0,1,0.3,1.2,1.1,1.2h0.1v0.3H97
		v-0.3h0.4c0.9,0,1.1-0.3,1.1-1V8.1H93.1z"/>
	<path class="st0" d="M109.5,8.4l-0.8,2.2c-0.1,0.3-0.3,0.7-0.3,0.9c0,0.4,0.4,0.5,1.1,0.5h0.2v0.3h-3.2v-0.3c0.9,0,1-0.2,1.5-1.4
		l2.5-6.8l-0.1-0.3h1.2l2.9,7.6c0.3,0.7,0.6,0.9,1.3,0.9v0.3H112v-0.3h0.4c0.8,0,1.1-0.1,1.1-0.5c0-0.2-0.1-0.4-0.2-0.6l-0.9-2.5
		H109.5z M110.9,4.6l-1.2,3.2h2.4L110.9,4.6z"/>
	<path class="st0" d="M126.9,4.9c0.4-0.8,0.2-1-0.7-1V3.6h3.1v0.3c-0.9,0.1-1.3,0.4-1.7,1.1l-2.3,3.9v2.1c0,0.7,0.3,1,1.1,1h0.2v0.3
		h-3.8v-0.3h0.3c0.9,0,1.1-0.3,1.1-1V9l-2.4-3.8c-0.7-1.1-1-1.3-1.9-1.3V3.6h3.7v0.3c-1.1,0-1.1,0.3-0.7,0.9l2.2,3.4L126.9,4.9z"/>
	<path class="st0" d="M141.3,9.1H141c-0.1-1-0.4-1.1-0.9-1.1h-2.3v2.9c0,0.6,0.2,0.8,0.7,0.8h2.1c1,0,1.3-0.4,1.6-1.6h0.3l-0.2,2.1
		h-7.3v-0.3h0.4c1.1,0,1.3-0.3,1.3-1.1V5c0-0.8-0.2-1.1-1.1-1.1h-0.3V3.6h6.6l0.1,1.9h-0.2c-0.2-1.2-0.5-1.4-1-1.4h-2.9v3.4h2.5
		c0.5,0,0.7-0.2,0.8-1h0.3V9.1z"/>
	<path class="st0" d="M151.6,10.9c0,0.8,0.3,1,1.1,1h0.3v0.3h-3.9v-0.3h0.2c0.8,0,1.1-0.2,1.1-1.1V5c0-0.9-0.2-1.1-1-1.1h-0.3V3.6
		c0.3,0,1.2-0.1,1.7-0.1c0.6,0,0.9,0,1.8,0c2.6,0,3.7,1,3.7,2.5c0,1-0.7,1.9-1.8,2.2c0.5,0.4,0.9,0.8,1.6,1.4l1.1,1.1
		c0.8,0.8,1.7,1.3,2.7,1.4v0.2c-2.4,0.1-3-0.4-4.3-1.6l-0.9-0.9c-0.6-0.6-1.1-1-1.4-1.2c-0.3,0-0.6,0-0.9,0c-0.3,0-0.5,0-0.7,0V10.9
		z M151.6,8.3c0.3,0,0.5,0,0.9,0c1.6,0,2.6-0.6,2.6-2.3c0-1.3-0.6-2.3-2.7-2.3c-0.3,0-0.4,0-0.7,0V8.3z"/>
	<path class="st0" d="M175.8,10.1c0.3,1.2,1.3,1.9,2.3,1.9c0.9,0,1.9-0.5,1.9-1.6c0-2-4.4-2.6-4.4-5c0-1.1,1-2,2.5-2
		c1.2,0,1.4,0.3,1.9,0.3c0.1,0,0.2,0,0.2-0.1h0.2l0.2,1.7h-0.2c-0.4-1-1.3-1.6-2.2-1.6c-0.9,0-1.5,0.5-1.5,1.3c0,2,4.4,2.5,4.4,5
		c0,1.3-1.2,2.4-2.8,2.4c-0.8,0-1.7-0.4-1.9-0.4c-0.1,0-0.2,0.1-0.3,0.2h-0.2l-0.3-2.1H175.8z"/>
	<path class="st0" d="M195.9,5.9c-0.5-1.3-1.6-2.1-3.1-2.1c-2.3,0-3.7,1.7-3.7,4c0,2.5,1.8,4.3,3.9,4.3c1.1,0,2.4-0.4,3.4-2h0.3
		c-0.2,0.6-0.6,1.5-0.9,2c-0.9-0.1-1.5,0.4-3.1,0.4c-2.8,0-4.8-1.8-4.8-4.4c0-2.7,2.1-4.6,4.9-4.6c1.7,0,2.5,0.6,2.9,0.6
		c0.2,0,0.2,0,0.2-0.1h0.2l0.1,2H195.9z"/>
	<path class="st0" d="M205.2,8.1v2.6c0,0.9,0.2,1.2,1.1,1.2h0v0.3h-3.5v-0.3h0.1c0.8,0,1.1-0.2,1.1-1V4.9c0-0.7-0.2-0.9-1-1V3.6h3.3
		v0.3c-1,0-1.1,0.3-1.1,1.3v2.4h5.4V4.9c0-0.7-0.2-1-1.1-1h-0.3V3.6h3.5v0.3c-0.8,0-1,0.3-1,1.1v5.7c0,1,0.3,1.2,1.1,1.2h0.1v0.3
		H209v-0.3h0.4c0.9,0,1.1-0.3,1.1-1V8.1H205.2z"/>
	<path class="st0" d="M224.4,12.4c-2.7,0-5-1.7-5-4.3c0-2.7,2.1-4.7,5-4.7c2.6,0,4.8,1.8,4.8,4.3C229.3,10.5,227.1,12.4,224.4,12.4z
		 M224.1,3.8c-2.4,0-3.4,2.3-3.4,3.9c0,2.6,1.7,4.4,4,4.4c2.2,0,3.3-2,3.3-3.9C228,5.6,226.4,3.8,224.1,3.8z"/>
	<path class="st0" d="M241.1,12.4c-2.7,0-5-1.7-5-4.3c0-2.7,2.1-4.7,5-4.7c2.6,0,4.8,1.8,4.8,4.3C246,10.5,243.8,12.4,241.1,12.4z
		 M240.8,3.8c-2.4,0-3.4,2.3-3.4,3.9c0,2.6,1.7,4.4,4,4.4c2.2,0,3.3-2,3.3-3.9C244.7,5.6,243.1,3.8,240.8,3.8z"/>
	<path class="st0" d="M258.5,12.2h-6.2v-0.3h0.5c0.6,0,0.9-0.2,0.9-0.9V4.9c0-0.7-0.2-1-1.1-1h-0.2V3.6h4.1v0.3h-0.5
		c-0.9,0-1.1,0.1-1.1,1v6.3c0,0.4,0.2,0.5,0.6,0.5h2c0.8,0,1.1-0.3,1.9-1.5h0.2L258.5,12.2z"/>
	<path class="st0" d="M280.8,12.4c-2.7,0-5-1.7-5-4.3c0-2.7,2.1-4.7,5-4.7c2.6,0,4.8,1.8,4.8,4.3C285.7,10.5,283.5,12.4,280.8,12.4z
		 M280.5,3.8c-2.4,0-3.4,2.3-3.4,3.9c0,2.6,1.7,4.4,4,4.4c2.2,0,3.3-2,3.3-3.9C284.4,5.6,282.8,3.8,280.5,3.8z"/>
	<path class="st0" d="M298,8.9h-0.2c0-0.8-0.3-1-1-1h-2.5v3c0,0.8,0.2,1.1,1.2,1.1v0.3h-3.3v-0.3c0.9-0.1,1-0.2,1-1.3V5.2
		c0-0.9-0.1-1.3-1-1.3V3.6h6.2v1.6H298c0-0.8-0.3-1.1-1.1-1.1h-2.6v3.2h2.7c0.5,0,0.8-0.3,0.8-0.9h0.2V8.9z"/>
	<path class="st0" d="M88.7,30h-0.6c-0.2-2.2-0.8-2.4-2.1-2.4h-5.2v6.5c0,1.4,0.5,1.7,1.6,1.7h4.7c2.1,0,2.8-0.8,3.5-3.4h0.6
		l-0.5,4.5H74.7v-0.6h0.9c2.4,0,2.9-0.7,2.9-2.5V20.9c0-1.7-0.4-2.4-2.4-2.4h-0.7v-0.6h14.6l0.2,4.2h-0.6c-0.4-2.6-1.2-3.1-2.3-3.1
		h-6.4v7.5h5.5c1.1,0,1.6-0.5,1.8-2.3h0.6V30z"/>
	<path class="st0" d="M114.2,37L98.4,20.5v13.1c0,2.2,0.5,2.7,3.1,2.7v0.6h-7.1v-0.6h0.1c1.9,0,2.5-0.6,2.5-2v-15
		c-0.7-0.5-1.5-0.7-2.6-0.8v-0.6h4.8l14.4,15V20.7c0-1.9-0.5-2.2-3-2.3v-0.6h7.1v0.6c-2.3,0-2.8,0.4-2.8,1.6v17H114.2z"/>
	<path class="st0" d="M137.1,35.4c-3,1.6-6.9,1.9-8.2,1.9c-6.7,0-9.8-5.2-9.8-9.6c0-4.6,3.2-10.3,10.7-10.3c3.3,0,5.4,1,6.1,1
		c0.3,0,0.5-0.1,0.7-0.2h0.4v4.9h-0.6c-0.8-3.8-3.4-5-6.3-5c-5.4,0-8.1,4.5-8.1,9.4c0,6.3,4.4,9,7.9,9c1.4,0,3-0.3,4.7-1.2v-3.8
		c0-1.7-0.6-2.3-2.4-2.3H131v-0.5h8.2v0.5c-1.5,0.1-2.1,0.6-2.1,1.9V35.4z"/>
	<path class="st0" d="M149.7,36.8h-7.4v-0.6c1.9-0.1,2.3-0.6,2.3-2.6v-13c0-1.6-0.6-2.1-2.3-2.2v-0.6h7.4v0.6
		c-1.9,0-2.6,0.4-2.6,2.5v12.9c0,1.8,0.5,2.4,2.6,2.4V36.8z"/>
	<path class="st0" d="M173.4,37l-15.8-16.5v13.1c0,2.2,0.5,2.7,3.1,2.7v0.6h-7.1v-0.6h0.1c1.9,0,2.5-0.6,2.5-2v-15
		c-0.7-0.5-1.5-0.7-2.6-0.8v-0.6h4.8l14.4,15V20.7c0-1.9-0.5-2.2-3-2.3v-0.6h7.1v0.6c-2.3,0-2.8,0.4-2.8,1.6v17H173.4z"/>
	<path class="st0" d="M194.2,30h-0.6c-0.2-2.2-0.8-2.4-2.1-2.4h-5.2v6.5c0,1.4,0.5,1.7,1.6,1.7h4.7c2.1,0,2.8-0.8,3.5-3.4h0.6
		l-0.5,4.5h-16.2v-0.6h0.9c2.4,0,2.9-0.7,2.9-2.5V20.9c0-1.7-0.4-2.4-2.4-2.4h-0.7v-0.6h14.6l0.2,4.2h-0.5c-0.4-2.6-1.2-3.1-2.3-3.1
		h-6.4v7.5h5.5c1.1,0,1.6-0.5,1.8-2.3h0.6V30z"/>
	<path class="st0" d="M213.6,30H213c-0.2-2.2-0.8-2.4-2.1-2.4h-5.2v6.5c0,1.4,0.5,1.7,1.6,1.7h4.7c2.1,0,2.8-0.8,3.5-3.4h0.5
		l-0.5,4.5h-16.2v-0.6h0.9c2.4,0,2.9-0.7,2.9-2.5V20.9c0-1.7-0.4-2.4-2.4-2.4h-0.7v-0.6h14.6l0.2,4.2h-0.6c-0.4-2.6-1.2-3.1-2.3-3.1
		h-6.4v7.5h5.5c1.1,0,1.6-0.5,1.8-2.3h0.6V30z"/>
	<path class="st0" d="M225.4,34c0,1.8,0.7,2.3,2.4,2.3h0.7v0.6h-8.6v-0.6h0.5c1.8,0,2.4-0.5,2.4-2.5V20.9c0-1.9-0.5-2.4-2.3-2.4
		h-0.7v-0.6c0.7,0,2.6-0.1,3.8-0.2c1.2-0.1,1.9-0.1,3.8-0.1c5.6,0,8.2,2.3,8.2,5.4c0,2.3-1.6,4.2-4.1,4.9c1.1,0.9,2,1.7,3.5,3.2
		l2.4,2.4c1.8,1.8,4,2.6,5.6,2.7v0.6c-4.5,0.2-6.3-0.6-9-3.3l-2-2c-1.3-1.3-2.4-2.2-3.1-2.7c-0.8,0-1.3,0.1-2.1,0.1
		c-0.7,0-1.1,0-1.6-0.1V34z M225.4,28.2c0.7,0.1,1.2,0.1,1.9,0.1c3.4,0,5.6-1.4,5.6-5.1c0-2.8-1.3-5-6-5c-0.6,0-1,0-1.5,0.1V28.2z"
		/>
	<path class="st0" d="M250.6,36.8h-7.4v-0.6c1.9-0.1,2.3-0.6,2.3-2.6v-13c0-1.6-0.6-2.1-2.3-2.2v-0.6h7.4v0.6
		c-1.9,0-2.6,0.4-2.6,2.5v12.9c0,1.8,0.5,2.4,2.6,2.4V36.8z"/>
	<path class="st0" d="M274.7,37l-15.8-16.5v13.1c0,2.2,0.5,2.7,3.1,2.7v0.6h-7.1v-0.6h0.1c1.9,0,2.5-0.6,2.5-2v-15
		c-0.7-0.5-1.5-0.7-2.6-0.8v-0.6h4.8l14.4,15V20.7c0-1.9-0.5-2.2-3-2.3v-0.6h7.1v0.6c-2.3,0-2.8,0.4-2.8,1.6v17H274.7z"/>
	<path class="st0" d="M297.9,35.4c-3,1.6-6.9,1.9-8.2,1.9c-6.7,0-9.8-5.2-9.8-9.6c0-4.6,3.2-10.3,10.7-10.3c3.3,0,5.4,1,6.1,1
		c0.3,0,0.5-0.1,0.7-0.2h0.4v4.9h-0.6c-0.8-3.8-3.4-5-6.3-5c-5.4,0-8.1,4.5-8.1,9.4c0,6.3,4.4,9,7.9,9c1.4,0,3-0.3,4.7-1.2v-3.8
		c0-1.7-0.6-2.3-2.4-2.3h-1.1v-0.5h8.2v0.5c-1.5,0.1-2.1,0.6-2.1,1.9V35.4z"/>
	<path class="st0" d="M78.5,51l-1.4,3.7c-0.2,0.5-0.5,1.2-0.5,1.5c0,0.6,0.6,0.9,1.9,0.9h0.4v0.5h-5.5v-0.5c1.5,0,1.8-0.3,2.6-2.4
		l4.3-11.8l-0.2-0.5h2.1l5,13.2c0.5,1.3,1,1.5,2.2,1.5v0.5h-6.6v-0.5h0.6c1.4,0,1.9-0.1,1.9-0.8c0-0.4-0.2-0.7-0.3-1L83.4,51H78.5z
		 M80.9,44.4l-2,5.6H83L80.9,44.4z"/>
	<path class="st0" d="M98.5,55.4c0,1.3,0.4,1.7,1.9,1.7h0.9v0.5h-7.5v-0.5h0.9c1.5,0,1.9-0.5,1.9-1.7V43.6h-4.1
		c-1,0-1.4,0.5-1.7,2.6h-0.4l0.4-3.9h0.5c0,0.1,0.1,0.2,0.3,0.3c0.1,0,0.3,0.1,0.5,0.1h11.5c0.3,0,0.7-0.1,0.7-0.4h0.5l0.4,3.9h-0.4
		c-0.4-2.1-0.8-2.6-1.7-2.6h-4.1V55.4z"/>
	<path class="st0" d="M120.6,45.2c0-1.5-0.4-1.9-1.8-1.9h-0.5v-0.5c0.9,0,2-0.1,3.4-0.1c1.3,0,2.8-0.1,4-0.1c6.3,0,9.1,3.2,9.1,7.1
		c0,3.6-2.8,7.9-8.8,7.9h-7.6v-0.5h0.4c1.3,0,1.9-0.4,1.9-1.7V45.2z M122.6,55.8c0,1,0.1,1.3,2,1.3c3.2,0,4.5-0.5,6-1.9
		c0.9-0.9,2-2.7,2-5.1c0-1.8-0.5-3.7-1.9-5.1c-1.1-1.1-2.8-1.9-6.1-1.9c-1,0-1.6,0.1-1.9,0.1V55.8z"/>
	<path class="st0" d="M142.9,51l-1.4,3.7c-0.2,0.5-0.5,1.2-0.5,1.5c0,0.6,0.6,0.9,1.9,0.9h0.4v0.5h-5.5v-0.5c1.5,0,1.8-0.3,2.6-2.4
		l4.3-11.8l-0.2-0.5h2.1l5,13.2c0.5,1.3,1,1.5,2.2,1.5v0.5h-6.5v-0.5h0.6c1.4,0,1.9-0.1,1.9-0.8c0-0.4-0.2-0.7-0.3-1l-1.6-4.3H142.9
		z M145.3,44.4l-2,5.6h4.1L145.3,44.4z"/>
	<path class="st0" d="M161.7,55.4c0,1.4,0.6,1.8,1.9,1.8h0.5v0.5h-6.7v-0.5h0.4c1.4,0,1.9-0.4,1.9-2v-10c0-1.5-0.4-1.9-1.8-1.9h-0.5
		v-0.5c0.6,0,2-0.1,3-0.1c1,0,1.5-0.1,3-0.1c4.4,0,6.4,1.8,6.4,4.2c0,1.8-1.2,3.3-3.2,3.9c0.9,0.7,1.6,1.4,2.7,2.5l1.9,1.9
		c1.4,1.4,2.9,2.3,4.7,2.4v0.4c-4.2,0.2-5.2-0.7-7.4-2.8l-1.6-1.6c-1-1-1.9-1.7-2.5-2.1c-0.6,0-1,0-1.6,0c-0.5,0-0.8,0-1.2,0V55.4z
		 M161.7,50.9c0.6,0.1,0.9,0,1.5,0c2.6,0,4.4-1.1,4.4-4c0-2.2-1-3.9-4.7-3.9c-0.5,0-0.8,0-1.2,0V50.9z"/>
	<path class="st0" d="M184.8,55.4c0,1.3,0.4,1.7,1.9,1.7h0.9v0.5H180v-0.5h0.9c1.5,0,1.9-0.5,1.9-1.7V43.6h-4.1
		c-1,0-1.4,0.5-1.7,2.6h-0.4l0.4-3.9h0.5c0,0.1,0.1,0.2,0.3,0.3c0.1,0,0.3,0.1,0.5,0.1h11.5c0.3,0,0.7-0.1,0.7-0.4h0.5l0.4,3.9h-0.4
		c-0.4-2.1-0.8-2.6-1.7-2.6h-4.1V55.4z"/>
	<path class="st0" d="M204.9,57.6l-6.1-12.7h0l-0.6,10.7c-0.1,1.2,0.8,1.5,1.9,1.5v0.5h-5v-0.5c1.7,0,2-0.4,2.1-2.5l0.6-9.3
		c0.1-1.6,0-2-1.4-2.1v-0.4h3.6l5.7,12l5.7-12h3.5v0.4c-1.2,0.1-1.6,0.1-1.6,0.9l0.8,10.8c0.1,2.2,0.3,2.2,2.1,2.2v0.5H210v-0.5
		c1.1,0,2.2-0.3,2.1-1.6l-0.7-10.7h0l-5.9,12.7H204.9z"/>
	<path class="st0" d="M228.2,58c-4.7,0-8.6-3-8.6-7.5c0-4.7,3.6-8.1,8.7-8.1c4.5,0,8.4,3.1,8.4,7.4C236.6,54.6,232.8,58,228.2,58z
		 M227.7,43c-4.2,0-5.9,3.9-5.9,6.8c0,4.5,3,7.6,6.9,7.6c3.9,0,5.7-3.4,5.7-6.8C234.4,46.1,231.6,43,227.7,43z"/>
	<path class="st0" d="M258.9,42.8v0.5c-1.6,0-2.2,0.7-2.2,2.2v6.4c0,3-1.9,6.1-7.1,6.1c-4.5,0-6.9-2.6-6.9-6v-7c0-1.5-0.4-1.8-2-1.8
		v-0.5h6.1v0.5h-0.2c-1.3,0-1.9,0.4-1.9,1.7v6.6c0,3.2,1.9,5.1,5.4,5.1c2.7,0,5.4-1.1,5.4-5.2V46c0-2.3-0.4-2.7-2.3-2.8v-0.5H258.9z
		"/>
	<path class="st0" d="M271.5,55.4c0,1.3,0.4,1.7,1.9,1.7h0.9v0.5h-7.5v-0.5h0.9c1.5,0,1.9-0.5,1.9-1.7V43.6h-4.1
		c-1,0-1.4,0.5-1.7,2.6h-0.4l0.4-3.9h0.5c0,0.1,0.1,0.2,0.3,0.3c0.1,0,0.3,0.1,0.5,0.1h11.5c0.3,0,0.7-0.1,0.7-0.4h0.5l0.4,3.9h-0.4
		c-0.4-2.1-0.8-2.6-1.7-2.6h-4.1V55.4z"/>
	<path class="st0" d="M286.1,50.5V55c0,1.5,0.3,2.1,1.9,2.1h0.1v0.5h-6v-0.5h0.1c1.4,0,1.9-0.4,1.9-1.7V44.9c0-1.2-0.4-1.6-1.7-1.7
		v-0.5h5.7v0.5c-1.7,0-2,0.5-2,2.3v4.1h9.3V45c0-1.3-0.4-1.7-1.9-1.7h-0.5v-0.5h6.1v0.5c-1.4,0-1.8,0.5-1.8,2v9.9
		c0,1.7,0.5,2.1,1.9,2.1h0.2v0.5h-6.7v-0.5h0.7c1.5,0,1.9-0.5,1.9-1.8v-4.8H286.1z"/>
	<polygon class="st0" points="56.7,19.6 7.3,37 4.6,43.8 56.7,20.2 	"/>
	<polygon class="st0" points="56.7,22.6 19.5,51.1 25.5,52.7 56.7,23.8 	"/>
	<polygon class="st0" points="56.7,25.9 42.2,50.7 47.4,51.4 56.7,26.5 	"/>
	<polygon class="st0" points="56.7,17.3 1.4,17.3 1.5,21.9 56.7,18 	"/>
	<g>
		<path class="st0" d="M51,50.5c-7.5-1.9-12.2-0.6-16.3,0.4c-2.1,0.6-4,1-6,1c-2,0-3.8-0.5-6-1c-4.1-1.1-8.8-2.3-16.2-0.5l0.5,2.2
			c6.8-1.7,11.2-0.5,15.1,0.5c2.2,0.6,4.3,1.1,6.5,1.1c2.3,0,4.3-0.5,6.5-1.1c3.9-1,8.3-2.2,15.2-0.4L51,50.5z"/>
	</g>
	<g>
		<path class="st0" d="M45.9,54.7c-5-0.7-8.6,0.2-11.7,1.1c-2,0.5-3.7,1-5.5,1c-1.8,0-3.5-0.4-5.5-1c-3.2-0.8-6.9-1.8-12.2-1
			l0.3,2.1c4.9-0.7,8.2,0.1,11.4,0.9c2,0.5,3.9,1,6,1c2.1,0,4-0.5,6-1c3.1-0.8,6.3-1.6,10.9-1L45.9,54.7z"/>
	</g>
	<path class="st0" d="M13.6,50.9v-6.7H3.3C8.6,33.3,14.6,10,15.9,2.6c1.2,7.5,7.4,31,12.6,41.6H18.2v6.7H13.6z"/>
	<g>
		<path class="st0" d="M23.9,8.5h-1.2V7.7l2.4-0.4v5.8h-1.2V8.5z"/>
		<path class="st0" d="M34.2,7.6c0.2,0.2,0.3,0.5,0.3,0.9V9c0,0.3-0.1,0.6-0.2,0.7c-0.2,0.2-0.4,0.3-0.9,0.4c0.4,0,0.7,0.2,0.9,0.3
			c0.2,0.2,0.3,0.5,0.3,0.8v0.6c0,0.5-0.1,0.8-0.3,1c-0.2,0.2-0.6,0.3-1.1,0.3h-3.7c-0.5,0-0.9-0.1-1.1-0.3c-0.2-0.2-0.3-0.5-0.3-1
			v-0.6c0-0.3,0.1-0.6,0.3-0.8c0.2-0.2,0.5-0.3,0.9-0.3c-0.4-0.1-0.7-0.2-0.9-0.4c-0.2-0.2-0.2-0.4-0.2-0.7V8.5
			c0-0.4,0.1-0.7,0.3-0.9c0.2-0.2,0.5-0.2,1-0.2h3.6C33.6,7.4,34,7.5,34.2,7.6z M29.9,10.6c-0.2,0-0.4,0-0.4,0.1
			c-0.1,0.1-0.1,0.2-0.1,0.4v0.4c0,0.2,0,0.3,0.1,0.4c0.1,0.1,0.2,0.1,0.4,0.1h2.9c0.2,0,0.4,0,0.4-0.1c0.1-0.1,0.1-0.2,0.1-0.4
			v-0.4c0-0.2,0-0.4-0.1-0.4c-0.1-0.1-0.2-0.1-0.4-0.1H29.9z M30,8.4c-0.2,0-0.4,0-0.4,0.1c-0.1,0.1-0.1,0.2-0.1,0.4v0.3
			c0,0.2,0,0.3,0.1,0.4c0.1,0.1,0.2,0.1,0.4,0.1h2.7c0.2,0,0.4,0,0.4-0.1c0.1-0.1,0.1-0.2,0.1-0.4V8.9c0-0.2,0-0.4-0.1-0.4
			c-0.1-0.1-0.2-0.1-0.4-0.1H30z"/>
		<path class="st0" d="M39.3,9.5c0.4,0,0.8-0.1,1.2-0.1c0.9,0,1.6,0.1,1.9,0.3c0.3,0.2,0.5,0.6,0.5,1.2v0.8c0,0.5-0.2,0.8-0.5,1.1
			c-0.3,0.2-0.8,0.3-1.5,0.3h-2.4c-0.7,0-1.2-0.1-1.5-0.4c-0.3-0.3-0.4-0.7-0.4-1.4v-0.8c0-1.1,0.4-1.9,1.1-2.5
			c0.7-0.6,1.8-0.9,3.1-0.9c0.1,0,0.1,0,0.2,0c0.1,0,0.1,0,0.2,0l0.8,0.9h-0.4c-1.2,0-2.1,0.1-2.6,0.3c-0.5,0.2-0.9,0.6-1.1,1.1
			C38.4,9.6,38.9,9.6,39.3,9.5z M37.9,10.7c0,0,0,0.1,0,0.2c0,0.6,0.1,0.9,0.2,1c0.1,0.1,0.5,0.2,1,0.2h1.6c0.4,0,0.7,0,0.8-0.1
			c0.1-0.1,0.2-0.3,0.2-0.5v-0.3c0-0.3-0.1-0.5-0.3-0.5c-0.2-0.1-0.5-0.1-1-0.1c-0.4,0-0.8,0-1.2,0c-0.4,0-0.9,0.1-1.3,0.1
			C37.9,10.6,37.9,10.6,37.9,10.7z"/>
		<path class="st0" d="M49.1,8.4h-3.8v1.2l-1.2-0.2v-2h6.4v0.9l-3,4.9H46L49.1,8.4z"/>
	</g>
	<path class="st0" d="M0,0v39.3c0,13,17,23.9,28.8,27.6c11.8-3.6,28.8-14.6,28.8-27.6V0L0,0z M55.2,39.3c0,9.6-10.8,16.8-20.6,21
		c-1.3,0.5-4.1,1-5.8,1c-1.8,0-4.8-0.7-5.9-1.1h0C13.1,56.1,2.4,48.8,2.4,39.3c0,0,0-32.6,0-34.6c3.5-0.6,15.4-2.9,26.3-2.9
		c10.9,0,23.1,2.1,26.6,2.9C55.2,6.7,55.2,39.3,55.2,39.3z"/>
</g>
</svg>
