<svg width="90" height="90" xmlns="http://www.w3.org/2000/svg"><path d="M45 0C20.147 0 0 20.147 0 45s20.147 45 45 45 45-20.147 45-45A45 45 0 0 0 45 0zm27.215 60.34a3.15 3.15 0 0 1-3.007 1.944 4.09 4.09 0 0 1-1.463-.337l-19.063-7.313-2.71-1.023a4.756 4.756 0 0 1-2.496.696 4.858 4.858 0 0 1-4.858-4.817 4.98 4.98 0 0 1 1.493-3.56V14.227a3.406 3.406 0 0 1 3.069-3.62 3.406 3.406 0 0 1 3.068 3.62v31.418a4.807 4.807 0 0 1 1.646 2.138l1.197.388 20.884 7.896a3.447 3.447 0 0 1 2.24 4.275z" fill="#87AE34"/></svg>