<svg width="90" height="90" xmlns="http://www.w3.org/2000/svg"><g fill="#267ABA"><path d="M67.94 52.466a3.23 3.23 0 0 1-4.267 1.698 3.26 3.26 0 0 1-1.7-4.281c3.646-8.438-.248-18.23-8.686-21.862a16.583 16.583 0 0 0-15.454 1.2c-1.534.939-3.537.498-4.49-1.035a3.247 3.247 0 0 1 1.01-4.49 23.154 23.154 0 0 1 21.503-1.656c11.738 5.055 17.152 18.685 12.083 30.426z"/><path d="M85.88 60.2a3.254 3.254 0 0 1-4.282 1.698 3.27 3.27 0 0 1-1.698-4.28c7.913-18.342-.539-39.611-18.88-47.539a36.202 36.202 0 0 0-33.603 2.611 3.262 3.262 0 0 1-4.489-1.023 3.261 3.261 0 0 1 1.023-4.489A42.692 42.692 0 0 1 63.603 4.1c21.642 9.35 31.613 34.459 22.278 56.1zM66.835 82.448l-3.852 3.388-4.573 2.177-6.02 1.244-7.059-.056-5.127-.943-6.605-2.197-3.458-1.63-5.88-3.444-5.97-4.518-4.761-4.54-4.296-5.085-3.178-4.677-2.428-4.706-1.44-3.678-1.38-5.306-.432-6.02.333-3.846.773-3.153 1.249-2.884 2.176-3.16 27.955 23.947 9.612-7.002a5.258 5.258 0 0 1-.414-5.442c1.325-2.555 4.446-3.563 7.002-2.252 2.554 1.313 3.576 4.448 2.25 7.003-1.297 2.555-4.433 3.564-6.987 2.25l-5.442 10.595 27.952 23.935a18.455 18.455 0 0 1-8.425 5.565 31.068 31.068 0 0 1-13.079 1.188 43.726 43.726 0 0 1-13.3-3.84 60.663 60.663 0 0 1-13.742-8.893A61.222 61.222 0 0 1 7.377 64.26a44.078 44.078 0 0 1-5.842-12.553 31.077 31.077 0 0 0 0 0c1.27 4.46 3.245 8.7 5.842 12.553a61.219 61.219 0 0 0 10.91 12.21 60.663 60.663 0 0 0 13.743 8.893 43.726 43.726 0 0 0 13.3 3.84c4.392.538 8.84.14 13.079-1.188a18.455 18.455 0 0 0 8.425-5.565"/></g></svg>