<svg width="100" height="100" xmlns="http://www.w3.org/2000/svg"><path d="M14.286 71.429C6.396 71.429 0 77.825 0 85.714 0 93.604 6.396 100 14.286 100c7.889 0 14.285-6.396 14.285-14.286 0-7.889-6.396-14.285-14.285-14.285zM10.714 0C4.796 0 0 4.796 0 10.714S4.796 21.43 10.714 21.43c37.418 0 67.857 30.439 67.857 67.857 0 5.918 4.797 10.714 10.715 10.714S100 95.204 100 89.286C100 40.054 59.946 0 10.714 0zm0 35.714C4.796 35.714 0 40.511 0 46.43c0 5.917 4.796 10.714 10.714 10.714 17.725 0 32.143 14.421 32.143 32.143 0 5.918 4.797 10.714 10.714 10.714 5.918 0 10.715-4.796 10.715-10.714 0-29.54-24.032-53.572-53.572-53.572z" fill="#F5E74B"/></svg>