<svg width="100" height="82" xmlns="http://www.w3.org/2000/svg"><path d="M31.448 81.706c37.736 0 58.376-31.264 58.376-58.376 0-.888 0-1.772-.06-2.652A41.744 41.744 0 0 0 100 10.058a40.952 40.952 0 0 1-11.784 3.228 20.588 20.588 0 0 0 9.02-11.348 41.116 41.116 0 0 1-13.028 4.98A20.536 20.536 0 0 0 49.244 25.63 58.248 58.248 0 0 1 6.96 4.194c-5.446 9.375-2.664 21.368 6.352 27.388A20.364 20.364 0 0 1 4 29.014v.26a20.524 20.524 0 0 0 16.46 20.112c-3.02.824-6.19.944-9.264.352a20.54 20.54 0 0 0 19.168 14.248A41.168 41.168 0 0 1 0 72.49a58.084 58.084 0 0 0 31.448 9.2" fill="#267ABA"/></svg>